<svg width="18" height="24" viewBox="0 0 18 24" fill="none" xmlns="http://www.w3.org/2000/svg">
<path d="M5.8637 19.434C6.61606 18.6144 6.76264 17.6021 6.76972 16.5727C6.79096 13.4001 6.78105 10.2272 6.77362 7.05425C6.77078 5.9092 7.13298 4.94189 7.97739 4.17828C8.92696 3.31959 9.87405 2.45797 10.8133 1.58794C12.7419 -0.198568 15.4128 0.671463 16.0122 3.28155C16.3727 4.85119 16.0413 6.30344 15.3272 7.68986C14.6828 8.94169 13.7566 9.93497 12.6438 10.7512C12.5879 10.7922 12.534 10.8364 12.4455 10.9056C13.0474 10.9908 13.6075 11.0489 14.1588 11.1561C14.5302 11.2285 14.8991 11.3426 15.251 11.4863C17.1318 12.2554 18.0888 13.9157 17.9935 16.0234C17.8469 19.2658 16.1496 21.3906 13.4705 22.7781C11.9067 23.5878 10.2345 24.088 8.45182 23.9871C8.07759 23.9659 7.67503 23.9092 7.34399 23.7435C5.4137 22.7781 3.51138 23.0147 1.60694 23.8054C1.50816 23.8463 1.40831 23.884 1.30847 23.9213C1.29997 23.9246 1.28687 23.9143 1.24156 23.8975C1.8222 23.0447 2.48711 22.2884 3.26178 21.637C4.42307 20.661 5.71713 20.006 7.23707 19.9014C8.4196 19.8202 9.52495 20.1153 10.5885 20.6211C10.716 20.6818 10.841 20.748 11.0237 20.8402C11.0237 20.654 11.0237 20.5136 11.0237 20.3731C11.0237 16.0321 11.0212 11.6908 11.0268 7.34974C11.0276 6.83884 11.0892 6.32063 10.4823 6.05731C10.7648 5.77425 10.9999 5.53837 11.2269 5.31053C11.4549 5.54532 11.6797 5.77645 11.9169 6.02074C11.9183 6.0116 11.9226 6.04525 11.9098 6.05439C11.451 6.38865 11.3745 6.85384 11.3943 7.4035C11.4305 8.41068 11.4046 9.42004 11.4046 10.4283C11.4046 10.5592 11.4046 10.6902 11.4046 10.8211C11.445 10.8438 11.485 10.8664 11.5253 10.8895C11.7934 10.5603 12.1014 10.2572 12.3213 9.89693C12.938 8.88793 13.0874 7.74069 13.1409 6.57846C13.1823 5.67551 13.0934 4.78317 12.7978 3.92777C12.6955 3.63118 12.5556 3.33349 12.3719 3.08407C11.7835 2.28572 10.7358 2.3168 10.2624 3.19232C10.0298 3.62277 9.89104 4.16585 9.88573 4.65993C9.85174 7.84455 9.83369 11.0306 9.87617 14.2149C9.90521 16.3755 8.78074 18.2078 6.72511 19.1052C6.44399 19.2277 6.15119 19.325 5.8637 19.434ZM11.4432 11.5807C11.4266 11.6589 11.4085 11.705 11.4085 11.7511C11.4067 14.7854 11.4043 17.8201 11.4082 20.8544C11.4085 21.2029 11.7912 21.4216 12.0869 21.2479C12.7872 20.8372 13.3207 20.2506 13.7145 19.532C14.4034 18.2739 14.6173 16.9051 14.5387 15.4821C14.4856 14.521 14.225 13.6192 13.6536 12.8417C13.1019 12.0919 12.3627 11.6801 11.4432 11.5807Z" fill="#803C00"/>
<path d="M6.20637 5.83787C5.94309 6.66738 5.92021 7.50537 5.92127 8.34829C5.92514 10.8276 5.891 13.3077 5.93183 15.7864C5.97019 18.0945 4.83999 19.5799 2.82666 20.5036C2.62287 20.5972 2.41133 20.6731 2.20225 20.7546C2.18395 20.7617 2.15825 20.7504 2.09736 20.7429C2.86221 20.0447 2.88932 19.1337 2.88967 18.2152C2.89037 17.0765 2.88967 15.9374 2.88967 14.7987C2.88967 14.6695 2.88967 14.5407 2.88967 14.4178C2.12306 14.277 1.71757 14.6681 1.17165 16.0903C0.698945 14.6925 0.337462 13.3575 0.925268 11.9706C1.24592 11.2138 1.79325 10.8725 2.88967 10.684C2.88967 10.4044 2.89354 10.1132 2.88896 9.822C2.87876 9.19086 3.06812 8.61903 3.47255 8.14568C4.255 7.23039 5.20041 6.50184 6.20637 5.83787Z" fill="#803C00"/>
<path d="M0 3.61366C0.631834 1.94257 1.3877 0.418529 3.22685 0.0449683C3.80518 -0.0726766 4.34452 0.0476418 4.85375 0.322656C5.2354 0.528916 5.62591 0.743198 5.9544 1.0312C6.93458 1.89024 7.95444 1.85548 9.02357 1.28253C9.10826 1.23708 9.19295 1.19162 9.29253 1.13815C9.29926 1.18628 9.3184 1.22791 9.30635 1.24968C8.7546 2.23744 8.1047 3.13391 7.21666 3.80006C5.90373 4.78476 4.76267 4.78552 3.44585 3.81342C3.38703 3.76988 3.32926 3.72443 3.27221 3.67821C2.14923 2.76914 1.36608 2.72903 0.152731 3.51855C0.102412 3.55102 0.0510286 3.58196 0 3.61366Z" fill="#803C00"/>
</svg>
