<svg width="613" height="131" viewBox="0 0 613 131" fill="none" xmlns="http://www.w3.org/2000/svg">
<g clip-path="url(#clip0_1853_9449)">
<path d="M87.9274 23.4366C83.7619 26.9374 83.2445 27.5247 80.1386 32.1994C77.0149 27.5247 76.5028 26.9374 72.3408 23.4366C76.5028 19.9385 77.0149 19.3574 80.1386 14.6827C83.2534 19.3574 83.7619 19.9385 87.9274 23.4366Z" fill="#3D3D3D"/>
<path d="M88.4091 77.2443C87.6234 76.717 87.1121 76.0607 86.7685 75.4052C86.492 74.9871 86.3415 74.415 86.2395 73.8787C86.0589 72.9663 86.1492 72.2724 86.1492 72.2724V33.2058L72.5879 44.7065C73.9122 46.1149 74.1018 47.842 74.1169 48.5118C74.1284 48.6881 74.1169 48.8037 74.1169 48.8037V73.4284C74.1169 80.9716 79.3897 84.8933 79.3897 84.8933L88.4091 77.2443Z" fill="#3D3D3D"/>
<path d="M189.021 23.4366C184.871 26.9374 184.346 27.5247 181.226 32.1994C178.118 27.5247 177.597 26.9374 173.429 23.4366C177.597 19.9385 178.118 19.3574 181.226 14.6827C184.346 19.3574 184.871 19.9385 189.021 23.4366Z" fill="#3D3D3D"/>
<path d="M189.502 77.2443C188.729 76.717 188.209 76.0607 187.865 75.4052C187.585 74.9871 187.423 74.415 187.341 73.8787C187.17 72.9663 187.232 72.2724 187.232 72.2724V33.2058L173.679 44.7065C174.999 46.1149 175.195 47.842 175.222 48.5118C175.228 48.6881 175.222 48.8037 175.222 48.8037V73.4284C175.222 80.9716 180.492 84.8933 180.492 84.8933L189.502 77.2443Z" fill="#3D3D3D"/>
<path d="M106.026 42.5254C106.026 42.5254 106.948 46.5285 112.181 46.5285C112.181 46.5285 115.232 46.644 118.55 43.2623L124.475 37.2545C121.718 38.705 119.04 38.7722 117.244 38.5626C116.729 38.5232 115.985 38.4166 115.112 38.106C115.067 38.0908 115.028 38.0791 115.028 38.0791H115.037C113.563 37.5401 111.802 36.4362 110.423 34.1244L98.7071 44.0834C98.7071 44.0834 95.827 46.7228 95.827 51.1879C95.827 51.1879 95.3664 58.8834 105.145 63.6529C105.145 63.6529 110.571 66.2754 113.849 68.5738C113.849 68.5738 115.993 70.0045 115.993 72.4246C115.993 72.4246 116.15 76.117 111.989 76.117C111.989 76.117 105.223 76.5047 105.033 66.3488L94.1421 75.4697C94.1421 75.4697 96.6695 84.8207 105.374 84.8207C105.374 84.8207 114.242 85.0723 121.038 75.7347C121.038 75.7347 124.428 71.2768 124.428 66.8592C124.428 66.8592 125.008 59.2658 115.061 54.8544C115.061 54.8544 110.724 53.0762 106.785 50.2218C106.785 50.2218 104.299 48.7249 104.299 45.9161C104.299 45.9161 104.04 44.2561 106.026 42.5254Z" fill="#3D3D3D"/>
<path d="M207.334 42.5254C207.334 42.5254 208.255 46.5285 213.488 46.5285C213.488 46.5285 216.541 46.644 219.871 43.2623L225.786 37.2545C223.026 38.705 220.349 38.7722 218.56 38.5626C218.039 38.5232 217.296 38.4166 216.426 38.106C216.378 38.0908 216.341 38.0791 216.341 38.0791C214.876 37.5401 213.11 36.4362 211.739 34.1244L200.015 44.0834C200.015 44.0834 197.135 46.7228 197.135 51.1879C197.135 51.1879 196.674 58.8834 206.467 63.6529C206.467 63.6529 211.882 66.2754 215.17 68.5738C215.17 68.5738 217.311 70.0045 217.311 72.4246C217.311 72.4246 217.459 76.117 213.295 76.117C213.295 76.117 206.53 76.5047 206.342 66.3488L195.468 75.4697C195.468 75.4697 197.98 84.8207 206.684 84.8207C206.684 84.8207 215.545 85.0723 222.346 75.7347C222.346 75.7347 225.743 71.2768 225.743 66.8592C225.743 66.8592 226.317 59.2658 216.363 54.8544C216.363 54.8544 212.032 53.0762 208.105 50.2218C208.105 50.2218 205.624 48.7249 205.624 45.9161C205.624 45.9161 205.351 44.2561 207.334 42.5254Z" fill="#3D3D3D"/>
<path d="M12.7427 37.0512C12.7427 37.0512 12.36 36.9966 11.7735 36.9966C9.77761 36.9966 3.2627 37.7388 3.2627 47.3145C3.2689 47.4864 3.44253 51.6946 4.87858 55.4936L5.43227 56.9386L5.68209 55.4175C5.71842 55.2106 6.58482 50.3381 11.1986 50.3381C11.5964 50.3381 12.0207 50.3749 12.454 50.4474L12.9323 50.5298L13.1121 37.1067L12.7427 37.0512Z" fill="#3D3D3D"/>
<path d="M44.3466 20.0539L41.7252 22.6952L39.1162 20.0539L41.7252 17.4072L44.3466 20.0539Z" fill="#3D3D3D"/>
<path d="M40.9648 75.4795V21.1239H42.3292V75.4795H40.9648Z" fill="#3D3D3D"/>
<path d="M160.726 38.14L155.913 33.2549L144.22 43.067C144.22 35.6035 140.058 33.2156 140.058 33.2156L130.118 41.4491C131.211 42.7026 131.532 44.034 131.626 44.8407C131.698 45.2687 131.659 45.6224 131.659 45.6224V72.7611C131.659 81.4344 136.848 84.8403 136.848 84.8403L146.246 77.0964C145.193 76.3676 144.682 75.551 144.432 74.8966C144.26 74.5421 144.2 74.1428 144.188 73.9036C144.179 73.7694 144.179 73.6816 144.179 73.6816V46.284C146.571 44.4414 148.611 44.5425 148.611 44.5425C152.942 44.5425 152.837 48.0864 152.837 48.0864V86.1735C152.837 86.1735 164.92 81.8087 164.92 72.4496V48.2986C164.92 42.2559 160.726 38.14 160.726 38.14Z" fill="#3D3D3D"/>
<path d="M22.5029 25.9248C22.5029 25.9248 22.5029 25.6786 22.5269 25.2711C22.5269 25.2318 22.5331 25.1888 22.5331 25.1521C22.5871 23.8287 22.8493 21.0791 23.8061 18.9598C18.5545 22.3846 14.3952 26.7154 14.3535 26.7646C11.337 29.9153 11.4584 33.3705 11.4734 33.4958V65.7032C11.4734 70.5184 9.66445 72.464 9.62546 72.4926L8.25586 73.885L10.0799 73.1884C22.9511 68.247 22.5117 57.3631 22.5029 57.2807V25.9248Z" fill="#3D3D3D"/>
<path d="M46.0289 37.4648H45.7313C59.6054 28.2606 59.4699 15.6354 59.4699 15.51C59.4699 1.29372 48.5476 1.12988 48.4306 1.12988C43.528 1.12988 40.6055 4.14361 40.5098 4.24389L28.8956 14.586C25.0978 18.9723 25.6302 23.7687 25.6488 23.9173V56.798C25.6488 63.5785 23.093 66.1293 23.0779 66.1472L21.6906 67.4679L23.4908 66.8555C37.1779 62.2229 36.7686 50.4527 36.7686 50.3543V15.8878C36.7686 12.5482 37.6599 10.0968 39.351 8.7851C40.6391 7.78499 41.9449 7.77514 42.0052 7.77514C43.2933 7.77514 44.4219 8.25953 45.3521 9.20501C48.6114 12.5116 48.6025 20.3978 48.6025 20.4801C48.6025 35.2389 41.6287 37.6108 41.5622 37.635L41.2654 37.7209V39.4695L41.6562 39.5C53.7 40.4249 53.7 53.9633 53.7 54.54C53.7 69.2281 45.322 73.4461 43.9612 74.0398C38.8177 70.5873 33.6777 68.8414 28.6698 68.8414C16.6462 68.8414 8.40032 78.9785 5.42725 83.32C8.91504 81.6591 12.1716 80.8596 14.5131 80.4657C15.3502 80.2991 16.1891 80.2069 17.0378 80.1612C17.7094 80.1048 18.0947 80.1004 18.0947 80.1004C20.9358 80.1004 23.8699 80.7701 26.8404 82.0719L26.9423 82.1212C28.6281 82.9323 30.7047 83.3397 33.1213 83.3397C40.1935 83.3397 47.8495 79.9195 48.1507 79.7735C60.9139 74.5339 64.6887 63.3735 64.7215 63.2482C64.8144 62.9536 64.8659 62.7762 64.8659 62.7584C66.0423 58.5655 66.0547 54.5454 66.0547 54.3824C66.0547 38.6878 50.7384 37.4648 46.0289 37.4648Z" fill="#3D3D3D"/>
<path d="M28.7111 5.64874C28.3293 5.72753 27.9254 5.7705 27.5161 5.79469C27.3301 5.8099 27.2033 5.8099 27.2033 5.8099C27.2033 5.8099 27.1316 5.81886 27.0527 5.81886C26.6045 5.81886 24.9283 5.66127 22.1112 3.63511C21.9216 3.49185 17.4159 0.00984853 13.8324 0.00984853C13.8324 0.00984853 13.7509 0 13.5968 0C12.3876 0 8.19812 0.319639 4.56238 4.42928C4.43659 4.57164 1.70979 7.99723 0.114281 12.192L0 12.4829C3.69598 9.72526 6.63628 9.94999 6.63628 9.94999C6.63628 9.94999 9.14604 9.97416 11.7107 12.0272C11.864 12.158 15.6016 15.2603 19.0841 15.2603C19.0841 15.2603 19.255 15.2881 19.5713 15.2881C21.4583 15.2881 28.0795 14.4204 34.3508 3.45604C32.2902 4.85189 30.1162 5.42401 28.7111 5.64874Z" fill="#3D3D3D"/>
<path d="M567.652 23.4366C563.499 26.9374 562.979 27.5247 559.859 32.1994C556.74 27.5247 556.211 26.9374 552.061 23.4366C556.211 19.9385 556.739 19.3574 559.859 14.6827C562.979 19.3574 563.5 19.9385 567.652 23.4366Z" fill="#3D3D3D"/>
<path d="M568.135 77.2443C567.353 76.717 566.832 76.0607 566.492 75.4052C566.218 74.9871 566.05 74.415 565.969 73.8787C565.793 72.9663 565.871 72.2724 565.871 72.2724V33.2058L552.311 44.7065C553.623 46.1149 553.822 47.842 553.85 48.5118C553.857 48.6881 553.85 48.8037 553.85 48.8037V73.4284C553.85 80.9716 559.118 84.8933 559.118 84.8933L568.135 77.2443Z" fill="#3D3D3D"/>
<path d="M527.872 42.5254C527.872 42.5254 528.793 46.5285 534.02 46.5285C534.02 46.5285 537.079 46.644 540.398 43.2623L546.324 37.2545C543.57 38.705 540.888 38.7722 539.092 38.5626C538.581 38.5232 537.826 38.4166 536.954 38.106C536.917 38.0908 536.881 38.0791 536.881 38.0791C535.415 37.5401 533.646 36.4362 532.268 34.1244L520.559 44.0834C520.559 44.0834 517.678 46.7228 517.678 51.1879C517.678 51.1879 517.219 58.8834 526.998 63.6529C526.998 63.6529 532.423 66.2754 535.7 68.5738C535.7 68.5738 537.846 70.0045 537.846 72.4246C537.846 72.4246 538.004 76.117 533.841 76.117C533.841 76.117 527.072 76.5047 526.883 66.3488L515.994 75.4689C515.994 75.4689 518.51 84.8198 527.222 84.8198C527.222 84.8198 536.086 85.0714 542.888 75.7339C542.888 75.7339 546.273 71.2759 546.273 66.8582C546.273 66.8582 546.856 59.2648 536.908 54.8534C536.908 54.8534 532.576 53.0753 528.638 50.2209C528.638 50.2209 526.153 48.7239 526.153 45.9152C526.153 45.9152 525.886 44.2561 527.872 42.5254Z" fill="#3D3D3D"/>
<path d="M388.41 75.6622C388.163 75.1419 388.184 74.5788 388.184 74.5788V22.2511C388.184 15.0177 384.564 12.7363 384.564 12.7363L374.279 21.0451C376.45 22.7893 376.241 24.6829 376.241 24.6829V39.0998C374.31 36.4362 369.671 33.5137 369.671 33.5137L352.418 48.0255C353.822 49.2843 353.649 50.4161 353.649 50.4161V68.3499C353.649 79.8927 364.235 85.3588 364.235 85.3588L376.195 75.4294C376.195 81.3315 381.379 85.4125 381.379 85.4125L390.11 78.1852C389.116 77.2801 388.638 76.3552 388.41 75.6622ZM370.787 74.5027C365.572 74.5027 365.7 69.6275 365.7 69.6275V44.4898L366.358 43.8219C370.787 46.8025 373.794 51.0607 373.794 51.0607C376.135 54.1882 376.195 57.9835 376.195 57.9835V71.8695C373.362 74.6791 370.787 74.5027 370.787 74.5027Z" fill="#3D3D3D"/>
<path d="M424.465 38.901L415.151 33.0249L397.224 48.0569C397.94 48.7167 398.122 49.6273 398.167 50.0947V50.1009C398.19 50.2693 398.19 50.3928 398.19 50.3928V67.7348C398.19 67.7348 397.48 75.279 404.56 79.2759C404.56 79.2759 409.602 82.3066 414.231 85.3821L428.499 73.3218C428.499 73.3218 431.139 71.0655 431.139 65.8895V50.1358C431.139 50.1358 431.5 43.1584 424.465 38.901ZM418.085 76.5808C418.085 76.5808 414.771 75.3945 411.975 72.2724C411.975 72.2724 410.099 70.5757 410.099 66.3846V45.4908C410.099 45.4908 409.955 43.6088 411.373 42.2228L416.377 45.7988C416.377 45.7988 419.008 47.7632 419.008 50.9981V72.7326C419.008 72.7326 419.196 75.2002 418.085 76.5808Z" fill="#3D3D3D"/>
<path d="M609.849 74.8983C609.649 74.5913 609.48 74.1284 609.386 73.447C609.304 72.9063 609.333 72.5409 609.333 72.5409V46.1085C609.333 46.1085 609.524 37.1792 601.433 32.6443C601.433 32.6443 589.559 32.8475 578.612 43.3661V47.7766C578.612 47.7766 583.699 41.3641 590.675 38.8526C590.675 38.8526 597.501 40.082 597.501 48.8509V51.135L585.385 55.0342C585.385 55.0342 574.305 58.1142 574.305 68.6551C574.305 68.6551 574.229 79.5076 586.001 84.3586L597.501 74.9298C597.768 77.8011 598.863 81.8159 602.49 84.5144L611.504 76.8485C610.669 76.2477 610.166 75.552 609.849 74.8983ZM597.502 71.4092C596.291 72.5777 593.864 74.5778 591.271 74.5778C591.271 74.5778 587.208 75.0471 587.208 69.7367V62.0869C587.208 62.0869 587.162 58.3945 591.288 56.5L597.502 53.6456V71.4092Z" fill="#3D3D3D"/>
<path d="M277.964 35.4083L277.571 35.3841C277.571 35.3841 277.46 35.3778 277.225 35.3778C275.627 35.3778 267.666 35.8649 267.681 45.4818C267.681 45.6707 267.91 49.9048 269.418 53.1656L269.995 54.412L270.2 53.0448C270.233 52.8559 270.994 48.3657 275.668 48.3657C276.235 48.3657 276.836 48.4319 277.468 48.5672L277.964 48.6639V35.4083Z" fill="#3D3D3D"/>
<path d="M339.775 38.14L334.965 33.2549L323.277 43.067C323.277 35.6035 319.115 33.2156 319.115 33.2156L309.172 41.4491C310.269 42.7026 310.599 44.034 310.691 44.8407C310.74 45.2687 310.714 45.6224 310.714 45.6224V72.7611C310.714 81.4344 315.911 84.8403 315.911 84.8403L325.302 77.0964C324.256 76.3676 323.746 75.551 323.483 74.8966C323.321 74.5421 323.27 74.1428 323.247 73.9036C323.24 73.7694 323.24 73.6816 323.24 73.6816V46.284C325.642 44.4414 327.677 44.5425 327.677 44.5425C332.001 44.5425 331.895 48.0864 331.895 48.0864V86.1735C331.895 86.1735 343.982 81.8087 343.982 72.4496V48.2986C343.982 42.2559 339.775 38.14 339.775 38.14Z" fill="#3D3D3D"/>
<path d="M469.272 38.14L464.462 33.2549L452.772 43.067C452.772 35.6035 448.61 33.2156 448.61 33.2156L438.666 41.4491C439.759 42.7026 440.087 44.034 440.183 44.8407C440.237 45.2687 440.212 45.6224 440.212 45.6224V72.7611C440.212 81.4344 445.405 84.8403 445.405 84.8403L454.797 77.0964C453.751 76.3676 453.233 75.551 452.982 74.8966C452.811 74.5421 452.755 74.1428 452.742 73.9036C452.73 73.7694 452.73 73.6816 452.73 73.6816V46.284C455.119 44.4414 457.159 44.5425 457.159 44.5425C461.488 44.5425 461.391 48.0864 461.391 48.0864V86.1735C461.391 86.1735 473.47 81.8087 473.47 72.4496V48.2986C473.47 42.2559 469.272 38.14 469.272 38.14Z" fill="#3D3D3D"/>
<path d="M501.247 74.7122C496.028 74.7122 494.887 71.0932 494.656 68.9409C501.645 64.4023 507.018 58.7329 507.018 58.7329C510.226 55.3808 510.218 51.1592 510.218 51.1592C510.218 47.3379 507.006 43.7744 507.006 43.7744C502.321 38.3342 496.741 33.6436 496.741 33.6436L481.854 45.5347C482.37 46.2321 482.534 46.9708 482.583 47.4113C482.633 47.6334 482.611 47.8026 482.611 47.8026V67.7858C482.611 74.1767 485.873 77.7931 485.873 77.7931C489.689 82.3539 494.608 85.3892 494.608 85.3892L510.013 72.7334C506.921 74.1535 503.602 74.5556 502.09 74.6657C501.565 74.7373 501.247 74.7122 501.247 74.7122ZM494.649 47.2654C500.789 51.7968 500.521 56.9244 500.521 56.9244C500.521 61.5049 496.415 64.6933 494.649 65.8591V47.2654Z" fill="#3D3D3D"/>
<path d="M292.592 5.64874C292.219 5.72753 291.821 5.7705 291.406 5.79469C291.208 5.8099 291.081 5.8099 291.081 5.8099C291.081 5.8099 291.028 5.81886 290.938 5.81886C290.485 5.81886 288.803 5.66127 285.989 3.63511C285.799 3.49185 281.297 0.00984853 277.713 0.00984853C277.713 0.00984853 277.632 0 277.487 0C276.278 0 272.082 0.319639 268.432 4.42928C268.332 4.57164 265.594 7.99723 263.995 12.192L263.893 12.4829C267.576 9.72526 270.517 9.94999 270.517 9.94999C270.536 9.94999 273.03 9.97416 275.591 12.0272C275.747 12.158 279.486 15.2603 282.965 15.2603C282.965 15.2603 283.136 15.2881 283.452 15.2881C285.348 15.2881 291.96 14.4204 298.229 3.45604C296.171 4.85189 293.996 5.42401 292.592 5.64874Z" fill="#3D3D3D"/>
<path d="M287.211 26.0349C287.211 25.025 287.28 24.1153 287.388 23.3094C287.551 21.67 287.855 19.5803 288.42 17.8165L288.391 17.8281C282.326 21.3809 278.308 26.9105 278.263 26.9893C276.196 30.175 276.277 34.144 276.277 34.3078V58.2987C276.277 62.4683 274.597 64.5536 274.576 64.5732L273.569 65.782L275.037 65.2412C287.388 60.675 287.215 50.5378 287.211 50.4331V26.0349Z" fill="#3D3D3D"/>
<path d="M301.547 64.7934V19.702C301.547 19.702 301.135 9.50584 307.269 2.28577C300.494 7.18242 293.951 13.5098 293.888 13.5752C289.952 17.4538 290.394 22.1777 290.412 22.329V69.6696C290.412 74.5036 287.102 75.9263 286.945 75.9906C286.169 76.3489 285.389 76.5261 284.595 76.5261C281.808 76.5261 279.798 74.3208 279.786 74.2994L275.925 69.8863C272.002 65.3701 267.448 65.2295 266.925 65.2295C264.138 65.2295 261.786 66.218 259.92 68.1492C255.616 72.6403 255.21 80.8569 255.191 83.3209C257.593 80.1881 260.121 79.145 261.632 78.7958C262.143 78.683 262.559 78.6374 262.836 78.6328C262.952 78.6302 263.016 78.6328 263.016 78.6328C263.097 78.6328 263.142 78.6328 263.179 78.6374C266.005 78.6374 267.828 80.2095 267.883 80.249L269.784 81.6305C277.035 86.9712 286.364 83.1749 288.561 82.1596C291.757 80.5409 294.199 78.7197 295.835 77.28C296.485 76.7572 297.099 76.1671 297.689 75.4803L298.965 74.081C302.151 69.5299 301.56 64.9976 301.547 64.7934Z" fill="#3D3D3D"/>
<path d="M190.815 116.205L186.015 108.583C185.722 108.131 185.309 107.402 185.119 107.089C185.119 107.541 185.137 109.224 185.137 109.902V116.205H183.381V104.051H185.222L189.8 111.465C190.11 111.968 190.625 112.871 190.798 113.184C190.798 112.732 190.781 110.995 190.781 110.319V104.052H192.536V116.205H190.815Z" fill="#3D3D3D"/>
<path d="M203.619 116.205L202.604 113.321H197.786L196.788 116.205H194.912L199.248 104.051H201.159L205.546 116.205H203.619ZM201.09 108.895C200.797 108.027 200.316 106.621 200.177 106.099C200.04 106.621 199.609 108.009 199.3 108.912L198.336 111.69H202.053L201.09 108.895Z" fill="#3D3D3D"/>
<path d="M211.45 116.205H209.539L205.358 104.051H207.32L209.832 111.794C210.056 112.506 210.4 113.583 210.503 114.017C210.606 113.583 210.95 112.489 211.174 111.777L213.652 104.051H215.58L211.45 116.205Z" fill="#3D3D3D"/>
<path d="M218.041 116.205V104.051H219.849V116.205H218.041Z" fill="#3D3D3D"/>
<path d="M227.593 116.395C224.478 116.395 222.499 113.808 222.499 110.127C222.499 106.447 224.478 103.86 227.593 103.86C229.554 103.86 230.862 104.659 231.688 106.135L230.104 107.124C229.485 106.135 228.831 105.684 227.593 105.684C225.492 105.684 224.341 107.402 224.341 110.128C224.341 112.853 225.493 114.572 227.593 114.572C229.554 114.572 230.328 113.271 230.328 111.846V111.794H228.367V110.041H232.17V111.446C232.169 114.572 230.277 116.395 227.593 116.395Z" fill="#3D3D3D"/>
<path d="M242.428 116.205L241.413 113.321H236.595L235.597 116.205H233.721L238.057 104.051H239.967L244.355 116.205H242.428ZM239.899 108.895C239.606 108.027 239.125 106.621 238.987 106.099C238.849 106.621 238.419 108.009 238.109 108.912L237.145 111.69H240.862L239.899 108.895Z" fill="#3D3D3D"/>
<path d="M250.139 116.395C248.384 116.395 246.87 115.631 245.854 114.434L247.144 113.166C247.953 114.051 249.141 114.607 250.276 114.607C251.963 114.607 252.772 114.017 252.772 112.836C252.772 111.898 252.066 111.43 250.053 110.822C247.507 110.058 246.284 109.416 246.284 107.246C246.284 105.145 248.04 103.86 250.26 103.86C251.895 103.86 253.133 104.468 254.201 105.51L252.927 106.811C252.17 106.031 251.31 105.649 250.122 105.649C248.711 105.649 248.108 106.343 248.108 107.159C248.108 108.009 248.66 108.426 250.742 109.051C253.116 109.78 254.597 110.545 254.597 112.715C254.597 114.902 253.22 116.395 250.139 116.395Z" fill="#3D3D3D"/>
<path d="M257.384 116.205V104.051H259.191V116.205H257.384Z" fill="#3D3D3D"/>
<path d="M271.841 116.205H267.056V104.051H272.012C274.111 104.051 275.47 105.162 275.47 107.211C275.47 108.444 274.816 109.208 273.939 109.642C274.886 109.903 275.97 110.787 275.97 112.472C275.97 114.936 274.473 116.205 271.841 116.205ZM271.995 105.718H268.76V108.86H271.995C273.182 108.86 273.663 108.114 273.663 107.315C273.663 106.412 273.199 105.718 271.995 105.718ZM272.029 110.51H268.76V114.538H271.978C273.578 114.538 274.162 113.721 274.162 112.524C274.163 111.274 273.389 110.51 272.029 110.51Z" fill="#3D3D3D"/>
<path d="M278.759 116.205V104.051H280.566V116.205H278.759Z" fill="#3D3D3D"/>
<path d="M287.397 116.395C285.641 116.395 284.127 115.631 283.112 114.434L284.403 113.166C285.211 114.051 286.399 114.607 287.535 114.607C289.222 114.607 290.03 114.017 290.03 112.836C290.03 111.898 289.324 111.43 287.311 110.822C284.764 110.058 283.543 109.416 283.543 107.246C283.543 105.145 285.298 103.86 287.518 103.86C289.153 103.86 290.391 104.468 291.459 105.51L290.186 106.811C289.428 106.031 288.569 105.649 287.38 105.649C285.969 105.649 285.367 106.343 285.367 107.159C285.367 108.009 285.918 108.426 288 109.051C290.374 109.78 291.855 110.545 291.855 112.715C291.854 114.902 290.477 116.395 287.397 116.395Z" fill="#3D3D3D"/>
<path d="M301.99 116.205L297.19 108.583C296.897 108.131 296.484 107.402 296.294 107.089C296.294 107.541 296.311 109.224 296.311 109.902V116.205H294.556V104.051H296.397L300.975 111.465C301.285 111.968 301.801 112.871 301.973 113.184C301.973 112.732 301.956 110.995 301.956 110.319V104.052H303.711V116.205H301.99Z" fill="#3D3D3D"/>
<path d="M306.93 116.205V104.051H308.738V116.205H306.93Z" fill="#3D3D3D"/>
<path d="M315.568 116.395C313.814 116.395 312.299 115.631 311.283 114.434L312.575 113.166C313.384 114.051 314.571 114.607 315.707 114.607C317.393 114.607 318.202 114.017 318.202 112.836C318.202 111.898 317.497 111.43 315.483 110.822C312.937 110.058 311.714 109.416 311.714 107.246C311.714 105.145 313.471 103.86 315.69 103.86C317.324 103.86 318.564 104.468 319.631 105.51L318.357 106.811C317.6 106.031 316.74 105.649 315.552 105.649C314.142 105.649 313.539 106.343 313.539 107.159C313.539 108.009 314.089 108.426 316.173 109.051C318.547 109.78 320.026 110.545 320.026 112.715C320.026 114.902 318.649 116.395 315.568 116.395Z" fill="#3D3D3D"/>
<path d="M331.935 105.84V116.205H330.129V105.84H326.618V104.051H335.446V105.84H331.935Z" fill="#3D3D3D"/>
<path d="M337.821 116.205V104.051H345.582V105.822H339.629V108.826H343.088V110.597H339.629V114.433H345.84V116.205H337.821Z" fill="#3D3D3D"/>
<path d="M354.91 111.239L357.371 116.205H355.289L352.896 111.395H350.177V116.205H348.405V104.051H353.688C355.787 104.051 357.56 105.18 357.56 107.679C357.56 109.624 356.544 110.822 354.91 111.239ZM353.688 105.77H350.177V109.675H353.688C354.892 109.675 355.736 109.051 355.736 107.732C355.736 106.465 354.91 105.77 353.688 105.77Z" fill="#3D3D3D"/>
<path d="M365.269 111.673H362.12V116.205H360.348V104.051H365.389C367.61 104.051 369.262 105.336 369.262 107.853C369.262 110.354 367.61 111.673 365.269 111.673ZM365.355 105.77H362.12V109.954H365.355C366.733 109.954 367.42 109.155 367.42 107.853C367.42 106.517 366.612 105.77 365.355 105.77Z" fill="#3D3D3D"/>
<path d="M371.587 116.205V104.051H379.347V105.822H373.393V108.826H376.852V110.597H373.393V114.433H379.605V116.205H371.587Z" fill="#3D3D3D"/>
<path d="M388.674 111.239L391.135 116.205H389.053L386.661 111.395H383.942V116.205H382.169V104.051H387.453C389.551 104.051 391.324 105.18 391.324 107.679C391.324 109.624 390.308 110.822 388.674 111.239ZM387.453 105.77H383.942V109.675H387.453C388.657 109.675 389.5 109.051 389.5 107.732C389.5 106.465 388.674 105.77 387.453 105.77Z" fill="#3D3D3D"/>
<path d="M398.345 116.395C395.23 116.395 393.251 113.808 393.251 110.127C393.251 106.447 395.229 103.86 398.345 103.86C400.306 103.86 401.615 104.659 402.44 106.135L400.839 107.142C400.221 106.152 399.584 105.684 398.345 105.684C396.246 105.684 395.109 107.402 395.109 110.128C395.109 112.853 396.245 114.572 398.345 114.572C399.601 114.572 400.375 114.052 400.995 113.062L402.491 114.069C401.631 115.562 400.169 116.395 398.345 116.395Z" fill="#3D3D3D"/>
<path d="M412.73 116.205L411.715 113.321H406.896L405.898 116.205H404.021L408.359 104.051H410.268L414.656 116.205H412.73ZM410.2 108.895C409.908 108.027 409.427 106.621 409.288 106.099C409.15 106.621 408.72 108.009 408.411 108.912L407.447 111.69H411.165L410.2 108.895Z" fill="#3D3D3D"/>
<path d="M420.405 111.395V116.205H418.598V111.395L414.279 104.051H416.395L418.271 107.402C418.684 108.149 419.303 109.364 419.509 109.815C419.716 109.363 420.318 108.2 420.749 107.42L422.641 104.051H424.723L420.405 111.395Z" fill="#3D3D3D"/>
<path d="M433.051 116.205L432.036 113.321H427.217L426.22 116.205H424.343L428.681 104.051H430.59L434.977 116.205H433.051ZM430.522 108.895C430.229 108.027 429.747 106.621 429.61 106.099C429.472 106.621 429.042 108.009 428.732 108.912L427.768 111.69H431.486L430.522 108.895Z" fill="#3D3D3D"/>
</g>
<defs>
<clipPath id="clip0_1853_9449">
<rect width="612.258" height="130.065" fill="white"/>
</clipPath>
</defs>
</svg>
