<svg width="71" height="60" viewBox="0 0 71 60" fill="none" xmlns="http://www.w3.org/2000/svg">
<g clip-path="url(#clip0_2054_696)">
<mask id="path-1-outside-1_2054_696" maskUnits="userSpaceOnUse" x="-1" y="6.08154" width="73" height="49" fill="black">
<rect fill="white" x="-1" y="6.08154" width="73" height="49"/>
<path d="M64.5094 22.5161C61.2617 20.6327 55.3716 20.5326 51.6462 20.7034C50.9218 20.7362 49.6989 21.1501 49.0797 21.0552C48.6796 20.9949 47.1618 20.01 46.5633 19.7634C43.3018 18.425 39.8902 17.8334 36.3545 18.1732C21.7958 19.572 15.0761 39.793 26.3854 49.4292C32.9619 55.033 40.9302 54.8536 48.4433 51.3041C49.0142 51.035 50.989 49.7518 51.315 49.688C51.9307 49.5689 52.6965 49.8673 53.3795 49.8691C56.3979 49.8742 62.4707 48.9567 64.9751 47.3095C73.1367 41.9403 73.0297 27.4558 64.5111 22.5144L64.5094 22.5161ZM44.2832 52.4924C30.542 56.5318 18.1841 46.0798 21.7802 31.7143C24.752 19.8376 37.874 15.1359 48.2915 21.0587C48.2674 21.3209 48.0293 21.3226 47.8517 21.3916C46.1321 22.0694 44.0038 21.6123 42.1721 21.7486C35.5524 22.2402 29.5141 25.9156 28.9777 33.0458C28.3447 41.4574 32.7238 48.0598 41.4735 48.66C43.1103 48.7721 45.0576 48.4565 46.6409 48.6669C47.7551 48.8152 49.0556 49.6517 50.2767 49.5138L50.3629 49.8553C48.4002 50.847 46.4098 51.8663 44.2866 52.4907L44.2832 52.4924ZM45.7026 22.0935L42.8533 23.9839C36.4648 29.2806 36.9771 40.1966 42.4204 45.9866L45.7044 48.3064C41.3769 48.691 36.539 48.0374 33.205 45.0259C28.7121 40.9676 27.8221 31.9333 31.4906 27.1091C34.6814 22.9128 40.6957 21.79 45.7026 22.0935ZM41.4235 44.0497C38.3328 39.7051 37.6653 32.7767 40.1558 28.0129C43.457 21.6969 50.5699 20.5878 57.0861 21.2312L54.1522 22.5196C44.9938 28.0923 45.4784 43.6737 55.3682 48.215L57.6035 48.9946C51.779 49.957 45.08 49.1895 41.4235 44.0497ZM55.6183 47.9666C44.3021 43.4426 45.9786 22.9197 58.0847 21.4502C66.2859 20.455 71.3136 29.2168 70.7099 36.4901C70.0942 43.9307 63.4694 51.1074 55.6166 47.9666H55.6183Z"/>
<path d="M9.91391 17.4333C12.6615 17.1124 19.6709 16.6968 21.4767 14.853C23.0652 13.2317 22.2563 11.3466 23.4567 10.1065C25.8145 7.67112 33.0791 7.78495 36.3113 7.94191C37.3479 7.99192 39.2383 8.11956 40.1955 8.36965C43.7537 9.30102 42.179 12.2607 44.3228 14.0734C46.4426 15.8654 48.7917 14.5132 51.1391 14.3339C53.0432 14.1873 55.6752 14.2666 57.4793 14.8875L60.5356 16.5726C58.3244 14.0338 54.3299 13.5888 51.1287 13.8078C49.0504 13.9492 46.7358 15.1117 44.8523 13.7181C43.1552 12.4608 43.9727 10.21 42.3652 8.70252C41.1734 7.58488 38.9295 7.4124 37.3358 7.26408C33.7035 6.9243 24.9573 6.71388 22.5926 9.93573C21.6699 11.1931 22.1131 12.4539 21.3905 13.7354C20.428 15.4429 17.577 15.7464 15.7902 15.8948C15.2745 13.437 13.2151 13.4991 11.123 13.644C8.87388 13.7992 7.28193 14.3149 7.21294 16.8917C-0.0500182 17.8886 0.153503 26.4382 0 32.0937L0.539849 26.8591C1.22285 22.7127 1.89206 18.5819 6.68344 17.6523C7.75106 17.4453 8.89458 17.5523 9.91391 17.4333ZM10.4365 13.9889C11.204 13.9027 13.2565 13.7543 13.8912 13.9786C14.7622 14.2873 15.4055 15.1238 15.3503 16.0552L7.58721 16.9193C7.52857 14.9634 8.62034 14.1959 10.4365 13.9889Z"/>
<path d="M18.705 52.282C18.2962 52.2716 17.9202 52.1061 17.5115 52.0957C13.9464 52.0078 8.70313 53.2548 8.27022 48.2288C7.88042 43.6979 9.17744 38.5253 8.9239 34.1237C8.78764 31.7608 6.83349 32.4197 5.99698 31.0123C5.12426 29.5428 5.65721 27.9888 5.68653 26.4072L5.3433 27.5283V30.4604C5.3433 30.8415 6.11082 31.8729 6.46267 32.1006C7.42508 32.7232 8.22882 32.2627 8.43234 33.9254C8.51858 38.2873 7.5234 43.0614 7.58031 47.3544C7.61481 49.926 9.24815 52.47 11.9871 52.6218L23.6275 52.3665C22.001 52.1699 20.3401 52.332 18.7033 52.2872L18.705 52.282Z"/>
<path d="M14.4362 20.5758C13.6653 20.7534 12.9771 21.7469 12.9253 22.5144C12.6873 25.9794 17.2303 25.7276 17.4218 23.0353C17.546 21.2984 16.1196 20.1877 14.4362 20.5758ZM15.39 24.8204C13.0461 25.136 12.251 21.4916 14.4414 20.9276C17.4787 20.1446 18.0203 24.4668 15.39 24.8204Z"/>
<path d="M49.7869 12.635C50.6975 12.0296 51.5099 11.9468 52.5724 12.2072C53.4416 12.4194 54.0039 13.1455 54.8456 13.2956C53.0294 11.1724 49.6265 11.2448 48.2915 13.813C48.4899 14.0131 49.5351 12.8023 49.7869 12.6367V12.635Z"/>
<path d="M58.954 22.6558C45.2145 23.2733 46.1476 48.1771 59.768 47.4509C73.4074 46.7231 72.4623 22.0487 58.954 22.6558ZM69.3318 36.3194C68.8265 43.0338 62.7174 49.4586 55.7149 46.3195C45.732 41.8455 47.9483 23.3906 58.9557 23.0008C65.9513 22.7541 69.801 30.0947 69.3336 36.3194H69.3318Z"/>
<path d="M58.4296 25.4172C48.1466 26.6159 49.1884 45.9194 60.2803 44.6879C70.4995 43.5513 69.3146 24.1495 58.4296 25.4172ZM54.9818 30.4069C59.2644 30.0706 60.3596 38.0786 56.3444 39.7171C53.6659 40.8089 51.722 38.0717 51.5634 35.6381C51.4271 33.5528 52.6 30.5932 54.9818 30.4069ZM52.0877 38.477C56.2047 43.2632 60.6632 37.5543 58.7228 32.7888C57.362 29.4479 53.9487 29.2134 51.9152 32.0954C53.1915 27.4334 57.6966 24.1374 62.438 26.4865C67.1121 28.8029 68.2263 35.6364 65.9513 40.0086C62.4725 46.6955 54.1591 45.3381 52.0877 38.4753V38.477Z"/>
<path d="M59.2454 23.8149V24.1633C63.3918 24.3616 66.3359 27.2023 67.5674 31.0174C68.7885 34.7998 68.178 39.2221 65.7823 42.4302C64.0351 44.7689 62.7088 44.9604 60.0751 45.6986C59.7836 45.7797 59.5938 45.571 59.6766 46.066C63.5746 45.7917 66.2566 43.277 67.5691 39.7309C68.7868 36.4349 68.9162 33.972 67.7882 30.6242C66.5015 26.8108 63.34 24.0839 59.2472 23.8149H59.2454Z"/>
</mask>
<path d="M64.5094 22.5161C61.2617 20.6327 55.3716 20.5326 51.6462 20.7034C50.9218 20.7362 49.6989 21.1501 49.0797 21.0552C48.6796 20.9949 47.1618 20.01 46.5633 19.7634C43.3018 18.425 39.8902 17.8334 36.3545 18.1732C21.7958 19.572 15.0761 39.793 26.3854 49.4292C32.9619 55.033 40.9302 54.8536 48.4433 51.3041C49.0142 51.035 50.989 49.7518 51.315 49.688C51.9307 49.5689 52.6965 49.8673 53.3795 49.8691C56.3979 49.8742 62.4707 48.9567 64.9751 47.3095C73.1367 41.9403 73.0297 27.4558 64.5111 22.5144L64.5094 22.5161ZM44.2832 52.4924C30.542 56.5318 18.1841 46.0798 21.7802 31.7143C24.752 19.8376 37.874 15.1359 48.2915 21.0587C48.2674 21.3209 48.0293 21.3226 47.8517 21.3916C46.1321 22.0694 44.0038 21.6123 42.1721 21.7486C35.5524 22.2402 29.5141 25.9156 28.9777 33.0458C28.3447 41.4574 32.7238 48.0598 41.4735 48.66C43.1103 48.7721 45.0576 48.4565 46.6409 48.6669C47.7551 48.8152 49.0556 49.6517 50.2767 49.5138L50.3629 49.8553C48.4002 50.847 46.4098 51.8663 44.2866 52.4907L44.2832 52.4924ZM45.7026 22.0935L42.8533 23.9839C36.4648 29.2806 36.9771 40.1966 42.4204 45.9866L45.7044 48.3064C41.3769 48.691 36.539 48.0374 33.205 45.0259C28.7121 40.9676 27.8221 31.9333 31.4906 27.1091C34.6814 22.9128 40.6957 21.79 45.7026 22.0935ZM41.4235 44.0497C38.3328 39.7051 37.6653 32.7767 40.1558 28.0129C43.457 21.6969 50.5699 20.5878 57.0861 21.2312L54.1522 22.5196C44.9938 28.0923 45.4784 43.6737 55.3682 48.215L57.6035 48.9946C51.779 49.957 45.08 49.1895 41.4235 44.0497ZM55.6183 47.9666C44.3021 43.4426 45.9786 22.9197 58.0847 21.4502C66.2859 20.455 71.3136 29.2168 70.7099 36.4901C70.0942 43.9307 63.4694 51.1074 55.6166 47.9666H55.6183Z" fill="#803C00"/>
<path d="M9.91391 17.4333C12.6615 17.1124 19.6709 16.6968 21.4767 14.853C23.0652 13.2317 22.2563 11.3466 23.4567 10.1065C25.8145 7.67112 33.0791 7.78495 36.3113 7.94191C37.3479 7.99192 39.2383 8.11956 40.1955 8.36965C43.7537 9.30102 42.179 12.2607 44.3228 14.0734C46.4426 15.8654 48.7917 14.5132 51.1391 14.3339C53.0432 14.1873 55.6752 14.2666 57.4793 14.8875L60.5356 16.5726C58.3244 14.0338 54.3299 13.5888 51.1287 13.8078C49.0504 13.9492 46.7358 15.1117 44.8523 13.7181C43.1552 12.4608 43.9727 10.21 42.3652 8.70252C41.1734 7.58488 38.9295 7.4124 37.3358 7.26408C33.7035 6.9243 24.9573 6.71388 22.5926 9.93573C21.6699 11.1931 22.1131 12.4539 21.3905 13.7354C20.428 15.4429 17.577 15.7464 15.7902 15.8948C15.2745 13.437 13.2151 13.4991 11.123 13.644C8.87388 13.7992 7.28193 14.3149 7.21294 16.8917C-0.0500182 17.8886 0.153503 26.4382 0 32.0937L0.539849 26.8591C1.22285 22.7127 1.89206 18.5819 6.68344 17.6523C7.75106 17.4453 8.89458 17.5523 9.91391 17.4333ZM10.4365 13.9889C11.204 13.9027 13.2565 13.7543 13.8912 13.9786C14.7622 14.2873 15.4055 15.1238 15.3503 16.0552L7.58721 16.9193C7.52857 14.9634 8.62034 14.1959 10.4365 13.9889Z" fill="#803C00"/>
<path d="M18.705 52.282C18.2962 52.2716 17.9202 52.1061 17.5115 52.0957C13.9464 52.0078 8.70313 53.2548 8.27022 48.2288C7.88042 43.6979 9.17744 38.5253 8.9239 34.1237C8.78764 31.7608 6.83349 32.4197 5.99698 31.0123C5.12426 29.5428 5.65721 27.9888 5.68653 26.4072L5.3433 27.5283V30.4604C5.3433 30.8415 6.11082 31.8729 6.46267 32.1006C7.42508 32.7232 8.22882 32.2627 8.43234 33.9254C8.51858 38.2873 7.5234 43.0614 7.58031 47.3544C7.61481 49.926 9.24815 52.47 11.9871 52.6218L23.6275 52.3665C22.001 52.1699 20.3401 52.332 18.7033 52.2872L18.705 52.282Z" fill="#803C00"/>
<path d="M14.4362 20.5758C13.6653 20.7534 12.9771 21.7469 12.9253 22.5144C12.6873 25.9794 17.2303 25.7276 17.4218 23.0353C17.546 21.2984 16.1196 20.1877 14.4362 20.5758ZM15.39 24.8204C13.0461 25.136 12.251 21.4916 14.4414 20.9276C17.4787 20.1446 18.0203 24.4668 15.39 24.8204Z" fill="#803C00"/>
<path d="M49.7869 12.635C50.6975 12.0296 51.5099 11.9468 52.5724 12.2072C53.4416 12.4194 54.0039 13.1455 54.8456 13.2956C53.0294 11.1724 49.6265 11.2448 48.2915 13.813C48.4899 14.0131 49.5351 12.8023 49.7869 12.6367V12.635Z" fill="#803C00"/>
<path d="M58.954 22.6558C45.2145 23.2733 46.1476 48.1771 59.768 47.4509C73.4074 46.7231 72.4623 22.0487 58.954 22.6558ZM69.3318 36.3194C68.8265 43.0338 62.7174 49.4586 55.7149 46.3195C45.732 41.8455 47.9483 23.3906 58.9557 23.0008C65.9513 22.7541 69.801 30.0947 69.3336 36.3194H69.3318Z" fill="#803C00"/>
<path d="M58.4296 25.4172C48.1466 26.6159 49.1884 45.9194 60.2803 44.6879C70.4995 43.5513 69.3146 24.1495 58.4296 25.4172ZM54.9818 30.4069C59.2644 30.0706 60.3596 38.0786 56.3444 39.7171C53.6659 40.8089 51.722 38.0717 51.5634 35.6381C51.4271 33.5528 52.6 30.5932 54.9818 30.4069ZM52.0877 38.477C56.2047 43.2632 60.6632 37.5543 58.7228 32.7888C57.362 29.4479 53.9487 29.2134 51.9152 32.0954C53.1915 27.4334 57.6966 24.1374 62.438 26.4865C67.1121 28.8029 68.2263 35.6364 65.9513 40.0086C62.4725 46.6955 54.1591 45.3381 52.0877 38.4753V38.477Z" fill="#803C00"/>
<path d="M59.2454 23.8149V24.1633C63.3918 24.3616 66.3359 27.2023 67.5674 31.0174C68.7885 34.7998 68.178 39.2221 65.7823 42.4302C64.0351 44.7689 62.7088 44.9604 60.0751 45.6986C59.7836 45.7797 59.5938 45.571 59.6766 46.066C63.5746 45.7917 66.2566 43.277 67.5691 39.7309C68.7868 36.4349 68.9162 33.972 67.7882 30.6242C66.5015 26.8108 63.34 24.0839 59.2472 23.8149H59.2454Z" fill="#803C00"/>
<path d="M64.5094 22.5161C61.2617 20.6327 55.3716 20.5326 51.6462 20.7034C50.9218 20.7362 49.6989 21.1501 49.0797 21.0552C48.6796 20.9949 47.1618 20.01 46.5633 19.7634C43.3018 18.425 39.8902 17.8334 36.3545 18.1732C21.7958 19.572 15.0761 39.793 26.3854 49.4292C32.9619 55.033 40.9302 54.8536 48.4433 51.3041C49.0142 51.035 50.989 49.7518 51.315 49.688C51.9307 49.5689 52.6965 49.8673 53.3795 49.8691C56.3979 49.8742 62.4707 48.9567 64.9751 47.3095C73.1367 41.9403 73.0297 27.4558 64.5111 22.5144L64.5094 22.5161ZM44.2832 52.4924C30.542 56.5318 18.1841 46.0798 21.7802 31.7143C24.752 19.8376 37.874 15.1359 48.2915 21.0587C48.2674 21.3209 48.0293 21.3226 47.8517 21.3916C46.1321 22.0694 44.0038 21.6123 42.1721 21.7486C35.5524 22.2402 29.5141 25.9156 28.9777 33.0458C28.3447 41.4574 32.7238 48.0598 41.4735 48.66C43.1103 48.7721 45.0576 48.4565 46.6409 48.6669C47.7551 48.8152 49.0556 49.6517 50.2767 49.5138L50.3629 49.8553C48.4002 50.847 46.4098 51.8663 44.2866 52.4907L44.2832 52.4924ZM45.7026 22.0935L42.8533 23.9839C36.4648 29.2806 36.9771 40.1966 42.4204 45.9866L45.7044 48.3064C41.3769 48.691 36.539 48.0374 33.205 45.0259C28.7121 40.9676 27.8221 31.9333 31.4906 27.1091C34.6814 22.9128 40.6957 21.79 45.7026 22.0935ZM41.4235 44.0497C38.3328 39.7051 37.6653 32.7767 40.1558 28.0129C43.457 21.6969 50.5699 20.5878 57.0861 21.2312L54.1522 22.5196C44.9938 28.0923 45.4784 43.6737 55.3682 48.215L57.6035 48.9946C51.779 49.957 45.08 49.1895 41.4235 44.0497ZM55.6183 47.9666C44.3021 43.4426 45.9786 22.9197 58.0847 21.4502C66.2859 20.455 71.3136 29.2168 70.7099 36.4901C70.0942 43.9307 63.4694 51.1074 55.6166 47.9666H55.6183Z" stroke="#803C00" stroke-width="1.2" mask="url(#path-1-outside-1_2054_696)"/>
<path d="M9.91391 17.4333C12.6615 17.1124 19.6709 16.6968 21.4767 14.853C23.0652 13.2317 22.2563 11.3466 23.4567 10.1065C25.8145 7.67112 33.0791 7.78495 36.3113 7.94191C37.3479 7.99192 39.2383 8.11956 40.1955 8.36965C43.7537 9.30102 42.179 12.2607 44.3228 14.0734C46.4426 15.8654 48.7917 14.5132 51.1391 14.3339C53.0432 14.1873 55.6752 14.2666 57.4793 14.8875L60.5356 16.5726C58.3244 14.0338 54.3299 13.5888 51.1287 13.8078C49.0504 13.9492 46.7358 15.1117 44.8523 13.7181C43.1552 12.4608 43.9727 10.21 42.3652 8.70252C41.1734 7.58488 38.9295 7.4124 37.3358 7.26408C33.7035 6.9243 24.9573 6.71388 22.5926 9.93573C21.6699 11.1931 22.1131 12.4539 21.3905 13.7354C20.428 15.4429 17.577 15.7464 15.7902 15.8948C15.2745 13.437 13.2151 13.4991 11.123 13.644C8.87388 13.7992 7.28193 14.3149 7.21294 16.8917C-0.0500182 17.8886 0.153503 26.4382 0 32.0937L0.539849 26.8591C1.22285 22.7127 1.89206 18.5819 6.68344 17.6523C7.75106 17.4453 8.89458 17.5523 9.91391 17.4333ZM10.4365 13.9889C11.204 13.9027 13.2565 13.7543 13.8912 13.9786C14.7622 14.2873 15.4055 15.1238 15.3503 16.0552L7.58721 16.9193C7.52857 14.9634 8.62034 14.1959 10.4365 13.9889Z" stroke="#803C00" stroke-width="1.2" mask="url(#path-1-outside-1_2054_696)"/>
<path d="M18.705 52.282C18.2962 52.2716 17.9202 52.1061 17.5115 52.0957C13.9464 52.0078 8.70313 53.2548 8.27022 48.2288C7.88042 43.6979 9.17744 38.5253 8.9239 34.1237C8.78764 31.7608 6.83349 32.4197 5.99698 31.0123C5.12426 29.5428 5.65721 27.9888 5.68653 26.4072L5.3433 27.5283V30.4604C5.3433 30.8415 6.11082 31.8729 6.46267 32.1006C7.42508 32.7232 8.22882 32.2627 8.43234 33.9254C8.51858 38.2873 7.5234 43.0614 7.58031 47.3544C7.61481 49.926 9.24815 52.47 11.9871 52.6218L23.6275 52.3665C22.001 52.1699 20.3401 52.332 18.7033 52.2872L18.705 52.282Z" stroke="#803C00" stroke-width="1.2" mask="url(#path-1-outside-1_2054_696)"/>
<path d="M14.4362 20.5758C13.6653 20.7534 12.9771 21.7469 12.9253 22.5144C12.6873 25.9794 17.2303 25.7276 17.4218 23.0353C17.546 21.2984 16.1196 20.1877 14.4362 20.5758ZM15.39 24.8204C13.0461 25.136 12.251 21.4916 14.4414 20.9276C17.4787 20.1446 18.0203 24.4668 15.39 24.8204Z" stroke="#803C00" stroke-width="1.2" mask="url(#path-1-outside-1_2054_696)"/>
<path d="M49.7869 12.635C50.6975 12.0296 51.5099 11.9468 52.5724 12.2072C53.4416 12.4194 54.0039 13.1455 54.8456 13.2956C53.0294 11.1724 49.6265 11.2448 48.2915 13.813C48.4899 14.0131 49.5351 12.8023 49.7869 12.6367V12.635Z" stroke="#803C00" stroke-width="1.2" mask="url(#path-1-outside-1_2054_696)"/>
<path d="M58.954 22.6558C45.2145 23.2733 46.1476 48.1771 59.768 47.4509C73.4074 46.7231 72.4623 22.0487 58.954 22.6558ZM69.3318 36.3194C68.8265 43.0338 62.7174 49.4586 55.7149 46.3195C45.732 41.8455 47.9483 23.3906 58.9557 23.0008C65.9513 22.7541 69.801 30.0947 69.3336 36.3194H69.3318Z" stroke="#803C00" stroke-width="1.2" mask="url(#path-1-outside-1_2054_696)"/>
<path d="M58.4296 25.4172C48.1466 26.6159 49.1884 45.9194 60.2803 44.6879C70.4995 43.5513 69.3146 24.1495 58.4296 25.4172ZM54.9818 30.4069C59.2644 30.0706 60.3596 38.0786 56.3444 39.7171C53.6659 40.8089 51.722 38.0717 51.5634 35.6381C51.4271 33.5528 52.6 30.5932 54.9818 30.4069ZM52.0877 38.477C56.2047 43.2632 60.6632 37.5543 58.7228 32.7888C57.362 29.4479 53.9487 29.2134 51.9152 32.0954C53.1915 27.4334 57.6966 24.1374 62.438 26.4865C67.1121 28.8029 68.2263 35.6364 65.9513 40.0086C62.4725 46.6955 54.1591 45.3381 52.0877 38.4753V38.477Z" stroke="#803C00" stroke-width="1.2" mask="url(#path-1-outside-1_2054_696)"/>
<path d="M59.2454 23.8149V24.1633C63.3918 24.3616 66.3359 27.2023 67.5674 31.0174C68.7885 34.7998 68.178 39.2221 65.7823 42.4302C64.0351 44.7689 62.7088 44.9604 60.0751 45.6986C59.7836 45.7797 59.5938 45.571 59.6766 46.066C63.5746 45.7917 66.2566 43.277 67.5691 39.7309C68.7868 36.4349 68.9162 33.972 67.7882 30.6242C66.5015 26.8108 63.34 24.0839 59.2472 23.8149H59.2454Z" stroke="#803C00" stroke-width="1.2" mask="url(#path-1-outside-1_2054_696)"/>
</g>
<defs>
<clipPath id="clip0_2054_696">
<rect width="71" height="60" fill="white"/>
</clipPath>
</defs>
</svg>
