<svg width="25" height="26" viewBox="0 0 25 26" fill="none" xmlns="http://www.w3.org/2000/svg">
<path d="M14.7002 0.0419095C14.171 -0.115849 13.614 0.185323 13.4563 0.714596L10.8854 9.33961C10.7277 9.86888 11.0288 10.4258 11.5581 10.5836C12.0874 10.7413 12.6443 10.4402 12.8021 9.9109L15.0873 2.24423L22.754 4.52941C23.2832 4.68717 23.8402 4.386 23.9979 3.85672C24.1557 3.32745 23.8545 2.7705 23.3253 2.61274L14.7002 0.0419095ZM1.36496 22.069C0.850663 21.8677 0.270565 22.1215 0.0692734 22.6358C-0.132018 23.1501 0.121722 23.7302 0.636018 23.9315L1.00049 23.0002L1.36496 22.069ZM1.00049 23.0002L0.636018 23.9315C7.37841 26.5704 13.3007 24.7663 16.3776 20.0464C19.411 15.3932 19.462 8.23191 15.2942 0.524583L14.4146 1.00024L13.535 1.47591C17.4785 8.76857 17.2099 15.1073 14.7021 18.9541C12.2379 22.7342 7.39747 24.4301 1.36496 22.069L1.00049 23.0002Z" fill="#803C00"/>
</svg>
