<svg width="78" height="50" viewBox="0 0 78 50" fill="none" xmlns="http://www.w3.org/2000/svg">
<g clip-path="url(#clip0_304_3)">
<mask id="path-1-outside-1_304_3" maskUnits="userSpaceOnUse" x="-0.997803" y="-0.988647" width="80" height="52" fill="black">
<rect fill="white" x="-0.997803" y="-0.988647" width="80" height="52"/>
<path d="M77.989 27.9194L77.0961 27.6403L77.7546 27.0598L77.6542 26.7472L77.2077 26.5798L77.5202 25.9658L76.4265 25.4076L76.9845 24.7379C77.0403 24.403 76.3149 24.5481 76.2033 24.2913L76.6497 23.6215L76.5381 23.3983L76.0917 23.2308L76.5381 22.4047L75.7569 22.1145L76.4265 20.5517L74.9757 20.3284L75.6453 18.933L74.7524 18.6539L75.0761 17.6046L74.306 17.1357L74.652 15.7626L73.6476 15.651C73.8708 14.97 73.815 14.8919 73.2123 14.5793L73.3797 13.7533C72.911 13.3849 72.5873 13.6416 72.5985 12.8602C67.1187 11.3867 61.5274 10.1475 56.003 8.80796C53.3357 8.17166 50.6906 7.35674 48.0121 6.75393C41.1708 5.20224 34.1844 4.20872 27.3654 2.51191C24.207 1.73049 21.1268 0.625329 17.9349 0.0113525C15.4573 3.98545 12.7453 7.7028 9.82127 11.342C6.31691 15.6733 -1.84134 24.1797 0.379576 30.2525C1.95319 34.5615 10.636 37.1402 14.6649 38.6249C27.3431 43.3134 40.1217 47.1871 53.3915 49.8997C55.5119 49.8997 57.1748 50.2793 59.2841 49.5313C66.0808 47.1201 70.0762 36.7495 74.8194 31.5809C75.6564 30.6655 76.7948 29.7836 77.5537 28.8459C77.7769 28.5668 78.0671 28.2878 78.0001 27.897L77.989 27.9194ZM76.7725 26.0105C76.2479 26.6914 75.5448 27.2049 74.9868 27.8524C74.2168 28.7454 73.3351 30.4423 72.5873 31.1455C72.0851 31.6144 71.7949 31.3241 72.2972 30.7437C72.632 30.3641 72.5092 30.3864 72.6878 30.1408C72.844 29.9176 73.3239 30.1408 73.123 29.4711L73.8596 29.0803L73.6811 28.6896C73.9043 28.4329 74.1944 28.3324 74.5292 28.3547C74.6408 28.0757 74.3618 28.1426 74.3395 28.1091C74.0717 27.6514 74.7636 27.8524 74.931 27.5733V27.1268C74.9199 27.1268 75.4221 26.9035 75.4221 26.9035L75.3105 26.5686L75.8685 26.457C75.5114 25.7314 76.2703 25.843 76.7613 26.0105H76.7725ZM75.8796 22.5499L68.4022 31.4804L68.2236 30.9223L68.8486 30.699L68.6812 30.2525L69.3062 30.0292L69.3285 29.3817L69.8195 29.259C69.6856 28.712 69.9646 28.3659 70.5338 28.3547V27.5733L71.0918 27.6291L70.8686 27.1826C71.1588 26.6914 71.5494 26.7584 71.9847 26.5128L71.6499 26.2895C71.9177 25.9323 72.1856 25.8095 72.6096 25.6756L72.5538 25.2402C73.0784 25.2625 73.2904 24.4923 73.3686 24.4364C73.536 24.3248 73.8708 24.3471 73.9489 24.2243C73.9824 24.1685 73.8819 23.9899 73.9489 23.8894C74.1721 23.5322 75.0538 23.1415 75.1096 23.0857C75.2547 22.9071 75.0649 22.2261 75.9131 22.5499H75.8796ZM74.9868 19.0893C75.1765 19.2679 74.1275 20.6744 73.9601 20.9089C73.4913 21.5898 72.9333 22.4159 72.4088 23.041C72.2414 23.2531 72.0182 23.6439 71.7391 23.655C71.5271 22.9741 72.2525 22.9517 72.353 22.7731C72.4088 22.6838 72.2414 22.4717 72.353 22.3266C72.4199 22.2261 72.632 22.2038 72.6878 22.1033C72.8552 21.8243 73.1007 21.1098 73.3574 20.7638C73.5694 20.4735 73.7926 20.2726 73.9712 19.9042C74.2391 19.3237 74.1051 18.9553 74.9757 19.0893H74.9868ZM73.1342 15.0705C73.3016 15.104 73.2793 15.2715 73.257 15.4054C73.1454 16.0194 72.498 16.7896 72.2972 17.4148L71.8619 17.1357C72.1186 16.8455 72.7771 14.9924 73.1342 15.0705ZM50.646 48.962C37.6218 45.8028 25.3342 42.2194 12.7899 37.4862C5.14506 34.6061 -3.03551 32.3512 2.19872 22.2596C5.21203 16.4548 10.5355 11.5988 14.3189 6.25158C15.6582 4.365 16.7519 2.29981 18.0688 0.390902L18.5375 0.357412C25.2115 2.47842 32.0639 3.98545 38.9164 5.43667C42.1418 6.11763 45.4229 6.58648 48.626 7.33442C51.5611 8.01537 54.4628 8.90843 57.3869 9.62287C62.3086 10.8173 67.2527 11.889 72.1409 13.1728C72.2414 13.3179 72.1744 13.4853 72.1409 13.6305C71.94 14.3449 70.8352 16.3096 70.4222 17.0464C68.5473 20.4289 65.5116 24.5258 63.034 27.5175C60.3779 30.7213 57.4092 33.2331 55.1102 36.783C53.0901 39.9086 50.6572 44.7423 52.945 48.3257C53.2129 48.7499 53.6035 49.0067 53.7709 49.4532C52.733 49.2969 51.6728 49.2076 50.646 48.9508V48.962ZM77.4421 28.4105C74.9199 30.6209 72.7659 33.0433 70.9244 35.8452C67.6768 40.7571 63.1456 49.5983 56.2932 49.6876C54.6191 49.7099 53.6481 48.8727 53.012 47.3768C51.5165 43.8716 53.6928 39.7412 55.5901 36.8053C56.0476 36.102 56.4048 35.6666 57.1302 35.2201L56.907 34.9968C57.0409 34.4052 58.0677 34.6731 57.6324 34.048L58.581 33.5456L58.2462 33.3782C58.4025 32.6302 59.1725 33.2107 59.2507 32.5967L58.9158 32.5409C59.1167 32.2507 59.3623 32.2284 59.6971 32.2619V31.7149C59.7082 31.7149 60.0988 31.5921 60.0988 31.5921C60.1547 31.5251 60.0542 31.3465 60.1323 31.1902C60.4337 30.6767 62.2416 29.0692 62.822 28.3994C64.2282 26.7584 65.7683 24.0011 67.1299 22.6615C67.2527 22.5387 67.487 22.5387 67.5763 22.4271C67.6321 22.3601 67.5205 22.0587 67.7326 21.8466C67.8776 21.6903 68.1455 21.6791 68.1678 21.6345C68.2348 21.5229 68.1232 21.2549 68.2348 21.0875C68.3129 20.9647 68.7035 20.9647 68.7928 20.7638C68.8374 20.6521 68.6812 20.4847 68.8374 20.2502C68.9825 20.0381 69.5182 19.9153 69.5182 19.8037C69.5182 19.7591 69.2727 19.7032 69.3731 19.4465C69.5071 19.1004 69.9088 19.0223 70.0204 18.8437C70.0874 18.7432 69.9758 18.5423 70.0762 18.3637C70.2102 18.1181 70.9244 17.359 71.0472 17.1469C71.1253 17.0129 71.0472 16.7115 71.1923 16.4548C71.3262 16.2203 71.5941 16.1868 71.6164 16.1533C71.6722 16.0752 71.4825 15.8408 71.5271 15.6845C71.5717 15.5282 71.8507 15.4947 71.9177 15.3942C71.9958 15.2715 71.8507 15.0705 71.8731 14.9142C71.8954 14.7691 72.2972 13.9319 72.4088 13.8872C72.6766 13.7533 72.9891 13.8091 72.9221 14.1775C72.844 14.5905 72.219 15.7068 71.9847 16.1422C67.8442 23.8895 61.4493 30.1408 56.1816 37.062C54.195 39.6854 51.3603 45.0102 53.8825 48.0466C54.3178 48.5713 55.6459 49.5313 56.003 48.549C54.8869 48.6718 54.195 47.8345 53.7821 46.9191C52.8781 44.8651 53.7151 42.0631 54.6749 40.1431C54.8981 39.6854 56.0141 37.7988 56.3266 37.5532C56.5945 37.3411 56.9293 37.3746 57.2306 37.2853L56.9628 37.0732C56.6168 36.783 57.5766 36.4704 57.7886 36.6155C57.8444 36.2918 57.186 36.2918 57.5989 35.9792C57.811 35.8118 58.302 35.8341 58.5699 35.7224L58.1235 35.3317C58.3578 34.9857 58.7708 35.0527 59.1279 34.941C59.1837 34.6061 58.7931 34.7959 58.9047 34.3829L59.7864 34.2601V33.9363L59.3511 34.048C59.3846 33.5679 60.0765 33.5903 60.1993 33.3782C60.2663 33.2665 60.1323 33.0879 60.1993 32.9316C60.3109 32.6302 60.7462 32.5409 61.0363 32.5967L60.8689 32.1502L61.5943 31.927L61.2595 31.5362L61.9292 31.2572V30.7548L62.5988 30.5316C62.4425 30.3976 62.2974 30.2302 62.4314 30.0292C63.2238 29.4376 63.6702 27.9417 64.7193 27.9082C64.7639 27.8636 64.3175 27.1491 65.0541 26.9593C65.2884 26.8924 65.5786 27.1268 65.7237 26.6914H65.3889C65.2215 26.0328 66.2705 26.2449 66.3933 25.9658L65.9469 25.7425C66.1255 25.3183 66.8174 25.5863 66.9513 25.296C67.0741 25.0393 66.65 25.1621 66.6165 25.1286C66.5719 24.5592 67.0518 24.5258 67.5094 24.5704V24.2355L67.1745 24.1797C67.487 23.6104 68.0004 23.9564 68.4022 23.6215C68.4022 23.5211 67.1857 23.2978 68.737 23.0076L68.4022 22.6168L69.1834 22.1703C69.1834 21.8912 68.8486 22.0698 68.9602 21.668H69.7414L69.4066 21.2214H69.853L69.7414 20.5517L70.4111 20.44L70.1879 19.9935L70.8575 19.8819C70.9356 19.547 70.5115 19.6809 70.5338 19.4018C70.5785 18.9553 70.9579 19.2009 71.1923 18.933L71.0807 18.4865L71.5271 18.4306C71.5941 18.2297 71.3485 18.1627 71.3374 18.0399C71.3374 17.8836 71.6499 17.6381 71.6387 17.426L72.0628 17.7162C70.8017 20.6075 69.1053 23.4541 67.1187 25.91C64.1054 29.6385 60.9136 33.2665 57.9114 37.0174C55.8579 39.5849 53.5812 41.8287 53.8937 45.3898C53.8937 45.5126 54.128 47.0531 54.4517 46.6736C54.3289 45.267 54.2285 43.8604 54.6749 42.4874C55.1771 40.9357 57.5096 38.29 58.5922 36.9169C60.2663 34.7959 62.0854 32.7977 63.659 30.5985L64.6188 30.4981C64.4068 30.1855 63.8934 30.3529 64.1835 29.8394H65.0652C65.1433 29.5269 64.8197 29.5492 64.6188 29.4934L64.7527 29.1808C64.9313 29.0692 65.4447 29.3148 65.6232 28.991C64.6188 28.3994 66.0139 28.3436 66.0697 28.2654C66.1143 28.2096 65.7906 27.2272 66.8509 27.3724L66.7839 26.8142C66.9625 26.6579 67.3419 26.6803 67.4647 26.4793C67.5205 26.39 67.4312 26.2226 67.5094 26.0886C67.6544 25.843 68.8374 24.202 69.0048 24.0569C69.1164 23.9564 69.362 23.9564 69.4066 23.9006C69.574 23.6327 69.2504 22.9741 70.199 23.1304L69.8642 22.8513C70.0539 22.2708 70.1097 22.0698 70.757 22.2373L70.4222 21.8466C70.5115 21.4224 71.17 21.2661 71.2034 21.2326C71.2481 21.188 70.7905 20.3172 71.6499 20.5628C71.7949 20.2614 71.4267 20.2056 71.4267 20.1721C71.382 19.7926 71.8619 19.48 72.2079 19.5581C72.3083 19.2679 71.9065 19.2679 71.8731 19.2232C71.7949 19.1228 72.353 18.2632 72.7659 18.5534C72.8663 18.1962 72.3083 18.3525 72.4311 17.9395C72.4869 17.7385 73.1342 17.7385 73.3239 17.6604L72.8775 17.4371C73.0226 16.8008 73.2681 15.8743 74.1051 16.1087C74.3842 16.3543 71.661 21.1098 71.3374 21.6568C67.0071 28.8347 61.1479 33.8694 56.2597 40.3998C55.936 40.8352 55.6124 41.2594 55.378 41.7506C55.2106 42.0966 54.5856 43.3581 55.2441 43.3581C55.4784 41.9738 56.3043 41.0138 57.1413 39.9533C61.851 34.0926 67.3308 28.9687 71.2927 22.5164L74.1051 17.6157L74.5404 17.6827L74.4846 18.1181C71.3597 23.5099 67.8665 28.7008 63.6702 33.3112C61.9292 35.2201 60.0765 36.8834 58.4806 38.9486C57.6212 40.0649 56.5498 41.2036 56.4717 42.6883L57.9449 40.3105C60.4448 36.9169 63.6144 34.1484 66.2929 30.9111C68.112 28.7008 69.8307 26.39 71.3374 23.9676L71.6499 24.0011C69.1276 27.6961 66.6835 31.4246 63.5586 34.6619C61.8399 36.4481 60.11 37.8211 58.6815 39.9421C58.4359 40.3105 57.1748 42.2418 57.4762 42.5878L57.6994 42.532C59.8087 38.0221 63.9492 35.0303 67.0741 31.2572C68.4691 29.5604 69.4401 27.8077 70.7124 26.0774C70.9914 25.6979 71.4936 25.1844 71.8061 24.8272C71.8954 24.7267 71.8954 24.4923 72.0293 24.3806C72.1409 24.2913 72.3753 24.3025 72.4088 24.2578C72.4757 24.1797 72.3641 23.8448 72.5204 23.6439C72.6766 23.4429 73.0449 23.5434 73.2012 23.3201C72.4869 22.695 73.8819 22.7396 73.8708 22.5387L73.536 22.2038C73.7369 21.7908 74.0828 22.1703 74.3172 21.8689L74.094 21.534L74.652 21.3666C74.7413 21.2884 73.9712 20.4065 75.6788 20.8419C75.8015 20.8754 76.0694 20.8865 75.9913 21.0875C74.2279 23.1415 72.1298 24.9276 70.478 27.071C69.0718 28.8906 67.8888 30.7883 66.3933 32.5856C64.2505 35.1531 61.572 37.4416 59.5966 40.0761C59.0163 40.8464 57.8333 42.465 58.3132 43.4809C58.4918 43.8493 59.3734 43.9051 59.7082 43.76C59.8422 43.7041 61.1368 42.3646 61.3265 42.1413C62.0073 41.3599 62.476 40.2101 63.4581 39.797L63.4023 39.2389L64.1724 38.837L63.9603 38.5132C64.1612 38.1672 64.4402 38.0556 64.842 38.1114V37.7765H64.5072C64.5407 37.1625 65.4112 37.2741 65.5116 37.0509C65.6456 36.7606 65.0652 37.0174 65.1768 36.716C65.2996 36.3811 65.9469 36.1243 66.2929 36.102C66.371 35.8006 66.1031 35.8899 65.9581 35.7113L66.8509 35.1531C65.8688 34.9299 67.3196 34.5838 67.4089 34.3717L67.1857 34.1484L67.8553 33.7019C67.3196 33.2219 68.1455 33.1326 68.2571 32.9875C68.3129 32.9093 68.1455 32.6972 68.2459 32.5409C68.3017 32.4405 68.5361 32.3846 68.6477 32.2619C70.6901 29.7613 72.4088 26.9147 74.6743 24.5592C74.8306 24.3918 75.4444 23.7332 75.5672 23.6662C75.7122 23.5992 76.2368 23.4987 76.1252 23.7778C74.8641 25.3742 73.4244 26.8254 72.1744 28.4217C68.737 32.7977 66.1589 37.7765 62.3421 41.918C61.2484 43.1013 59.1949 45.2335 57.6547 43.5925C57.3757 43.5479 57.4762 43.7934 57.5431 43.9274C57.9114 44.8205 59.1949 44.6865 59.9426 44.4186C61.5832 43.8493 64.2505 40.1096 65.467 38.6695C65.6344 38.4686 66.2259 38.0444 66.2705 37.9663C66.4156 37.743 66.3821 37.3188 66.7393 37.0397C66.996 36.8388 67.4424 36.9169 67.5317 36.716C67.6656 36.4257 67.0853 36.6825 67.1969 36.3811L68.0897 35.8229C67.4424 35.3094 68.5696 34.8852 68.7035 34.6508C68.7593 34.5503 68.5696 34.2043 68.8151 33.9698C68.9825 33.8135 69.2839 33.9028 69.4289 33.6907C69.5405 33.4786 69.0606 33.5791 69.2057 33.2442C69.2727 33.0768 69.6187 33.0991 69.7079 32.9651C69.8307 32.7977 69.7191 32.3958 69.8977 32.206C70.0093 32.0832 70.5227 31.9828 70.5338 31.9493C70.5673 31.9046 70.4111 31.659 70.4445 31.4804C70.5115 31.1232 70.8798 30.9781 71.2034 30.9446L71.2592 30.2748L71.7615 30.1632L71.7838 29.5157C72.632 29.4934 72.1744 28.9241 72.4646 28.6338C72.5538 28.5445 72.7771 28.5668 72.8552 28.4664C72.9333 28.3771 72.9221 28.1091 73.0561 27.9417C73.5471 27.2942 74.2391 26.6244 74.7748 25.977C75.0538 25.6421 75.5225 24.7155 75.9243 24.7267C76.0247 24.7267 76.3037 24.7825 76.2256 24.9723L74.6632 26.6468C73.3909 28.7901 71.7391 30.7325 70.3329 32.8088C70.0762 33.1884 68.4915 35.3429 68.7482 35.6331L69.083 35.4657L71.6722 31.6367C72.0963 31.5251 72.2302 31.6144 71.9958 32.0051C69.2169 35.3206 67.1857 39.5179 64.5518 42.8669C63.8599 43.7488 63.1791 44.24 62.4314 44.9879C62.3421 45.0772 61.6278 45.9591 62.0966 45.7693C62.2416 45.7135 63.0898 44.9879 63.2684 44.8205C64.4849 43.7153 65.4224 42.3199 66.3263 40.958C69.0718 36.8164 72.2079 31.6814 75.4332 27.964C75.6564 27.7073 76.5493 26.7137 76.8283 26.7919L76.9957 27.071C76.672 27.4059 76.3149 27.618 75.9913 27.964C74.4958 29.6385 72.8105 31.9828 71.4825 33.8359C68.0004 38.6695 64.496 46.3387 58.4694 48.2811C57.9895 48.4373 57.398 48.4597 56.9851 48.5825C56.8289 48.6271 56.7619 48.7387 56.7954 48.895C61.7952 48.6048 64.9983 44.2065 67.5986 40.4445C69.0941 38.29 70.3776 35.9345 71.9289 33.8359C72.6431 32.8647 74.2614 30.6878 75.1096 29.9846C75.5002 29.6608 75.7457 29.9176 75.5448 29.1362L76.114 29.0915L76.6051 28.0422C76.7278 28.1873 77.5537 28.1538 77.4421 28.4217V28.4105ZM58.8042 42.6436L58.9047 42.0185L60.3667 42.0855C60.2663 41.6278 58.9493 41.7617 59.1949 41.3041C59.4404 40.8352 60.4671 41.3487 60.9247 41.1924C60.8466 40.8352 59.764 40.824 59.6971 40.7459C59.9426 39.7077 60.8801 40.5896 61.5943 40.411C61.36 39.9086 60.3779 40.1877 60.4783 39.5179L62.1524 39.6296C62.2082 39.317 62.0854 39.4398 61.9068 39.3728C61.7283 39.3058 60.9247 39.1719 60.9247 39.0156C61.2595 38.2788 62.3086 38.837 62.5988 38.6807C62.9559 38.4798 61.9292 38.1672 61.8176 38.1784C62.0073 37.4527 62.7997 37.81 63.38 37.7318L62.7104 37.2295C63.0898 36.5039 63.7706 36.9392 64.1612 36.5039L63.4916 36.3364C63.659 36.2136 63.8264 35.9122 64.0161 35.8564C64.2728 35.7783 65.2661 36.0462 64.3844 35.4434L65.3889 35.1085L64.9425 34.7178L65.9469 34.6061L65.6121 34.1038C65.6567 33.9252 66.7616 33.8359 66.0585 33.5456C66.3487 33.2442 66.583 32.8758 67.0629 33.0991C67.2638 33.2777 67.1522 33.2889 67.0629 33.434C66.6054 34.1484 65.9246 34.8629 65.4112 35.5773C63.8934 37.6983 62.4314 40.2101 60.7015 42.1413C60.3221 42.5543 59.0609 44.1172 58.8042 42.9785H59.6971C59.7975 42.5543 58.86 42.6995 58.8042 42.6436ZM66.996 32.7084C66.8174 32.3623 67.5317 32.0274 67.8442 32.1502C67.9223 32.2172 67.3308 33.3558 66.996 32.7084Z"/>
</mask>
<path d="M77.989 27.9194L77.0961 27.6403L77.7546 27.0598L77.6542 26.7472L77.2077 26.5798L77.5202 25.9658L76.4265 25.4076L76.9845 24.7379C77.0403 24.403 76.3149 24.5481 76.2033 24.2913L76.6497 23.6215L76.5381 23.3983L76.0917 23.2308L76.5381 22.4047L75.7569 22.1145L76.4265 20.5517L74.9757 20.3284L75.6453 18.933L74.7524 18.6539L75.0761 17.6046L74.306 17.1357L74.652 15.7626L73.6476 15.651C73.8708 14.97 73.815 14.8919 73.2123 14.5793L73.3797 13.7533C72.911 13.3849 72.5873 13.6416 72.5985 12.8602C67.1187 11.3867 61.5274 10.1475 56.003 8.80796C53.3357 8.17166 50.6906 7.35674 48.0121 6.75393C41.1708 5.20224 34.1844 4.20872 27.3654 2.51191C24.207 1.73049 21.1268 0.625329 17.9349 0.0113525C15.4573 3.98545 12.7453 7.7028 9.82127 11.342C6.31691 15.6733 -1.84134 24.1797 0.379576 30.2525C1.95319 34.5615 10.636 37.1402 14.6649 38.6249C27.3431 43.3134 40.1217 47.1871 53.3915 49.8997C55.5119 49.8997 57.1748 50.2793 59.2841 49.5313C66.0808 47.1201 70.0762 36.7495 74.8194 31.5809C75.6564 30.6655 76.7948 29.7836 77.5537 28.8459C77.7769 28.5668 78.0671 28.2878 78.0001 27.897L77.989 27.9194ZM76.7725 26.0105C76.2479 26.6914 75.5448 27.2049 74.9868 27.8524C74.2168 28.7454 73.3351 30.4423 72.5873 31.1455C72.0851 31.6144 71.7949 31.3241 72.2972 30.7437C72.632 30.3641 72.5092 30.3864 72.6878 30.1408C72.844 29.9176 73.3239 30.1408 73.123 29.4711L73.8596 29.0803L73.6811 28.6896C73.9043 28.4329 74.1944 28.3324 74.5292 28.3547C74.6408 28.0757 74.3618 28.1426 74.3395 28.1091C74.0717 27.6514 74.7636 27.8524 74.931 27.5733V27.1268C74.9199 27.1268 75.4221 26.9035 75.4221 26.9035L75.3105 26.5686L75.8685 26.457C75.5114 25.7314 76.2703 25.843 76.7613 26.0105H76.7725ZM75.8796 22.5499L68.4022 31.4804L68.2236 30.9223L68.8486 30.699L68.6812 30.2525L69.3062 30.0292L69.3285 29.3817L69.8195 29.259C69.6856 28.712 69.9646 28.3659 70.5338 28.3547V27.5733L71.0918 27.6291L70.8686 27.1826C71.1588 26.6914 71.5494 26.7584 71.9847 26.5128L71.6499 26.2895C71.9177 25.9323 72.1856 25.8095 72.6096 25.6756L72.5538 25.2402C73.0784 25.2625 73.2904 24.4923 73.3686 24.4364C73.536 24.3248 73.8708 24.3471 73.9489 24.2243C73.9824 24.1685 73.8819 23.9899 73.9489 23.8894C74.1721 23.5322 75.0538 23.1415 75.1096 23.0857C75.2547 22.9071 75.0649 22.2261 75.9131 22.5499H75.8796ZM74.9868 19.0893C75.1765 19.2679 74.1275 20.6744 73.9601 20.9089C73.4913 21.5898 72.9333 22.4159 72.4088 23.041C72.2414 23.2531 72.0182 23.6439 71.7391 23.655C71.5271 22.9741 72.2525 22.9517 72.353 22.7731C72.4088 22.6838 72.2414 22.4717 72.353 22.3266C72.4199 22.2261 72.632 22.2038 72.6878 22.1033C72.8552 21.8243 73.1007 21.1098 73.3574 20.7638C73.5694 20.4735 73.7926 20.2726 73.9712 19.9042C74.2391 19.3237 74.1051 18.9553 74.9757 19.0893H74.9868ZM73.1342 15.0705C73.3016 15.104 73.2793 15.2715 73.257 15.4054C73.1454 16.0194 72.498 16.7896 72.2972 17.4148L71.8619 17.1357C72.1186 16.8455 72.7771 14.9924 73.1342 15.0705ZM50.646 48.962C37.6218 45.8028 25.3342 42.2194 12.7899 37.4862C5.14506 34.6061 -3.03551 32.3512 2.19872 22.2596C5.21203 16.4548 10.5355 11.5988 14.3189 6.25158C15.6582 4.365 16.7519 2.29981 18.0688 0.390902L18.5375 0.357412C25.2115 2.47842 32.0639 3.98545 38.9164 5.43667C42.1418 6.11763 45.4229 6.58648 48.626 7.33442C51.5611 8.01537 54.4628 8.90843 57.3869 9.62287C62.3086 10.8173 67.2527 11.889 72.1409 13.1728C72.2414 13.3179 72.1744 13.4853 72.1409 13.6305C71.94 14.3449 70.8352 16.3096 70.4222 17.0464C68.5473 20.4289 65.5116 24.5258 63.034 27.5175C60.3779 30.7213 57.4092 33.2331 55.1102 36.783C53.0901 39.9086 50.6572 44.7423 52.945 48.3257C53.2129 48.7499 53.6035 49.0067 53.7709 49.4532C52.733 49.2969 51.6728 49.2076 50.646 48.9508V48.962ZM77.4421 28.4105C74.9199 30.6209 72.7659 33.0433 70.9244 35.8452C67.6768 40.7571 63.1456 49.5983 56.2932 49.6876C54.6191 49.7099 53.6481 48.8727 53.012 47.3768C51.5165 43.8716 53.6928 39.7412 55.5901 36.8053C56.0476 36.102 56.4048 35.6666 57.1302 35.2201L56.907 34.9968C57.0409 34.4052 58.0677 34.6731 57.6324 34.048L58.581 33.5456L58.2462 33.3782C58.4025 32.6302 59.1725 33.2107 59.2507 32.5967L58.9158 32.5409C59.1167 32.2507 59.3623 32.2284 59.6971 32.2619V31.7149C59.7082 31.7149 60.0988 31.5921 60.0988 31.5921C60.1547 31.5251 60.0542 31.3465 60.1323 31.1902C60.4337 30.6767 62.2416 29.0692 62.822 28.3994C64.2282 26.7584 65.7683 24.0011 67.1299 22.6615C67.2527 22.5387 67.487 22.5387 67.5763 22.4271C67.6321 22.3601 67.5205 22.0587 67.7326 21.8466C67.8776 21.6903 68.1455 21.6791 68.1678 21.6345C68.2348 21.5229 68.1232 21.2549 68.2348 21.0875C68.3129 20.9647 68.7035 20.9647 68.7928 20.7638C68.8374 20.6521 68.6812 20.4847 68.8374 20.2502C68.9825 20.0381 69.5182 19.9153 69.5182 19.8037C69.5182 19.7591 69.2727 19.7032 69.3731 19.4465C69.5071 19.1004 69.9088 19.0223 70.0204 18.8437C70.0874 18.7432 69.9758 18.5423 70.0762 18.3637C70.2102 18.1181 70.9244 17.359 71.0472 17.1469C71.1253 17.0129 71.0472 16.7115 71.1923 16.4548C71.3262 16.2203 71.5941 16.1868 71.6164 16.1533C71.6722 16.0752 71.4825 15.8408 71.5271 15.6845C71.5717 15.5282 71.8507 15.4947 71.9177 15.3942C71.9958 15.2715 71.8507 15.0705 71.8731 14.9142C71.8954 14.7691 72.2972 13.9319 72.4088 13.8872C72.6766 13.7533 72.9891 13.8091 72.9221 14.1775C72.844 14.5905 72.219 15.7068 71.9847 16.1422C67.8442 23.8895 61.4493 30.1408 56.1816 37.062C54.195 39.6854 51.3603 45.0102 53.8825 48.0466C54.3178 48.5713 55.6459 49.5313 56.003 48.549C54.8869 48.6718 54.195 47.8345 53.7821 46.9191C52.8781 44.8651 53.7151 42.0631 54.6749 40.1431C54.8981 39.6854 56.0141 37.7988 56.3266 37.5532C56.5945 37.3411 56.9293 37.3746 57.2306 37.2853L56.9628 37.0732C56.6168 36.783 57.5766 36.4704 57.7886 36.6155C57.8444 36.2918 57.186 36.2918 57.5989 35.9792C57.811 35.8118 58.302 35.8341 58.5699 35.7224L58.1235 35.3317C58.3578 34.9857 58.7708 35.0527 59.1279 34.941C59.1837 34.6061 58.7931 34.7959 58.9047 34.3829L59.7864 34.2601V33.9363L59.3511 34.048C59.3846 33.5679 60.0765 33.5903 60.1993 33.3782C60.2663 33.2665 60.1323 33.0879 60.1993 32.9316C60.3109 32.6302 60.7462 32.5409 61.0363 32.5967L60.8689 32.1502L61.5943 31.927L61.2595 31.5362L61.9292 31.2572V30.7548L62.5988 30.5316C62.4425 30.3976 62.2974 30.2302 62.4314 30.0292C63.2238 29.4376 63.6702 27.9417 64.7193 27.9082C64.7639 27.8636 64.3175 27.1491 65.0541 26.9593C65.2884 26.8924 65.5786 27.1268 65.7237 26.6914H65.3889C65.2215 26.0328 66.2705 26.2449 66.3933 25.9658L65.9469 25.7425C66.1255 25.3183 66.8174 25.5863 66.9513 25.296C67.0741 25.0393 66.65 25.1621 66.6165 25.1286C66.5719 24.5592 67.0518 24.5258 67.5094 24.5704V24.2355L67.1745 24.1797C67.487 23.6104 68.0004 23.9564 68.4022 23.6215C68.4022 23.5211 67.1857 23.2978 68.737 23.0076L68.4022 22.6168L69.1834 22.1703C69.1834 21.8912 68.8486 22.0698 68.9602 21.668H69.7414L69.4066 21.2214H69.853L69.7414 20.5517L70.4111 20.44L70.1879 19.9935L70.8575 19.8819C70.9356 19.547 70.5115 19.6809 70.5338 19.4018C70.5785 18.9553 70.9579 19.2009 71.1923 18.933L71.0807 18.4865L71.5271 18.4306C71.5941 18.2297 71.3485 18.1627 71.3374 18.0399C71.3374 17.8836 71.6499 17.6381 71.6387 17.426L72.0628 17.7162C70.8017 20.6075 69.1053 23.4541 67.1187 25.91C64.1054 29.6385 60.9136 33.2665 57.9114 37.0174C55.8579 39.5849 53.5812 41.8287 53.8937 45.3898C53.8937 45.5126 54.128 47.0531 54.4517 46.6736C54.3289 45.267 54.2285 43.8604 54.6749 42.4874C55.1771 40.9357 57.5096 38.29 58.5922 36.9169C60.2663 34.7959 62.0854 32.7977 63.659 30.5985L64.6188 30.4981C64.4068 30.1855 63.8934 30.3529 64.1835 29.8394H65.0652C65.1433 29.5269 64.8197 29.5492 64.6188 29.4934L64.7527 29.1808C64.9313 29.0692 65.4447 29.3148 65.6232 28.991C64.6188 28.3994 66.0139 28.3436 66.0697 28.2654C66.1143 28.2096 65.7906 27.2272 66.8509 27.3724L66.7839 26.8142C66.9625 26.6579 67.3419 26.6803 67.4647 26.4793C67.5205 26.39 67.4312 26.2226 67.5094 26.0886C67.6544 25.843 68.8374 24.202 69.0048 24.0569C69.1164 23.9564 69.362 23.9564 69.4066 23.9006C69.574 23.6327 69.2504 22.9741 70.199 23.1304L69.8642 22.8513C70.0539 22.2708 70.1097 22.0698 70.757 22.2373L70.4222 21.8466C70.5115 21.4224 71.17 21.2661 71.2034 21.2326C71.2481 21.188 70.7905 20.3172 71.6499 20.5628C71.7949 20.2614 71.4267 20.2056 71.4267 20.1721C71.382 19.7926 71.8619 19.48 72.2079 19.5581C72.3083 19.2679 71.9065 19.2679 71.8731 19.2232C71.7949 19.1228 72.353 18.2632 72.7659 18.5534C72.8663 18.1962 72.3083 18.3525 72.4311 17.9395C72.4869 17.7385 73.1342 17.7385 73.3239 17.6604L72.8775 17.4371C73.0226 16.8008 73.2681 15.8743 74.1051 16.1087C74.3842 16.3543 71.661 21.1098 71.3374 21.6568C67.0071 28.8347 61.1479 33.8694 56.2597 40.3998C55.936 40.8352 55.6124 41.2594 55.378 41.7506C55.2106 42.0966 54.5856 43.3581 55.2441 43.3581C55.4784 41.9738 56.3043 41.0138 57.1413 39.9533C61.851 34.0926 67.3308 28.9687 71.2927 22.5164L74.1051 17.6157L74.5404 17.6827L74.4846 18.1181C71.3597 23.5099 67.8665 28.7008 63.6702 33.3112C61.9292 35.2201 60.0765 36.8834 58.4806 38.9486C57.6212 40.0649 56.5498 41.2036 56.4717 42.6883L57.9449 40.3105C60.4448 36.9169 63.6144 34.1484 66.2929 30.9111C68.112 28.7008 69.8307 26.39 71.3374 23.9676L71.6499 24.0011C69.1276 27.6961 66.6835 31.4246 63.5586 34.6619C61.8399 36.4481 60.11 37.8211 58.6815 39.9421C58.4359 40.3105 57.1748 42.2418 57.4762 42.5878L57.6994 42.532C59.8087 38.0221 63.9492 35.0303 67.0741 31.2572C68.4691 29.5604 69.4401 27.8077 70.7124 26.0774C70.9914 25.6979 71.4936 25.1844 71.8061 24.8272C71.8954 24.7267 71.8954 24.4923 72.0293 24.3806C72.1409 24.2913 72.3753 24.3025 72.4088 24.2578C72.4757 24.1797 72.3641 23.8448 72.5204 23.6439C72.6766 23.4429 73.0449 23.5434 73.2012 23.3201C72.4869 22.695 73.8819 22.7396 73.8708 22.5387L73.536 22.2038C73.7369 21.7908 74.0828 22.1703 74.3172 21.8689L74.094 21.534L74.652 21.3666C74.7413 21.2884 73.9712 20.4065 75.6788 20.8419C75.8015 20.8754 76.0694 20.8865 75.9913 21.0875C74.2279 23.1415 72.1298 24.9276 70.478 27.071C69.0718 28.8906 67.8888 30.7883 66.3933 32.5856C64.2505 35.1531 61.572 37.4416 59.5966 40.0761C59.0163 40.8464 57.8333 42.465 58.3132 43.4809C58.4918 43.8493 59.3734 43.9051 59.7082 43.76C59.8422 43.7041 61.1368 42.3646 61.3265 42.1413C62.0073 41.3599 62.476 40.2101 63.4581 39.797L63.4023 39.2389L64.1724 38.837L63.9603 38.5132C64.1612 38.1672 64.4402 38.0556 64.842 38.1114V37.7765H64.5072C64.5407 37.1625 65.4112 37.2741 65.5116 37.0509C65.6456 36.7606 65.0652 37.0174 65.1768 36.716C65.2996 36.3811 65.9469 36.1243 66.2929 36.102C66.371 35.8006 66.1031 35.8899 65.9581 35.7113L66.8509 35.1531C65.8688 34.9299 67.3196 34.5838 67.4089 34.3717L67.1857 34.1484L67.8553 33.7019C67.3196 33.2219 68.1455 33.1326 68.2571 32.9875C68.3129 32.9093 68.1455 32.6972 68.2459 32.5409C68.3017 32.4405 68.5361 32.3846 68.6477 32.2619C70.6901 29.7613 72.4088 26.9147 74.6743 24.5592C74.8306 24.3918 75.4444 23.7332 75.5672 23.6662C75.7122 23.5992 76.2368 23.4987 76.1252 23.7778C74.8641 25.3742 73.4244 26.8254 72.1744 28.4217C68.737 32.7977 66.1589 37.7765 62.3421 41.918C61.2484 43.1013 59.1949 45.2335 57.6547 43.5925C57.3757 43.5479 57.4762 43.7934 57.5431 43.9274C57.9114 44.8205 59.1949 44.6865 59.9426 44.4186C61.5832 43.8493 64.2505 40.1096 65.467 38.6695C65.6344 38.4686 66.2259 38.0444 66.2705 37.9663C66.4156 37.743 66.3821 37.3188 66.7393 37.0397C66.996 36.8388 67.4424 36.9169 67.5317 36.716C67.6656 36.4257 67.0853 36.6825 67.1969 36.3811L68.0897 35.8229C67.4424 35.3094 68.5696 34.8852 68.7035 34.6508C68.7593 34.5503 68.5696 34.2043 68.8151 33.9698C68.9825 33.8135 69.2839 33.9028 69.4289 33.6907C69.5405 33.4786 69.0606 33.5791 69.2057 33.2442C69.2727 33.0768 69.6187 33.0991 69.7079 32.9651C69.8307 32.7977 69.7191 32.3958 69.8977 32.206C70.0093 32.0832 70.5227 31.9828 70.5338 31.9493C70.5673 31.9046 70.4111 31.659 70.4445 31.4804C70.5115 31.1232 70.8798 30.9781 71.2034 30.9446L71.2592 30.2748L71.7615 30.1632L71.7838 29.5157C72.632 29.4934 72.1744 28.9241 72.4646 28.6338C72.5538 28.5445 72.7771 28.5668 72.8552 28.4664C72.9333 28.3771 72.9221 28.1091 73.0561 27.9417C73.5471 27.2942 74.2391 26.6244 74.7748 25.977C75.0538 25.6421 75.5225 24.7155 75.9243 24.7267C76.0247 24.7267 76.3037 24.7825 76.2256 24.9723L74.6632 26.6468C73.3909 28.7901 71.7391 30.7325 70.3329 32.8088C70.0762 33.1884 68.4915 35.3429 68.7482 35.6331L69.083 35.4657L71.6722 31.6367C72.0963 31.5251 72.2302 31.6144 71.9958 32.0051C69.2169 35.3206 67.1857 39.5179 64.5518 42.8669C63.8599 43.7488 63.1791 44.24 62.4314 44.9879C62.3421 45.0772 61.6278 45.9591 62.0966 45.7693C62.2416 45.7135 63.0898 44.9879 63.2684 44.8205C64.4849 43.7153 65.4224 42.3199 66.3263 40.958C69.0718 36.8164 72.2079 31.6814 75.4332 27.964C75.6564 27.7073 76.5493 26.7137 76.8283 26.7919L76.9957 27.071C76.672 27.4059 76.3149 27.618 75.9913 27.964C74.4958 29.6385 72.8105 31.9828 71.4825 33.8359C68.0004 38.6695 64.496 46.3387 58.4694 48.2811C57.9895 48.4373 57.398 48.4597 56.9851 48.5825C56.8289 48.6271 56.7619 48.7387 56.7954 48.895C61.7952 48.6048 64.9983 44.2065 67.5986 40.4445C69.0941 38.29 70.3776 35.9345 71.9289 33.8359C72.6431 32.8647 74.2614 30.6878 75.1096 29.9846C75.5002 29.6608 75.7457 29.9176 75.5448 29.1362L76.114 29.0915L76.6051 28.0422C76.7278 28.1873 77.5537 28.1538 77.4421 28.4217V28.4105ZM58.8042 42.6436L58.9047 42.0185L60.3667 42.0855C60.2663 41.6278 58.9493 41.7617 59.1949 41.3041C59.4404 40.8352 60.4671 41.3487 60.9247 41.1924C60.8466 40.8352 59.764 40.824 59.6971 40.7459C59.9426 39.7077 60.8801 40.5896 61.5943 40.411C61.36 39.9086 60.3779 40.1877 60.4783 39.5179L62.1524 39.6296C62.2082 39.317 62.0854 39.4398 61.9068 39.3728C61.7283 39.3058 60.9247 39.1719 60.9247 39.0156C61.2595 38.2788 62.3086 38.837 62.5988 38.6807C62.9559 38.4798 61.9292 38.1672 61.8176 38.1784C62.0073 37.4527 62.7997 37.81 63.38 37.7318L62.7104 37.2295C63.0898 36.5039 63.7706 36.9392 64.1612 36.5039L63.4916 36.3364C63.659 36.2136 63.8264 35.9122 64.0161 35.8564C64.2728 35.7783 65.2661 36.0462 64.3844 35.4434L65.3889 35.1085L64.9425 34.7178L65.9469 34.6061L65.6121 34.1038C65.6567 33.9252 66.7616 33.8359 66.0585 33.5456C66.3487 33.2442 66.583 32.8758 67.0629 33.0991C67.2638 33.2777 67.1522 33.2889 67.0629 33.434C66.6054 34.1484 65.9246 34.8629 65.4112 35.5773C63.8934 37.6983 62.4314 40.2101 60.7015 42.1413C60.3221 42.5543 59.0609 44.1172 58.8042 42.9785H59.6971C59.7975 42.5543 58.86 42.6995 58.8042 42.6436ZM66.996 32.7084C66.8174 32.3623 67.5317 32.0274 67.8442 32.1502C67.9223 32.2172 67.3308 33.3558 66.996 32.7084Z" fill="black"/>
<path d="M77.989 27.9194L77.0961 27.6403L77.7546 27.0598L77.6542 26.7472L77.2077 26.5798L77.5202 25.9658L76.4265 25.4076L76.9845 24.7379C77.0403 24.403 76.3149 24.5481 76.2033 24.2913L76.6497 23.6215L76.5381 23.3983L76.0917 23.2308L76.5381 22.4047L75.7569 22.1145L76.4265 20.5517L74.9757 20.3284L75.6453 18.933L74.7524 18.6539L75.0761 17.6046L74.306 17.1357L74.652 15.7626L73.6476 15.651C73.8708 14.97 73.815 14.8919 73.2123 14.5793L73.3797 13.7533C72.911 13.3849 72.5873 13.6416 72.5985 12.8602C67.1187 11.3867 61.5274 10.1475 56.003 8.80796C53.3357 8.17166 50.6906 7.35674 48.0121 6.75393C41.1708 5.20224 34.1844 4.20872 27.3654 2.51191C24.207 1.73049 21.1268 0.625329 17.9349 0.0113525C15.4573 3.98545 12.7453 7.7028 9.82127 11.342C6.31691 15.6733 -1.84134 24.1797 0.379576 30.2525C1.95319 34.5615 10.636 37.1402 14.6649 38.6249C27.3431 43.3134 40.1217 47.1871 53.3915 49.8997C55.5119 49.8997 57.1748 50.2793 59.2841 49.5313C66.0808 47.1201 70.0762 36.7495 74.8194 31.5809C75.6564 30.6655 76.7948 29.7836 77.5537 28.8459C77.7769 28.5668 78.0671 28.2878 78.0001 27.897L77.989 27.9194ZM76.7725 26.0105C76.2479 26.6914 75.5448 27.2049 74.9868 27.8524C74.2168 28.7454 73.3351 30.4423 72.5873 31.1455C72.0851 31.6144 71.7949 31.3241 72.2972 30.7437C72.632 30.3641 72.5092 30.3864 72.6878 30.1408C72.844 29.9176 73.3239 30.1408 73.123 29.4711L73.8596 29.0803L73.6811 28.6896C73.9043 28.4329 74.1944 28.3324 74.5292 28.3547C74.6408 28.0757 74.3618 28.1426 74.3395 28.1091C74.0717 27.6514 74.7636 27.8524 74.931 27.5733V27.1268C74.9199 27.1268 75.4221 26.9035 75.4221 26.9035L75.3105 26.5686L75.8685 26.457C75.5114 25.7314 76.2703 25.843 76.7613 26.0105H76.7725ZM75.8796 22.5499L68.4022 31.4804L68.2236 30.9223L68.8486 30.699L68.6812 30.2525L69.3062 30.0292L69.3285 29.3817L69.8195 29.259C69.6856 28.712 69.9646 28.3659 70.5338 28.3547V27.5733L71.0918 27.6291L70.8686 27.1826C71.1588 26.6914 71.5494 26.7584 71.9847 26.5128L71.6499 26.2895C71.9177 25.9323 72.1856 25.8095 72.6096 25.6756L72.5538 25.2402C73.0784 25.2625 73.2904 24.4923 73.3686 24.4364C73.536 24.3248 73.8708 24.3471 73.9489 24.2243C73.9824 24.1685 73.8819 23.9899 73.9489 23.8894C74.1721 23.5322 75.0538 23.1415 75.1096 23.0857C75.2547 22.9071 75.0649 22.2261 75.9131 22.5499H75.8796ZM74.9868 19.0893C75.1765 19.2679 74.1275 20.6744 73.9601 20.9089C73.4913 21.5898 72.9333 22.4159 72.4088 23.041C72.2414 23.2531 72.0182 23.6439 71.7391 23.655C71.5271 22.9741 72.2525 22.9517 72.353 22.7731C72.4088 22.6838 72.2414 22.4717 72.353 22.3266C72.4199 22.2261 72.632 22.2038 72.6878 22.1033C72.8552 21.8243 73.1007 21.1098 73.3574 20.7638C73.5694 20.4735 73.7926 20.2726 73.9712 19.9042C74.2391 19.3237 74.1051 18.9553 74.9757 19.0893H74.9868ZM73.1342 15.0705C73.3016 15.104 73.2793 15.2715 73.257 15.4054C73.1454 16.0194 72.498 16.7896 72.2972 17.4148L71.8619 17.1357C72.1186 16.8455 72.7771 14.9924 73.1342 15.0705ZM50.646 48.962C37.6218 45.8028 25.3342 42.2194 12.7899 37.4862C5.14506 34.6061 -3.03551 32.3512 2.19872 22.2596C5.21203 16.4548 10.5355 11.5988 14.3189 6.25158C15.6582 4.365 16.7519 2.29981 18.0688 0.390902L18.5375 0.357412C25.2115 2.47842 32.0639 3.98545 38.9164 5.43667C42.1418 6.11763 45.4229 6.58648 48.626 7.33442C51.5611 8.01537 54.4628 8.90843 57.3869 9.62287C62.3086 10.8173 67.2527 11.889 72.1409 13.1728C72.2414 13.3179 72.1744 13.4853 72.1409 13.6305C71.94 14.3449 70.8352 16.3096 70.4222 17.0464C68.5473 20.4289 65.5116 24.5258 63.034 27.5175C60.3779 30.7213 57.4092 33.2331 55.1102 36.783C53.0901 39.9086 50.6572 44.7423 52.945 48.3257C53.2129 48.7499 53.6035 49.0067 53.7709 49.4532C52.733 49.2969 51.6728 49.2076 50.646 48.9508V48.962ZM77.4421 28.4105C74.9199 30.6209 72.7659 33.0433 70.9244 35.8452C67.6768 40.7571 63.1456 49.5983 56.2932 49.6876C54.6191 49.7099 53.6481 48.8727 53.012 47.3768C51.5165 43.8716 53.6928 39.7412 55.5901 36.8053C56.0476 36.102 56.4048 35.6666 57.1302 35.2201L56.907 34.9968C57.0409 34.4052 58.0677 34.6731 57.6324 34.048L58.581 33.5456L58.2462 33.3782C58.4025 32.6302 59.1725 33.2107 59.2507 32.5967L58.9158 32.5409C59.1167 32.2507 59.3623 32.2284 59.6971 32.2619V31.7149C59.7082 31.7149 60.0988 31.5921 60.0988 31.5921C60.1547 31.5251 60.0542 31.3465 60.1323 31.1902C60.4337 30.6767 62.2416 29.0692 62.822 28.3994C64.2282 26.7584 65.7683 24.0011 67.1299 22.6615C67.2527 22.5387 67.487 22.5387 67.5763 22.4271C67.6321 22.3601 67.5205 22.0587 67.7326 21.8466C67.8776 21.6903 68.1455 21.6791 68.1678 21.6345C68.2348 21.5229 68.1232 21.2549 68.2348 21.0875C68.3129 20.9647 68.7035 20.9647 68.7928 20.7638C68.8374 20.6521 68.6812 20.4847 68.8374 20.2502C68.9825 20.0381 69.5182 19.9153 69.5182 19.8037C69.5182 19.7591 69.2727 19.7032 69.3731 19.4465C69.5071 19.1004 69.9088 19.0223 70.0204 18.8437C70.0874 18.7432 69.9758 18.5423 70.0762 18.3637C70.2102 18.1181 70.9244 17.359 71.0472 17.1469C71.1253 17.0129 71.0472 16.7115 71.1923 16.4548C71.3262 16.2203 71.5941 16.1868 71.6164 16.1533C71.6722 16.0752 71.4825 15.8408 71.5271 15.6845C71.5717 15.5282 71.8507 15.4947 71.9177 15.3942C71.9958 15.2715 71.8507 15.0705 71.8731 14.9142C71.8954 14.7691 72.2972 13.9319 72.4088 13.8872C72.6766 13.7533 72.9891 13.8091 72.9221 14.1775C72.844 14.5905 72.219 15.7068 71.9847 16.1422C67.8442 23.8895 61.4493 30.1408 56.1816 37.062C54.195 39.6854 51.3603 45.0102 53.8825 48.0466C54.3178 48.5713 55.6459 49.5313 56.003 48.549C54.8869 48.6718 54.195 47.8345 53.7821 46.9191C52.8781 44.8651 53.7151 42.0631 54.6749 40.1431C54.8981 39.6854 56.0141 37.7988 56.3266 37.5532C56.5945 37.3411 56.9293 37.3746 57.2306 37.2853L56.9628 37.0732C56.6168 36.783 57.5766 36.4704 57.7886 36.6155C57.8444 36.2918 57.186 36.2918 57.5989 35.9792C57.811 35.8118 58.302 35.8341 58.5699 35.7224L58.1235 35.3317C58.3578 34.9857 58.7708 35.0527 59.1279 34.941C59.1837 34.6061 58.7931 34.7959 58.9047 34.3829L59.7864 34.2601V33.9363L59.3511 34.048C59.3846 33.5679 60.0765 33.5903 60.1993 33.3782C60.2663 33.2665 60.1323 33.0879 60.1993 32.9316C60.3109 32.6302 60.7462 32.5409 61.0363 32.5967L60.8689 32.1502L61.5943 31.927L61.2595 31.5362L61.9292 31.2572V30.7548L62.5988 30.5316C62.4425 30.3976 62.2974 30.2302 62.4314 30.0292C63.2238 29.4376 63.6702 27.9417 64.7193 27.9082C64.7639 27.8636 64.3175 27.1491 65.0541 26.9593C65.2884 26.8924 65.5786 27.1268 65.7237 26.6914H65.3889C65.2215 26.0328 66.2705 26.2449 66.3933 25.9658L65.9469 25.7425C66.1255 25.3183 66.8174 25.5863 66.9513 25.296C67.0741 25.0393 66.65 25.1621 66.6165 25.1286C66.5719 24.5592 67.0518 24.5258 67.5094 24.5704V24.2355L67.1745 24.1797C67.487 23.6104 68.0004 23.9564 68.4022 23.6215C68.4022 23.5211 67.1857 23.2978 68.737 23.0076L68.4022 22.6168L69.1834 22.1703C69.1834 21.8912 68.8486 22.0698 68.9602 21.668H69.7414L69.4066 21.2214H69.853L69.7414 20.5517L70.4111 20.44L70.1879 19.9935L70.8575 19.8819C70.9356 19.547 70.5115 19.6809 70.5338 19.4018C70.5785 18.9553 70.9579 19.2009 71.1923 18.933L71.0807 18.4865L71.5271 18.4306C71.5941 18.2297 71.3485 18.1627 71.3374 18.0399C71.3374 17.8836 71.6499 17.6381 71.6387 17.426L72.0628 17.7162C70.8017 20.6075 69.1053 23.4541 67.1187 25.91C64.1054 29.6385 60.9136 33.2665 57.9114 37.0174C55.8579 39.5849 53.5812 41.8287 53.8937 45.3898C53.8937 45.5126 54.128 47.0531 54.4517 46.6736C54.3289 45.267 54.2285 43.8604 54.6749 42.4874C55.1771 40.9357 57.5096 38.29 58.5922 36.9169C60.2663 34.7959 62.0854 32.7977 63.659 30.5985L64.6188 30.4981C64.4068 30.1855 63.8934 30.3529 64.1835 29.8394H65.0652C65.1433 29.5269 64.8197 29.5492 64.6188 29.4934L64.7527 29.1808C64.9313 29.0692 65.4447 29.3148 65.6232 28.991C64.6188 28.3994 66.0139 28.3436 66.0697 28.2654C66.1143 28.2096 65.7906 27.2272 66.8509 27.3724L66.7839 26.8142C66.9625 26.6579 67.3419 26.6803 67.4647 26.4793C67.5205 26.39 67.4312 26.2226 67.5094 26.0886C67.6544 25.843 68.8374 24.202 69.0048 24.0569C69.1164 23.9564 69.362 23.9564 69.4066 23.9006C69.574 23.6327 69.2504 22.9741 70.199 23.1304L69.8642 22.8513C70.0539 22.2708 70.1097 22.0698 70.757 22.2373L70.4222 21.8466C70.5115 21.4224 71.17 21.2661 71.2034 21.2326C71.2481 21.188 70.7905 20.3172 71.6499 20.5628C71.7949 20.2614 71.4267 20.2056 71.4267 20.1721C71.382 19.7926 71.8619 19.48 72.2079 19.5581C72.3083 19.2679 71.9065 19.2679 71.8731 19.2232C71.7949 19.1228 72.353 18.2632 72.7659 18.5534C72.8663 18.1962 72.3083 18.3525 72.4311 17.9395C72.4869 17.7385 73.1342 17.7385 73.3239 17.6604L72.8775 17.4371C73.0226 16.8008 73.2681 15.8743 74.1051 16.1087C74.3842 16.3543 71.661 21.1098 71.3374 21.6568C67.0071 28.8347 61.1479 33.8694 56.2597 40.3998C55.936 40.8352 55.6124 41.2594 55.378 41.7506C55.2106 42.0966 54.5856 43.3581 55.2441 43.3581C55.4784 41.9738 56.3043 41.0138 57.1413 39.9533C61.851 34.0926 67.3308 28.9687 71.2927 22.5164L74.1051 17.6157L74.5404 17.6827L74.4846 18.1181C71.3597 23.5099 67.8665 28.7008 63.6702 33.3112C61.9292 35.2201 60.0765 36.8834 58.4806 38.9486C57.6212 40.0649 56.5498 41.2036 56.4717 42.6883L57.9449 40.3105C60.4448 36.9169 63.6144 34.1484 66.2929 30.9111C68.112 28.7008 69.8307 26.39 71.3374 23.9676L71.6499 24.0011C69.1276 27.6961 66.6835 31.4246 63.5586 34.6619C61.8399 36.4481 60.11 37.8211 58.6815 39.9421C58.4359 40.3105 57.1748 42.2418 57.4762 42.5878L57.6994 42.532C59.8087 38.0221 63.9492 35.0303 67.0741 31.2572C68.4691 29.5604 69.4401 27.8077 70.7124 26.0774C70.9914 25.6979 71.4936 25.1844 71.8061 24.8272C71.8954 24.7267 71.8954 24.4923 72.0293 24.3806C72.1409 24.2913 72.3753 24.3025 72.4088 24.2578C72.4757 24.1797 72.3641 23.8448 72.5204 23.6439C72.6766 23.4429 73.0449 23.5434 73.2012 23.3201C72.4869 22.695 73.8819 22.7396 73.8708 22.5387L73.536 22.2038C73.7369 21.7908 74.0828 22.1703 74.3172 21.8689L74.094 21.534L74.652 21.3666C74.7413 21.2884 73.9712 20.4065 75.6788 20.8419C75.8015 20.8754 76.0694 20.8865 75.9913 21.0875C74.2279 23.1415 72.1298 24.9276 70.478 27.071C69.0718 28.8906 67.8888 30.7883 66.3933 32.5856C64.2505 35.1531 61.572 37.4416 59.5966 40.0761C59.0163 40.8464 57.8333 42.465 58.3132 43.4809C58.4918 43.8493 59.3734 43.9051 59.7082 43.76C59.8422 43.7041 61.1368 42.3646 61.3265 42.1413C62.0073 41.3599 62.476 40.2101 63.4581 39.797L63.4023 39.2389L64.1724 38.837L63.9603 38.5132C64.1612 38.1672 64.4402 38.0556 64.842 38.1114V37.7765H64.5072C64.5407 37.1625 65.4112 37.2741 65.5116 37.0509C65.6456 36.7606 65.0652 37.0174 65.1768 36.716C65.2996 36.3811 65.9469 36.1243 66.2929 36.102C66.371 35.8006 66.1031 35.8899 65.9581 35.7113L66.8509 35.1531C65.8688 34.9299 67.3196 34.5838 67.4089 34.3717L67.1857 34.1484L67.8553 33.7019C67.3196 33.2219 68.1455 33.1326 68.2571 32.9875C68.3129 32.9093 68.1455 32.6972 68.2459 32.5409C68.3017 32.4405 68.5361 32.3846 68.6477 32.2619C70.6901 29.7613 72.4088 26.9147 74.6743 24.5592C74.8306 24.3918 75.4444 23.7332 75.5672 23.6662C75.7122 23.5992 76.2368 23.4987 76.1252 23.7778C74.8641 25.3742 73.4244 26.8254 72.1744 28.4217C68.737 32.7977 66.1589 37.7765 62.3421 41.918C61.2484 43.1013 59.1949 45.2335 57.6547 43.5925C57.3757 43.5479 57.4762 43.7934 57.5431 43.9274C57.9114 44.8205 59.1949 44.6865 59.9426 44.4186C61.5832 43.8493 64.2505 40.1096 65.467 38.6695C65.6344 38.4686 66.2259 38.0444 66.2705 37.9663C66.4156 37.743 66.3821 37.3188 66.7393 37.0397C66.996 36.8388 67.4424 36.9169 67.5317 36.716C67.6656 36.4257 67.0853 36.6825 67.1969 36.3811L68.0897 35.8229C67.4424 35.3094 68.5696 34.8852 68.7035 34.6508C68.7593 34.5503 68.5696 34.2043 68.8151 33.9698C68.9825 33.8135 69.2839 33.9028 69.4289 33.6907C69.5405 33.4786 69.0606 33.5791 69.2057 33.2442C69.2727 33.0768 69.6187 33.0991 69.7079 32.9651C69.8307 32.7977 69.7191 32.3958 69.8977 32.206C70.0093 32.0832 70.5227 31.9828 70.5338 31.9493C70.5673 31.9046 70.4111 31.659 70.4445 31.4804C70.5115 31.1232 70.8798 30.9781 71.2034 30.9446L71.2592 30.2748L71.7615 30.1632L71.7838 29.5157C72.632 29.4934 72.1744 28.9241 72.4646 28.6338C72.5538 28.5445 72.7771 28.5668 72.8552 28.4664C72.9333 28.3771 72.9221 28.1091 73.0561 27.9417C73.5471 27.2942 74.2391 26.6244 74.7748 25.977C75.0538 25.6421 75.5225 24.7155 75.9243 24.7267C76.0247 24.7267 76.3037 24.7825 76.2256 24.9723L74.6632 26.6468C73.3909 28.7901 71.7391 30.7325 70.3329 32.8088C70.0762 33.1884 68.4915 35.3429 68.7482 35.6331L69.083 35.4657L71.6722 31.6367C72.0963 31.5251 72.2302 31.6144 71.9958 32.0051C69.2169 35.3206 67.1857 39.5179 64.5518 42.8669C63.8599 43.7488 63.1791 44.24 62.4314 44.9879C62.3421 45.0772 61.6278 45.9591 62.0966 45.7693C62.2416 45.7135 63.0898 44.9879 63.2684 44.8205C64.4849 43.7153 65.4224 42.3199 66.3263 40.958C69.0718 36.8164 72.2079 31.6814 75.4332 27.964C75.6564 27.7073 76.5493 26.7137 76.8283 26.7919L76.9957 27.071C76.672 27.4059 76.3149 27.618 75.9913 27.964C74.4958 29.6385 72.8105 31.9828 71.4825 33.8359C68.0004 38.6695 64.496 46.3387 58.4694 48.2811C57.9895 48.4373 57.398 48.4597 56.9851 48.5825C56.8289 48.6271 56.7619 48.7387 56.7954 48.895C61.7952 48.6048 64.9983 44.2065 67.5986 40.4445C69.0941 38.29 70.3776 35.9345 71.9289 33.8359C72.6431 32.8647 74.2614 30.6878 75.1096 29.9846C75.5002 29.6608 75.7457 29.9176 75.5448 29.1362L76.114 29.0915L76.6051 28.0422C76.7278 28.1873 77.5537 28.1538 77.4421 28.4217V28.4105ZM58.8042 42.6436L58.9047 42.0185L60.3667 42.0855C60.2663 41.6278 58.9493 41.7617 59.1949 41.3041C59.4404 40.8352 60.4671 41.3487 60.9247 41.1924C60.8466 40.8352 59.764 40.824 59.6971 40.7459C59.9426 39.7077 60.8801 40.5896 61.5943 40.411C61.36 39.9086 60.3779 40.1877 60.4783 39.5179L62.1524 39.6296C62.2082 39.317 62.0854 39.4398 61.9068 39.3728C61.7283 39.3058 60.9247 39.1719 60.9247 39.0156C61.2595 38.2788 62.3086 38.837 62.5988 38.6807C62.9559 38.4798 61.9292 38.1672 61.8176 38.1784C62.0073 37.4527 62.7997 37.81 63.38 37.7318L62.7104 37.2295C63.0898 36.5039 63.7706 36.9392 64.1612 36.5039L63.4916 36.3364C63.659 36.2136 63.8264 35.9122 64.0161 35.8564C64.2728 35.7783 65.2661 36.0462 64.3844 35.4434L65.3889 35.1085L64.9425 34.7178L65.9469 34.6061L65.6121 34.1038C65.6567 33.9252 66.7616 33.8359 66.0585 33.5456C66.3487 33.2442 66.583 32.8758 67.0629 33.0991C67.2638 33.2777 67.1522 33.2889 67.0629 33.434C66.6054 34.1484 65.9246 34.8629 65.4112 35.5773C63.8934 37.6983 62.4314 40.2101 60.7015 42.1413C60.3221 42.5543 59.0609 44.1172 58.8042 42.9785H59.6971C59.7975 42.5543 58.86 42.6995 58.8042 42.6436ZM66.996 32.7084C66.8174 32.3623 67.5317 32.0274 67.8442 32.1502C67.9223 32.2172 67.3308 33.3558 66.996 32.7084Z" stroke="black" stroke-width="0.6" mask="url(#path-1-outside-1_304_3)"/>
<path d="M41.8851 27.3498C42.3315 26.8028 43.5591 25.7758 43.8493 25.2958C43.9498 25.1284 43.9944 24.9944 43.9497 24.7935L23.1691 19.223C22.8789 19.2788 21.5732 20.6296 21.3053 20.9422C19.7094 22.8287 17.3992 26.2893 16.897 28.7006C16.6514 29.895 16.897 29.9285 17.9907 30.3974C23.0687 32.5965 29.0283 34.2487 34.363 35.7892C34.8652 35.9343 36.4611 36.4367 36.8629 36.4032C36.9857 36.392 37.0973 36.3474 37.1977 36.2804C37.566 36.0348 38.2468 33.8245 38.5035 33.2328C39.2847 31.4802 40.7021 28.8345 41.8851 27.3498ZM37.0415 35.9009C36.8406 36.046 34.8652 35.4432 34.4634 35.3315C32.3429 34.751 30.189 34.0813 28.102 33.4338C24.4079 32.284 20.725 31.1007 17.2094 29.4708C17.109 29.3034 17.7117 27.495 17.8233 27.1824C18.4929 25.4186 20.0777 23.0743 21.2383 21.5561C21.7964 20.8305 22.4548 20.1719 23.1356 19.5579L43.1016 25.1172L43.0458 25.4074C41.7065 26.6577 40.6909 28.1648 39.7869 29.7388C38.682 31.67 37.6441 33.7575 37.0191 35.912L37.0415 35.9009Z" fill="black"/>
<path d="M27.1867 16.823C34.9878 18.9887 42.8001 21.065 50.7351 22.7395C53.4136 23.3088 56.1368 23.6995 58.8153 24.2577C59.4068 24.3805 61.9737 25.1842 62.275 25.1061C63.0451 24.894 62.0853 24.6038 61.7951 24.5144C58.0452 23.3423 53.2239 22.7953 49.2731 21.9692C38.2801 19.6585 27.4099 16.343 16.5732 13.3736C15.0665 12.9605 13.3143 12.2572 11.83 11.967C11.5622 11.9112 11.6961 12.2126 11.6961 12.38C16.8522 13.8424 22.0083 15.3941 27.1755 16.823H27.1867Z" fill="black"/>
<path d="M10.1782 14.4228C10.513 14.6126 11.2943 14.7912 11.7072 14.9029C16.6066 16.2871 21.6399 17.2137 26.5505 18.5867C36.9185 21.478 46.7285 24.3693 57.3978 26.1331C58.38 26.3005 60.2772 26.8698 61.1143 26.8698C61.3151 26.8698 61.4714 26.7694 61.5942 26.6242C61.4602 26.4456 61.2482 26.4345 61.0584 26.3786C58.9491 25.7758 56.226 25.5972 54.0051 25.173C40.0323 22.505 26.4501 17.9839 12.6447 14.635C12.2652 14.5456 10.0555 13.9428 9.92153 14.0656C9.87688 14.2889 10.022 14.3335 10.1782 14.4228Z" fill="black"/>
<path d="M7.85691 18.5309L8.09128 18.9774L8.80555 18.7541L8.91715 19.3123L9.92158 18.8658C9.89926 19.1783 9.96623 19.4798 10.3122 19.5356L11.0376 19.3123L11.2162 19.8816L12.0979 19.4351L12.4438 20.0937L13.2697 19.9933V20.4398L14.0509 20.2165L14.1625 20.7747L14.9438 20.4398V20.8863C15.1335 21.0761 16.0598 20.384 16.1602 20.1384C16.4281 19.4686 15.4125 20.3393 15.2897 20.2165L15.1223 19.6584L14.5085 20.1049V19.4351L13.7831 19.77L13.5487 19.3235L12.6112 19.6584L12.4996 18.9886L11.5622 19.3235L11.3948 18.7653L10.3903 19.1002L10.1113 18.3188L9.27428 18.7653L9.16268 18.0955L8.38145 18.4304C8.35913 18.129 8.49305 17.7606 8.21404 17.5374C8.0578 17.7383 7.17613 18.6537 7.37701 18.8769L7.87923 18.542L7.85691 18.5309Z" fill="black"/>
<path d="M50.2664 38.8479C47.733 37.8544 42.0747 36.6041 39.3627 36.3585C38.8382 36.3139 38.76 36.5483 39.2399 36.8162C40.5903 37.1623 42.0524 37.2739 43.4028 37.5641C45.4898 38.0218 47.9227 38.9595 49.9539 39.2721C50.2218 39.3168 50.4896 39.3056 50.7575 39.3056C50.7909 39.0042 50.4673 38.9372 50.2552 38.8591L50.2664 38.8479Z" fill="black"/>
<path d="M49.541 43.5365C49.6303 43.4249 49.3848 43.1458 49.2397 43.1123L39.0837 40.6564C38.8717 40.6006 38.5034 40.5671 38.3918 40.8015C38.2913 41.0025 38.5927 41.0025 38.7043 41.0471C42.0077 42.1746 45.7576 42.5653 49.1057 43.6035C49.195 43.637 49.541 43.5588 49.5522 43.5365H49.541Z" fill="black"/>
<path d="M3.89508 24.3358C3.78348 24.8493 4.10713 24.8493 4.50891 25.0056C6.35037 25.7312 8.28112 26.1443 10.1672 26.7136C11.2051 27.0261 13.3479 27.9973 14.2408 28.109C14.4193 28.1313 14.5533 28.042 14.7207 28.0197L14.3077 27.5955L3.89508 24.3358Z" fill="black"/>
<path d="M44.8537 34.5501C43.8046 34.3045 41.9855 33.791 40.981 33.724C40.3895 33.6906 40.4007 34.1482 40.5569 34.1594C41.8404 34.3269 43.1462 34.5724 44.4073 34.885C46.405 35.3762 49.1058 36.5148 50.9919 36.7939C51.1705 36.8163 51.2821 36.7716 51.4383 36.7269V36.4032C49.2397 35.8227 47.0746 35.086 44.8537 34.5501Z" fill="black"/>
<path d="M39.2288 45.6687C42.6997 46.7962 46.3045 47.3655 49.8312 48.2251L50.3223 47.8902L39.1619 45.3226L39.2288 45.6687Z" fill="black"/>
<path d="M48.9831 45.5459L38.8494 43.1123L38.1575 43.2463L38.5481 43.5253C41.6953 43.9607 45.3224 45.4901 48.3916 45.8473C48.6817 45.8808 48.9831 45.9366 48.9719 45.5347L48.9831 45.5459Z" fill="black"/>
<path d="M7.60031 20.2389C9.85471 21.0092 12.7118 21.8799 14.9997 22.4381C15.234 22.4939 16.8188 23.0074 16.83 22.6167L6.6182 19.4352L6.50659 19.6584C6.7856 20.0268 7.18738 20.105 7.58915 20.2501L7.60031 20.2389Z" fill="black"/>
<path d="M38.7377 39.7745C40.8247 40.221 42.867 40.902 44.954 41.3708C45.4339 41.4824 48.4919 42.1299 48.6816 42.0741C48.8267 42.0294 48.8936 41.9066 48.8713 41.7504L38.9386 39.3391L38.6038 39.4619L38.7377 39.7633V39.7745Z" fill="black"/>
<path d="M5.88165 21.065C7.84587 21.6232 9.76546 22.3488 11.7074 22.9404C12.7676 23.2642 14.5979 23.9451 15.6135 24.0679C15.8367 24.1014 15.9595 24.0679 16.1715 24.0009C16.2162 23.7665 16.0711 23.733 15.9037 23.6549C14.531 23.0409 12.1873 22.7618 10.6137 22.2483C9.34137 21.8241 7.31018 20.7413 6.04905 20.6631C5.59147 20.6297 5.27898 20.8976 5.87048 21.065H5.88165Z" fill="black"/>
<path d="M41.472 33.0208C42.9563 33.378 44.4853 33.5343 45.9696 33.8803C47.5767 34.2599 49.1726 34.9073 50.802 35.1418L51.1034 34.8292C47.878 33.925 44.6303 32.9538 41.2822 32.5966L41.472 33.0208Z" fill="black"/>
<path d="M49.8758 27.4615L49.7084 26.6801C49.5968 26.535 49.4629 26.5238 49.3178 26.6243C49.1393 26.7359 48.0344 28.3992 48.2018 28.5778C49.1616 28.6783 48.7152 27.3834 49.541 27.2382C49.608 27.6289 49.0946 28.0531 49.4852 28.3546L50.3223 27.7964C50.3334 28.0085 50.233 28.7453 50.4897 28.8011L51.5499 28.1313C51.6057 28.455 51.2709 28.7899 51.6057 29.0243C52.1526 28.656 53.1012 28.3769 53.0007 27.5731C52.4874 27.5062 52.3534 28.109 51.9963 28.3546L52.2084 27.4168C51.7843 26.7582 51.0477 28.4215 50.6571 28.1313L50.7687 26.9033L49.8758 27.4615Z" fill="black"/>
<path d="M50.6013 31.3686L51.6057 30.8105C51.8847 31.871 52.532 31.1007 52.8222 31.1677C53.0231 31.2124 53.7485 32.0384 53.7262 30.9221C53.224 31.123 53.1905 30.6319 53.0454 30.5872C52.8222 30.5202 52.4539 30.8886 52.2753 31.0337L51.7173 30.163L50.7687 30.8105L50.8803 29.8058C50.3334 29.6607 50.2553 30.3193 49.7642 30.2523V29.4709C49.2955 29.4151 49.1393 29.9621 48.7598 30.1407C48.7821 29.7165 48.8379 28.8011 48.3022 29.3258C48.2241 29.4039 47.1862 30.7212 47.6884 30.6877L48.3022 30.1295C48.2799 30.8216 48.9161 30.6207 49.2509 30.2412L49.5968 30.7993L50.4227 30.4644C50.445 30.7658 50.3111 31.1454 50.5901 31.3575L50.6013 31.3686Z" fill="black"/>
<path d="M9.01761 23.2865C10.5131 23.7888 12.0644 24.6261 13.571 25.0949C14.2184 25.2959 14.9661 25.1396 14.1514 24.7377C12.9572 24.1461 10.7475 23.4539 9.40822 23.0074C8.95065 22.8511 5.36816 21.6232 5.22308 21.7795C5.18959 21.8129 5.22308 22.1367 5.27888 22.226C6.47304 22.6837 7.80113 22.8735 9.01761 23.2865Z" fill="black"/>
<path d="M4.18521 26.1108C6.5847 27.3388 9.95514 27.8076 12.4774 28.8681L13.0354 28.8011C12.9908 28.6114 12.8122 28.5332 12.656 28.4662C11.6627 28.0085 10.0667 27.7295 8.96186 27.3611C7.37709 26.8252 5.63607 25.9657 4.08477 25.5415C3.9062 25.4968 3.7388 25.441 3.54907 25.4633C3.54907 25.7871 3.92853 25.988 4.17405 26.122L4.18521 26.1108Z" fill="black"/>
<path d="M13.2698 26.3005L13.8278 26.2335C13.8724 25.9879 13.6715 25.9209 13.493 25.8428C12.2877 25.3181 10.5801 25.0055 9.27435 24.5925L4.67627 23.1078L4.78787 23.4985L13.2698 26.3005Z" fill="black"/>
<path d="M41.0369 35.6887C42.1083 35.9678 43.2243 36.1018 44.2957 36.3362C44.8538 36.459 47.1193 37.1511 47.4541 37.0506C47.5992 37.006 47.6662 36.8832 47.6438 36.7269L39.72 34.9408C39.3405 35.3203 40.8248 35.6329 41.0369 35.6887Z" fill="black"/>
<path d="M10.4463 32.4626C10.9708 32.5295 11.1047 32.2393 10.5913 31.9825C9.74315 31.5695 8.26997 31.2904 7.29902 30.922C5.90397 30.4085 4.57588 29.7276 3.18083 29.2476L3.01343 29.5266C3.06923 29.7499 6.39503 31.0448 6.88608 31.2346C7.7566 31.5583 9.6427 32.3621 10.4574 32.4737L10.4463 32.4626Z" fill="black"/>
<path d="M5.41289 34.2599C5.88163 34.5613 7.7789 35.2311 8.43736 35.4767C9.44179 35.8562 11.4841 36.6711 12.4551 36.8163C12.7118 36.8498 12.9685 36.9279 13.147 36.6711L5.27897 33.7129C4.96648 33.9362 5.14504 34.0924 5.40173 34.2599H5.41289Z" fill="black"/>
<path d="M46.8289 46.7515L47.5209 46.6176L38.8827 44.3291L38.7153 44.6082C38.8381 44.7868 39.0278 44.8203 39.2287 44.8873C41.6728 45.6575 44.3848 45.9366 46.8401 46.7627L46.8289 46.7515Z" fill="black"/>
<path d="M26.0484 35.3873C25.4904 34.405 25.5127 34.1147 24.7649 35.1641C24.6757 34.751 24.698 34.2487 24.3743 33.9361C24.0618 33.858 23.5596 35.3315 23.6489 35.6106L24.3185 34.9408L24.7091 35.6999L25.3788 35.1641L25.7694 35.9455L26.5506 35.6106L26.6622 36.2804C27.0417 36.1018 28.1131 36.258 28.1131 35.6664C28.1131 35.3985 27.4323 35.2534 27.276 35.298C27.1086 35.3427 27.0751 35.6887 26.8743 35.7222C26.9301 33.8914 26.1377 35.3873 26.0372 35.3873H26.0484Z" fill="black"/>
<path d="M11.1381 34.885L3.6941 31.9379C3.45973 31.8821 3.37044 32.2951 3.43741 32.3621C3.49321 32.4179 4.69853 32.7863 4.96638 32.8979C6.46187 33.5677 7.78996 34.2599 9.3859 34.7287C9.68723 34.818 11.1381 35.3873 11.1381 34.8627V34.885Z" fill="black"/>
<path d="M46.4831 32.3845C46.3045 32.485 46.204 32.6189 46.4161 32.7641C46.5277 32.8422 47.8893 33.1548 48.1794 33.2329C49.5298 33.5901 51.8847 34.2599 53.1793 34.3716C53.4137 34.3939 53.6145 34.4497 53.7708 34.2153L53.157 33.8357L46.4831 32.3845Z" fill="black"/>
<path d="M42.6216 29.8058C42.8783 30.0514 43.202 29.3146 43.3471 29.2476L43.5703 29.6941L44.5189 29.3592L44.6305 29.9174L45.635 29.5825C45.5233 30.8328 46.5278 30.0179 47.0858 29.6383C46.9519 28.8904 46.1148 29.962 45.9698 29.8058C45.9251 29.5937 46.2488 28.8681 45.914 28.8011C45.7019 28.7564 45.0881 29.5044 44.9653 29.3592V28.589C44.452 28.2876 44.3403 29.1025 43.8493 29.136C44.318 26.6577 42.4208 29.616 42.6216 29.8058Z" fill="black"/>
<path d="M45.0768 27.082C44.9875 27.1936 44.5187 27.7183 44.9094 27.8076C45.1326 27.8523 45.3669 27.2271 45.579 27.1378L45.6348 27.8076L46.7508 27.3611V28.1425C47.3758 27.8076 48.6927 27.629 48.0343 26.6913L47.0856 27.4727C47.1861 27.1601 47.3981 26.7583 47.4539 26.4345C47.4762 26.2894 47.599 26.2894 47.3646 26.1331L46.0812 27.2494L46.416 25.9099C46.1816 25.6754 45.233 26.8811 45.0768 27.082Z" fill="black"/>
<path d="M22.9791 33.657C22.6332 33.3445 22.3542 34.1482 22.2537 34.1594L21.9189 33.4896L21.4725 33.7129L21.1935 32.9314L20.5239 33.378C20.4346 31.0002 19.3074 33.657 19.5752 34.0478L19.8542 34.1594L19.9658 33.6012C20.3565 33.5119 20.0663 34.0143 20.3565 34.1594L20.9703 33.7129L21.0819 34.3827L21.6957 34.1594L22.0305 34.8292C22.1868 34.8627 23.1466 33.9584 22.9791 33.657Z" fill="black"/>
<path d="M28.0797 39.3838C27.544 39.0712 23.1021 37.6535 22.4213 37.553C22.2093 37.5196 22.12 37.4526 21.9749 37.6758C21.9303 37.8991 22.1981 37.9326 22.3321 37.9884C23.4927 38.4908 26.7069 39.6294 27.8899 39.808C28.0685 39.8303 28.1801 39.7745 28.3364 39.741C28.381 39.5178 28.2359 39.4731 28.0797 39.3838Z" fill="black"/>
<path d="M9.41949 32.9314C8.91727 32.7082 8.11372 32.5742 7.54454 32.3509C6.47315 31.9379 5.41291 31.3239 4.36383 30.9555C3.97322 30.8216 2.46656 30.3192 3.24779 31.0672C5.41291 31.737 7.39946 33.11 9.68734 33.2775C9.73198 33.0542 9.5869 33.0096 9.41949 32.9314Z" fill="black"/>
<path d="M14.4415 17.2137L13.7161 17.6379L13.437 16.8564C13.0129 17.2695 12.5107 17.7607 12.6 18.4193L13.2696 17.7495L13.3924 18.196L14.2183 17.9728L14.5642 18.5198L15.1781 18.3077V18.7542C15.7472 18.8323 16.3834 18.2518 16.4057 17.6937C16.4057 17.5151 16.428 17.5039 16.2383 17.5262L15.6245 18.0844C15.5798 18.0397 15.6245 17.4146 15.3455 17.5262L14.7317 17.9728C14.754 17.6714 14.754 17.37 14.4526 17.2137H14.4415Z" fill="black"/>
<path d="M8.91724 16.7449L9.09581 17.303L10.0333 16.9681L10.156 17.5151L10.9819 17.303L11.1605 17.7496C11.4953 17.917 12.4886 16.9681 12.2654 16.7449L11.4841 17.0798L11.3167 16.6332L10.5355 17.0798L10.2565 16.1867C9.85472 16.1309 9.68731 16.5216 9.41946 16.7449L8.97304 16.0751C8.63823 16.4993 7.94629 16.8007 8.02441 17.4147L8.91724 16.7449Z" fill="black"/>
<path d="M18.9058 32.0384L18.638 32.4179L18.4036 32.4849L18.013 32.0384L17.6782 32.4849L17.1201 31.5919L16.7295 31.9826L16.3836 31.2793L15.9371 31.3239L15.7251 32.8198C16.0711 32.8756 15.9037 32.7305 15.9483 32.5519C16.0153 32.2951 15.9929 32.0161 16.2273 31.8263L16.6179 32.831C16.8969 32.9538 17.0755 32.3621 17.1201 32.3845L17.5666 33.1659L18.1246 32.831L18.4594 33.1659C18.6938 32.9203 19.5643 32.2058 18.9058 32.0496V32.0384Z" fill="black"/>
<path d="M24.006 36.5372C23.66 36.4479 23.0127 36.1465 22.7561 36.4479C22.6891 36.7716 23.9167 36.9502 24.1846 37.0284C25.5796 37.4749 26.9524 37.9772 28.3251 38.4573C28.5037 38.5131 28.9054 38.2228 28.7827 38.0666C27.1421 37.7317 25.6131 36.9614 24.006 36.5372Z" fill="black"/>
<path d="M40.7243 42.476C40.3672 42.3755 38.3918 41.6276 38.269 41.7504V42.0741C38.9833 42.3086 39.6753 42.5876 40.3895 42.8109C41.3047 43.09 43.0457 43.6258 43.9385 43.7374C44.53 43.8044 44.8314 43.4919 44.1282 43.3132C43.001 43.023 41.8515 42.7997 40.7243 42.476Z" fill="black"/>
<path d="M44.9653 39.2945V38.9596L39.4075 37.6423L38.9387 37.7875L39.8092 38.2563C40.49 38.234 44.731 39.5401 44.9653 39.2945Z" fill="black"/>
<path d="M15.5799 36.2581C15.3121 36.1019 15.1 36.4591 15.4125 36.6488C15.8924 36.9391 19.341 38.0777 19.9325 38.1559C20.1669 38.1894 20.7026 38.2005 20.6244 37.8433L15.5688 36.247L15.5799 36.2581Z" fill="black"/>
<path d="M35.4678 40.1429C33.9723 39.8861 32.1866 38.8033 30.7581 38.5912C30.1889 38.513 30.1889 38.7698 30.6688 39.0154C31.7514 39.5735 33.3585 39.9308 34.5526 40.2657C34.7758 40.3326 35.4343 40.7457 35.5794 40.5224C35.624 40.4666 35.6017 40.1875 35.4678 40.1317V40.1429Z" fill="black"/>
<path d="M32.2425 36.7827C32.4322 36.0348 31.3943 36.9948 31.1934 36.9502C30.7693 36.8274 31.1376 35.1306 29.8988 36.392C29.7984 36.1129 29.7872 35.4097 29.5082 35.2757C29.3185 35.1864 29.3296 35.4097 29.2962 35.499C29.1957 35.7334 28.7716 36.9167 28.9055 37.0618C29.2627 37.0841 29.3408 36.6599 29.352 36.392L29.7537 36.8274L30.5684 36.6153C30.5461 37.7651 32.0974 37.3744 32.2537 36.7716L32.2425 36.7827Z" fill="black"/>
<path d="M30.6798 42.4648L30.1218 42.5318L30.3116 42.8444C31.2379 43.0677 32.1753 43.3579 33.0793 43.6481C33.5704 43.8044 35.1105 44.5412 35.4788 44.3738C35.5458 44.3403 35.7355 44.1393 35.702 44.0947L30.6798 42.4648Z" fill="black"/>
<path d="M35.2333 41.2704C34.3739 40.902 31.7512 40.1876 30.7914 40.0201C30.6017 39.9866 30.4231 39.942 30.2334 39.9755V40.2992C31.7401 40.5448 33.5592 41.5272 34.9989 41.7393C35.2333 41.7728 35.423 41.8286 35.5792 41.5941C35.6239 41.382 35.356 41.3374 35.2221 41.2816L35.2333 41.2704Z" fill="black"/>
<path d="M35.0884 43.1569C35.2 43.1346 35.2781 42.9895 35.3562 42.9225C34.8094 42.476 30.0216 40.9801 29.776 41.1922C29.7425 41.4155 29.91 41.5271 30.0885 41.6053C30.6354 41.8732 31.5505 41.9178 32.1532 42.1076C32.6554 42.2639 34.787 43.1904 35.0884 43.1458V43.1569Z" fill="black"/>
<path d="M15.0554 37.6758C15.4013 37.8656 16.4839 38.1 16.9415 38.2451C17.7116 38.4684 19.3075 39.0154 20.0218 39.0824C20.2338 39.1047 20.3789 39.1159 20.5128 38.9149L14.9884 37.2963C14.754 37.4414 14.8322 37.5642 15.0442 37.6758H15.0554Z" fill="black"/>
<path d="M54.7863 29.0244C54.909 28.7341 54.976 27.6402 54.7863 27.4615C54.6077 27.2941 54.5854 27.5508 54.5296 27.6067C54.3287 27.8411 53.5252 29.0356 53.4247 29.2811C53.3354 29.4932 53.2796 29.5267 53.5028 29.6942L54.3957 28.5779C54.5407 28.7565 54.3957 29.4932 54.7305 29.4821C55.2997 29.4598 55.7572 28.4662 56.4492 28.5667L56.5719 27.9751L56.3041 27.8076C56.1367 27.9639 54.976 29.2142 54.7974 29.0356L54.7863 29.0244Z" fill="black"/>
<path d="M26.9413 41.4155C26.4502 41.1699 22.9124 39.9754 22.4213 39.9084C22.2428 39.8861 22.1423 39.9531 21.9749 39.9754C21.9191 40.0424 22.2428 40.288 22.3432 40.3326C22.8231 40.5559 26.4949 41.8508 26.8297 41.8508C26.9636 41.8508 27.0864 41.7615 27.2203 41.7615C27.265 41.5271 27.1087 41.5048 26.9525 41.4155H26.9413Z" fill="black"/>
<path d="M3.95084 28.7006C4.12941 28.7006 4.29681 28.4885 4.39726 28.4997C4.4977 28.4997 4.6093 28.7787 4.84367 28.8122C5.04456 28.8346 5.36821 28.656 5.43517 28.7118C5.52446 28.7787 5.43517 29.0802 5.83695 29.0355C6.18292 28.9685 6.2722 28.6783 6.22756 28.3657L5.78114 28.589L5.66954 28.0308C5.29009 27.9527 5.26777 28.2541 5.05572 28.4773L4.6093 27.6959L4.16289 28.1424C3.8504 27.841 4.11825 27.3164 3.71647 27.0261C3.5379 27.0261 3.20309 28.1536 3.3705 28.3769C3.71647 28.3434 3.9062 28.7118 3.93968 28.7118L3.95084 28.7006Z" fill="black"/>
<path d="M20.4124 35.8339V35.5101C18.9169 35.1752 17.3768 34.2487 15.9259 33.9026C15.3902 33.7798 15.3567 34.0924 15.8366 34.3268C16.6402 34.7175 18.995 35.5994 19.8544 35.7781C20.0441 35.8227 20.2227 35.8562 20.4124 35.8227V35.8339Z" fill="black"/>
<path d="M19.1848 6.59739C19.4192 6.67554 20.3455 6.94345 20.4571 6.70903C20.7361 6.08389 19.3746 6.18436 19.1514 6.12854C18.9058 6.07272 18.6938 5.8383 18.4706 5.74899C18.3366 5.70434 18.1692 5.79364 18.0576 5.74899C17.8456 5.68201 17.8568 5.35828 17.8009 5.31363C17.6447 5.19083 17.3322 5.35828 17.109 5.30246C16.9528 5.25781 16.8188 5.03455 16.6179 5.03455L16.3501 5.67085L16.4394 5.91644C17.2653 5.46991 18.3366 6.31831 19.1737 6.58623L19.1848 6.59739Z" fill="black"/>
<path d="M41.6172 31.8152C41.8516 32.0496 42.0859 31.4691 42.1194 31.4803C42.3426 31.7929 42.6663 31.5361 42.8783 31.6031C43.0569 31.6589 43.0569 31.9492 43.2578 32.0161C43.414 32.0719 43.6595 32.0161 43.8604 32.0831C44.3961 32.284 45.0546 32.7864 45.6349 32.3064C45.4117 31.9045 45.0211 32.1054 44.7086 32.005C44.4408 31.9157 44.2287 31.7259 43.972 31.6477C43.8493 31.6031 43.6707 31.7371 43.5145 31.6477C43.3582 31.5584 43.2578 31.1119 42.9899 31.0449L42.51 31.2459C42.298 29.8728 41.4163 31.6031 41.6172 31.804V31.8152Z" fill="black"/>
<path d="M40.4452 21.0427C39.9429 20.9199 38.4921 20.6519 38.1573 20.4957C37.8894 20.3617 37.8783 20.0826 37.3649 20.2836L37.097 19.77C36.8627 19.7142 36.3939 20.4063 36.673 20.4398C37.0636 20.2724 37.0859 20.7301 37.2198 20.7636C37.3314 20.7859 37.5435 20.6184 37.7444 20.6743C38.0122 20.7524 38.2689 20.8975 38.7488 21.0203C39.4742 21.1989 40.1773 21.545 40.9474 21.4445L40.8916 21.1096C40.7688 20.931 40.5679 21.0873 40.4452 21.0538V21.0427Z" fill="black"/>
<path d="M15.2785 35.3874L19.6199 37.0172C19.7873 37.073 20.0328 36.727 19.9547 36.6265L15.2673 34.952V35.3874H15.2785Z" fill="black"/>
<path d="M25.8251 39.741C24.7537 39.2833 23.2136 39.1717 22.1087 38.647C21.8967 38.6024 21.7293 38.9708 21.919 39.0824C23.3252 39.4843 24.7426 40.0648 26.2046 40.1987C26.2381 39.942 26.0148 39.8303 25.8251 39.741Z" fill="black"/>
<path d="M17.3097 7.34538L19.0507 8.0375C19.1065 7.55748 18.4927 7.4905 18.2137 7.26724C18.1133 7.1891 18.1133 6.95467 17.9905 6.91002C17.8343 6.8542 17.6222 6.98816 17.466 6.93234C17.332 6.88769 17.2204 6.60861 16.9749 6.50814C16.7517 6.41883 16.495 6.53047 16.283 6.46349C16.2048 6.44116 16.2272 6.27371 16.2048 6.26255C15.8589 6.0058 15.5241 6.58628 15.5799 6.9435C16.283 6.87653 16.8187 6.77606 17.2986 7.35654L17.3097 7.34538Z" fill="black"/>
<path d="M8.98403 29.9174L8.45949 29.1472L7.67826 29.4263L7.34345 28.5779C7.00864 28.3323 6.86355 29.616 6.89703 29.8058C7.23184 29.6049 7.57782 29.8839 7.73406 29.8839C7.86799 29.8839 8.00191 29.683 8.16932 29.7165C8.35904 29.75 8.63805 30.2747 8.87242 30.3528C9.98846 30.2523 10.2898 28.8569 8.98403 29.9174Z" fill="black"/>
<path d="M64.6634 18.2295C65.2996 18.2853 65.6344 18.2965 66.304 18.464C66.4045 18.4863 66.3933 18.7095 66.5942 18.743C66.7727 18.7654 67.3866 18.5309 67.3866 18.4081C67.208 18.0844 66.9067 18.3635 66.7169 18.2853C66.6388 18.2519 66.5607 18.0732 66.4156 18.0398C65.9804 17.917 65.6679 18.1179 65.3107 17.5821L64.7081 17.9058L64.5965 17.236C64.3844 17.0909 63.938 17.783 64.0496 18.0063C64.284 17.9728 64.4737 18.2184 64.6634 18.2295Z" fill="black"/>
<path d="M58.6368 25.2289C58.8265 25.6531 59.273 25.4856 59.4515 25.5972C59.5185 25.6419 59.5185 25.854 59.6524 25.8987C59.7752 25.9321 59.9426 25.8093 60.0653 25.8317C60.2997 25.8652 60.5006 26.2894 60.9135 26.0214V25.6977C60.5564 25.72 60.4894 25.4856 60.2997 25.2512L59.7975 25.4744V24.9163L59.1279 25.1396C59.2283 24.2018 58.3578 24.6595 58.6256 25.2512L58.6368 25.2289Z" fill="black"/>
<path d="M11.7629 14.0656L12.2094 13.6191C12.5107 14.3335 12.9236 13.7084 13.3477 14.2777L14.1624 13.954L13.995 13.5186L13.3812 13.8535L13.2584 13.407C12.3768 13.6191 12.7674 13.4851 12.5776 13.2061C12.533 13.1391 12.3991 13.1279 12.321 13.1056C12.0531 13.1279 11.3612 13.82 11.7629 14.0656Z" fill="black"/>
<path d="M32.2758 18.6648L31.6843 18.7653L31.5727 18.2072C31.1598 18.2741 30.8584 18.5532 30.9031 18.9886C31.2714 18.8323 31.3495 19.223 31.5169 19.223C31.7066 19.223 31.941 19.1002 32.0637 19.1225C32.287 19.1672 32.2981 19.5132 32.432 19.5467C32.778 19.636 33.5592 19.4351 33.3026 18.9886L32.5771 19.2118L32.2758 18.6648Z" fill="black"/>
<path d="M35.0101 19.3347L34.519 19.5468L34.1842 18.9886L33.3472 19.8817C33.8047 19.6808 34.0168 19.9487 34.2958 19.9933C34.4297 20.0157 34.586 19.8929 34.7199 19.9152C34.8985 19.9487 35.7467 20.3617 35.9141 20.2166C35.9364 19.7812 35.4453 19.8036 35.1998 19.6473C35.0547 19.558 35.0436 19.3682 35.0101 19.3347Z" fill="black"/>
<path d="M18.5151 18.5979C18.3812 18.0955 17.7339 18.9998 17.5107 18.9886C17.4995 17.0685 16.2942 18.9663 16.5062 19.2119L17.1758 18.877C17.12 19.9263 18.6267 19.0333 18.5151 18.5979Z" fill="black"/>
<path d="M30.0885 18.2853C30.0104 18.2741 29.9211 18.1513 29.8095 18.1178C29.6644 18.0732 29.4189 18.1178 29.3519 18.0732C29.2738 18.0062 29.3854 17.5485 28.9613 17.6602L28.4368 18.4304C29.2738 18.0844 28.9055 18.4304 29.218 18.609C29.3519 18.6872 29.5305 18.5421 29.6867 18.5644C29.7983 18.5867 29.8988 18.743 30.055 18.7653C30.334 18.7988 30.7135 18.5532 30.6577 18.263C30.6019 17.9392 30.2336 18.3188 30.0662 18.2965L30.0885 18.2853Z" fill="black"/>
<path d="M16.1826 14.5011C16.0487 14.4229 16.1268 13.9987 15.4907 14.2443L15.2117 13.7308C15.0889 13.6973 14.3523 14.4676 14.5979 14.7355C15.1112 13.9652 16.0599 15.1597 16.6067 14.9029C16.696 14.8583 16.8523 14.6908 16.8299 14.568C16.763 14.2555 16.3054 14.568 16.1826 14.5011Z" fill="black"/>
<path d="M17.5441 4.8783C17.7673 4.96761 17.9124 4.8783 18.024 4.91179C18.1579 4.95645 18.2137 5.16855 18.3588 5.24669C18.7494 5.4253 19.2293 5.31367 19.2293 4.81132L18.4927 4.94528L18.37 4.47643L17.7673 4.50992L17.3767 3.9071L17.0307 4.37596C16.9973 4.55457 17.4102 4.83365 17.5441 4.8783Z" fill="black"/>
<path d="M65.4222 16.8006C65.6007 16.8341 65.7235 17.1578 65.902 17.2137C66.4489 17.3588 67.0739 15.7401 65.9913 16.7783H65.8239C65.7123 16.209 65.3329 16.276 64.9311 16.555V16.1085C64.6409 16.008 64.3954 16.6778 64.4847 16.7783C64.786 16.9457 65.2324 16.7783 65.4222 16.8006Z" fill="black"/>
<path d="M57.1299 24.5591V24.1126C56.784 23.9005 55.9246 24.8047 56.1255 25.0056C56.3599 25.0838 56.5608 24.7824 56.717 24.8047C56.8398 24.8158 56.9625 24.9721 57.0965 24.9945C57.1411 24.9945 57.8777 24.9833 57.9112 24.961C58.3576 24.6931 57.4648 24.2912 57.1299 24.5703V24.5591Z" fill="black"/>
<path d="M43.9609 27.5731C44.0613 27.6735 44.2175 27.5954 44.318 27.4279C44.4742 27.1823 45.6126 25.7646 45.5121 25.6753C45.1997 25.3739 43.693 27.3275 43.9497 27.5731H43.9609Z" fill="black"/>
<path d="M20.2115 5.04576L19.9883 5.91649C20.5463 5.86068 21.1043 5.93882 21.5619 5.55927L21.5396 5.21321C21.4168 5.07925 20.9034 5.59276 20.7583 5.55927C20.6467 5.53694 20.5909 4.92297 20.2115 5.04576Z" fill="black"/>
<path d="M62.1411 25.3404C61.8955 25.1618 61.5161 25.7311 61.4714 25.9544L62.5875 26.2335L62.6991 25.9544C62.6098 25.7758 62.3419 25.8428 62.2415 25.72C62.1745 25.6307 62.1634 25.3628 62.1411 25.3516V25.3404Z" fill="black"/>
<path d="M68.2792 17.0016L67.6654 17.2025L67.2301 16.9011L66.9399 17.4481C67.4868 17.6044 68.2234 17.783 68.2792 17.0016Z" fill="black"/>
<path d="M18.4929 1.37306C18.5264 1.27259 18.7161 1.04932 18.4594 1.00467C18.225 0.960018 17.3657 2.41124 17.5108 2.56752C17.7117 2.77962 18.4371 1.54051 18.4929 1.37306Z" fill="black"/>
<path d="M18.7941 2.34422C18.928 2.34422 19.4861 1.30604 19.4079 1.2279C18.9057 1.0158 18.3923 2.34422 18.7941 2.34422Z" fill="black"/>
<path d="M20.3007 1.45116C20.044 1.20557 19.419 2.17677 19.631 2.45585C19.7203 2.54515 20.4123 1.56279 20.3007 1.45116Z" fill="black"/>
<path d="M57.4203 45.423C58.4806 46.037 59.4404 45.8249 60.4559 45.2668C62.0854 44.3737 66.4826 39.6963 67.2861 38.033C67.3754 37.8544 67.42 37.7204 67.3865 37.5195C67.1857 37.4748 67.1075 37.62 66.9959 37.7428C65.7795 39.0042 64.6523 40.8126 63.3688 42.1522C62.0854 43.503 58.9605 46.8073 57.1301 44.6974C56.7842 44.3067 56.8623 43.9495 56.6056 43.5476C56.0588 44.3067 56.7619 45.0547 57.4092 45.423H57.4203Z" fill="black"/>
<path d="M59.139 47.1757C59.4404 47.0864 60.5675 46.4166 60.5787 46.171C60.601 45.7356 59.4515 46.5729 59.3511 46.6175C57.9225 47.2427 55.8802 47.0306 55.3891 45.3338C55.3556 45.1998 55.1882 43.6481 54.8869 43.9942C54.5298 46.6845 56.7284 47.8678 59.1279 47.1757H59.139Z" fill="black"/>
<path d="M63.7034 42.8109C63.324 43.09 61.6946 44.7198 61.4156 45.0994C61.304 45.2556 61.2035 45.3226 61.2482 45.5459C61.4714 45.5905 61.5495 45.5012 61.6946 45.3784C62.0963 45.077 63.5472 43.6147 63.8708 43.2016C63.9936 43.0342 64.1722 42.8667 64.1499 42.6435C63.9266 42.5988 63.8485 42.6881 63.7034 42.7997V42.8109Z" fill="black"/>
<path d="M56.7951 47.7785C56.4938 47.6892 56.159 47.6557 55.8688 47.5329C55.7461 47.4771 55.0988 46.8296 55.0095 47.2761C54.9648 47.4771 55.7126 47.9348 55.8688 47.9683C56.0139 48.0017 57.1076 48.0799 56.7951 47.7785Z" fill="black"/>
<path d="M35.0995 31.3798L28.2693 32.5965C27.7225 32.6859 27.7225 33.0319 28.3363 32.9984C30.6242 32.8645 33.1018 32.1054 35.3673 31.7035L35.0995 31.3798Z" fill="black"/>
<path d="M27.4433 28.6895C25.5125 28.9797 23.5483 29.2365 21.6399 29.6383C21.4167 29.683 20.468 29.7723 20.5238 30.0849C20.5685 30.3081 21.3832 30.1518 21.5729 30.1295C23.4367 29.8728 25.2559 29.2588 27.142 29.1137L27.4433 28.6895Z" fill="black"/>
<path d="M34.2066 30.5983C32.7446 30.7099 30.4567 31.123 28.9724 31.4021C28.8943 31.4132 28.8162 31.4467 28.7269 31.469L28.6599 31.8151L34.7981 30.922C34.8093 30.5313 34.4856 30.576 34.1955 30.5983H34.2066Z" fill="black"/>
<path d="M25.189 28.2764C25.334 28.2541 27.5996 28.1201 27.1085 27.6847C27.0193 27.6066 25.2448 27.8857 24.9546 27.9303C24.3742 28.0196 21.2828 28.4997 21.0261 28.6894C20.9145 28.7676 20.8364 28.8792 20.8699 29.0243C21.0373 29.1695 24.6421 28.3769 25.2001 28.2764H25.189Z" fill="black"/>
<path d="M35.5906 32.485C34.0505 32.7194 32.4099 32.9427 30.9032 33.3222C30.7693 33.3557 30.1332 33.4339 30.2336 33.6571C30.3787 33.8804 30.5015 33.8134 30.7023 33.8022C32.2202 33.7241 33.9835 33.1771 35.479 32.8757L35.5906 32.485Z" fill="black"/>
<path d="M32.633 30.1407C33.3361 30.0737 34.0615 30.2412 34.7646 30.0402C35.345 29.8728 35.278 29.6049 34.6977 29.6384C33.0906 29.7277 31.4835 29.8058 29.8987 30.0849L29.7871 30.4756C29.921 30.6096 32.2312 30.1854 32.633 30.1407Z" fill="black"/>
<path d="M27.5439 29.7499C27.3764 29.4932 27.1979 29.5936 26.9635 29.6159C25.814 29.6941 23.4926 30.0848 22.3878 30.3974C22.198 30.4532 21.986 30.4644 21.8521 30.643L22.3431 30.8104C23.7493 30.4085 25.256 30.4085 26.6733 30.1071C26.9747 30.0402 27.3206 29.9955 27.5439 29.7499Z" fill="black"/>
<path d="M27.3317 26.5685L22.4881 27.3722L22.3096 27.7964L27.0193 26.9927L27.3317 26.5685Z" fill="black"/>
<path d="M32.1866 29.136C32.6553 29.0914 34.2512 29.1249 34.5302 28.9128C34.6418 28.8346 34.72 28.723 34.6865 28.5667C34.5414 28.4327 30.8808 28.8904 30.7134 29.0021C30.6018 29.0802 30.5237 29.1918 30.5571 29.3481C31.1152 29.4263 31.6397 29.1807 32.1754 29.1249L32.1866 29.136Z" fill="black"/>
<path d="M32.0192 27.3052C33.1687 27.2605 34.3406 27.1042 35.4789 27.0149V26.68C35.3562 26.5572 32.354 26.8252 31.9634 26.9033C31.5616 26.9814 31.5616 27.3163 32.0192 27.294V27.3052Z" fill="black"/>
<path d="M24.3742 25.4521C24.4747 25.4633 25.6354 25.1395 25.9032 25.0837C26.4277 24.9833 27.1085 25.0837 27.5549 24.6149C27.3987 24.3805 27.2983 24.4586 27.0862 24.4698C26.8072 24.4921 24.4635 24.9386 24.3519 25.0279C24.2291 25.1061 24.1957 25.4186 24.3854 25.4521H24.3742Z" fill="black"/>
<path d="M24.8988 24.4251C25.3899 24.4251 26.4947 24.2911 27.0304 24.213C27.142 24.2018 28.1576 24.0567 27.767 23.8334C27.5215 23.6995 26.8296 23.7888 26.5171 23.8111C26.2939 23.8222 24.5305 23.9785 24.5305 24.1683C24.6421 24.2799 24.7091 24.4139 24.8876 24.4139L24.8988 24.4251Z" fill="black"/>
<path d="M24.3185 31.6588C24.5305 31.6588 26.7068 31.2235 26.8184 31.1565L26.8854 30.8104L24.1622 31.257C23.9948 31.3574 24.0729 31.6588 24.3185 31.6588Z" fill="black"/>
<path d="M32.432 26.3898C33.269 26.3563 34.2177 26.0884 35.0659 26.0214L35.144 25.6865C34.2511 25.8316 33.1686 25.787 32.2981 26.0214C32.1083 26.0772 32.0302 26.0103 32.1307 26.3005C32.1976 26.4903 32.3092 26.401 32.4432 26.401L32.432 26.3898Z" fill="black"/>
<path d="M35.0883 33.4896C34.8875 33.4896 32.9567 33.9697 32.8563 34.0366L32.7893 34.3827L35.5794 33.6571C35.4455 33.4673 35.2892 33.4785 35.0883 33.4896Z" fill="black"/>
<path d="M26.8853 25.787C25.959 25.7312 25.055 25.988 24.1733 26.2335L24.0952 26.5684C24.7983 26.3675 26.0036 26.3898 26.6175 26.1442C26.796 26.0773 26.8184 25.9433 26.8853 25.787Z" fill="black"/>
<path d="M33.749 27.6848C33.124 27.7182 32.4209 27.8634 31.7959 27.908V28.2429L34.4744 28.0197C34.4967 27.5955 34.028 27.6736 33.749 27.6848Z" fill="black"/>
<path d="M37.923 31.0896C37.6886 31.1231 36.3717 31.4803 36.1708 31.5696C35.8806 31.7147 35.9699 32.0161 36.3382 31.9715C36.673 31.9268 37.8002 31.6366 38.1015 31.4914C38.2132 31.4356 38.4922 31.3017 38.3694 31.1454C38.3359 31.1119 38.0234 31.0672 37.923 31.0784V31.0896Z" fill="black"/>
<path d="M32.421 25.2176L32.354 25.5637L34.6977 24.9497C34.6865 24.3469 32.7893 25.1283 32.421 25.2176Z" fill="black"/>
<path d="M38.3695 30.4197C38.2244 30.1964 38.1128 30.2523 37.9008 30.2746C37.7446 30.2969 35.691 30.8551 36.0259 31.1453C36.2156 31.3016 38.3584 30.6541 38.3695 30.4197Z" fill="black"/>
<path d="M20.6355 27.7964C20.5016 27.6513 18.0798 27.8969 18.0686 28.1871C18.2583 28.4439 18.5262 28.3546 18.7717 28.3434C19.1288 28.3211 20.1556 28.1536 20.4681 28.0308C20.5909 27.9862 20.7806 27.975 20.6243 27.7964H20.6355Z" fill="black"/>
<path d="M20.3231 26.9926C20.4347 26.9703 20.803 26.881 20.6244 26.6912C20.4124 26.4567 18.8387 26.7247 18.4593 26.7916L18.3923 27.1377C18.4593 27.2047 20.0887 27.0372 20.3231 26.9926Z" fill="black"/>
<path d="M18.0686 29.0243V29.3592C18.6936 29.3369 19.4302 29.482 19.9659 29.0801C19.9659 28.7452 18.3365 28.9797 18.0686 29.0243Z" fill="black"/>
<path d="M34.8093 34.8292C35.0436 34.9074 36.5949 34.6171 36.5949 34.4385C36.4052 33.9585 34.4633 34.539 34.8093 34.8292Z" fill="black"/>
<path d="M40.278 25.854C40.7021 25.8205 41.6395 25.7423 41.8404 25.3516C41.5391 25.24 39.8427 25.4856 39.8315 25.7423C39.9878 25.9879 40.0771 25.8763 40.278 25.854Z" fill="black"/>
<path d="M35.9253 32.7641C36.394 33.3445 36.9521 32.6413 37.5212 32.5966L37.5994 32.2617C37.365 32.284 35.9253 32.5855 35.9253 32.7641Z" fill="black"/>
<path d="M20.4124 25.8987C20.4905 25.173 18.4928 25.7089 18.8499 26.0103L20.4124 25.8987Z" fill="black"/>
<path d="M26.8855 23.1078C26.3386 23.1078 25.6802 23.0297 25.2114 23.3869C25.2114 23.6548 26.919 23.6102 26.8855 23.1078Z" fill="black"/>
<path d="M41.059 26.4569L40.8023 26.1443L39.6081 26.3452C39.5189 27.149 40.5679 26.4569 41.059 26.4569Z" fill="black"/>
<path d="M35.8136 33.8246L37.1528 33.4897C37.2198 32.7976 35.4676 33.4562 35.8136 33.8246Z" fill="black"/>
<path d="M27.9568 30.2411L28.9947 30.1407C29.0952 29.5937 27.8341 29.8281 27.7671 29.9174L27.9568 30.2411Z" fill="black"/>
<path d="M28.5595 30.6989C28.5149 30.6542 27.3319 30.7324 27.4435 31.1454L28.5595 31.0338V30.6989Z" fill="black"/>
<path d="M25.8809 32.0943C25.9478 32.4068 26.9299 32.2394 26.8853 31.8152C26.5616 31.8598 25.959 31.6366 25.8809 32.0943Z" fill="black"/>
<path d="M41.4944 24.9497C41.3269 24.7153 41.1484 24.7711 40.914 24.8046C40.7578 24.8269 40.5569 24.8939 40.4341 25.0055C40.1663 25.3516 41.4944 25.173 41.4944 24.9497Z" fill="black"/>
<path d="M58.4915 14.8806C58.592 14.8806 58.6812 14.8806 58.7705 14.9029C59.083 14.9811 59.2281 15.2267 59.2281 15.5392C59.2281 15.5839 59.2281 15.6285 59.2169 15.6732C59.2169 15.6732 59.2169 15.6955 59.2169 15.7067C59.2169 15.729 59.2169 15.7402 59.2058 15.7625C59.1835 15.8741 59.1388 15.9858 59.083 16.0974C59.083 16.1197 59.0607 16.142 59.0495 16.1644C59.0049 16.2425 58.9603 16.3095 58.9156 16.3876C58.9156 16.3988 58.8933 16.41 58.8933 16.4211C58.8821 16.4323 58.871 16.4546 58.8598 16.4658C58.8598 16.4658 58.8487 16.4769 58.8375 16.4881C58.8263 16.4993 58.8152 16.5216 58.804 16.5328C58.1344 17.3253 56.9514 17.8165 55.8577 17.783C55.8577 17.783 55.8688 17.7942 55.88 17.8054C55.88 17.8054 55.8911 17.8165 55.9023 17.8277C55.9135 17.8389 55.9246 17.85 55.9469 17.8612C55.9469 17.8612 55.9581 17.8723 55.9693 17.8835C55.9693 17.8835 55.9916 17.8947 56.0027 17.9058C56.0139 17.9058 56.0251 17.9282 56.0362 17.9282C56.0586 17.9393 56.0809 17.9617 56.1144 17.9728C56.1144 17.9728 56.1144 17.9728 56.1255 17.9728C56.1478 17.984 56.1702 17.9951 56.1813 18.0063C56.2036 18.0063 56.2148 18.0286 56.2371 18.0398C56.2483 18.0398 56.2594 18.051 56.2706 18.0621C56.2706 18.0621 56.2706 18.0621 56.2818 18.0621C56.2929 18.0621 56.3041 18.0621 56.3152 18.0733C56.3264 18.0733 56.3487 18.0733 56.3599 18.0844C56.371 18.0844 56.3934 18.0844 56.4045 18.0956C56.4157 18.0956 56.4268 18.0956 56.4492 18.1068C56.4715 18.1068 56.4826 18.1068 56.505 18.1179C56.5273 18.1179 56.5384 18.1179 56.5608 18.1291C56.5719 18.1291 56.5943 18.1291 56.6054 18.1291C56.6054 18.1291 56.6166 18.1291 56.6277 18.1291C56.6389 18.1291 56.6501 18.1291 56.6612 18.1291C56.6612 18.1291 56.6612 18.1291 56.6724 18.1291C56.6835 18.1291 56.7059 18.1291 56.717 18.1291C56.7282 18.1291 56.7393 18.1291 56.7505 18.1291H56.7728C56.784 18.1291 56.8063 18.1291 56.8175 18.1291C56.8398 18.1291 56.8509 18.1291 56.8733 18.1291C56.9514 18.1291 57.0295 18.1291 57.1076 18.1291C57.1188 18.1291 57.1411 18.1291 57.1523 18.1291C57.1746 18.1291 57.1858 18.1291 57.2081 18.1291C57.2304 18.1291 57.2639 18.1291 57.2862 18.1291C57.2974 18.1291 57.3085 18.1291 57.3308 18.1291C57.3532 18.1291 57.3643 18.1291 57.3866 18.1291C57.3978 18.1291 57.4201 18.1291 57.4313 18.1291C57.4648 18.1291 57.5094 18.1179 57.5429 18.1068C57.5429 18.1068 57.5652 18.1068 57.5764 18.1068C57.621 18.1068 57.6545 18.0844 57.6991 18.0844C57.7215 18.0844 57.7438 18.0844 57.7661 18.0733C57.7661 18.0733 57.7661 18.0733 57.7773 18.0733C57.7884 18.0733 57.8107 18.0733 57.8219 18.0621C57.8219 18.0621 57.8331 18.0621 57.8442 18.0621C57.8665 18.0621 57.8889 18.051 57.9112 18.0398C57.9335 18.0398 57.9558 18.0286 57.9781 18.0175C57.9893 18.0175 58.0116 18.0175 58.0228 18.0063C58.0228 18.0063 58.0339 18.0063 58.0451 18.0063C58.0563 18.0063 58.0786 18.0063 58.0897 17.9951C58.0897 17.9951 58.1009 17.9951 58.1121 17.9951C58.1232 17.9951 58.1455 17.984 58.1567 17.9728C58.1902 17.9617 58.2348 17.9393 58.2683 17.9282C58.2906 17.9282 58.3018 17.9058 58.3241 17.9058C58.3464 17.9058 58.3576 17.8835 58.3799 17.8835C58.4022 17.8835 58.4134 17.8612 58.4357 17.8612C58.458 17.8612 58.4692 17.8389 58.4915 17.8277C58.525 17.8054 58.5696 17.783 58.6031 17.7719C58.6254 17.7719 58.6366 17.7495 58.6589 17.7384C58.6812 17.7384 58.6924 17.7161 58.7147 17.7049C58.9156 17.5821 59.1165 17.4481 59.2951 17.2807C59.3397 17.236 59.3955 17.1914 59.4402 17.1467C59.4513 17.1356 59.4736 17.1132 59.4848 17.1021C59.496 17.0909 59.5183 17.0686 59.5294 17.0574C59.5406 17.0463 59.5518 17.0351 59.5741 17.0128C59.5852 16.9905 59.6076 16.9793 59.6187 16.957C59.6299 16.9458 59.641 16.9235 59.6634 16.9123C59.6745 16.9011 59.6857 16.8788 59.6968 16.8677C59.6968 16.8677 59.6968 16.8677 59.6968 16.8565C59.708 16.8453 59.7192 16.8342 59.7303 16.8118C59.7415 16.8007 59.7526 16.7784 59.775 16.7672C59.7861 16.7449 59.7973 16.7337 59.8084 16.7225C59.8084 16.7114 59.8308 16.689 59.8419 16.6779C59.8531 16.6556 59.8754 16.6444 59.8866 16.6221C59.8977 16.5997 59.92 16.5774 59.9312 16.5551C59.9312 16.5551 59.9312 16.5551 59.9312 16.5439C59.9312 16.5328 59.9424 16.5216 59.9535 16.5104C59.9535 16.4993 59.9647 16.4881 59.9759 16.4769C59.9759 16.4769 59.9759 16.4658 59.987 16.4546C59.987 16.4323 60.0093 16.4211 60.0205 16.3988C60.0205 16.3876 60.0317 16.3765 60.0428 16.3653C60.0428 16.3653 60.0428 16.3541 60.054 16.343C60.054 16.343 60.054 16.3207 60.0651 16.3095C60.0763 16.2872 60.0986 16.2537 60.1098 16.2314C60.1098 16.2314 60.1098 16.209 60.1209 16.1979C60.1209 16.1979 60.1209 16.1755 60.1321 16.1755C60.1321 16.1755 60.1321 16.1532 60.1433 16.1532C60.1433 16.1532 60.1433 16.1309 60.1544 16.1197C60.1544 16.1197 60.1544 16.1086 60.1544 16.0974C60.1544 16.0862 60.1544 16.0751 60.1656 16.0639C60.1656 16.0416 60.1879 16.0081 60.1991 15.9858C60.1991 15.9746 60.1991 15.9634 60.2102 15.9523C60.2214 15.9188 60.2325 15.8741 60.2437 15.8406C60.2437 15.8295 60.2437 15.8183 60.2437 15.8072C60.2437 15.796 60.2437 15.7848 60.2437 15.7737C60.2437 15.7625 60.2437 15.7513 60.2437 15.7402C60.2437 15.729 60.2437 15.7178 60.2437 15.7067C60.2437 15.6732 60.2549 15.6285 60.266 15.5951C60.266 15.5727 60.266 15.5504 60.266 15.5169C60.266 15.5057 60.266 15.4946 60.266 15.4834C60.266 15.4723 60.266 15.4611 60.266 15.4499C60.266 15.4388 60.266 15.4276 60.266 15.4164C60.266 15.3941 60.266 15.3718 60.266 15.3606C60.266 15.3048 60.266 15.249 60.2549 15.1932C60.2549 15.1597 60.2549 15.115 60.2325 15.0815C60.2325 15.0592 60.2325 15.0481 60.2214 15.0257C60.2214 15.0146 60.2214 14.9922 60.2102 14.9811C60.2102 14.9587 60.2102 14.9476 60.1879 14.9253C60.1879 14.9029 60.1767 14.8918 60.1656 14.8694C60.1321 14.7913 60.0875 14.7132 60.0428 14.635C60.0205 14.6015 59.987 14.568 59.9647 14.5345C59.429 14.5345 58.8821 14.6797 58.3911 14.9029L58.4915 14.8806Z" fill="black"/>
<path d="M53.7596 16.075L54.1502 15.7624L54.4738 15.8406L55.9917 14.3L53.302 15.5503L53.7931 15.6731L55.1993 14.8136L54.0051 15.7289L53.7596 16.075Z" fill="black"/>
<path d="M52.32 15.3829L56.4717 13.4405C56.3489 13.3623 56.2038 13.3065 56.0364 13.2619C54.9315 12.9828 53.4026 13.6749 52.6213 14.8136C52.4874 15.0033 52.387 15.1931 52.3088 15.3829H52.32Z" fill="black"/>
<path d="M53.0453 17.3142L53.7707 16.5774L52.1748 16.1755C52.1971 16.7002 52.4985 17.1244 53.0453 17.3142Z" fill="black"/>
<path d="M54.6636 16.7895L54.0833 17.3812C54.552 17.3142 55.0319 17.1356 55.4671 16.8677C55.4671 16.89 55.4671 16.9123 55.4671 16.9235C55.4671 17.0574 55.4895 17.1914 55.5229 17.3142C55.5229 17.3477 55.5453 17.3812 55.5564 17.4147C55.5899 17.4928 55.6345 17.5709 55.6792 17.6491C55.7015 17.6826 55.735 17.7161 55.7573 17.7496C56.293 17.7496 56.8399 17.6044 57.3309 17.3812C57.2305 17.3812 57.1412 17.3812 57.0519 17.3588C56.7394 17.2807 56.5943 17.0351 56.5943 16.7225C56.5943 16.6891 56.5943 16.6556 56.5943 16.6109C56.6278 16.3876 56.7283 16.1309 56.9068 15.8853C56.9068 15.8741 56.9292 15.863 56.9292 15.8518C56.9403 15.8295 56.9626 15.8183 56.9738 15.796C56.9738 15.796 56.985 15.7848 56.9961 15.7737C56.9961 15.7737 56.9961 15.7737 57.0073 15.7625C57.0184 15.7513 57.0296 15.729 57.0408 15.7179C57.7104 14.9253 58.8934 14.4341 59.9871 14.4676C59.9871 14.4676 59.9759 14.4564 59.9648 14.4452C59.9648 14.4452 59.9536 14.4341 59.9425 14.4229C59.9313 14.4118 59.9201 14.4006 59.8978 14.3894C59.8978 14.3894 59.8867 14.3783 59.8755 14.3671C59.8755 14.3671 59.8532 14.3559 59.842 14.3448C59.8309 14.3448 59.8197 14.3225 59.8085 14.3225C59.7974 14.3225 59.7862 14.3001 59.7639 14.3001C59.7639 14.3001 59.7416 14.289 59.7304 14.2778C59.7304 14.2778 59.7304 14.2778 59.7192 14.2778C59.6969 14.2666 59.6746 14.2555 59.6411 14.2331C59.63 14.2331 59.6188 14.222 59.5965 14.2108C59.5853 14.2108 59.5742 14.1997 59.5518 14.1885C59.5407 14.1885 59.5295 14.1773 59.5072 14.1773C59.496 14.1773 59.4737 14.1662 59.4626 14.155C59.4514 14.155 59.4291 14.155 59.4179 14.1438C59.4068 14.1438 59.3956 14.1438 59.3733 14.1327C59.351 14.1327 59.3398 14.1327 59.3175 14.1215C59.2952 14.1215 59.284 14.1215 59.2617 14.1104C59.2505 14.1104 59.2282 14.1104 59.217 14.1104C59.217 14.1104 59.2059 14.1104 59.1947 14.1104C59.1836 14.1104 59.1724 14.1104 59.1612 14.1104C59.1612 14.1104 59.1612 14.1104 59.1501 14.1104C59.1389 14.1104 59.1166 14.1104 59.1054 14.1104C59.0943 14.1104 59.0831 14.1104 59.0719 14.1104C59.0719 14.1104 59.0496 14.1104 59.0385 14.1104C59.0273 14.1104 59.0161 14.1104 58.9938 14.1104C58.9715 14.1104 58.9603 14.1104 58.938 14.1104C58.9045 14.1104 58.8711 14.1104 58.8376 14.1104C58.8376 14.1104 58.8153 14.1104 58.8041 14.1104C58.7706 14.1104 58.7371 14.1104 58.7037 14.1104C58.6925 14.1104 58.6702 14.1104 58.659 14.1104C58.6479 14.1104 58.6255 14.1104 58.6144 14.1104C58.5809 14.1104 58.5586 14.1104 58.5251 14.1104C58.5139 14.1104 58.5028 14.1104 58.4804 14.1104C58.4581 14.1104 58.447 14.1104 58.4246 14.1104C58.4135 14.1104 58.3912 14.1104 58.38 14.1104C58.3465 14.1104 58.3019 14.1215 58.2684 14.1327C58.2572 14.1327 58.2461 14.1327 58.2349 14.1327C58.2238 14.1327 58.2126 14.1327 58.2014 14.1327C58.1791 14.1327 58.1568 14.1327 58.1233 14.155C58.101 14.155 58.0787 14.155 58.0564 14.1662C58.0564 14.1662 58.0452 14.1662 58.034 14.1662C58.0229 14.1662 58.0005 14.1662 57.9894 14.1773C57.9894 14.1773 57.9782 14.1773 57.9671 14.1773C57.9448 14.1773 57.9224 14.1885 57.9001 14.1997C57.8778 14.1997 57.8555 14.2108 57.8331 14.222C57.8108 14.222 57.7885 14.2331 57.7773 14.2443C57.755 14.2443 57.7439 14.2555 57.7215 14.2666C57.6992 14.2666 57.6881 14.2778 57.6657 14.289C57.6434 14.289 57.6211 14.3001 57.6099 14.3113C57.5765 14.3225 57.5318 14.3448 57.4983 14.3671C57.476 14.3671 57.4649 14.3894 57.4425 14.3894C57.4202 14.3894 57.4091 14.4118 57.3867 14.4118C57.3644 14.4118 57.3532 14.4341 57.3309 14.4452C57.2751 14.4787 57.2082 14.5122 57.1524 14.5457C57.13 14.5457 57.1189 14.568 57.0966 14.5792C57.0854 14.5792 57.0631 14.6015 57.0519 14.6127C57.0519 14.5346 57.0519 14.4564 57.0408 14.3783L55.3555 16.1086L54.6524 16.8342L54.6636 16.7895Z" fill="black"/>
<path d="M23.5262 9.6785C23.7941 9.6785 23.9838 9.6785 24.1735 9.8013C24.3856 9.93526 24.3967 10.0134 24.7315 10.058C25.4681 10.1474 26.5395 9.75664 27.0082 8.97522C27.3096 8.47287 27.0194 8.18263 26.6065 8.05984C27.1422 7.88122 27.7114 7.54633 27.9904 7.05515C28.2471 6.59746 27.968 6.28489 27.4212 6.4635C27.2203 6.53048 26.506 6.82072 26.3498 6.94352C26.2605 7.01049 26.1601 7.11096 26.1043 7.18911C25.6913 7.71378 25.3565 8.35008 24.9436 8.86359C24.8431 8.98638 24.7204 9.07569 24.5864 9.15383C24.9659 9.15383 25.4458 8.95289 25.7248 8.60683C26.1489 8.08216 26.4837 7.4347 26.8966 6.91003C27.1533 6.58629 27.5439 6.54164 27.4435 6.91003C27.3654 7.21143 26.9748 7.7361 26.6176 7.93704C26.5953 7.9482 26.4279 8.03751 26.4279 8.00402L26.8966 7.33423C26.8966 7.33423 27.0306 7.27841 27.064 7.25609L27.0306 7.0998L26.852 7.17794C26.8185 7.21143 26.8743 7.27841 26.852 7.28958L25.2449 9.5892C24.9882 9.23197 24.4748 9.17616 23.8722 9.41058C23.7829 9.44407 23.4146 9.61152 23.3588 9.65617C23.2807 9.71199 23.5039 9.6785 23.5262 9.6785ZM25.2784 9.64501L26.3163 8.14914C26.3609 8.10449 26.4725 8.21612 26.4949 8.23845C26.785 8.618 25.948 9.63385 25.3788 9.71199C25.323 9.71199 25.2561 9.6785 25.2784 9.64501Z" fill="black"/>
<path d="M39.3963 13.8312L40.2333 13.5187C40.1329 13.5968 40.0771 14.0098 40.1552 14.021L40.7579 13.8089L40.8025 13.6303C41.3159 12.8265 42.0078 12.0005 42.4989 11.1967C42.5882 11.0516 42.6886 10.8506 42.6105 10.739L41.8851 11.0181C41.8851 11.0516 41.9074 11.1074 41.8851 11.1409C41.7958 11.3307 41.5168 11.6321 41.4052 11.833L41.2712 11.5316L40.0548 11.9893C40.0324 12.0339 40.0436 12.0674 40.0101 12.1121C39.7534 12.5475 39.2847 12.9828 39.2512 13.4293C39.2512 13.5187 39.2959 13.8424 39.3851 13.8312H39.3963ZM39.9208 13.1838L40.7467 12.0005C40.769 11.9781 40.8025 11.9781 40.8248 12.0005C40.8918 12.0451 40.9253 12.4023 40.903 12.514C40.8583 12.6814 40.5347 13.1614 40.3896 13.3289C40.3003 13.4405 40.0771 13.4405 39.999 13.3959C39.932 13.3735 39.8874 13.2507 39.932 13.1838H39.9208Z" fill="black"/>
<path d="M39.0168 10.9399C38.9164 10.9846 38.336 11.1632 38.3026 11.219C38.2802 11.2525 38.3026 11.3083 38.2579 11.3753C38.0012 11.833 37.2088 12.6926 37.1865 13.0944C37.1865 13.1614 37.1977 13.2061 37.22 13.2619L37.8896 13.0163C37.8785 12.9605 37.8561 12.9047 37.9008 12.8377L38.7713 11.5986C38.9052 11.5093 39.1954 11.5651 39.1508 11.6879L37.9008 13.474L37.9231 13.5075C38.1798 13.474 38.5592 13.3512 38.7713 13.1391C38.961 12.9493 39.6195 11.9893 39.7199 11.766C39.8315 11.5316 39.7646 11.2972 39.6976 11.1297L38.8829 11.4311C39.0057 11.2637 39.0726 11.0851 39.0168 10.9399Z" fill="black"/>
<path d="M29.1622 11.2525L29.8095 11.0181L29.843 10.8506L30.7247 9.58916C30.8698 9.47753 31.1488 9.55567 31.093 9.70079L29.843 11.4981C30.1332 11.4757 30.5015 11.3529 30.747 11.1185C31.0148 10.7055 31.4166 10.2366 31.651 9.82359C31.7961 9.578 31.7403 9.31008 31.651 9.13147L30.8363 9.43288C30.9144 9.34357 31.0483 8.99751 30.959 8.96402C30.8921 8.9417 30.3675 9.19845 30.2559 9.19845C30.2559 9.26543 30.2559 9.33241 30.2001 9.39939C29.9434 9.84592 29.1845 10.6832 29.1399 11.0739C29.1399 11.1185 29.1399 11.2413 29.1734 11.2636L29.1622 11.2525Z" fill="black"/>
<path d="M43.0567 14.7243L43.7264 14.4787C43.704 14.4229 43.704 14.3559 43.7487 14.2778L44.5969 13.061C44.7643 12.9717 45.0433 13.0163 44.9652 13.1949L43.7264 14.9699C44.0388 14.9364 44.4183 14.8136 44.6527 14.5457C44.8759 14.3001 45.3111 13.6526 45.4785 13.3735C45.6683 13.061 45.6236 12.8265 45.5232 12.6033L44.7085 12.8935C44.8424 12.7261 44.8982 12.5475 44.8424 12.4023L44.1393 12.6703C44.1281 12.7261 44.1393 12.7484 44.1058 12.8154C43.8491 13.2842 43.0902 14.088 43.0344 14.5122C43.0232 14.5903 43.0344 14.6573 43.0567 14.7243Z" fill="black"/>
<path d="M34.653 12.4582C35.2892 12.2014 35.1329 12.6926 35.4901 12.8154C35.903 12.9605 36.8293 12.7373 37.1864 12.2461C37.6887 11.554 38.1128 10.8172 38.6373 10.1251C38.7824 9.92415 38.9833 9.71205 39.1842 9.55577C39.2176 9.53344 39.3962 9.43297 39.3962 9.41064C39.0726 9.53344 38.3918 9.72321 38.1574 9.99113C37.5771 10.7279 37.1195 11.5763 36.5503 12.3019C36.3941 12.5029 36.1597 12.6145 35.9923 12.5029C35.836 12.3912 35.97 11.967 35.7133 11.8554C35.278 11.6656 34.8093 12.1233 34.5303 12.514C34.5749 12.514 34.6084 12.4694 34.6419 12.4582H34.653Z" fill="black"/>
<path d="M42.0412 12.5921C41.8403 12.9159 41.4274 13.3736 41.3493 13.675C41.2712 13.9764 41.539 14.1773 41.6395 14.3894L42.6885 13.9875C42.7443 13.9652 42.8113 13.9094 42.8559 13.8647C43.0122 13.7196 43.4251 13.1168 43.5367 12.927C43.7823 12.514 43.4921 12.2572 43.3247 12.0005L42.0412 12.4805C42.0412 12.514 42.0412 12.5363 42.0189 12.5698L42.0412 12.5921ZM42.8671 12.4024C42.9341 12.514 43.0568 12.6591 42.9675 12.8377C42.8559 13.061 42.4095 13.6861 42.231 13.9094C42.2086 13.9429 42.1194 14.0434 42.0859 14.0434C41.9854 13.9652 41.9073 13.7643 41.9854 13.608C42.0859 13.4071 42.5881 12.7038 42.7443 12.5028C42.7778 12.4582 42.8113 12.4247 42.8671 12.4135V12.4024Z" fill="black"/>
<path d="M50.2552 14.5233C50.4449 14.434 50.8467 14.2554 51.0252 14.2665C51.2819 14.2665 51.1815 14.7019 51.0029 14.8805C50.6011 14.981 50.1882 14.8582 49.7641 15.1038C49.1949 15.4275 49.1056 16.0192 49.3958 16.2871L50.2217 15.9968C50.1101 16.1643 50.0878 16.3429 50.1436 16.4769L50.7797 16.2424C50.7797 16.1531 50.7574 16.1308 50.8243 16.0192C51.0699 15.5838 51.7841 14.8135 51.8288 14.4228C51.8399 14.3224 51.8176 14.1214 51.7172 14.0879C51.5498 14.0321 51.081 14.1103 50.8578 14.1661C50.6458 14.2219 50.3333 14.3 50.2552 14.5233ZM50.3444 15.8071C50.3221 15.8294 50.1101 15.8964 50.0654 15.8964C49.9204 15.9075 49.8087 15.8517 49.8869 15.7066C49.9315 15.6173 50.1882 15.2489 50.2663 15.1819C50.4114 15.048 50.7351 15.0368 50.9025 15.0145L50.3556 15.8071H50.3444Z" fill="black"/>
<path d="M45.2554 15.3047L46.271 14.9363C46.0925 14.9029 45.8246 14.9587 45.7465 14.8024C45.713 14.7466 45.7242 14.6349 45.7911 14.5568C46.338 14.3782 47.1527 14.1884 47.1527 13.5744C47.1527 13.4963 47.0522 13.0051 47.0076 12.9828C46.9964 12.9828 46.9741 12.9828 46.9518 12.9828L45.9697 13.34C45.7465 13.82 45.0769 14.434 45.0992 14.8917C45.0992 14.9587 45.1996 15.2936 45.2554 15.3159V15.3047ZM46.4607 13.5744C46.6505 13.8647 46.3715 14.3 45.8804 14.4117L46.4607 13.5744Z" fill="black"/>
<path d="M28.2916 9.47751C28.18 9.91288 28.7157 10.1027 28.6599 10.3594C28.593 10.6608 28.1242 10.6608 28.1912 10.3371C28.2135 10.2589 28.247 10.2031 28.2916 10.125C28.3028 10.0915 28.3474 10.0692 28.2916 10.0692C28.18 10.1361 27.5997 10.3036 27.5551 10.3594C27.4993 10.4152 27.4881 10.5938 27.4993 10.6496C27.5885 11.3753 29.6197 10.5715 29.2514 9.79008C29.1622 9.58914 28.6265 9.26541 29.1175 8.99749C29.1175 9.46635 29.709 9.15378 30.0885 8.964C29.8987 8.964 29.7202 8.964 29.642 8.83005C29.6197 8.79656 29.6197 8.6626 29.5862 8.6626C29.1063 8.88586 28.459 8.94168 28.314 9.48868L28.2916 9.47751Z" fill="black"/>
<path d="M32.834 10.7167C32.8228 11.0516 33.1688 11.1744 33.2246 11.4312C33.2692 11.6544 32.9344 11.8219 32.7782 11.6544C32.6777 11.5428 32.7782 11.3865 32.8563 11.2302C32.8675 11.2079 32.8898 11.1967 32.8563 11.1967L32.1197 11.487C31.6956 12.7038 34.296 11.7326 33.8049 10.8953C33.7045 10.7167 33.1911 10.393 33.671 10.1251C33.671 10.5939 34.2514 10.2925 34.642 10.0916C34.4634 10.0916 34.2737 10.0804 34.1956 9.95761C34.1732 9.92412 34.1732 9.79016 34.1398 9.79016C33.6375 10.0023 32.8786 10.1251 32.8451 10.7167H32.834Z" fill="black"/>
<path d="M47.1972 15.2154C47.1414 15.0926 47.2195 14.981 47.2865 14.8359C47.2976 14.8135 47.32 14.8024 47.2865 14.8024L46.5499 15.0926C46.1146 16.3094 48.7262 15.3382 48.2351 14.501C48.1458 14.3447 47.6883 14.0321 48.0231 13.7754C48.1793 13.6637 48.1012 13.7977 48.1123 13.8535C48.2016 14.1661 48.782 13.8535 49.0721 13.7084C48.8936 13.7084 48.7038 13.6972 48.6257 13.5744C48.6034 13.5409 48.6034 13.407 48.5699 13.407C48.1012 13.6191 47.4204 13.6972 47.2865 14.2554C47.1972 14.6349 47.5655 14.7689 47.6548 15.0368C47.7329 15.2824 47.32 15.4945 47.1972 15.2377V15.2154Z" fill="black"/>
<path d="M25.9032 7.2338C25.9702 7.1445 26.0595 7.05519 26.1488 6.97705C26.0595 6.97705 25.9255 7.03287 25.8251 7.06636C25.4791 7.18915 25.2113 7.31195 25.0327 7.64684C24.5528 7.59103 24.218 8.10453 24.1287 8.46176L24.2515 8.36129C24.3742 8.27198 24.497 8.22733 24.5975 8.27198L24.0618 9.04224C24.006 9.12039 23.8386 9.24318 23.7493 9.299C24.0171 9.299 24.3966 9.16504 24.6421 8.95294C25.0216 8.6292 25.5573 7.66917 25.8809 7.24497L25.9032 7.2338Z" fill="black"/>
<path d="M26.5505 10.3706C26.5505 10.4152 26.5505 10.605 26.5951 10.605L27.1866 10.3706L27.2089 10.3482C27.2089 10.3259 27.2089 10.2254 27.2089 10.2143L28.5147 8.33887L27.5326 8.69609C27.5437 8.75191 27.5326 8.81889 27.4879 8.88586C27.2536 9.28774 26.6063 10.0022 26.5393 10.3706H26.5505Z" fill="black"/>
<path d="M48.157 15.7736C48.157 15.8183 48.157 16.0081 48.2016 16.0081L48.8266 15.7848C48.8266 15.7848 48.8154 15.6509 48.8266 15.6174L50.1324 13.7419L49.1503 14.0992C49.1503 14.155 49.1503 14.2108 49.1168 14.2778C48.8824 14.6908 48.2239 15.4053 48.157 15.7736Z" fill="black"/>
<path d="M31.1265 11.7548L31.7626 11.4981C31.7626 11.4646 31.7626 11.353 31.7849 11.3195L33.0684 9.47754L32.1086 9.84592C32.1086 9.92407 32.0751 10.0022 32.0305 10.0804C31.7961 10.4711 31.439 10.8841 31.2046 11.2637C31.1041 11.4199 31.0707 11.6432 31.1376 11.7548H31.1265Z" fill="black"/>
<path d="M35.9587 11.9112C36.2377 11.9335 36.6953 11.7437 36.9296 11.4981C37.2421 11.1632 37.5211 10.6162 37.8113 10.2479C37.9006 10.1362 38.0122 10.0134 38.1126 9.91296C38.0233 9.91296 37.8894 9.96878 37.789 10.0023C37.4653 10.1251 37.2086 10.2702 37.0077 10.5604C36.5167 10.5269 36.2377 10.9623 36.1149 11.3419C36.1707 11.3642 36.2154 11.2749 36.2712 11.2191C36.3716 11.1521 36.5055 11.1298 36.5837 11.1632L36.1819 11.7326C36.1596 11.7661 35.9922 11.8777 35.9475 11.9112H35.9587Z" fill="black"/>
<path d="M25.7359 6.3854C25.8364 6.43006 25.8587 6.57518 25.9368 6.65332C26.2047 6.91007 26.7404 6.64216 27.131 6.3854C27.0082 6.3854 26.8185 6.43006 26.718 6.3854C26.6064 6.34075 26.5618 6.11749 26.4502 6.03934C26.16 5.81608 25.669 6.07283 25.323 6.3854C25.4904 6.34075 25.6132 6.31842 25.7359 6.3854Z" fill="black"/>
<path d="M37.6104 9.3548C37.7444 9.41062 37.7444 9.60039 37.8671 9.67853C38.1461 9.84598 38.6595 9.58923 38.9943 9.3548C38.8716 9.3548 38.7153 9.39945 38.6037 9.36596C38.4586 9.31015 38.4252 9.08688 38.3024 8.99758C38.0122 8.8078 37.5212 9.07572 37.1975 9.36596C37.3649 9.33247 37.4765 9.29898 37.6104 9.36596V9.3548Z" fill="black"/>
<path d="M49.8981 13.608C50.0766 13.4628 50.311 13.3624 50.5119 13.2954C50.4561 13.1391 50.4226 12.994 50.4338 12.8042C50.2329 12.9158 50.032 13.0386 49.82 13.0944C49.7976 13.1391 49.8646 13.2731 49.8758 13.3289C49.8758 13.3624 49.8758 13.608 49.8981 13.608Z" fill="black"/>
<path d="M28.2805 8.20494C28.4702 8.08215 28.6934 7.94819 28.9055 7.90353C28.8608 7.74725 28.8162 7.59096 28.8385 7.41235C28.6488 7.51282 28.4367 7.65794 28.2358 7.69143C28.1912 7.71376 28.2693 7.88121 28.2805 7.92586C28.2916 8.01517 28.2805 8.11564 28.2805 8.20494Z" fill="black"/>
<path d="M32.8451 9.32129L33.4701 9.00872C33.4143 8.87476 33.3696 8.71847 33.4143 8.55103H33.3696C33.1911 8.68498 32.9902 8.77429 32.7893 8.84127C32.7893 8.99755 32.8674 9.14268 32.8451 9.32129Z" fill="black"/>
</g>
<defs>
<clipPath id="clip0_304_3">
<rect width="78" height="50" fill="white"/>
</clipPath>
</defs>
</svg>
