<svg width="48" height="15" viewBox="0 0 48 15" fill="none" xmlns="http://www.w3.org/2000/svg">
<path d="M1.96105 14.5424C0.653802 14.5424 0.000180069 14.0733 0.000180069 13.135C0.000180069 12.9537 0.0251991 12.7535 0.0752371 12.5346L2.77729 0.844445L4.75692 5.31152e-05H4.85074L1.95166 12.5346C1.88912 12.8098 2.01421 12.9474 2.32695 12.9474H5.56378C6.30185 12.9474 6.84914 12.5815 7.20566 11.8497H7.29948L8.55668 12.5158C7.86866 13.8668 6.74906 14.5424 5.19788 14.5424H1.96105ZM11.6434 7.45885C11.4182 8.45335 11.3056 9.29775 11.3056 9.99202C11.3056 10.4236 11.3494 10.7989 11.437 11.1179C11.806 12.4627 12.5722 13.135 13.7356 13.135C14.8802 13.135 15.9529 12.4595 16.9537 11.1085C17.5729 10.2704 18.067 9.05381 18.4361 7.45885C18.6612 6.48311 18.7738 5.6481 18.7738 4.95382C18.7738 4.52224 18.73 4.1407 18.6425 3.8092C18.286 2.45817 17.5229 1.78266 16.3532 1.78266C15.1961 1.78266 14.1203 2.45817 13.1258 3.8092C12.4941 4.6661 11.9999 5.88265 11.6434 7.45885ZM9.76698 7.46823C10.186 5.64184 10.824 4.17823 11.6809 3.07739C13.1821 1.15093 14.8615 0.187696 16.7191 0.187696C18.6018 0.187696 19.8371 1.15093 20.4251 3.07739C20.5752 3.57152 20.6503 4.13757 20.6503 4.77556C20.6503 5.55115 20.5377 6.44558 20.3125 7.45885C19.8997 9.27273 19.2617 10.7332 18.3985 11.8403C16.8974 13.7668 15.218 14.73 13.3603 14.73C11.5027 14.73 10.2674 13.7699 9.65439 11.8497C9.49803 11.3618 9.41984 10.7895 9.41984 10.1328C9.41984 9.32589 9.53555 8.43772 9.76698 7.46823ZM33.8603 6.66137L33.6727 7.45885C33.2536 9.26647 32.6156 10.727 31.7587 11.8403C30.2701 13.7668 28.5907 14.73 26.7205 14.73C24.8566 14.73 23.6213 13.7668 23.0146 11.8403C22.8582 11.3462 22.78 10.777 22.78 10.1328C22.78 9.34466 22.8957 8.45335 23.1271 7.45885C23.5525 5.63246 24.1904 4.17197 25.0411 3.07739C26.5422 1.15093 28.2216 0.187696 30.0793 0.187696C31.9495 0.187696 33.1848 1.15093 33.7852 3.07739L32.0965 3.8092H32.0026C31.6399 2.45817 30.8768 1.78266 29.7134 1.78266C28.5625 1.78266 27.4867 2.45817 26.4859 3.8092C25.8542 4.65985 25.3601 5.8764 25.0036 7.45885C24.7784 8.45335 24.6658 9.29775 24.6658 9.99202C24.6658 10.4173 24.7096 10.7895 24.7972 11.1085C25.1662 12.4595 25.9324 13.135 27.0958 13.135C28.2404 13.135 29.3131 12.4595 30.3139 11.1085C30.8267 10.4142 31.2552 9.4635 31.5992 8.25633H28.0621L28.0809 8.16251L29.1317 6.66137H33.8603ZM38.3637 7.45885C38.1385 8.45335 38.026 9.29775 38.026 9.99202C38.026 10.4236 38.0697 10.7989 38.1573 11.1179C38.5263 12.4627 39.2926 13.135 40.4559 13.135C41.6006 13.135 42.6732 12.4595 43.674 11.1085C44.2932 10.2704 44.7874 9.05381 45.1564 7.45885C45.3816 6.48311 45.4941 5.6481 45.4941 4.95382C45.4941 4.52224 45.4504 4.1407 45.3628 3.8092C45.0063 2.45817 44.2432 1.78266 43.0736 1.78266C41.9164 1.78266 40.8406 2.45817 39.8461 3.8092C39.2144 4.6661 38.7202 5.88265 38.3637 7.45885ZM36.4873 7.46823C36.9064 5.64184 37.5443 4.17823 38.4012 3.07739C39.9024 1.15093 41.5818 0.187696 43.4395 0.187696C45.3221 0.187696 46.5574 1.15093 47.1454 3.07739C47.2955 3.57152 47.3706 4.13757 47.3706 4.77556C47.3706 5.55115 47.258 6.44558 47.0328 7.45885C46.62 9.27273 45.982 10.7332 45.1189 11.8403C43.6177 13.7668 41.9383 14.73 40.0807 14.73C38.223 14.73 36.9877 13.7699 36.3747 11.8497C36.2183 11.3618 36.1402 10.7895 36.1402 10.1328C36.1402 9.32589 36.2559 8.43772 36.4873 7.46823Z" fill="#803C00"/>
</svg>
