<svg width="54" height="23" viewBox="0 0 54 23" fill="none" xmlns="http://www.w3.org/2000/svg">
<path d="M3.13703 15.7433L1.44037 15.7236C1.25624 15.4606 1.12472 15.1778 1.0458 14.8753C0.980042 14.5596 0.947161 14.1979 0.947161 13.7902C0.947161 13.3825 0.986619 12.8433 1.06553 12.1725C1.14445 11.4886 1.23651 10.7257 1.34173 9.88398C1.4601 9.04222 1.5719 8.16759 1.67712 7.26008C1.79549 6.35257 1.89413 5.45821 1.97304 4.577C2.05196 3.69579 2.09142 2.88035 2.09142 2.13066C2.09142 1.85446 2.08484 1.57826 2.07169 1.30207C2.05854 1.02587 2.03881 0.762819 2.0125 0.512924C2.57805 0.539229 3.01866 0.611567 3.33431 0.729938C3.66312 0.848309 3.89986 1.01271 4.04454 1.22315C4.20237 1.42044 4.30101 1.65718 4.34047 1.93338C4.37993 2.19643 4.39965 2.49893 4.39965 2.84089C4.39965 3.26177 4.35362 3.84047 4.26155 4.577C4.18264 5.31353 4.07742 6.13556 3.9459 7.04307C3.81437 7.95058 3.68285 8.87782 3.55133 9.82479C3.4198 10.7718 3.30801 11.6793 3.21594 12.5473C3.13703 13.4022 3.09757 14.1519 3.09757 14.7964C3.09757 14.9674 3.09757 15.1318 3.09757 15.2896C3.11072 15.4474 3.12388 15.5987 3.13703 15.7433ZM0.000192055 16.5128C0.0396491 16.3812 0.111987 16.2103 0.217206 15.9998C0.322425 15.7894 0.493405 15.5724 0.730148 15.3488C0.96689 15.112 1.28912 14.9213 1.69685 14.7767C2.11772 14.6188 2.65039 14.5399 3.29486 14.5399C4.18922 14.5399 5.06385 14.5136 5.91875 14.461C6.77365 14.4084 7.54307 14.336 8.22699 14.244C8.92406 14.1388 9.46989 14.027 9.86446 13.9086C9.77239 14.7372 9.50277 15.3817 9.05559 15.842C8.60841 16.2892 8.05601 16.5128 7.39839 16.5128C7.12219 16.5128 6.76708 16.4865 6.33305 16.4338C5.89902 16.3944 5.39923 16.3549 4.83368 16.3155C4.28128 16.2629 3.68943 16.2366 3.05811 16.2366C2.57148 16.2366 2.07169 16.2563 1.55875 16.2957C1.0458 16.3352 0.526286 16.4075 0.000192055 16.5128ZM16.2115 16.8284C15.1725 16.8284 14.2847 16.5917 13.5481 16.1182C12.8116 15.6447 12.2066 15.02 11.7331 14.244C11.2596 13.4548 10.9045 12.5934 10.6678 11.6595C10.4442 10.7126 10.3324 9.77876 10.3324 8.85809C10.3324 7.76645 10.4639 6.74056 10.727 5.78044C11.0032 4.80717 11.3846 3.93254 11.8712 3.15655C12.371 2.36741 12.9563 1.70321 13.6271 1.16397C14.311 0.624719 15.0672 0.236724 15.8958 -1.8269e-05C15.9879 0.0131347 16.0734 0.0591681 16.1523 0.138082C16.2312 0.203844 16.2838 0.276182 16.3101 0.355095C15.863 0.631295 15.4355 0.960104 15.0278 1.34152C14.6201 1.72294 14.2518 2.1767 13.923 2.70279C13.5942 3.21573 13.3311 3.84047 13.1338 4.577L13.2917 4.61646C13.7125 3.70895 14.2386 2.95269 14.87 2.34768C15.5144 1.72952 16.1983 1.26261 16.9217 0.946952C17.6583 0.631296 18.3751 0.473467 19.0721 0.473467C19.9139 0.473467 20.6899 0.703633 21.4001 1.16397C22.1103 1.6243 22.6825 2.32795 23.1165 3.27492C23.5637 4.22189 23.7873 5.42533 23.7873 6.88524C23.7873 7.8059 23.6952 8.73972 23.5111 9.68669C23.3269 10.6337 23.0441 11.5346 22.6627 12.3895C22.2945 13.2444 21.8144 14.0072 21.2225 14.678C20.6307 15.3356 19.9205 15.8617 19.0919 16.2563C18.2633 16.6377 17.3031 16.8284 16.2115 16.8284ZM16.4877 15.5855C17.2505 15.5855 17.9279 15.3488 18.5197 14.8753C19.1247 14.4018 19.6311 13.7705 20.0388 12.9814C20.4466 12.1922 20.7556 11.3176 20.9661 10.3575C21.1765 9.39734 21.2817 8.43064 21.2817 7.45737C21.2817 6.11583 21.1436 5.05049 20.8674 4.26134C20.6044 3.45905 20.2361 2.88692 19.7626 2.54496C19.2891 2.18985 18.7631 2.01229 18.1843 2.01229C17.4215 2.01229 16.7179 2.24246 16.0734 2.70279C15.4289 3.16312 14.87 3.77471 14.3965 4.53754C13.923 5.28723 13.5547 6.12898 13.2917 7.0628C13.0418 7.98346 12.9168 8.90413 12.9168 9.82479C12.9168 10.6008 12.9826 11.3373 13.1141 12.0344C13.2588 12.7315 13.4758 13.343 13.7652 13.8691C14.0545 14.3952 14.4228 14.8161 14.87 15.1318C15.3303 15.4343 15.8695 15.5855 16.4877 15.5855ZM35.3039 11.1466C35.0935 12.0804 34.745 12.8959 34.2583 13.5929C33.7848 14.2769 33.2193 14.8095 32.5617 15.191C31.9172 15.5724 31.2136 15.7631 30.4507 15.7631C29.5564 15.7631 28.7672 15.5132 28.0833 15.0134C27.4125 14.5005 26.8864 13.7902 26.505 12.8827C26.1367 11.9752 25.9526 10.923 25.9526 9.72615C25.9526 8.39776 26.1367 7.17459 26.505 6.05664C26.8864 4.92554 27.4125 3.93911 28.0833 3.09736C28.7541 2.25561 29.5366 1.60457 30.431 1.14424C31.3253 0.670752 32.3052 0.43401 33.3705 0.43401C34.5806 0.43401 35.5407 0.74309 36.2509 1.36125C36.9743 1.96626 37.336 2.80143 37.336 3.86677C37.336 4.44548 37.211 4.965 36.9611 5.42533C36.7112 5.88566 36.3693 6.24735 35.9352 6.5104C35.5144 6.77344 35.0212 6.90497 34.4556 6.90497C33.9427 6.90497 33.4626 6.79317 33.0154 6.56958C32.5682 6.34599 32.2131 6.03691 31.9501 5.64234C32.1211 5.69495 32.2855 5.73441 32.4433 5.76071C32.6143 5.77387 32.7853 5.78044 32.9562 5.78044C33.6402 5.78044 34.2057 5.57658 34.6529 5.16886C35.1001 4.74798 35.3237 4.22846 35.3237 3.6103C35.3237 3.04475 35.1264 2.58442 34.7318 2.22931C34.3504 1.86104 33.8506 1.67691 33.2324 1.67691C32.588 1.67691 31.9764 1.9005 31.3977 2.34768C30.819 2.7817 30.2995 3.38014 29.8391 4.14297C29.3919 4.89266 29.0368 5.75414 28.7738 6.72741C28.5107 7.70069 28.3792 8.72657 28.3792 9.80506C28.3792 10.6994 28.4976 11.4886 28.7343 12.1725C28.9711 12.8433 29.3065 13.3628 29.7405 13.731C30.1745 14.0993 30.6809 14.2834 31.2596 14.2834C31.8514 14.2834 32.3775 14.1059 32.8379 13.7508C33.3114 13.3825 33.6796 12.8893 33.9427 12.2711C34.2057 11.6398 34.3372 10.9296 34.3372 10.1404C34.3372 9.81164 34.3175 9.48283 34.278 9.15402L35.3039 11.1466ZM30.4902 21.583C31.4503 21.583 32.2263 21.1424 32.8181 20.2612C33.41 19.38 33.8374 18.1568 34.1005 16.5917C34.3635 15.0397 34.4951 13.2378 34.4951 11.1861C34.4951 10.8572 34.4753 10.5219 34.4359 10.1799C34.3964 9.82479 34.3438 9.48283 34.278 9.15402C34.3833 9.14087 34.5148 9.13429 34.6726 9.13429C34.8436 9.12114 34.9751 9.11456 35.0672 9.11456C35.738 9.11456 36.1983 9.24609 36.4482 9.50913C36.6981 9.77218 36.823 10.2062 36.823 10.8112C36.823 11.916 36.7507 13.0405 36.606 14.1848C36.4745 15.3159 36.2575 16.3944 35.955 17.4203C35.6525 18.4593 35.2447 19.38 34.7318 20.1823C34.232 20.9977 33.6073 21.6422 32.8576 22.1157C32.1211 22.5891 31.253 22.8259 30.2534 22.8259C29.3065 22.8259 28.537 22.6483 27.9452 22.2932C27.3533 21.9381 26.9193 21.4844 26.6431 20.932C26.3801 20.3796 26.2485 19.8206 26.2485 19.255C26.2485 18.7289 26.3472 18.262 26.5445 17.8543C26.7418 17.4597 27.0048 17.1441 27.3336 16.9073C27.6624 16.6706 28.0307 16.5522 28.4384 16.5522C28.6225 16.5522 28.8067 16.5785 28.9908 16.6311C29.1749 16.6969 29.3656 16.7824 29.5629 16.8876C29.3393 17.1901 29.1289 17.5584 28.9316 17.9924C28.7475 18.4264 28.6554 18.9196 28.6554 19.472C28.6554 20.0376 28.7935 20.5308 29.0697 20.9517C29.3459 21.3726 29.8194 21.583 30.4902 21.583ZM45.5731 16.8284C44.5341 16.8284 43.6463 16.5917 42.9097 16.1182C42.1732 15.6447 41.5682 15.02 41.0947 14.244C40.6212 13.4548 40.2661 12.5934 40.0294 11.6595C39.8058 10.7126 39.694 9.77876 39.694 8.85809C39.694 7.76645 39.8255 6.74056 40.0886 5.78044C40.3648 4.80717 40.7462 3.93254 41.2328 3.15655C41.7326 2.36741 42.3179 1.70321 42.9887 1.16397C43.6726 0.624719 44.4288 0.236724 45.2574 -1.8269e-05C45.3495 0.0131347 45.435 0.0591681 45.5139 0.138082C45.5928 0.203844 45.6454 0.276182 45.6717 0.355095C45.2246 0.631295 44.7971 0.960104 44.3894 1.34152C43.9817 1.72294 43.6134 2.1767 43.2846 2.70279C42.9558 3.21573 42.6927 3.84047 42.4954 4.577L42.6533 4.61646C43.0741 3.70895 43.6002 2.95269 44.2316 2.34768C44.876 1.72952 45.5599 1.26261 46.2833 0.946952C47.0199 0.631296 47.7367 0.473467 48.4337 0.473467C49.2755 0.473467 50.0515 0.703633 50.7617 1.16397C51.4719 1.6243 52.0441 2.32795 52.4781 3.27492C52.9253 4.22189 53.1488 5.42533 53.1488 6.88524C53.1488 7.8059 53.0568 8.73972 52.8727 9.68669C52.6885 10.6337 52.4057 11.5346 52.0243 12.3895C51.6561 13.2444 51.176 14.0072 50.5841 14.678C49.9923 15.3356 49.2821 15.8617 48.4535 16.2563C47.6249 16.6377 46.6647 16.8284 45.5731 16.8284ZM45.8493 15.5855C46.6121 15.5855 47.2895 15.3488 47.8813 14.8753C48.4863 14.4018 48.9927 13.7705 49.4004 12.9814C49.8082 12.1922 50.1172 11.3176 50.3277 10.3575C50.5381 9.39734 50.6433 8.43064 50.6433 7.45737C50.6433 6.11583 50.5052 5.05049 50.229 4.26134C49.966 3.45905 49.5977 2.88692 49.1242 2.54496C48.6507 2.18985 48.1247 2.01229 47.5459 2.01229C46.7831 2.01229 46.0795 2.24246 45.435 2.70279C44.7905 3.16312 44.2316 3.77471 43.7581 4.53754C43.2846 5.28723 42.9163 6.12898 42.6533 7.0628C42.4034 7.98346 42.2784 8.90413 42.2784 9.82479C42.2784 10.6008 42.3442 11.3373 42.4757 12.0344C42.6204 12.7315 42.8374 13.343 43.1268 13.8691C43.4161 14.3952 43.7844 14.8161 44.2316 15.1318C44.6919 15.4343 45.2311 15.5855 45.8493 15.5855Z" fill="#803C00"/>
</svg>
