<svg width="54" height="17" viewBox="0 0 54 17" fill="none" xmlns="http://www.w3.org/2000/svg">
<path d="M4.33356 11.2896H-6.70131e-05V0.177738H4.33356V11.2896ZM-6.70131e-05 12.4008H9.24501L8.55607 16.1788H-6.70131e-05V12.4008ZM18.2076 16.3788V12.823C18.5335 12.6304 18.7558 12.186 18.8743 11.4896C18.9928 10.7933 19.0521 9.68209 19.0521 8.15606C19.0521 6.61522 18.9928 5.51144 18.8743 4.84472C18.7558 4.1632 18.5335 3.73354 18.2076 3.55575V0.0221716C19.5262 0.0666194 20.5855 0.355528 21.3856 0.888898C22.2005 1.42227 22.7931 2.27418 23.1635 3.44463C23.5339 4.61508 23.7191 6.20037 23.7191 8.20051C23.7191 10.2006 23.5339 11.7859 23.1635 12.9564C22.7931 14.1268 22.2005 14.9788 21.3856 15.5121C20.5855 16.0307 19.5262 16.3196 18.2076 16.3788ZM17.0964 12.823V16.4011C15.7926 16.3418 14.7333 16.0455 13.9184 15.5121C13.1035 14.9788 12.5109 14.1268 12.1405 12.9564C11.7701 11.7859 11.5849 10.2006 11.5849 8.20051C11.5849 6.20037 11.7701 4.61508 12.1405 3.44463C12.5109 2.27418 13.0961 1.42227 13.8962 0.888898C14.7111 0.355528 15.7778 0.0666194 17.0964 0.0221716V3.55575C16.7705 3.73354 16.5482 4.1632 16.4297 4.84472C16.3112 5.52625 16.2519 6.63003 16.2519 8.15606C16.2519 9.68209 16.3112 10.8007 16.4297 11.5118C16.5482 12.2082 16.7705 12.6453 17.0964 12.823ZM31.496 7.68936H26.829C26.9031 5.86702 27.2513 4.39284 27.8735 3.26684C28.4958 2.14084 29.3403 1.31856 30.407 0.800003C31.4886 0.266633 32.7257 -5.18232e-05 34.1184 -5.18232e-05C34.637 -5.18232e-05 35.1777 0.0443955 35.7407 0.13329C36.3037 0.222186 36.8816 0.325897 37.4742 0.444424L37.0742 4.08912C36.5852 4.00022 36.163 3.93355 35.8074 3.8891C35.4667 3.82984 35.1185 3.80021 34.7629 3.80021C34.0369 3.80021 33.4369 3.91133 32.9628 4.13356C32.4887 4.3558 32.1331 4.74842 31.896 5.31142C31.6738 5.87442 31.5405 6.66707 31.496 7.68936ZM34.2073 16.4011V11.3118L32.985 8.26718H38.2076V15.4232C37.7335 15.7344 37.1408 15.9714 36.4297 16.1344C35.7333 16.2825 34.9925 16.3714 34.2073 16.4011ZM33.0961 12.6008V16.3788C31.8516 16.3048 30.7626 16.001 29.8292 15.4677C28.9106 14.9343 28.1921 14.1268 27.6735 13.0453C27.1698 11.9489 26.8883 10.534 26.829 8.80055H31.496C31.5256 9.92655 31.659 10.7859 31.896 11.3785C32.1331 11.9711 32.5331 12.3786 33.0961 12.6008ZM47.8277 16.3788V12.823C48.1536 12.6304 48.3759 12.186 48.4944 11.4896C48.6129 10.7933 48.6722 9.68209 48.6722 8.15606C48.6722 6.61522 48.6129 5.51144 48.4944 4.84472C48.3759 4.1632 48.1536 3.73354 47.8277 3.55575V0.0221716C49.1463 0.0666194 50.2056 0.355528 51.0057 0.888898C51.8205 1.42227 52.4132 2.27418 52.7836 3.44463C53.154 4.61508 53.3392 6.20037 53.3392 8.20051C53.3392 10.2006 53.154 11.7859 52.7836 12.9564C52.4132 14.1268 51.8205 14.9788 51.0057 15.5121C50.2056 16.0307 49.1463 16.3196 47.8277 16.3788ZM46.7165 12.823V16.4011C45.4127 16.3418 44.3534 16.0455 43.5385 15.5121C42.7236 14.9788 42.131 14.1268 41.7606 12.9564C41.3902 11.7859 41.205 10.2006 41.205 8.20051C41.205 6.20037 41.3902 4.61508 41.7606 3.44463C42.131 2.27418 42.7162 1.42227 43.5163 0.888898C44.3311 0.355528 45.3979 0.0666194 46.7165 0.0221716V3.55575C46.3905 3.73354 46.1683 4.1632 46.0498 4.84472C45.9313 5.52625 45.872 6.63003 45.872 8.15606C45.872 9.68209 45.9313 10.8007 46.0498 11.5118C46.1683 12.2082 46.3905 12.6453 46.7165 12.823Z" fill="#803C00"/>
</svg>
