<svg width="55" height="14" viewBox="0 0 55 14" fill="none" xmlns="http://www.w3.org/2000/svg">
<path d="M2.39626 13.6651C1.63192 13.6651 1.03973 13.462 0.61969 13.0557C0.206535 12.6494 -4.24087e-05 12.0366 -4.24087e-05 11.2172V1.11553C0.364911 0.805665 0.809053 0.568101 1.33238 0.402839C1.8626 0.230691 2.41003 0.144617 2.97467 0.144617C3.80787 0.144617 4.51368 0.351194 5.09209 0.764349C5.71871 1.23259 6.03202 1.87987 6.03202 2.70618V8.35607C5.64641 8.3905 5.26768 8.50068 4.89584 8.6866C4.524 8.86563 4.33809 9.05155 4.33809 9.24436C4.33809 9.36142 4.4035 9.46126 4.53433 9.54389C5.21604 8.97236 6.22827 8.6866 7.57102 8.6866H10.019C10.4734 9.48536 10.7007 10.3013 10.7007 11.1345C10.7007 11.5477 10.6284 12.0056 10.4838 12.5083C10.3392 13.011 10.1464 13.3966 9.90535 13.6651H2.39626ZM18.5601 6.52786C18.5601 5.83927 18.5291 5.36758 18.4672 5.11281C18.4052 4.85114 18.2916 4.72031 18.1263 4.72031C18.023 4.72031 17.9301 4.75474 17.8474 4.8236C17.8612 4.94754 17.8819 5.11281 17.9094 5.31938C17.9369 5.52596 17.9507 5.96666 17.9507 6.64148V7.31286C17.9507 7.7811 17.9404 8.12195 17.9197 8.33541C17.8991 8.54888 17.8819 8.73135 17.8681 8.88284C17.8612 8.96548 17.8543 9.04811 17.8474 9.13074C17.9301 9.1996 18.023 9.23403 18.1263 9.23403C18.2916 9.23403 18.4052 9.10664 18.4672 8.85186C18.5291 8.59019 18.5601 8.11507 18.5601 7.42647V6.52786ZM18.147 13.9853C16.9213 13.9853 15.7954 13.734 14.7694 13.2313C13.7503 12.7217 12.9274 11.9471 12.3008 10.9073C11.6742 9.86065 11.3609 8.55576 11.3609 6.99266C11.3609 4.72719 12.0426 2.95751 13.406 1.68362C14.6179 0.561215 16.1776 1.25077e-05 18.085 1.25077e-05C20.1577 1.25077e-05 21.7965 0.643846 23.0015 1.93151C24.2135 3.21229 24.8194 4.89934 24.8194 6.99266C24.8194 9.3201 24.1721 11.0967 22.8776 12.3224C21.7001 13.431 20.1232 13.9853 18.147 13.9853ZM33.0507 5.05083H39.1757C39.5682 5.62236 39.7645 6.31784 39.7645 7.13727C39.7645 7.9498 39.5958 8.61085 39.2584 9.12041H38.8349V12.2191C37.4783 13.3966 35.688 13.9853 33.4639 13.9853C32.1073 13.9853 30.9023 13.7443 29.8488 13.2623C28.6988 12.7458 27.8071 11.9918 27.1736 11.0003C26.4781 9.91229 26.1304 8.57642 26.1304 6.99266C26.1304 4.74097 26.8052 2.99883 28.1548 1.76625C29.4356 0.588758 31.1709 1.25077e-05 33.3606 1.25077e-05C34.4417 1.25077e-05 35.4608 0.161832 36.4179 0.48547C37.3819 0.809108 38.1428 1.21193 38.7006 1.69395C38.7006 2.1071 38.649 2.61322 38.5457 3.21229C38.4493 3.81137 38.3253 4.26928 38.1738 4.58603H32.7305C32.5102 4.82015 32.3001 5.15756 32.1004 5.59826C31.9076 6.03896 31.8112 6.54508 31.8112 7.11661C31.8112 7.9016 32.0075 8.51789 32.4 8.96548C32.7443 9.37175 33.185 9.57488 33.7221 9.57488C33.9424 9.57488 34.0526 9.49913 34.0526 9.34764V9.11008H33.939C33.4845 9.11008 33.1058 8.93449 32.8028 8.58331C32.5067 8.22524 32.3587 7.71568 32.3587 7.05463C32.3587 6.22832 32.5893 5.56039 33.0507 5.05083ZM48.161 6.52786C48.161 5.83927 48.13 5.36758 48.0681 5.11281C48.0061 4.85114 47.8925 4.72031 47.7272 4.72031C47.6239 4.72031 47.531 4.75474 47.4483 4.8236C47.4621 4.94754 47.4828 5.11281 47.5103 5.31938C47.5378 5.52596 47.5516 5.96666 47.5516 6.64148V7.31286C47.5516 7.7811 47.5413 8.12195 47.5206 8.33541C47.5 8.54888 47.4828 8.73135 47.469 8.88284C47.4621 8.96548 47.4552 9.04811 47.4483 9.13074C47.531 9.1996 47.6239 9.23403 47.7272 9.23403C47.8925 9.23403 48.0061 9.10664 48.0681 8.85186C48.13 8.59019 48.161 8.11507 48.161 7.42647V6.52786ZM47.7479 13.9853C46.5222 13.9853 45.3963 13.734 44.3703 13.2313C43.3512 12.7217 42.5283 11.9471 41.9017 10.9073C41.2751 9.86065 40.9618 8.55576 40.9618 6.99266C40.9618 4.72719 41.6435 2.95751 43.0069 1.68362C44.2188 0.561215 45.7785 1.25077e-05 47.6859 1.25077e-05C49.7586 1.25077e-05 51.3974 0.643846 52.6024 1.93151C53.8144 3.21229 54.4203 4.89934 54.4203 6.99266C54.4203 9.3201 53.773 11.0967 52.4785 12.3224C51.301 13.431 49.7241 13.9853 47.7479 13.9853Z" fill="#803C00"/>
</svg>
