<svg width="67" height="37" viewBox="0 0 67 37" fill="none" xmlns="http://www.w3.org/2000/svg">
<path d="M49.0282 29.2054C41.8595 29.7397 38.406 21.7159 39.5638 15.5972C40.9885 8.07741 48.3637 2.89117 55.5122 1.54547C55.331 1.36403 54.9786 1.25819 54.7319 1.16243C47.4072 -1.60457 39.2467 0.703783 34.288 6.64603C33.9557 7.0442 33.6134 7.4978 33.3516 7.94133C33.256 7.96149 33.2409 7.92621 33.1855 7.87581C32.9237 7.649 32.5109 6.90307 32.2189 6.57547C32.1787 6.53011 31.9169 6.24786 31.8867 6.27306L25.2969 35.067C28.5137 33.7515 31.2473 31.4281 33.2509 28.6006C33.3466 28.5754 33.3567 28.6661 33.407 28.7115C33.85 29.155 34.3182 29.9513 34.7813 30.4654C36.3319 32.1841 38.3254 33.7213 40.4398 34.6688C44.2004 33.6457 47.7998 31.7859 50.5233 28.9685C50.035 28.9635 49.5266 29.1651 49.0231 29.2004L49.0282 29.2054Z" fill="#803C00"/>
<path d="M58.105 2.8509C57.7375 2.61401 56.8666 2.04953 56.4941 1.92856C56.3279 1.87816 56.2726 1.86808 56.0964 1.89328C55.5829 1.96384 54.5609 2.36705 54.0323 2.56361C51.1075 3.64219 48.3084 5.34069 46.1286 7.57849C46.5767 7.60369 47.0297 7.38192 47.4929 7.34664C53.9367 6.81744 57.6922 13.2536 57.3751 19.0447C56.9673 26.4032 50.901 31.9019 44.3163 34.1598C43.3195 34.5026 42.3227 34.679 41.336 34.9763C41.2706 34.9965 41.185 34.9864 41.2051 35.0771C49.6928 38.7009 59.5901 35.3241 64.1461 27.3658C69.0142 18.8683 66.2907 8.06737 58.1 2.85594L58.105 2.8509Z" fill="#803C00"/>
<path d="M21.7932 0.366169C20.3635 0.0637643 18.7022 -0.0471191 17.2423 0.0335221C6.26263 0.638331 -1.6864 10.7638 0.307146 21.6202C0.342385 21.8167 0.59913 23.1423 0.719952 23.1372L22.5131 0.577851C22.5131 0.50225 21.909 0.386329 21.7982 0.366169H21.7932Z" fill="#803C00"/>
<path d="M13.7582 22.6079L19.8144 13.808C19.9151 13.8584 19.7942 13.9692 19.7691 14.0297C18.5558 16.8975 16.9348 19.72 15.6561 22.5726V25.6723L17.0607 22.613L20.0409 22.6029L23.3685 8.00684L9.39355 22.6029H13.7532L13.7582 22.6079Z" fill="#803C00"/>
<path d="M16.6939 36.4682L16.8198 36.4077L18.4509 29.4725H3.88184C6.89733 33.4945 11.7 36.0095 16.699 36.4682H16.6939Z" fill="#803C00"/>
</svg>
