<svg width="51" height="18" viewBox="0 0 51 18" fill="none" xmlns="http://www.w3.org/2000/svg">
<path d="M0 -2.48117e-05H3.59913V3.5991H0V-2.48117e-05ZM0 3.5991H3.59913V7.19823H0V3.5991ZM0 7.19823H3.59913V10.7974H0V7.19823ZM0 10.7974H3.59913V14.3965H0V10.7974ZM0 14.3965H3.59913V17.9956H0V14.3965ZM3.59913 14.3965H7.19825V17.9956H3.59913V14.3965ZM10.7868 -2.48117e-05H14.386V3.5991H10.7868V-2.48117e-05ZM14.386 -2.48117e-05H17.9851V3.5991H14.386V-2.48117e-05ZM17.9851 -2.48117e-05H21.5842V3.5991H17.9851V-2.48117e-05ZM17.9851 3.5991H21.5842V7.19823H17.9851V3.5991ZM17.9851 7.19823H21.5842V10.7974H17.9851V7.19823ZM17.9851 10.7974H21.5842V14.3965H17.9851V10.7974ZM17.9851 14.3965H21.5842V17.9956H17.9851V14.3965ZM14.386 14.3965H17.9851V17.9956H14.386V14.3965ZM10.7868 14.3965H14.386V17.9956H10.7868V14.3965ZM10.7868 10.7974H14.386V14.3965H10.7868V10.7974ZM10.7868 7.19823H14.386V10.7974H10.7868V7.19823ZM10.7868 3.5991H14.386V7.19823H10.7868V3.5991ZM32.3675 -2.48117e-05H35.9667V3.5991H32.3675V-2.48117e-05ZM28.7684 -2.48117e-05H32.3675V3.5991H28.7684V-2.48117e-05ZM25.1693 -2.48117e-05H28.7684V3.5991H25.1693V-2.48117e-05ZM25.1693 3.5991H28.7684V7.19823H25.1693V3.5991ZM25.1693 7.19823H28.7684V10.7974H25.1693V7.19823ZM25.1693 10.7974H28.7684V14.3965H25.1693V10.7974ZM25.1693 14.3965H28.7684V17.9956H25.1693V14.3965ZM28.7684 14.3965H32.3675V17.9956H28.7684V14.3965ZM32.3675 10.7974H35.9667V14.3965H32.3675V10.7974ZM32.3675 7.19823H35.9667V10.7974H32.3675V7.19823ZM39.5517 -2.48117e-05H43.1508V3.5991H39.5517V-2.48117e-05ZM43.1508 -2.48117e-05H46.75V3.5991H43.1508V-2.48117e-05ZM46.75 -2.48117e-05H50.3491V3.5991H46.75V-2.48117e-05ZM46.75 3.5991H50.3491V7.19823H46.75V3.5991ZM46.75 7.19823H50.3491V10.7974H46.75V7.19823ZM46.75 10.7974H50.3491V14.3965H46.75V10.7974ZM46.75 14.3965H50.3491V17.9956H46.75V14.3965ZM43.1508 14.3965H46.75V17.9956H43.1508V14.3965ZM39.5517 14.3965H43.1508V17.9956H39.5517V14.3965ZM39.5517 10.7974H43.1508V14.3965H39.5517V10.7974ZM39.5517 7.19823H43.1508V10.7974H39.5517V7.19823ZM39.5517 3.5991H43.1508V7.19823H39.5517V3.5991Z" fill="#803C00"/>
</svg>
