<svg width="48" height="40" viewBox="0 0 48 40" fill="none" xmlns="http://www.w3.org/2000/svg">
<path d="M34.3521 27.4703C29.573 27.8264 27.2707 22.4772 28.0426 18.3981C28.9924 13.3849 33.9091 9.92745 38.6748 9.03032C38.554 8.90935 38.3191 8.83879 38.1546 8.77495C33.2714 6.93029 27.8311 8.46919 24.5253 12.4307C24.3038 12.6961 24.0756 12.9985 23.9011 13.2942C23.8373 13.3077 23.8272 13.2841 23.7903 13.2505C23.6158 13.0993 23.3406 12.602 23.1459 12.3836C23.1191 12.3534 22.9446 12.1652 22.9244 12.182L18.5312 31.378C20.6758 30.501 22.4982 28.952 23.834 27.0671C23.8977 27.0503 23.9044 27.1107 23.938 27.141C24.2333 27.4367 24.5455 27.9676 24.8542 28.3103C25.8879 29.4561 27.217 30.4809 28.6265 31.1126C31.1336 30.4305 33.5332 29.1906 35.3489 27.3123C35.0233 27.309 34.6844 27.4434 34.3488 27.4669L34.3521 27.4703Z" fill="#222222"/>
<path d="M40.4033 9.90056C40.1583 9.74263 39.5777 9.36631 39.3294 9.28567C39.2186 9.25207 39.1817 9.24535 39.0642 9.26215C38.7219 9.30919 38.0406 9.57799 37.6882 9.70903C35.7383 10.4281 33.8723 11.5604 32.4191 13.0523C32.7178 13.0691 33.0198 12.9212 33.3286 12.8977C37.6245 12.5449 40.1281 16.8357 39.9167 20.6964C39.6449 25.6021 35.6007 29.2679 31.2109 30.7732C30.5463 31.0017 29.8818 31.1193 29.224 31.3175C29.1804 31.331 29.1233 31.3242 29.1368 31.3847C34.7952 33.8006 41.3934 31.5494 44.4307 26.2438C47.6761 20.5788 45.8604 13.3782 40.4 9.90392L40.4033 9.90056Z" fill="#222222"/>
<path d="M16.1958 8.24411C15.2426 8.04251 14.1351 7.96859 13.1618 8.02235C5.84208 8.42555 0.542723 15.1759 1.87176 22.4134C1.89525 22.5445 2.06641 23.4282 2.14696 23.4248L16.6757 8.38523C16.6757 8.33483 16.273 8.25755 16.1991 8.24411H16.1958Z" fill="#222222"/>
<path d="M10.8395 23.072L14.8769 17.2053C14.944 17.2389 14.8635 17.3128 14.8467 17.3531C14.0379 19.265 12.9572 21.1466 12.1047 23.0484V25.1149L13.0411 23.0753L15.0279 23.0686L17.2463 13.3379L7.92969 23.0686H10.8361L10.8395 23.072Z" fill="#222222"/>
<path d="M12.7963 32.3121L12.8802 32.2717L13.9676 27.6483H4.25488C6.26521 30.3296 9.46698 32.0063 12.7996 32.3121H12.7963Z" fill="#222222"/>
</svg>
