<svg width="152" height="34" viewBox="0 0 152 34" fill="none" xmlns="http://www.w3.org/2000/svg">
<path d="M130.311 16.6293C131.604 15.5521 132.859 14.5076 134.154 13.4284C135.357 14.326 135.66 15.6286 135.791 17.1002C137.266 15.8615 138.691 14.6646 140.158 13.4325C141.21 14.6762 142.617 15.5717 143.317 17.2028C144.82 15.9405 146.292 14.7033 147.818 13.4209C148.604 14.2707 149.419 15.054 150.119 15.931C150.94 16.9623 151.294 18.1894 151.29 19.5222C151.281 22.4151 151.255 25.3081 151.299 28.2005C151.325 29.8874 150.687 31.2177 149.449 32.2933C148.623 33.0118 147.707 33.5833 146.594 33.9999C146.594 33.7232 146.594 33.527 146.594 33.3308C146.594 28.7464 146.59 24.162 146.598 19.5776C146.599 18.9326 146.513 18.3444 145.876 18.0279C145.168 17.6763 144.467 17.8046 143.803 18.1668C143.707 18.2191 143.639 18.4108 143.638 18.5386C143.63 21.9895 143.629 25.4404 143.635 28.8918C143.636 29.5589 143.939 30.0922 144.493 30.549C143.333 31.5362 142.198 32.5026 141.023 33.5033C140.84 33.3358 140.658 33.1939 140.506 33.0239C139.498 31.8954 138.987 30.5722 138.984 29.0508C138.978 25.9385 138.964 22.8262 138.963 19.7134C138.963 19.0085 138.916 18.3354 138.169 18.0018C137.368 17.6446 136.622 17.8594 135.924 18.2996C135.827 18.3605 135.765 18.5502 135.765 18.6805C135.757 22.1651 135.737 25.6507 135.786 29.1348C135.792 29.6007 136.152 30.062 136.39 30.624C135.324 31.5075 134.137 32.4901 132.87 33.5406C132.52 33.124 132.149 32.7592 131.87 32.3341C131.213 31.3359 130.922 30.213 130.92 29.0201C130.912 25.5521 130.907 22.0841 130.919 18.6166C130.92 17.9002 130.807 17.2381 130.311 16.6293Z" fill="#803C00"/>
<path d="M54.4437 13.4209C55.4012 14.1097 55.746 14.9141 56.0639 17.1981C56.8086 16.5553 57.5222 15.9401 58.2348 15.3238C58.9546 14.7015 59.673 14.0777 60.4221 13.4284C61.7512 14.828 63.2893 16.0461 63.6826 18.1271C63.7724 18.6018 63.8204 19.093 63.8223 19.5767C63.8353 22.4186 63.7916 25.2614 63.8425 28.1022C63.8732 29.834 63.2614 31.2011 62.024 32.3061C61.2225 33.022 60.3294 33.5737 59.2797 33.9999C59.2797 33.7508 59.2797 33.5562 59.2797 33.3621C59.2797 28.788 59.2797 24.2144 59.2797 19.6403C59.2797 18.1541 58.3779 17.4793 57.0084 17.943C56.8557 17.9945 56.7112 18.0715 56.5613 18.1321C56.1388 18.3027 55.9865 18.5908 55.9904 19.0895C56.0158 22.2005 56.0144 25.3114 55.9957 28.4223C55.9909 29.2287 56.0427 29.9776 56.7947 30.4793C55.5861 31.5098 54.4274 32.4972 53.2519 33.4992C52.049 32.4737 51.4511 31.1396 51.3594 29.5919C51.272 28.1172 51.3028 26.6345 51.2975 25.1548C51.2893 22.9688 51.285 20.7828 51.3018 18.5968C51.3076 17.886 51.2106 17.2257 50.7251 16.6099C51.977 15.5364 53.2144 14.4749 54.4437 13.4209Z" fill="#803C00"/>
<path d="M127.682 23.2689C127.682 24.505 127.668 25.7415 127.686 26.9776C127.71 28.7567 127.011 30.1962 125.681 31.3462C122.919 33.7347 118.285 33.6838 115.578 31.2358C114.331 30.1081 113.684 28.7138 113.693 27.0169C113.706 24.646 113.696 22.2751 113.696 19.9042C113.696 17.0311 115.057 14.976 117.772 14.0009C120.843 12.8978 123.686 13.331 126.108 15.6213C127.175 16.6307 127.681 17.9282 127.682 19.407C127.683 20.695 127.682 21.9819 127.682 23.2689ZM118.458 23.4442C118.429 23.4442 118.398 23.4442 118.369 23.4442C118.369 24.7145 118.346 25.9853 118.375 27.2546C118.402 28.391 118.507 29.5238 119.033 30.5629C119.378 31.2434 119.901 31.6952 120.705 31.6887C121.486 31.6826 122.06 31.2651 122.321 30.575C122.605 29.825 122.891 29.0241 122.915 28.2378C123.005 25.328 123.01 22.4146 122.998 19.5022C122.993 18.4012 122.831 17.3041 122.314 16.3018C121.972 15.6374 121.5 15.1256 120.676 15.1322C119.877 15.1382 119.36 15.6167 119.092 16.2892C118.808 17.0039 118.528 17.7665 118.486 18.5215C118.396 20.1581 118.458 21.8026 118.458 23.4442Z" fill="#803C00"/>
<path d="M111.894 28.4668C111.986 29.0461 112.016 29.55 111.408 29.9579C110.672 30.4522 109.981 31.021 109.32 31.6109C106.928 33.7452 102.058 33.7432 99.4468 30.6252C97.7555 28.6061 97.1229 26.2586 97.0795 23.7069C97.0437 21.6002 97.3439 19.5589 98.3692 17.6731C100.612 13.5488 104.813 12.8377 107.914 13.8043C110.487 14.6064 111.969 16.8423 111.676 19.3523C111.528 20.6165 110.61 21.5358 109.422 21.6168C108.496 21.6802 107.705 21.4242 107.207 20.614C106.673 19.7445 106.711 18.8262 107.199 17.9582C107.436 17.5368 107.802 17.1838 108.121 16.8091C108.58 16.27 108.528 15.9114 107.921 15.5247C106.463 14.5958 104.454 15.0525 103.549 16.5295C102.998 17.4312 102.768 18.4395 102.649 19.4674C102.349 22.0508 102.321 24.6317 102.906 27.1844C103.04 27.7708 103.26 28.3541 103.539 28.8892C104.272 30.2953 105.538 30.8556 107.21 30.6081C108.8 30.3733 110.178 29.6863 111.443 28.7449C111.566 28.6534 111.69 28.5638 111.815 28.4748C111.826 28.4673 111.845 28.4713 111.894 28.4668Z" fill="#803C00"/>
<path d="M42.8087 13.4209C44.1528 15.4321 45.9556 15.4266 47.9887 14.8835C46.9915 15.8244 46.0282 16.8073 44.985 17.6897C44.3464 18.2299 43.5393 18.3408 42.7149 18.1304C41.9659 17.9396 41.4583 17.4619 41.1574 16.7358C40.21 17.4918 40.27 18.828 41.3572 19.573C42.3544 20.2566 43.4435 20.7953 44.4794 21.4204C45.1911 21.8501 45.9367 22.2488 46.5681 22.7855C47.4879 23.5675 48.0874 24.6099 48.1014 25.8711C48.1087 26.5252 48.0109 27.2327 47.7642 27.8288C46.6794 30.4477 44.8307 32.2261 42.1168 32.9356C40.0755 33.4688 38.3913 32.7342 37.2727 30.8784C36.5068 29.6077 36.5063 29.6072 37.5881 28.6753C38.6211 27.7854 39.656 26.8979 40.7219 25.982C40.8168 26.5406 40.8671 27.0533 40.9943 27.5445C41.3601 28.9571 42.3544 29.7791 43.5621 29.7097C44.7005 29.6442 45.3077 28.5264 44.7223 27.5105C44.5384 27.1912 44.2578 26.8859 43.9506 26.6965C42.891 26.045 41.8096 25.4298 40.7195 24.8337C39.5477 24.1926 38.5224 23.3976 37.8658 22.1759C36.8348 20.2571 37.1909 18.3043 38.8166 16.8957C40.1375 15.7529 41.452 14.6027 42.8087 13.4209Z" fill="#803C00"/>
<path d="M87.2039 14.7844C86.3939 15.6484 85.6215 16.5324 84.7841 17.3445C84.2208 17.8904 83.5236 18.2245 82.7165 18.211C81.6858 18.194 80.9188 17.7425 80.4919 16.7417C79.8337 17.2481 79.6351 17.9932 80.0303 18.7429C80.2172 19.0975 80.4972 19.4556 80.8229 19.6644C81.7976 20.2887 82.7975 20.8775 83.8218 21.4084C84.7725 21.9013 85.6837 22.4302 86.3727 23.2883C87.4168 24.5893 87.7739 26.0502 87.1465 27.6519C86.059 30.4282 84.1326 32.2702 81.2941 32.9669C79.2598 33.4658 77.5522 32.5978 76.4945 30.64C75.9081 29.5547 75.9077 29.5542 76.8068 28.7776C77.7772 27.939 78.7476 27.1015 79.72 26.2654C79.8264 26.174 79.9454 26.0981 80.0577 26.0157C80.1753 26.6235 80.236 27.2084 80.4046 27.7572C80.8055 29.0653 81.7634 29.778 82.9189 29.698C83.9919 29.6236 84.5933 28.5948 84.0926 27.6074C83.9129 27.2528 83.6171 26.9037 83.2894 26.6984C82.2106 26.0232 81.1014 25.3984 79.9879 24.7851C78.5077 23.9695 77.3006 22.8937 76.8164 21.1652C76.3683 19.566 76.7523 18.17 77.9709 17.0728C79.3388 15.8412 80.7366 14.6455 82.1368 13.4209C83.4605 15.4082 85.2466 15.4451 87.2039 14.7844Z" fill="#803C00"/>
<path d="M72.5746 13.421C72.5746 13.757 72.5746 13.9515 72.5746 14.1464C72.5746 18.7879 72.5785 23.4295 72.5706 28.0715C72.5691 28.8928 72.7051 29.6422 73.4628 30.1922C72.2853 31.1727 71.1439 32.1238 69.9654 33.1053C68.642 31.9392 67.9486 30.5091 67.9442 28.7665C67.9363 25.7216 67.9377 22.6762 67.9447 19.6313C67.9461 18.9682 67.8121 18.3584 67.3408 17.7908C69.0534 16.3606 70.7596 14.9364 72.5746 13.421Z" fill="#803C00"/>
<path d="M70.4015 6.26318C71.4024 7.28762 72.4593 8.36985 73.4628 9.39722C72.4694 10.4119 71.4125 11.4916 70.3994 12.5264C69.4087 11.5122 68.3449 10.4226 67.3408 9.39526C68.3342 8.37866 69.3921 7.29644 70.4015 6.26318Z" fill="#803C00"/>
<path d="M33.2466 13.421C33.2466 13.721 33.2466 13.8943 33.2466 14.068C33.2446 18.8552 33.2446 23.642 33.2377 28.4292C33.2367 29.1334 33.4806 29.7129 34.1083 30.1949C32.9359 31.1708 31.7868 32.1265 30.611 33.1053C29.3051 31.965 28.5967 30.5605 28.5824 28.8594C28.5562 25.7669 28.5676 22.674 28.5775 19.5815C28.5794 18.9316 28.4409 18.3443 27.9863 17.8011C29.7117 16.3647 31.4312 14.9328 33.2466 13.421Z" fill="#803C00"/>
<path d="M34.1083 9.39012C33.0944 10.4316 32.0388 11.5152 31.0537 12.5264C30.0623 11.5128 28.9944 10.4208 27.9863 9.39061C28.9954 8.36185 30.066 7.26991 31.0532 6.26318C32.0414 7.27481 33.0986 8.35695 34.1083 9.39012Z" fill="#803C00"/>
<path d="M90.9004 30.9816C90.9033 29.7339 91.8627 28.7584 93.0858 28.7589C94.3413 28.7594 95.2825 29.7344 95.2732 31.0243C95.2639 32.2709 94.2947 33.2434 93.0721 33.2325C91.8696 33.2216 90.8975 32.2143 90.9004 30.9816Z" fill="#803C00"/>
<path d="M8.26218 26.807C9.32228 25.6765 9.52882 24.2802 9.53879 22.8601C9.56873 18.4839 9.55476 14.1072 9.54428 9.73055C9.54029 8.15108 10.0506 6.81679 11.2404 5.76347C12.5784 4.579 13.9129 3.39049 15.2364 2.19038C17.9538 -0.273902 21.7173 0.926208 22.5619 4.52654C23.0697 6.69168 22.6028 8.69489 21.5965 10.6073C20.6886 12.3341 19.3835 13.7042 17.8156 14.8301C17.7368 14.8866 17.6609 14.9477 17.5362 15.043C18.3843 15.1606 19.1735 15.2408 19.9503 15.3886C20.4736 15.4885 20.9934 15.6458 21.4893 15.8441C24.1393 16.905 25.4878 19.1952 25.3536 22.1024C25.147 26.575 22.7554 29.5059 18.9805 31.4198C16.7769 32.5367 14.4208 33.2268 11.9089 33.0875C11.3816 33.0583 10.8144 32.9801 10.348 32.7516C7.62811 31.4198 4.94767 31.7462 2.26423 32.8368C2.12505 32.8933 1.98437 32.9453 1.84368 32.9967C1.83171 33.0013 1.81325 32.9871 1.7494 32.9639C2.56755 31.7875 3.50443 30.7443 4.59596 29.8459C6.23227 28.4995 8.05565 27.596 10.1973 27.4517C11.8635 27.3397 13.421 27.7468 14.9196 28.4445C15.0992 28.5282 15.2753 28.6195 15.5327 28.7467C15.5327 28.4899 15.5327 28.2962 15.5327 28.1025C15.5327 22.1145 15.5293 16.1261 15.5372 10.1382C15.5382 9.43342 15.625 8.7186 14.77 8.35539C15.1681 7.96494 15.4993 7.63956 15.8191 7.32528C16.1404 7.64915 16.4572 7.96796 16.7914 8.30494C16.7934 8.29233 16.7994 8.33874 16.7814 8.35135C16.1349 8.81243 16.0271 9.4541 16.0551 10.2123C16.106 11.6016 16.0695 12.9939 16.0695 14.3847C16.0695 14.5653 16.0695 14.7459 16.0695 14.9265C16.1264 14.9578 16.1828 14.989 16.2397 15.0208C16.6173 14.5668 17.0513 14.1486 17.3611 13.6517C18.2302 12.2599 18.4407 10.6774 18.516 9.07424C18.5744 7.82873 18.4492 6.59785 18.0326 5.41792C17.8884 5.0088 17.6914 4.59817 17.4325 4.25413C16.6033 3.15289 15.1272 3.19577 14.4602 4.40345C14.1324 4.9972 13.9369 5.74632 13.9294 6.42785C13.8815 10.8207 13.856 15.2155 13.9159 19.6079C13.9568 22.5882 12.3724 25.1156 9.47593 26.3535C9.07983 26.5225 8.66726 26.6567 8.26218 26.807ZM16.1239 15.9742C16.1005 16.0822 16.075 16.1458 16.075 16.2093C16.0725 20.3948 16.069 24.5808 16.0745 28.7663C16.075 29.2471 16.6143 29.5488 17.0309 29.3091C18.0176 28.7426 18.7694 27.9335 19.3242 26.9422C20.295 25.2069 20.5963 23.3187 20.4856 21.3558C20.4107 20.0301 20.0436 18.7861 19.2384 17.7136C18.4611 16.6795 17.4195 16.1115 16.1239 15.9742Z" fill="#803C00"/>
<path d="M8.74501 8.05269C8.37404 9.19691 8.3418 10.3528 8.34329 11.5155C8.34875 14.9355 8.30064 18.3565 8.35817 21.7755C8.41223 24.9594 6.81972 27.0082 3.98287 28.2825C3.69572 28.4115 3.39765 28.5162 3.10305 28.6286C3.07727 28.6384 3.04106 28.6228 2.95526 28.6126C4.03297 27.6495 4.07115 26.3928 4.07165 25.1259C4.07264 23.5551 4.07165 21.9839 4.07165 20.4132C4.07165 20.235 4.07165 20.0572 4.07165 19.8878C2.99147 19.6935 2.42013 20.233 1.65091 22.1947C0.98484 20.2666 0.475497 18.4251 1.30374 16.5121C1.75555 15.4682 2.52676 14.9974 4.07165 14.7374C4.07165 14.3517 4.07711 13.95 4.07066 13.5483C4.05628 12.6778 4.3231 11.889 4.89295 11.2361C5.99545 9.97352 7.32758 8.96856 8.74501 8.05269Z" fill="#803C00"/>
<path d="M0 4.98464C0.890278 2.67955 1.95532 0.577314 4.54676 0.0620288C5.36164 -0.100249 6.12159 0.0657165 6.83911 0.445068C7.37687 0.729581 7.92712 1.02516 8.38998 1.42242C9.77108 2.60737 11.2081 2.55942 12.7145 1.76911C12.8339 1.70641 12.9532 1.64371 13.0935 1.56995C13.103 1.63634 13.13 1.69377 13.113 1.7238C12.3356 3.0863 11.4198 4.32288 10.1685 5.24175C8.31858 6.60004 6.71079 6.60109 4.85533 5.26019C4.77245 5.20013 4.69106 5.13743 4.61067 5.07368C3.02834 3.81971 1.92486 3.76439 0.215204 4.85345C0.144302 4.89823 0.0719013 4.94091 0 4.98464Z" fill="#803C00"/>
<path d="M90.9004 30.9825C90.9033 29.7343 91.8624 28.7584 93.0852 28.7589C94.3402 28.7594 95.2812 29.7348 95.2719 31.0252C95.2626 32.2724 94.2937 33.2454 93.0714 33.2344C91.8693 33.2235 90.8975 32.2158 90.9004 30.9825Z" fill="#803C00"/>
</svg>
