<svg width="55" height="14" viewBox="0 0 55 14" fill="none" xmlns="http://www.w3.org/2000/svg">
<path d="M7.28724 12.4059C5.78242 12.6073 4.2302 12.7081 2.63058 12.7081C2.21586 12.7081 1.8367 12.6962 1.49307 12.6725C1.1613 12.6488 0.847303 12.5896 0.551078 12.4948C0.254853 12.4118 0.0889669 12.3289 0.0534199 12.2459C0.0178729 12.163 9.9401e-05 11.9734 9.9401e-05 11.6772H1.88409L1.86632 10.3086V9.77543C1.86632 9.60954 1.87817 9.46143 1.90187 9.33109L1.83077 7.19827C1.41606 7.12718 1.16723 7.06793 1.08428 7.02053C1.01319 6.96129 0.977643 6.89019 0.977643 6.80725C0.977643 6.71246 1.01319 6.62359 1.08428 6.54065C1.14353 6.44586 1.22055 6.35106 1.31534 6.25627C1.57602 5.99559 1.71821 5.81786 1.7419 5.72307C1.7656 5.62828 1.80115 5.42684 1.84854 5.11877C1.89594 4.79884 1.94334 4.4493 1.99073 4.07013L2.13292 3.00372C2.18032 2.67195 2.19809 2.46459 2.18624 2.38165L2.15069 1.26192L0.746587 1.35078C0.497758 1.35078 0.373343 1.22044 0.373343 0.959766C0.361494 0.900521 0.450362 0.835352 0.639946 0.764257C0.94802 0.645767 1.17315 0.586522 1.31534 0.586522L1.70636 0.604295L7.05618 0.355466C7.56569 0.355466 7.82045 0.479881 7.82045 0.72871C7.82045 0.97754 7.64863 1.12565 7.30501 1.17305C6.71256 1.25599 6.36302 1.32116 6.25638 1.36856C6.20898 1.4989 6.17343 1.59961 6.14973 1.67071C6.04309 1.94323 5.97792 2.19206 5.95423 2.41719L5.88313 3.16368C5.84758 3.43621 5.81204 3.72651 5.77649 4.03458C5.75279 4.33081 5.72317 4.61519 5.68762 4.88771C5.66393 5.14839 5.64023 5.37352 5.61653 5.56311C5.60468 5.75269 5.58098 5.94227 5.54544 6.13186C5.47434 6.51103 5.43879 7.26344 5.43879 8.38909L5.45657 10.5219C5.45657 10.8181 5.49211 11.0551 5.56321 11.2329C5.64615 11.3987 5.87128 11.4817 6.2386 11.4817L7.53607 11.5706C7.82044 11.5706 8.03373 11.5409 8.17592 11.4817L8.60248 11.2684C8.74467 11.2092 8.88686 11.1381 9.02904 11.0551C9.42006 10.8418 9.66297 10.6878 9.75776 10.593L10.2732 10.0954C10.4865 9.84652 10.7235 9.58584 10.9841 9.31332L12.1927 8.01585C12.5482 8.14619 12.7259 8.51351 12.7259 9.11781C12.7259 9.56807 12.643 10.0835 12.4771 10.6641C12.3231 11.2447 12.1927 11.6476 12.0861 11.8727C11.8373 12.3941 11.5766 12.6547 11.3041 12.6547C10.7472 12.6547 10.1962 12.6073 9.65112 12.5125C9.11791 12.4296 8.69727 12.3881 8.3892 12.3881H7.82045L7.39388 12.4059H7.28724ZM22.0388 12.4059C21.2213 12.7258 20.3622 12.8858 19.4617 12.8858C18.573 12.8858 17.785 12.7318 17.0978 12.4237C16.4106 12.1156 15.8063 11.7127 15.2849 11.2151C14.7754 10.7056 14.3725 10.125 14.0763 9.47328C13.7919 8.82158 13.6497 8.19951 13.6497 7.60706C13.6497 7.00276 13.6971 6.42216 13.7919 5.86526C13.8867 5.2965 14.0289 4.7396 14.2185 4.19455C14.9057 2.25131 16.0432 0.971615 17.631 0.355466C18.2472 0.118486 18.9225 -3.64838e-06 19.6572 -3.64838e-06C21.9559 -3.64838e-06 23.6562 0.651692 24.7582 1.95508C25.635 2.9978 26.0734 4.31896 26.0734 5.91858C26.0616 8.06325 25.4277 9.76358 24.1717 11.0196C23.5792 11.612 22.8683 12.0741 22.0388 12.4059ZM17.2578 6.04299C17.2222 6.49325 17.2044 6.90797 17.2044 7.28714C17.2044 7.65446 17.2518 8.04547 17.3466 8.46019C17.4414 8.88675 17.5599 9.31332 17.7021 9.73988C17.9983 10.5812 18.4071 11.381 18.9285 12.1393C18.964 12.2459 19.1299 12.2993 19.4261 12.2993C19.6157 12.2993 19.8586 12.2756 20.1548 12.2282C21.0317 12.0978 21.5649 11.7068 21.7545 11.0551C21.8848 10.5575 22.0092 10.1368 22.1277 9.7932C22.258 9.43773 22.3706 9.10596 22.4654 8.79789C22.6787 8.11064 22.7853 7.51819 22.7853 7.02053C22.7853 6.51103 22.7676 6.06076 22.732 5.66975C22.6965 5.27873 22.6372 4.86994 22.5543 4.44337C22.4713 4.00496 22.3588 3.56655 22.2166 3.12813C22.0981 2.70157 21.9322 2.31055 21.7189 1.95508C21.2568 1.17305 20.694 0.776107 20.0304 0.764257C19.3432 0.776107 18.7626 1.1849 18.2886 1.99063C17.7436 2.91485 17.4 4.26564 17.2578 6.04299ZM36.7957 7.30491L38.342 7.376C38.7212 7.376 39.1003 7.31083 39.4795 7.1805C39.8705 7.03831 40.1845 6.82503 40.4215 6.54065C40.54 6.54065 40.6466 6.5762 40.7414 6.64729C40.8481 6.70654 40.9014 6.83687 40.9014 7.03831C40.9014 7.22789 40.8362 7.376 40.7059 7.48265C40.5755 7.58929 40.4274 7.67223 40.2615 7.73147C40.0957 7.77887 39.9298 7.82627 39.7639 7.87366C39.6099 7.90921 39.4973 7.99808 39.4262 8.14027C39.3669 8.2706 39.3255 8.41872 39.3018 8.5846C39.2899 8.73864 39.2781 8.8986 39.2662 9.06449C39.2544 9.23037 39.2485 9.39034 39.2485 9.54437C39.2485 9.69841 39.2307 9.83467 39.1951 9.95316C38.6856 12.3111 36.9498 13.4901 33.9875 13.4901C32.4708 13.4782 31.1793 12.9273 30.1129 11.8372C28.9991 10.6997 28.2644 9.08819 27.909 7.00276H26.9492C26.8662 7.00276 26.8248 6.90204 26.8248 6.70061L26.8425 6.52288C26.8781 6.51103 26.9373 6.48733 27.0203 6.45178L27.3047 6.34514C27.5772 6.25035 27.7312 6.19703 27.7668 6.18518C27.8023 6.16148 27.8438 6.04299 27.8912 5.82971C27.9504 5.61643 28.0097 5.37352 28.0689 5.10099C28.2111 4.473 28.3237 4.01089 28.4066 3.71466C28.8095 2.6127 29.4671 1.72995 30.3795 1.06641C31.2918 0.402863 32.3109 0.0710905 33.4365 0.0710905C33.7801 0.0710905 34.2245 0.13626 34.7695 0.266599C35.3146 0.385089 35.7293 0.473957 36.0137 0.533202C36.3099 0.592447 36.5943 0.62207 36.8668 0.62207C37.1512 0.62207 37.3585 0.592447 37.4889 0.533202C37.6311 0.473957 37.7436 0.414712 37.8266 0.355466L38.0932 0.159958C38.1761 0.100713 38.2591 0.0710905 38.342 0.0710905C38.425 0.0710905 38.4901 0.0947886 38.5375 0.142185L38.8397 0.444335V3.00372C38.8397 3.13406 38.7804 3.22885 38.6619 3.2881C38.5434 3.34734 38.4368 3.37696 38.342 3.37696C37.9273 3.18738 37.5304 2.9504 37.1512 2.66602L36.0137 1.86622C35.6227 1.60554 35.2257 1.38633 34.8229 1.2086C34.42 1.01901 33.9816 0.924219 33.5076 0.924219L33.2588 0.941993C33.0218 2.95632 32.9033 4.473 32.9033 5.49201C32.9033 7.31676 33.0218 8.84528 33.2588 10.0776C33.2706 10.1368 33.2943 10.2909 33.3299 10.5397C33.3654 10.7885 33.4069 11.0551 33.4543 11.3395C33.5609 12.086 33.6202 12.4652 33.632 12.477C33.715 12.6073 33.8157 12.6844 33.9342 12.7081C34.0527 12.7318 34.1534 12.7436 34.2363 12.7436C34.3193 12.7436 34.4378 12.7199 34.5918 12.6725C34.7577 12.637 34.9413 12.5896 35.1428 12.5303C35.6286 12.3881 36.0137 12.2578 36.2981 12.1393C36.5943 11.9379 36.849 11.689 37.0623 11.3928C37.2756 11.0966 37.3822 10.8063 37.3822 10.5219C37.3822 10.2375 37.3526 10.0065 37.2934 9.82875C37.2341 9.63916 37.1512 9.46143 37.0445 9.29554C36.9498 9.12966 36.8372 8.96377 36.7068 8.79789C36.5765 8.632 36.4402 8.44834 36.2981 8.24691C36.1559 8.24691 35.9367 8.32985 35.6404 8.49574C35.3442 8.66162 35.1546 8.74456 35.0717 8.74456C34.9887 8.74456 34.8821 8.68532 34.7518 8.56683C34.6333 8.44834 34.574 8.31208 34.574 8.15804C34.574 8.004 34.6629 7.86774 34.8406 7.74925C35.0184 7.63076 35.2257 7.53597 35.4627 7.46487C35.8419 7.35823 36.2447 7.30491 36.6713 7.30491C36.7068 7.30491 36.7483 7.30491 36.7957 7.30491ZM50.0009 12.4059C49.1833 12.7258 48.3242 12.8858 47.4237 12.8858C46.535 12.8858 45.7471 12.7318 45.0598 12.4237C44.3726 12.1156 43.7683 11.7127 43.2469 11.2151C42.7374 10.7056 42.3346 10.125 42.0383 9.47328C41.754 8.82158 41.6118 8.19951 41.6118 7.60706C41.6118 7.00276 41.6592 6.42216 41.754 5.86526C41.8488 5.2965 41.9909 4.7396 42.1805 4.19455C42.8678 2.25131 44.0053 0.971615 45.593 0.355466C46.2092 0.118486 46.8846 -3.64838e-06 47.6192 -3.64838e-06C49.9179 -3.64838e-06 51.6183 0.651692 52.7202 1.95508C53.5971 2.9978 54.0355 4.31896 54.0355 5.91858C54.0236 8.06325 53.3897 9.76358 52.1337 11.0196C51.5413 11.612 50.8303 12.0741 50.0009 12.4059ZM45.2198 6.04299C45.1843 6.49325 45.1665 6.90797 45.1665 7.28714C45.1665 7.65446 45.2139 8.04547 45.3087 8.46019C45.4035 8.88675 45.522 9.31332 45.6641 9.73988C45.9604 10.5812 46.3692 11.381 46.8905 12.1393C46.9261 12.2459 47.0919 12.2993 47.3882 12.2993C47.5778 12.2993 47.8207 12.2756 48.1169 12.2282C48.9937 12.0978 49.5269 11.7068 49.7165 11.0551C49.8468 10.5575 49.9713 10.1368 50.0897 9.7932C50.2201 9.43773 50.3327 9.10596 50.4274 8.79789C50.6407 8.11064 50.7474 7.51819 50.7474 7.02053C50.7474 6.51103 50.7296 6.06076 50.694 5.66975C50.6585 5.27873 50.5993 4.86994 50.5163 4.44337C50.4334 4.00496 50.3208 3.56655 50.1786 3.12813C50.0601 2.70157 49.8942 2.31055 49.681 1.95508C49.2188 1.17305 48.656 0.776107 47.9925 0.764257C47.3052 0.776107 46.7246 1.1849 46.2507 1.99063C45.7056 2.91485 45.362 4.26564 45.2198 6.04299Z" fill="#803C00"/>
</svg>
