<svg width="126" height="34" viewBox="0 0 126 34" fill="none" xmlns="http://www.w3.org/2000/svg">
<g clip-path="url(#clip0_1853_9440)">
<path d="M42.2491 7.97684C42.7365 7.25298 42.8153 7.16698 43.4604 6.62229C42.8082 6.08477 42.7293 5.9916 42.2491 5.2749C41.7618 5.99876 41.683 6.08477 41.0308 6.62229C41.683 7.15981 41.7618 7.25298 42.2491 7.97684Z" fill="#803C00"/>
<path d="M41.3102 10.5426V14.3411C41.3102 15.5021 42.1344 16.1113 42.1344 16.1113L43.5392 14.9288C43.4173 14.85 43.3385 14.7496 43.2811 14.6421C43.2381 14.5776 43.2166 14.4916 43.2023 14.4056C43.1736 14.2623 43.188 14.1548 43.188 14.1548V8.13452L41.0737 9.91192C41.2816 10.1269 41.3102 10.3921 41.3102 10.4996C41.3102 10.5283 41.3102 10.5426 41.3102 10.5426Z" fill="#803C00"/>
<path d="M58.0094 7.97684C58.4968 7.25298 58.5756 7.16698 59.2278 6.62229C58.5828 6.08477 58.4968 5.9916 58.0094 5.2749C57.522 5.99876 57.4432 6.08477 56.791 6.62229C57.4432 7.15981 57.522 7.25298 58.0094 7.97684Z" fill="#803C00"/>
<path d="M57.0705 14.3411C57.0705 15.5021 57.8947 16.1113 57.8947 16.1113L59.2994 14.9288C59.1776 14.85 59.0987 14.7496 59.0414 14.6421C58.9984 14.5776 58.9697 14.4916 58.9626 14.4056C58.9339 14.2623 58.9482 14.1548 58.9482 14.1548V8.13452L56.834 9.91192C57.0418 10.1269 57.0705 10.3921 57.0777 10.4996C57.0777 10.5283 57.0777 10.5426 57.0777 10.5426V14.3411H57.0705Z" fill="#803C00"/>
<path d="M47.2158 14.7496C47.2158 14.7496 46.1623 14.8069 46.1336 13.2445L44.4351 14.6492C44.4351 14.6492 44.8292 16.0898 46.1838 16.0898C46.1838 16.0898 47.567 16.1256 48.6277 14.685C48.6277 14.685 49.1581 13.997 49.1581 13.3162C49.1581 13.3162 49.2512 12.1479 47.696 11.4671C47.696 11.4671 47.0223 11.1947 46.406 10.7504C46.406 10.7504 46.019 10.5211 46.019 10.0839C46.019 10.0839 45.9759 9.82586 46.2913 9.56068C46.2913 9.56068 46.4346 10.177 47.2517 10.177C47.2517 10.177 47.7247 10.1914 48.2479 9.67535L49.1724 8.75082C48.7424 8.97299 48.3267 8.98732 48.0472 8.95149C47.9684 8.95149 47.8537 8.92999 47.7175 8.87982H47.7032C47.4738 8.79382 47.2015 8.62898 46.9865 8.27063L45.1589 9.80436C45.1589 9.80436 44.7074 10.2129 44.7074 10.9009C44.7074 10.9009 44.6357 12.0906 46.1623 12.8216C46.1623 12.8216 47.008 13.223 47.5168 13.5813C47.5168 13.5813 47.8537 13.8035 47.8537 14.1762C47.8537 14.1762 47.8752 14.7424 47.2302 14.7424L47.2158 14.7496Z" fill="#803C00"/>
<path d="M63.0117 14.7496C63.0117 14.7496 61.9582 14.8069 61.9295 13.2445L60.231 14.6492C60.231 14.6492 60.6251 16.0898 61.9797 16.0898C61.9797 16.0898 63.3629 16.1256 64.4236 14.685C64.4236 14.685 64.954 13.997 64.954 13.3162C64.954 13.3162 65.04 12.1479 63.4919 11.4671C63.4919 11.4671 62.8182 11.1947 62.2019 10.7504C62.2019 10.7504 61.8149 10.5211 61.8149 10.0839C61.8149 10.0839 61.7719 9.82586 62.08 9.56068C62.08 9.56068 62.2234 10.177 63.0404 10.177C63.0404 10.177 63.5134 10.1914 64.0366 9.67535L64.9611 8.75082C64.5311 8.97299 64.1154 8.98732 63.8359 8.95149C63.7571 8.95149 63.6424 8.92999 63.5063 8.87982C63.4991 8.87982 63.4919 8.87982 63.4919 8.87982C63.2626 8.79382 62.9902 8.62898 62.7752 8.27063L60.9477 9.80436C60.9477 9.80436 60.4961 10.2129 60.4961 10.9009C60.4961 10.9009 60.4245 12.0906 61.951 12.8216C61.951 12.8216 62.7967 13.223 63.3056 13.5813C63.3056 13.5813 63.6424 13.8035 63.6424 14.1762C63.6424 14.1762 63.6639 14.7424 63.0189 14.7424L63.0117 14.7496Z" fill="#803C00"/>
<path d="M50.2834 10.0481V14.2336C50.2834 15.5738 51.0932 16.097 51.0932 16.097L52.5553 14.9001C52.3905 14.7854 52.3116 14.6636 52.2758 14.5633C52.2471 14.5059 52.24 14.4486 52.24 14.4128C52.24 14.3913 52.24 14.3769 52.24 14.3769V10.1484C52.6126 9.86176 52.928 9.88326 52.928 9.88326C53.6017 9.88326 53.5873 10.4279 53.5873 10.4279V16.3048C53.5873 16.3048 55.4723 15.6311 55.4723 14.1906V10.4638C55.4723 9.53208 54.8201 8.89422 54.8201 8.89422L54.0675 8.14169L52.2471 9.65391C52.2471 8.50004 51.5949 8.13452 51.5949 8.13452L50.0469 9.40307C50.2189 9.59658 50.2691 9.80442 50.2834 9.92626C50.2977 9.99076 50.2834 10.0481 50.2834 10.0481Z" fill="#803C00"/>
<path d="M33.2616 6.90891C33.2616 6.90891 33.2616 6.89458 33.2616 6.88741C33.2688 6.68673 33.3118 6.25672 33.4623 5.9342C32.6452 6.46456 31.993 7.13108 31.9859 7.13825C31.5128 7.6256 31.5343 8.15596 31.5343 8.17746V8.72215C31.1832 8.73648 30.2515 8.90132 30.2515 10.3132C30.2515 10.3419 30.2801 10.9869 30.5023 11.5746L30.5883 11.7968L30.6241 11.5603C30.6241 11.5603 30.7675 10.7791 31.4842 10.7791C31.4985 10.7791 31.5128 10.7791 31.5272 10.7791V13.1442C31.5272 13.8895 31.2477 14.1905 31.2405 14.1905L31.0255 14.4055L31.3122 14.298C33.3189 13.5383 33.2472 11.8541 33.2472 11.8469V7.00925C33.2472 7.00925 33.2472 6.97341 33.2472 6.90891H33.2616Z" fill="#803C00"/>
<path d="M36.9314 8.78665H36.8884C39.0529 7.36759 39.0314 5.41818 39.0314 5.39668C39.0314 3.20359 37.3256 3.17493 37.3113 3.17493C36.5444 3.17493 36.0929 3.64078 36.0786 3.65511L34.2653 5.25334C33.6705 5.92703 33.7565 6.6724 33.7565 6.6939V11.7681C33.7565 12.8145 33.3551 13.2087 33.3551 13.2087L33.1401 13.4093L33.4196 13.3162C35.5554 12.5995 35.4909 10.7862 35.4909 10.7719V5.46118C35.4909 4.94516 35.6271 4.56531 35.8922 4.36464C36.0929 4.20697 36.2936 4.20697 36.3079 4.20697C36.5086 4.20697 36.6878 4.27864 36.8311 4.42914C37.34 4.938 37.34 6.15638 37.34 6.17071C37.34 7.99112 36.6448 8.58597 36.3653 8.75798V6.42155L36.6806 6.10621L36.2721 5.69769L35.8636 6.10621L36.1502 6.39289V14.1619C35.5052 13.8178 34.8602 13.6315 34.2295 13.6315C32.3518 13.6315 31.0689 15.1939 30.603 15.8676C31.1477 15.6096 31.6566 15.4877 32.0221 15.4304C32.1511 15.4017 32.2801 15.3874 32.4163 15.3802C32.5238 15.3731 32.5811 15.3731 32.5811 15.3731C33.0255 15.3731 33.4841 15.4734 33.9428 15.6741H33.9572C34.2223 15.8103 34.5448 15.8676 34.9175 15.8676C36.0212 15.8676 37.211 15.3372 37.2611 15.3157C39.2535 14.5059 39.8412 12.7858 39.8484 12.7643C39.8627 12.7213 39.8699 12.6926 39.8699 12.6855C40.0562 12.0404 40.0562 11.4169 40.0562 11.3954C40.0562 8.97299 37.6696 8.78665 36.9314 8.78665ZM36.6089 14.427C36.5229 14.3697 36.4369 14.3267 36.3509 14.2765V9.10916C38.1212 9.32417 38.1212 11.3237 38.1212 11.4169C38.1212 13.6817 36.8168 14.3339 36.6018 14.427H36.6089Z" fill="#803C00"/>
<path d="M30.789 4.54382C30.789 4.54382 31.1832 4.54382 31.5774 4.86634C31.5989 4.88784 32.1866 5.36802 32.7241 5.36802C32.7241 5.36802 32.7528 5.36802 32.803 5.36802C33.0968 5.36802 34.1288 5.23185 35.1107 3.54045C34.7882 3.75546 34.4514 3.84146 34.2292 3.8773C34.1718 3.89163 34.1073 3.8988 34.0428 3.8988C34.0142 3.8988 33.9927 3.8988 33.9927 3.8988C33.9927 3.8988 33.9783 3.8988 33.9712 3.8988C33.8995 3.8988 33.6415 3.8773 33.1971 3.56195C33.1685 3.54045 32.4661 3.00293 31.9071 3.00293C31.9071 3.00293 31.8928 3.00293 31.8713 3.00293C31.6849 3.00293 31.0327 3.0531 30.4594 3.68379C30.4379 3.70529 30.015 4.23564 29.7642 4.88067L29.7427 4.92367C30.316 4.50082 30.7747 4.52949 30.7747 4.52949L30.789 4.54382Z" fill="#803C00"/>
<path d="M117.043 7.97684C117.53 7.25298 117.609 7.16698 118.261 6.62229C117.616 6.08477 117.53 5.9916 117.043 5.2749C116.556 5.99876 116.477 6.08477 115.825 6.62229C116.47 7.15981 116.556 7.25298 117.043 7.97684Z" fill="#803C00"/>
<path d="M118.082 14.6421C118.039 14.5776 118.011 14.4916 118.004 14.4056C117.975 14.2623 117.989 14.1548 117.989 14.1548V8.13452L115.875 9.91192C116.083 10.1269 116.112 10.3921 116.112 10.4996C116.112 10.5283 116.112 10.5426 116.112 10.5426V14.3411C116.112 15.5021 116.936 16.1113 116.936 16.1113L118.34 14.9288C118.219 14.85 118.14 14.7496 118.082 14.6421Z" fill="#803C00"/>
<path d="M112.062 9.56788C112.062 9.56788 112.206 10.1842 113.023 10.1842C113.023 10.1842 113.503 10.1986 114.019 9.68255L114.944 8.75802C114.514 8.98019 114.098 8.99453 113.818 8.95869C113.74 8.95869 113.625 8.93719 113.482 8.88702H113.467C113.238 8.80102 112.965 8.63618 112.75 8.27783L110.923 9.81156C110.923 9.81156 110.471 10.2201 110.471 10.9081C110.471 10.9081 110.4 12.0978 111.926 12.8288C111.926 12.8288 112.772 13.2302 113.281 13.5885C113.281 13.5885 113.618 13.8107 113.618 14.1834C113.618 14.1834 113.639 14.7496 112.994 14.7496C112.994 14.7496 111.941 14.8069 111.912 13.2445L110.213 14.6492C110.213 14.6492 110.608 16.0898 111.962 16.0898C111.962 16.0898 113.345 16.1256 114.406 14.6851C114.406 14.6851 114.936 13.9971 114.936 13.3162C114.936 13.3162 115.03 12.148 113.474 11.4671C113.474 11.4671 112.801 11.1948 112.184 10.7504C112.184 10.7504 111.797 10.5211 111.797 10.0839C111.797 10.0839 111.754 9.82589 112.062 9.56072V9.56788Z" fill="#803C00"/>
<path d="M90.2824 14.5131V6.4431C90.2824 5.32506 89.7162 4.97388 89.7162 4.97388L88.1108 6.25676C88.4477 6.5291 88.419 6.81578 88.419 6.81578V9.03754C88.118 8.62902 87.3941 8.1775 87.3941 8.1775L84.7065 10.4136C84.9287 10.6071 84.9 10.7791 84.9 10.7791V13.5455C84.9 15.3229 86.5484 16.1686 86.5484 16.1686L88.4119 14.6349C88.4119 15.5451 89.2217 16.1758 89.2217 16.1758L90.5834 15.0578C90.4258 14.9144 90.3541 14.7783 90.3183 14.6708C90.2824 14.5919 90.2824 14.5059 90.2824 14.5059V14.5131ZM88.4119 14.0974C87.9675 14.5274 87.5662 14.5059 87.5662 14.5059C86.7563 14.5059 86.7706 13.7534 86.7706 13.7534V9.87607L86.871 9.77573C87.559 10.2344 88.032 10.8938 88.032 10.8938C88.3975 11.374 88.4047 11.9617 88.4047 11.9617V14.1046L88.4119 14.0974Z" fill="#803C00"/>
<path d="M95.9365 9.00887L94.4816 8.10583L91.6865 10.4279C91.8012 10.5283 91.8299 10.6716 91.837 10.7433V10.7863V13.4595C91.837 13.4595 91.7295 14.6206 92.8332 15.2369C92.8332 15.2369 93.6216 15.7028 94.3383 16.1758L96.56 14.3124C96.56 14.3124 96.9686 13.9612 96.9686 13.1657V10.7361C96.9686 10.7361 97.0259 9.66106 95.9294 9.0017L95.9365 9.00887ZM94.9403 14.8213C94.9403 14.8213 94.4243 14.6349 93.9871 14.1547C93.9871 14.1547 93.6933 13.8896 93.6933 13.2445V10.0194C93.6933 10.0194 93.6718 9.72556 93.8939 9.51772L94.6751 10.0696C94.6751 10.0696 95.0837 10.3706 95.0837 10.8723V14.2264C95.0837 14.2264 95.1123 14.6063 94.9403 14.8213Z" fill="#803C00"/>
<path d="M124.841 14.5632C124.813 14.513 124.784 14.4414 124.77 14.341C124.755 14.255 124.762 14.2049 124.762 14.2049V10.1269C124.762 10.1269 124.791 8.75082 123.53 8.04846C123.53 8.04846 121.681 8.07713 119.975 9.70403V10.3849C119.975 10.3849 120.77 9.39585 121.853 9.00883C121.853 9.00883 122.921 9.19517 122.921 10.5497V10.9009L121.028 11.5029C121.028 11.5029 119.301 11.9759 119.301 13.6028C119.301 13.6028 119.287 15.2799 121.122 16.0253L122.913 14.5704C122.956 15.0147 123.128 15.6311 123.695 16.0468L125.099 14.8642C124.97 14.7711 124.891 14.6636 124.841 14.5632ZM122.913 14.0257C122.727 14.2049 122.347 14.513 121.939 14.513C121.939 14.513 121.308 14.5847 121.308 13.7677V12.5851C121.308 12.5851 121.308 12.019 121.946 11.7251L122.913 11.2879V14.0257Z" fill="#803C00"/>
<path d="M81.9826 8.14169L80.1622 9.65391C80.1622 8.50004 79.51 8.13452 79.51 8.13452L77.9619 9.40307C78.1339 9.59658 78.1841 9.80442 78.1984 9.92626C78.2056 9.99076 78.1984 10.0481 78.1984 10.0481V14.2336C78.1984 15.5738 79.0083 16.097 79.0083 16.097L80.4703 14.9001C80.3055 14.7854 80.2267 14.6636 80.1837 14.5633C80.1622 14.5059 80.1478 14.4486 80.1478 14.4128C80.1478 14.3913 80.1478 14.3769 80.1478 14.3769V10.1484C80.5205 9.86176 80.8359 9.88326 80.8359 9.88326C81.5096 9.88326 81.4952 10.4279 81.4952 10.4279V16.3048C81.4952 16.3048 83.3801 15.6311 83.3801 14.1906V10.4638C83.3801 9.53208 82.7208 8.89422 82.7208 8.89422L81.9682 8.14169H81.9826Z" fill="#803C00"/>
<path d="M102.172 8.14169L100.352 9.65391C100.352 8.50004 99.6994 8.13452 99.6994 8.13452L98.1514 9.40307C98.3234 9.59658 98.3735 9.80442 98.3879 9.92626C98.395 9.99076 98.3879 10.0481 98.3879 10.0481V14.2336C98.3879 15.5738 99.1977 16.097 99.1977 16.097L100.66 14.9001C100.495 14.7854 100.416 14.6636 100.373 14.5633C100.344 14.5059 100.337 14.4486 100.337 14.4128C100.337 14.3913 100.337 14.3769 100.337 14.3769V10.1484C100.71 9.86176 101.025 9.88326 101.025 9.88326C101.699 9.88326 101.685 10.4279 101.685 10.4279V16.3048C101.685 16.3048 103.57 15.6311 103.57 14.1906V10.4638C103.57 9.53208 102.917 8.89422 102.917 8.89422L102.165 8.14169H102.172Z" fill="#803C00"/>
<path d="M108.809 12.0691C109.31 11.5531 109.31 10.9009 109.31 10.9009C109.31 10.3132 108.809 9.76137 108.809 9.76137C108.077 8.92284 107.21 8.19897 107.21 8.19897L104.888 10.0337C104.967 10.1412 104.996 10.2559 105.003 10.3204C105.01 10.3562 105.003 10.3777 105.003 10.3777V13.4595C105.003 14.4486 105.512 15.0004 105.512 15.0004C106.107 15.7028 106.873 16.1758 106.873 16.1758L109.274 14.2264C108.794 14.4486 108.278 14.5059 108.042 14.5274C107.963 14.5417 107.913 14.5346 107.913 14.5346C107.096 14.5346 106.924 13.9755 106.888 13.6459C107.977 12.9435 108.816 12.0691 108.816 12.0691H108.809ZM106.881 13.1657V10.2989C107.841 11.0013 107.798 11.7896 107.798 11.7896C107.798 12.4991 107.16 12.9865 106.881 13.1657Z" fill="#803C00"/>
<path d="M71.9346 4.54382C71.9346 4.54382 72.3287 4.54382 72.7229 4.86634C72.7444 4.88784 73.3321 5.36802 73.8696 5.36802C73.8696 5.36802 73.8983 5.36802 73.9485 5.36802C74.2423 5.36802 75.2744 5.23185 76.2491 3.54045C75.9265 3.75546 75.5897 3.84146 75.3675 3.8773C75.3102 3.89163 75.2457 3.8988 75.1812 3.8988C75.1525 3.8988 75.131 3.8988 75.131 3.8988C75.131 3.8988 75.1238 3.8988 75.1095 3.8988C75.0378 3.8988 74.7798 3.8773 74.3355 3.56195C74.3068 3.54045 73.6045 3.00293 73.0454 3.00293C73.0454 3.00293 73.0311 3.00293 73.0096 3.00293C72.8233 3.00293 72.1639 3.0531 71.5977 3.68379C71.5834 3.70529 71.1534 4.23564 70.9025 4.88067L70.8882 4.92367C71.4615 4.50082 71.9202 4.52949 71.9202 4.52949L71.9346 4.54382Z" fill="#803C00"/>
<path d="M72.5649 12.9721L72.4073 13.1585L72.6366 13.0725C74.5645 12.3701 74.5359 10.8005 74.5359 10.7862V7.02356C74.5359 6.86588 74.5502 6.72971 74.5645 6.60071C74.5932 6.34986 74.6362 6.02735 74.7222 5.755C73.7762 6.30686 73.1526 7.15973 73.1455 7.16689C72.823 7.66141 72.8373 8.2706 72.8373 8.29927V8.47128C72.4288 8.50711 71.4971 8.73646 71.4971 10.0193C71.4971 10.048 71.5329 10.7002 71.7694 11.2019L71.8626 11.3954L71.8912 11.1876C71.8912 11.1876 72.0131 10.4637 72.7441 10.4637C72.7728 10.4637 72.8086 10.4709 72.8373 10.4709V11.9902C72.8373 12.6353 72.5721 12.9578 72.5721 12.9578L72.5649 12.9721Z" fill="#803C00"/>
<path d="M75.0309 6.45745V13.7606C75.0309 14.5059 74.5149 14.7281 74.4934 14.7353C74.3715 14.7926 74.2497 14.8213 74.1279 14.8213C73.6907 14.8213 73.3825 14.4844 73.3753 14.4773L72.7733 13.7964C72.1641 13.1012 71.4546 13.0797 71.3686 13.0797C70.9314 13.0797 70.5659 13.2302 70.2792 13.5312C69.6055 14.2264 69.541 15.495 69.541 15.8748C69.9137 15.3946 70.3079 15.2298 70.5444 15.1796C70.6232 15.1653 70.6877 15.1581 70.7307 15.151C70.7522 15.151 70.7594 15.151 70.7594 15.151C70.7737 15.151 70.7809 15.151 70.7881 15.151C71.2252 15.151 71.5119 15.3946 71.5191 15.4018L71.8129 15.6168C72.9453 16.441 74.4002 15.8533 74.7371 15.6956C75.2387 15.4448 75.6186 15.1653 75.8694 14.9431C75.9698 14.8643 76.0701 14.7711 76.1561 14.6636L76.3568 14.4486C76.8513 13.7462 76.7581 13.051 76.7581 13.0152V6.04893C76.7581 6.04893 76.6936 4.47937 77.6468 3.36133C76.5933 4.11386 75.5684 5.09573 75.5613 5.1029C74.9449 5.69775 75.0166 6.42878 75.0166 6.45028L75.0309 6.45745Z" fill="#803C00"/>
<path d="M39.8053 25.9874V19.5514C38.3146 19.0068 36.9027 18.7416 35.5625 18.7416C33.7493 18.7416 32.409 19.2289 31.5418 20.2036C30.6746 21.1783 30.2446 22.5114 30.2446 24.2028C30.2446 25.5287 30.6245 26.6467 31.3842 27.5426C32.1439 28.4456 33.2332 28.89 34.6523 28.89C35.5625 28.89 36.401 28.632 37.1679 28.1159V28.6463C37.1679 29.32 36.9672 29.8575 36.5659 30.2517C36.1645 30.6459 35.5768 30.8394 34.7885 30.8394C33.7851 30.8394 32.8032 30.696 31.8429 30.4094L31.3555 32.3588C32.6312 32.8175 33.8353 33.0468 34.9676 33.0468C36.4154 33.0468 37.5979 32.6813 38.501 31.9574C39.4112 31.2336 39.8627 30.1585 39.8627 28.7395C39.8627 28.3166 39.8555 27.8221 39.834 27.2487C39.8125 26.6754 39.8053 26.2525 39.8053 25.9802V25.9874ZM37.1034 25.801C36.6662 26.3457 36.0427 26.6109 35.2113 26.6109C34.5305 26.6109 33.9858 26.3672 33.5629 25.887C33.1401 25.4068 32.9322 24.7976 32.9322 24.0666C32.9322 23.1851 33.1329 22.4756 33.5414 21.9452C33.9499 21.4077 34.5806 21.1425 35.4478 21.1425C35.9925 21.1425 36.5372 21.2428 37.0962 21.4507V25.801H37.1034Z" fill="#803C00"/>
<path d="M41.1452 19.5515L41.224 28.8972H43.8615V21.3791C44.5925 21.1497 45.3594 21.0494 46.1549 21.0709C46.4774 21.0709 46.8429 21.0924 47.2514 21.1354L47.3518 18.842C46.8931 18.8133 46.5491 18.799 46.3341 18.799C44.5208 18.7703 42.7864 19.0211 41.1309 19.5515H41.1452Z" fill="#803C00"/>
<path d="M52.1399 18.713C50.6635 18.713 49.5024 19.1788 48.6567 20.1034C47.811 21.0279 47.3882 22.3036 47.3882 23.909C47.3882 25.5144 47.811 26.7901 48.6567 27.7075C49.5024 28.632 50.6635 29.0907 52.1399 29.0907C53.6163 29.0907 54.7701 28.6249 55.6158 27.7003C56.4544 26.7758 56.8772 25.5072 56.8772 23.909C56.8772 22.3108 56.4544 21.0136 55.6158 20.089C54.7773 19.1717 53.6163 18.7058 52.1399 18.7058V18.713ZM53.6664 25.8943C53.3009 26.3888 52.7921 26.6325 52.1399 26.6325C51.4877 26.6325 50.9788 26.3888 50.6061 25.9014C50.2335 25.4141 50.0471 24.7475 50.0471 23.909C50.0471 23.0705 50.2335 22.3825 50.6061 21.8951C50.9788 21.4077 51.4877 21.1641 52.1399 21.1641C52.7921 21.1641 53.2794 21.4077 53.6521 21.9023C54.0248 22.3968 54.2111 23.0633 54.2111 23.9018C54.2111 24.7404 54.0248 25.3854 53.6593 25.8799L53.6664 25.8943Z" fill="#803C00"/>
<path d="M63.8574 26.4747C63.3701 26.6754 62.7824 26.7829 62.0872 26.7829C60.9906 26.7829 60.4388 26.1594 60.4388 24.9123C60.4388 24.2745 60.4388 23.1278 60.4603 21.4722C60.4746 19.8166 60.4818 18.9709 60.4818 18.9423H57.8013C57.8013 18.9423 57.787 19.9313 57.7583 21.8377C57.7297 23.7441 57.7153 24.941 57.7153 25.4427C57.7153 26.7041 58.0593 27.6214 58.7402 28.202C59.4211 28.7825 60.4818 29.0763 61.9223 29.0763C63.4776 29.0763 64.9755 28.7825 66.4088 28.202L66.5737 18.9423H63.8932L63.8502 26.4819L63.8574 26.4747Z" fill="#803C00"/>
<path d="M72.0849 18.7344C70.8235 18.7344 69.426 19.0211 67.8779 19.5872V32.9321H70.5799V28.6033C71.2679 28.9114 71.9989 29.0691 72.773 29.0691C74.2923 29.0691 75.4462 28.5961 76.2489 27.6572C77.0445 26.7184 77.4458 25.5071 77.4458 24.0307C77.4458 22.3895 77.0158 21.0995 76.1629 20.1534C75.3101 19.2074 73.9483 18.7344 72.0778 18.7344H72.0849ZM74.1275 26.016C73.7118 26.5105 73.1241 26.7542 72.3501 26.7542C71.7696 26.7542 71.1819 26.5894 70.5799 26.2668V21.4937C71.1317 21.2643 71.7051 21.1496 72.2856 21.1496C73.1241 21.1496 73.7477 21.4148 74.1418 21.9523C74.5432 22.4899 74.7439 23.1994 74.7439 24.0953C74.7439 24.8836 74.536 25.5215 74.1275 26.016Z" fill="#803C00"/>
<path d="M2.3437 22.6046C2.35804 22.5186 2.71639 20.5334 4.61563 20.5334C4.65146 20.5334 4.69446 20.5405 4.7303 20.5405V26.7973C4.7303 28.761 3.98494 29.5565 3.9706 29.5637L3.40441 30.1299L4.15694 29.8432C9.46048 27.8293 9.28131 23.3858 9.28131 23.3571V10.5785C9.28131 10.5785 9.28131 10.4781 9.28848 10.3133C9.28848 10.299 9.28848 10.2775 9.28848 10.2631C9.30998 9.7256 9.41748 8.60039 9.81166 7.74036C7.64725 9.13791 5.93435 10.901 5.91284 10.9225C4.6658 12.2054 4.71596 13.6173 4.72313 13.6674V15.1008C3.78426 15.1295 1.34033 15.5738 1.34033 19.3078C1.34033 19.3795 1.412 21.0924 2.00686 22.6476L2.2362 23.2353L2.33654 22.6118L2.3437 22.6046Z" fill="#803C00"/>
<path d="M18.978 15.2799H18.8561C24.5754 11.5244 24.518 6.37135 24.518 6.32118C24.518 0.530287 20.0172 0.458618 19.967 0.458618C17.9459 0.458618 16.7419 1.69133 16.6989 1.72717L11.9114 5.9485C10.349 7.74024 10.564 9.69681 10.5712 9.75415V23.1707C10.5712 25.9371 9.51762 26.9763 9.51045 26.9835L8.93709 27.521L9.68246 27.2702C15.3228 25.3781 15.158 20.5762 15.158 20.5404V6.47885C15.158 5.11713 15.5235 4.11376 16.2259 3.58341C16.7562 3.17489 17.2938 3.16772 17.3224 3.16772C17.8528 3.16772 18.3186 3.3684 18.7056 3.74825C20.053 5.09563 20.0459 8.31359 20.0459 8.34943C20.0459 13.1656 18.2111 14.7423 17.4586 15.1867V9.00879L18.29 8.17742L17.2078 7.09521L16.1327 8.17742L16.8924 8.94428V29.4848C15.1867 28.5674 13.4881 28.08 11.8254 28.08C6.86585 28.08 3.46871 32.2154 2.24316 33.9856C3.68372 33.3047 5.02394 32.9822 5.99148 32.8246C6.33549 32.7601 6.6795 32.7171 7.03069 32.7027C7.3102 32.6812 7.46787 32.6812 7.46787 32.6812C8.63608 32.6812 9.8473 32.9536 11.0728 33.4839L11.1158 33.5054C11.811 33.8351 12.6639 33.9999 13.6601 33.9999C16.5771 33.9999 19.7305 32.6024 19.8595 32.545C25.1201 30.4093 26.6753 25.8511 26.6896 25.8009C26.7255 25.6791 26.747 25.6074 26.747 25.6003C27.2343 23.8874 27.2343 22.2533 27.2343 22.1816C27.2343 15.7816 20.9202 15.2799 18.978 15.2799ZM18.1251 30.2015C17.9029 30.0509 17.6736 29.9434 17.4514 29.8073V16.1542C22.1243 16.7204 22.1386 22.0168 22.1386 22.2461C22.1386 28.2377 18.6841 29.9578 18.1251 30.2015Z" fill="#803C00"/>
<path d="M2.73762 4.05649C2.73762 4.05649 3.76966 4.06366 4.83037 4.90219C4.89487 4.95236 6.43576 6.22091 7.86915 6.22091C7.86915 6.22091 7.94082 6.23524 8.06983 6.23524C8.85102 6.23524 11.5745 5.88406 14.1617 1.41189C13.3089 1.97808 12.413 2.21459 11.8396 2.30776C11.682 2.33643 11.5171 2.35793 11.3451 2.36509C11.2663 2.36509 11.2161 2.36509 11.2161 2.36509C11.2161 2.36509 11.1874 2.36509 11.1516 2.36509C10.9653 2.36509 10.2772 2.30059 9.1162 1.47639C9.03736 1.42622 7.18112 0 5.70473 0C5.70473 0 5.6689 0 5.6044 0C5.10271 0 3.37547 0.129005 1.87758 1.80607C1.82741 1.86341 0.702204 3.26096 0.0428444 4.97386L-0.00732422 5.0957C1.51924 3.97049 2.73045 4.06366 2.73045 4.06366L2.73762 4.05649Z" fill="#803C00"/>
</g>
<defs>
<clipPath id="clip0_1853_9440">
<rect width="125.099" height="34" fill="white"/>
</clipPath>
</defs>
</svg>
