<svg width="53" height="11" viewBox="0 0 53 11" fill="none" xmlns="http://www.w3.org/2000/svg">
<path d="M0.000121951 10.5044V0.214356H1.28638V9.43252H9.43266V10.5044H0.000121951ZM15.6964 10.7188C14.6916 10.7188 13.8653 10.6495 13.2177 10.5111C12.5701 10.3771 12.0632 10.127 11.697 9.76078C11.3352 9.39455 11.0807 8.86755 10.9333 8.17976C10.7904 7.49197 10.7189 6.5965 10.7189 5.49336V5.22539C10.7189 4.31429 10.7636 3.55058 10.8529 2.93425C10.9422 2.31345 11.0963 1.80878 11.3151 1.42022C11.534 1.03166 11.831 0.734664 12.2061 0.529221C12.5858 0.323777 13.0614 0.185326 13.6331 0.113868C14.2048 0.037943 14.8925 -1.93715e-05 15.6964 -1.93715e-05H18.3962C19.2002 -1.93715e-05 19.8879 0.037943 20.4596 0.113868C21.0313 0.185326 21.5047 0.323777 21.8799 0.529221C22.2595 0.734664 22.5587 1.03166 22.7775 1.42022C22.9964 1.80878 23.1505 2.31345 23.2398 2.93425C23.3291 3.55058 23.3738 4.31429 23.3738 5.22539V5.49336C23.3738 6.5965 23.3001 7.49197 23.1527 8.17976C23.0098 8.86755 22.7552 9.39455 22.389 9.76078C22.0272 10.127 21.5226 10.3771 20.875 10.5111C20.2274 10.6495 19.4011 10.7188 18.3962 10.7188H15.6964ZM15.6964 9.6067H18.3962C19.0349 9.6067 19.5731 9.58437 20.0108 9.5397C20.4484 9.49504 20.8035 9.39902 21.0759 9.25164C21.3528 9.10425 21.5628 8.88094 21.7057 8.58171C21.8531 8.28248 21.9535 7.88276 22.0071 7.38255C22.0607 6.88234 22.0875 6.25261 22.0875 5.49336V5.22539C22.0875 4.43935 22.0607 3.79175 22.0071 3.28261C21.9535 2.77347 21.8531 2.37151 21.7057 2.07675C21.5628 1.78198 21.3528 1.5676 21.0759 1.43362C20.8035 1.29517 20.4484 1.20808 20.0108 1.17235C19.5731 1.13215 19.0349 1.11206 18.3962 1.11206H15.6964C15.0578 1.11206 14.5196 1.13215 14.0819 1.17235C13.6442 1.20808 13.287 1.29517 13.0101 1.43362C12.7376 1.5676 12.5277 1.78198 12.3803 2.07675C12.2374 2.37151 12.1392 2.77347 12.0856 3.28261C12.032 3.79175 12.0052 4.43935 12.0052 5.22539V5.49336C12.0052 6.25261 12.032 6.88234 12.0856 7.38255C12.1392 7.88276 12.2374 8.28248 12.3803 8.58171C12.5277 8.88094 12.7376 9.10425 13.0101 9.25164C13.287 9.39902 13.6442 9.49504 14.0819 9.5397C14.5196 9.58437 15.0578 9.6067 15.6964 9.6067ZM25.0955 5.49336V5.22539C25.0955 4.31429 25.1401 3.55058 25.2295 2.93425C25.3188 2.31345 25.4729 1.80878 25.6917 1.42022C25.9106 1.03166 26.2076 0.734664 26.5827 0.529221C26.9623 0.323777 27.438 0.185326 28.0097 0.113868C28.5813 0.037943 29.2691 -1.93715e-05 30.073 -1.93715e-05H32.5919C33.646 -1.93715e-05 34.5012 0.0401761 35.1578 0.120567C35.8187 0.200958 36.3257 0.355041 36.6785 0.582815C37.0358 0.810589 37.2814 1.14332 37.4154 1.581C37.5494 2.01422 37.6164 2.58366 37.6164 3.28931H36.3301C36.3301 2.75784 36.2832 2.34472 36.1894 2.04995C36.0956 1.75072 35.9192 1.53634 35.6602 1.40682C35.4012 1.27284 35.0238 1.19021 34.528 1.15895C34.0367 1.12769 33.3914 1.11206 32.5919 1.11206H30.073C29.4344 1.11206 28.8962 1.13215 28.4585 1.17235C28.0208 1.20808 27.6635 1.29517 27.3866 1.43362C27.1142 1.5676 26.9043 1.78198 26.7569 2.07675C26.614 2.37151 26.5157 2.77347 26.4621 3.28261C26.4085 3.79175 26.3817 4.43935 26.3817 5.22539V5.49336C26.3817 6.25261 26.4085 6.88234 26.4621 7.38255C26.5157 7.88276 26.614 8.28248 26.7569 8.58171C26.9043 8.88094 27.1142 9.10425 27.3866 9.25164C27.6635 9.39902 28.0208 9.49504 28.4585 9.5397C28.8962 9.58437 29.4344 9.6067 30.073 9.6067H33.0408C33.7777 9.6067 34.3717 9.57767 34.8228 9.51961C35.2739 9.45708 35.6155 9.32756 35.8478 9.13105C36.0845 8.93007 36.243 8.62637 36.3234 8.21995C36.4038 7.80907 36.444 7.25526 36.444 6.55854V6.16328H31.5201V5.09141H37.7303V6.55854C37.7303 7.42944 37.6566 8.13733 37.5092 8.6822C37.3618 9.22707 37.1117 9.64912 36.7589 9.94836C36.4105 10.2431 35.9326 10.4441 35.3252 10.5513C34.7223 10.6629 33.9608 10.7188 33.0408 10.7188H30.073C29.0681 10.7188 28.2419 10.6495 27.5943 10.5111C26.9467 10.3771 26.4398 10.127 26.0736 9.76078C25.7118 9.39455 25.4572 8.86755 25.3099 8.17976C25.1669 7.49197 25.0955 6.5965 25.0955 5.49336ZM44.664 10.7188C43.6591 10.7188 42.8329 10.6495 42.1853 10.5111C41.5377 10.3771 41.0308 10.127 40.6645 9.76078C40.3028 9.39455 40.0482 8.86755 39.9008 8.17976C39.7579 7.49197 39.6864 6.5965 39.6864 5.49336V5.22539C39.6864 4.31429 39.7311 3.55058 39.8204 2.93425C39.9097 2.31345 40.0638 1.80878 40.2827 1.42022C40.5015 1.03166 40.7985 0.734664 41.1737 0.529221C41.5533 0.323777 42.0289 0.185326 42.6006 0.113868C43.1723 0.037943 43.8601 -1.93715e-05 44.664 -1.93715e-05H47.3638C48.1677 -1.93715e-05 48.8555 0.037943 49.4271 0.113868C49.9988 0.185326 50.4722 0.323777 50.8474 0.529221C51.227 0.734664 51.5262 1.03166 51.7451 1.42022C51.9639 1.80878 52.118 2.31345 52.2073 2.93425C52.2967 3.55058 52.3413 4.31429 52.3413 5.22539V5.49336C52.3413 6.5965 52.2676 7.49197 52.1202 8.17976C51.9773 8.86755 51.7227 9.39455 51.3565 9.76078C50.9948 10.127 50.4901 10.3771 49.8425 10.5111C49.1949 10.6495 48.3687 10.7188 47.3638 10.7188H44.664ZM44.664 9.6067H47.3638C48.0024 9.6067 48.5406 9.58437 48.9783 9.5397C49.416 9.49504 49.771 9.39902 50.0435 9.25164C50.3204 9.10425 50.5303 8.88094 50.6732 8.58171C50.8206 8.28248 50.9211 7.88276 50.9747 7.38255C51.0283 6.88234 51.0551 6.25261 51.0551 5.49336V5.22539C51.0551 4.43935 51.0283 3.79175 50.9747 3.28261C50.9211 2.77347 50.8206 2.37151 50.6732 2.07675C50.5303 1.78198 50.3204 1.5676 50.0435 1.43362C49.771 1.29517 49.416 1.20808 48.9783 1.17235C48.5406 1.13215 48.0024 1.11206 47.3638 1.11206H44.664C44.0253 1.11206 43.4871 1.13215 43.0495 1.17235C42.6118 1.20808 42.2545 1.29517 41.9776 1.43362C41.7051 1.5676 41.4952 1.78198 41.3479 2.07675C41.2049 2.37151 41.1067 2.77347 41.0531 3.28261C40.9995 3.79175 40.9727 4.43935 40.9727 5.22539V5.49336C40.9727 6.25261 40.9995 6.88234 41.0531 7.38255C41.1067 7.88276 41.2049 8.28248 41.3479 8.58171C41.4952 8.88094 41.7051 9.10425 41.9776 9.25164C42.2545 9.39902 42.6118 9.49504 43.0495 9.5397C43.4871 9.58437 44.0253 9.6067 44.664 9.6067Z" fill="#803C00"/>
</svg>
