<svg width="36" height="41" fill="none" xmlns="http://www.w3.org/2000/svg"><path d="m.771 35.798-.007.008.002.007.003-.003.002-.012ZM28.457 8.2l-.003.005h.01l-.002-.008-.005.003ZM21.35 6.5l-.001.005.005-.005v-.004l-.003.004ZM29.964 6.667l.006-.007-.012.002.005.006.001-.001ZM24.977 13.33l.003-.003.002-.009-.007.005.002.006ZM28.96 7.44c0 .003-.002.005-.002.005l.006-.004v-.004l-.006.004v.004l.003-.004ZM30.009 6.61 30 6.605l.001.012.006-.007v-.002ZM27.472.79 27.47.78l-.008.002.003.006.008.002Z" fill="#222"/><path d="m35.009.74-.093-.017c-.112.129-.215.249-.32.366-.163.184-.331.364-.493.549-.162.185-.322.372-.475.564-.326.408-.645.82-.97 1.229-.086.107-.184.203-.273.308-.17.199-.338.4-.507.6-.09.108-.182.214-.272.32.009.068-.017.109-.086.117.007.095-.042.148-.135.166l.006-.008-.007.009.136-.175-.007.009.007-.001v-.008l.08-.103-.06-.062c-.18.23-.356.45-.527.675-.096.126-.183.258-.273.388l.094-.012a.393.393 0 0 0-.006.007l.007-.008-.087.106-.017-.082c-.179.218-.36.434-.534.655-.07.087-.126.184-.188.277l.03.012-.025.034h-.006v.006l-.026.033-.02-.026-.13.09.098.04-.087.08c-.001.024.005.054-.008.069-.075.084-.154.165-.23.244a75.881 75.881 0 0 1-.063-.007l-.008.09c-.055.03-.094.04-.113.064-.432.551-.862 1.105-1.291 1.658-.008.01-.006.028-.008.043.1.001.125-.088.175-.144.19-.209.375-.42.562-.631-.009.04-.013.083-.035.113-.209.295-.418.589-.634.878-.54.725-1.085 1.447-1.627 2.17-.079.105-.162.208-.236.316-.377.557-.753 1.114-1.126 1.673-.278.415-.558.83-.825 1.252-.339.536-.665 1.08-.993 1.614l-.13-.752.15-.155.08.028c.109-.263.218-.5.416-.68l-.025.114-.026.116c.027-.021.057-.041.076-.069.088-.126.168-.258.258-.383.242-.336.487-.668.73-1.003.036-.05.088-.095.065-.167-.212.142-.336.357-.479.557-.104.146-.222.283-.334.424.004-.033.004-.069.02-.094.145-.215.293-.428.443-.64.174-.245.35-.488.528-.731.025-.035.06-.062.092-.092l-.015.18c.043-.051.105-.1.117-.158a.989.989 0 0 1 .154-.327c.084-.13.17-.26.247-.395.233-.413.489-.81.767-1.194.187-.26.37-.52.56-.778.366-.495.735-.987 1.101-1.482.095-.129.184-.263.276-.395l-.108.002.103-.106-.005.008.006-.007.012.096a.271.271 0 0 0 .165-.212l-.097.012.006-.008-.007.008.3-.387c-.014-.1.072-.123.13-.17.004-.115.108-.156.176-.224l-.006.008.006-.008.013.098c.119-.023.169-.099.166-.214l-.1.013.007-.008-.005.006v.001l-.002.001.093-.119-.007.01.007-.01.011.095.333-.432c-.06 0-.088.043-.122.084-.044.053-.095.101-.143.151l.007-.008-.007.008-.043.057.043-.057c-.016-.105.067-.16.12-.227.162-.202.327-.4.493-.599.052-.06.109-.117.163-.176v.001a.476.476 0 0 0-.005.006l-.001.002a.43.43 0 0 1 .006-.008l.013.09c.155-.188.313-.375.465-.566.06-.076.11-.16.165-.242-.041.024-.085.044-.118.075-.067.065-.126.139-.188.208l.007-.009-.007.009c-.006-.13.1-.199.169-.284.079-.1.176-.186.266-.278l-.007.01.008-.002-.001-.008.293-.378.008-.001-.001-.008-.005.007-.002.002c.025-.058.04-.124.078-.172.179-.224.368-.44.546-.665.14-.176.263-.365.405-.54.315-.385.633-.766.893-1.192.093-.15.22-.28.321-.426.163-.235.318-.475.472-.715.023-.036.029-.083.041-.126.091-.021.144-.07.123-.171l.008.005.004-.018a9.93 9.93 0 0 1-.01.012l-.093-.09.01-.17-.277-.045c-.028.077-.043.13.04.148l.043-.069.133.122-.107.172-.057-.12c-.075.026-.148.057-.225.074-.035.008-.078-.016-.117-.025l.001-.038.197-.065-.145-.077-.186.139-.004.138-.126-.169c-.06-.006-.121-.012-.186-.02l.019.063c-.06.047-.127.082-.17.136a6.366 6.366 0 0 0-.328.446c-.068.102-.177.184-.184.32-.105.058-.106.22-.247.243-.022.057-.036.12-.071.168-.18.244-.374.48-.551.728-.161.225-.298.468-.463.69-.515.695-1.037 1.384-1.56 2.074-.098.13-.216.246-.313.378a275.42 275.42 0 0 0-1.207 1.65c-.188.258-.376.518-.558.78-.36.518-.718 1.035-1.07 1.557-.193.284-.373.578-.56.867-.172.268-.347.535-.519.804-.172.269-.34.54-.513.808-.18.283-.362.564-.544.846-.125.193-.254.382-.375.577-.18.29-.357.585-.533.878-.017.029-.018.066-.036.13l.225-.227c.02.178-.116.236-.22.28l-.098.147a1.835 1.835 0 0 1-.387-.502l.433-.625c.234-.343.469-.686.702-1.03.307-.454.61-.911.92-1.363a67.4 67.4 0 0 1 1.509-2.114c.332-.45.667-.896.999-1.345.356-.48.71-.962 1.065-1.443.139-.188.278-.376.414-.566.17-.24.332-.486.508-.722.27-.361.55-.714.821-1.074.172-.23.335-.465.504-.697.087-.118.167-.244.304-.315l-.006.008a.328.328 0 0 1 .006-.007c-.012.035-.017.075-.038.104-.146.193-.306.377-.414.597.028-.007.062-.01.076-.028.242-.304.496-.6.686-.94.008-.015-.002-.04-.007-.062l-.223.226.007-.01-.007.01c-.001-.016-.009-.035-.003-.047.134-.276.268-.551.497-.766.003-.03-.003-.068.013-.089.091-.115.188-.227.283-.34.024.087-.052.132-.089.194-.04.069-.128.118-.102.217.127-.023.169-.128.218-.226.039-.078.071-.16.116-.235.092-.155.19-.306.286-.459-.075-.005-.102.059-.144.103-.029.03-.068.05-.103.074.054-.21.197-.353.304-.513l-.042-.12.116.025.031-.196-.135-.005-.028-.155c-.052.045-.112.014-.169.015-.021 0-.042.019-.066.03l.04.112-.056.062-.149-.166-.138.006-.026-.092c-.14.01-.19.091-.224.197-.01.028-.035.05-.053.074l-.165-.086-.023-.107-.081.097.047.187-.184-.025c.018.044.03.072.044.11-.113.057-.127.21-.253.258.018-.07.035-.14.055-.21.033-.113.069-.226.104-.338-.1.078-.126.206-.197.304-.12.164-.226.34-.384.478.141-.309.365-.577.456-.909l-.239.031-.024.13-.094.012-.024-.14c-.123-.016-.106.122-.186.166l-.149-.07-.034.147c-.028.013-.069.021-.079.043-.136.287-.395.49-.536.775-.03.06-.069.128-.156.127.01-.044.015-.09.035-.13.053-.106.113-.21.18-.33-.23-.158-.44-.306-.652-.45-.021-.014-.057-.007-.088-.007l.024.125.163.1-.105.127c-.096-.14-.203-.232-.37-.256.003.168.169.208.237.334l-.1.034c-.093-.064-.104-.199-.225-.22-.078.105-.078.105-.085.238l-.196-.048.058.181c-.044-.005-.081-.01-.12-.013-.093.121-.175.244-.203.39l-.098.001.005.157-.204-.027c.013-.055.009-.115.037-.14.2-.179.173-.473.348-.663l-.11-.108c.014-.054.036-.107.038-.161 0-.025-.037-.052-.07-.094l-.038.15-.112-.013.038.118c-.068-.015-.131-.03-.195-.043l.043.133c-.098.01-.1-.084-.146-.123a.704.704 0 0 0-.38.121l-.003.103-.124.061.005.147c-.306.174-.434.481-.615.736l-.075-.002-.006.114-.124.077-.021-.16.028.007.119-.321.118-.091.046-.23-.165-.16-.098.027.169.222c-.165-.016-.23-.208-.394-.153l.041.131-.14-.044-.03-.123-.098-.032-.036.145-.144.026-.007.1-.365-.307-.04.155c-.071.013-.145.037-.194-.048l.065-.118-.116.015c-.01.024-.014.04-.02.055l-.03.064c.144.12.144.12.144.236l-.218-.125c-.26.328-.499.655-.713 1-.138.222-.28.442-.418.663-.241.385-.48.772-.724 1.155-.09.14-.195.27-.293.405l-.017-.08a.834.834 0 0 0-.287.477.744.744 0 0 0-.243.376l.085-.005-.117.159c0 .023.007.052-.004.07-.164.259-.33.517-.497.773-.02.03-.052.054-.079.08-.005.12-.077.2-.166.27-.04.133-.2.395-.333.543l.005-.008a5.243 5.243 0 0 1-.006.008l-.012-.095c-.097.084-.194.167-.2.308l.132-.11-.006.008.006-.007c-.007.146-.108.253-.182.364-.308.458-.577.94-.867 1.41-.099.16-.183.327-.28.486-.1.163-.21.321-.314.481-.049.076-.096.152-.144.229-.04.063-.05.128-.01.194l-.135.029-.08.209.277.245-.272-.07.3.267c-.029.001-.06.007-.08-.005-.353-.192-.75-.268-1.117-.422-.062-.025-.138-.017-.207-.024v.043c-.107.045-.187-.036-.275-.066-.366-.128-.742-.234-1.076-.435V10.3a4.863 4.863 0 0 0-2.1-.23l-.298.166-.074.166.201.001c-.068.102-.136.115-.236.05l-.038-.191.643-.75-.088.333.115-.055.017.025-.12.134c.026.066.081.035.126.035.114-.002.23-.011.344-.01.27.001.54.007.829.011.066-.117.138-.235.2-.357.096-.188.175-.385.28-.567.236-.41.48-.817.73-1.219.073-.119.176-.22.267-.327-.004.034-.004.07-.02.1-.172.335-.348.67-.523 1.006.02.037.038.075.062.122l-.137-.019-.187.415c-.189.192-.513.715-.544.897.142.039.284.08.427.115.142.035.282.103.472.026.133-.085.255-.239.364-.4.184-.269.365-.54.532-.82.28-.47.549-.944.818-1.418.165-.29.318-.586.484-.875.198-.346.414-.683.604-1.033.23-.42.44-.851.66-1.277.182-.355.37-.706.547-1.063.233-.468.464-.936.68-1.412.034-.074.104-.181.018-.3l-.144.338-.098-.103a151.2 151.2 0 0 1-.14-.072l-.1.144c-.036-.103.02-.243-.136-.32l.013.22-.15.217-.056-.089.134-.14c-.145-.015-.233.027-.324.064-.02.051-.028.107-.06.138-.117.11-.208.237-.29.374-.019.031-.07.043-.11.062.007-.126.117-.222.137-.372l-.109.062-.069-.074c-.027.015-.055.029-.08.041l-.121-.082-.009.115-.043.014-.368.64a17.79 17.79 0 0 1-.037-.01l.02-.141h-.001c.041-.066.106-.13.111-.197.018-.238.17-.427.221-.667l-.15.056c-.012.073-.023.128-.032.177l-.128-.007.005.093-.003-.002-.004-.003.001.01.006-.004.036.026-.03.021-.018.099-.044.026-.066-.144-.06.14-.086.055.014-.192-.089-.025-.017.143c-.147.15-.244.3-.307.473-.025.066-.046.134-.078.196a4.66 4.66 0 0 1-.183.335c-.026.042-.067.074-.103.11.021-.214.166-.384.218-.59.04-.162.141-.306.172-.474-.055.07-.119.135-.159.213-.13.253-.245.514-.374.768s-.273.5-.4.755c-.38.756-.702 1.54-1.127 2.275-.269.466-.529.937-.796 1.404-.054.093-.122.18-.184.268-.003-.021-.01-.044-.002-.06.19-.367.384-.733.574-1.1.1-.194.194-.39.29-.585l-.053-.033c.046-.093.087-.181.132-.267.168-.316.345-.627.503-.948.194-.392.364-.795.559-1.187.217-.437.402-.886.58-1.34.026-.067.035-.14.05-.211-.043.058-.093.113-.126.176-.49.97-.974 1.943-1.466 2.912-.2.394-.41.782-.627 1.167a94.583 94.583 0 0 1-1.075 1.874c-.187.317-.397.623-.609.925-.17.242-.362.47-.538.707-.087.118-.162.245-.229.347l.008.263c-.333.118-.575.313-.706.646l-.38.207c-.193.103-.355.237-.447.439-.145.32-.18.659-.147 1.003.031.337.155.647.305.949.218.435.505.821.826 1.186.063.071.15.133.143.252-.008.018-.015.042-.029.061-.39.538-.768 1.083-1.173 1.61-.396.513-.818 1.008-1.23 1.51-.335.407-.67.814-1.006 1.218-.142.171-.288.338-.435.504-.301.337-.605.671-.906 1.007-.252.282-.494.573-.756.845-.455.473-.914.944-1.389 1.397-.344.327-.715.628-1.08.934-.18.152-.372.291-.54.42l-.01.494c-.023.71-.148 1.406-.312 2.093-.212.889-.458 1.768-.807 2.616-.245.596-.477 1.197-.735 1.788-.297.68-.616 1.352-.925 2.028-.299.654-.62 1.297-1.007 1.907-.018.028-.02.066-.026.101.08-.096.172-.186.237-.291.17-.279.349-.556.488-.85.307-.648.682-1.263.942-1.935.164-.426.378-.832.558-1.252.202-.473.394-.95.584-1.429.114-.288.216-.582.32-.874.27-.753.485-1.52.643-2.304.118-.59.197-1.185.246-1.784.007-.08-.002-.163-.004-.271l.247-.168a18.947 18.947 0 0 1-.259 2.051 13.604 13.604 0 0 1-.39 1.586c-.112.356-.198.722-.33 1.07-.182.48-.39.95-.598 1.419-.14.313-.3.616-.444.926-.027.057-.034.123-.046.187.028-.038.057-.074.08-.113.11-.184.219-.369.33-.552.006-.01.023-.014.037-.02l.035.107.108-.175.082-.072-.099-.08.038-.049.281-.131c-.047-.056-.124-.067-.112-.137.028.005.058.01.114.022.067-.096.145-.201.214-.31.019-.03.016-.072.02-.109l.185-.09-.011-.08-.092.006.02-.14-.128.1.017-.185-.159.125c.03-.177.142-.288.207-.42l.058.017c.023-.05.04-.105.072-.15.189-.254.375-.51.631-.708a1.13 1.13 0 0 0 .2-.204c.121-.156.235-.319.351-.479-.038.02-.083.035-.11.066-.133.144-.253.3-.39.44-.14.142-.293.271-.463.39l.102-.172c.393-.365.7-.742 1.038-1.137-.063.004-.085-.001-.093.007-.2.214-.397.43-.599.643-.032.034-.08.055-.123.08.13-.23.294-.43.495-.603.1-.086.214-.161.278-.282l.096-.098-.106-.003c.056-.104.113-.206.165-.311.014-.029.015-.063.02-.097l-.214.208c-.027-.111.071-.166.12-.24.057-.084.144-.148.195-.3-.162.11-.26.206-.345.317-.08.104-.168.203-.253.303.003-.034.002-.072.02-.095.122-.154.252-.302.377-.453.077-.094.151-.19.228-.287.02.107.032.22.017.346-.06.5-.113 1-.156 1.501-.04.476-.194.9-.494 1.28-.29.368-.562.749-.832 1.13-.375.527-.75 1.055-1.11 1.593-.516.769-1.02 1.546-1.526 2.322a59.7 59.7 0 0 0-.79 1.24c-.132.215-.246.441-.378.68l-.162-.094-.022-.12a1.506 1.506 0 0 0-.429.49c.004.051.005.1.012.15.005.04.015.079.023.117.026.026.047.053.073.073.185.143.303.144.493.014a.601.601 0 0 0 .24-.333 1.9 1.9 0 0 1 .317-.578 22.819 22.819 0 0 1 1.722-2.034c.27-.286.542-.572.832-.84.349-.323.709-.636 1.079-.935a18.187 18.187 0 0 1 2.064-1.474c.803-.482 1.63-.918 2.5-1.269.442-.178.878-.37 1.326-.528.72-.255 1.426-.544 2.122-.854.525-.234 1.042-.484 1.565-.723.148-.067.303-.119.458-.178.019-.084.037-.154.05-.226.026-.144.04-.29.073-.432.164-.71.4-1.394.693-2.061a32.48 32.48 0 0 1 1.143-2.388c.207-.381.415-.762.636-1.136.259-.437.528-.868.802-1.296.145-.225.27-.466.454-.649.431.117.85.206 1.278.222.213.008.429-.012.64-.038.163-.02.32-.078.483-.104.506-.079.972-.253 1.376-.567.59-.458.9-1.052.845-1.806a.478.478 0 0 1 .091-.32c.28-.415.553-.834.827-1.253.3-.46.596-.923.902-1.38.255-.382.519-.759.784-1.135.436-.617.87-1.235 1.316-1.846.213-.291.454-.563.676-.848.255-.329.495-.668.755-.992.303-.378.622-.743.93-1.117.318-.386.636-.772.945-1.164.677-.86 1.348-1.723 2.02-2.586.324-.415.646-.83.967-1.247.245-.319.491-.636.727-.961.212-.292.413-.59.614-.89.047-.072.074-.156.11-.235l.06-.023.148-.296-.063-.036-.1.147ZM33.664.733l.01.018h-.017l.007-.018Zm-.111-.135.01.07-.02.003-.01-.07.02-.003Zm-.458 0 .079.044-.028.035L33.08.62l.015-.024Zm-.178.089-.02.006.02-.006Zm-4.693 7.699-.074.096c-.011-.059.011-.092.074-.096Zm-.125.165c-.01.072-.053.106-.124.109.018-.063.054-.105.124-.109Zm-.138.126Zm-.081.173-.017.009V8.84l.017.008Zm-2.488 3.593v.019l-.016-.009.016-.01Zm-.134.295.028-.082c.007.033.015.066-.029.082Zm.007-1.265-.007.017-.009-.017h.016Zm-.128.166-.007.018-.01-.018h.017Zm-.35.559c0-.006.001-.007 0 0Zm-.647 1.052.009.016h-.017l.008-.016Zm-.101 1.291-.04-.018.062-.068-.022.086Zm-.01-1.13c0 .114-.07.186-.157.25-.003-.117.076-.184.156-.25Zm-.383.557.006.06-.018.002-.008-.06.02-.002Zm-.077.132c.005.112-.037.172-.113.214-.018-.088.045-.139.113-.214Zm-.09.625c-.045.088-.042.204-.161.248.035-.094.05-.2.16-.248Zm-.205.325.014.013-.012.013c-.005-.004-.013-.008-.013-.012 0-.005.007-.01.011-.014ZM32.125.529c.053.054.068.102-.033.148l-.026-.129.059-.018Zm-.122.173c.005 0 .01.008.014.012-.004.005-.009.013-.013.012-.005 0-.01-.007-.015-.011.005-.005.01-.013.014-.013Zm-.076-.075-.088.11-.035-.178.123.068Zm-.029.722c.058.132-.02.192-.1.252a.302.302 0 0 1 .1-.252ZM31.68.388l.016.119-.09.029-.017-.12.09-.028Zm-.084.158-.053.11c-.053-.1.003-.104.053-.11Zm-.251.144-.115.043-.022-.163.137.12Zm-.177.166.004.021-.06.008-.003-.013.059-.016Zm-.08.16.014.013-.013.014c-.004-.005-.012-.009-.012-.013 0-.005.007-.01.011-.014Zm-.331-.012.005.073-.127.08c0-.11.013-.125.122-.153Zm-.172.23.002.07a15.9 15.9 0 0 0-.035-.01l.033-.06Zm.04-.751.014.062-.072.025-.022-.085.08-.002Zm-.2.02-.05.044-.017-.029.068-.016Zm-.286.09-.009.035-.062-.03.07-.005Zm-1.02.334.01.016h-.017l.007-.016Zm.154.62.014.103-.186.178c.024-.14.084-.232.172-.28Zm-.213.345c0 .005-.008.011-.013.016-.005-.004-.014-.01-.014-.014 0-.005.008-.01.012-.016.005.005.014.01.015.014Zm-.083-.93.08.077-.017.032c-.025-.006-.055-.005-.073-.02-.009-.006.004-.04.01-.09Zm-.155.268-.018.01v-.018l.018.008Zm-.423-.06c.005.005.014.009.014.013 0 .005-.008.01-.012.015-.005-.004-.012-.009-.013-.013 0-.005.007-.01.011-.015Zm-.801.702.01.071-.02.003a646.74 646.74 0 0 0-.01-.071l.02-.003Zm.174-.965.013.1c-.026-.042-.038-.054-.04-.067-.002-.007.013-.017.027-.033Zm-.273 1.078.031.017-.053.112-.04-.03c.02-.033.04-.066.062-.099Zm-1.457.182.007.09-.087.012a43.423 43.423 0 0 1-.008-.086l.088-.016Zm-.086-.48.014.015-.012.014c-.005-.004-.013-.008-.013-.013 0-.005.007-.01.011-.015Zm-.105.712.09.077-.035.042-.082-.09.027-.029Zm-.057.22-.021.003-.008-.06.014-.003.015.06Zm-.023-1.066-.164-.055-.015-.114c.078.021.137.064.18.17Zm-.273.048.074.027-.03.047a30.54 30.54 0 0 1-.056-.047l.012-.027Zm-.447.123-.008-.06.013-.003.016.058-.02.005Zm.186-.112-.072-.059c.09-.053.083 0 .072.06Zm-.036-.14c-.101.002-.166-.012-.166-.116.091.011.094.014.166.117Zm-.378 7.033-.013.014v-.027l.013.013Zm-3.7-6.53.014.013c-.005.005-.01.013-.013.013-.005 0-.014-.008-.014-.012 0-.005.008-.01.012-.014Zm-.252-.072-.043.05-.021-.03.065-.02Zm-.078.172.003.013-.058.014-.004-.02.059-.007Zm-.31-.027c.025.017.05.033.073.05l-.018.027-.072-.05a4.1 4.1 0 0 0 .018-.027Zm-.582.377.05.076-.086.079c-.011-.064-.025-.121.036-.155Zm-.055-.235.015.013h-.029l.014-.013Zm-.203.748-.01-.017h.018l-.008.017Zm.017-.828.113.05-.154.138.04-.188Zm-.058.202.032.023-.052.073-.041-.03.06-.066Zm-.451.502.056.03-.045.074-.037-.016.026-.088Zm-.02-.523-.03.02-.021-.068.05.048Zm-.06.682.042.013-.029.089a20.034 20.034 0 0 1-.04-.012l.027-.09Zm-.26-.294v.018l-.017-.008.016-.01Zm-.597.663c.011.067-.008.12-.075.148-.013-.068.012-.117.075-.148Zm-.085.163Zm-.82 3.649c-.005.005-.008.01-.012.016v-.029l.011.013Zm-.076.082.04.021-.068.069.028-.09Zm-.04.113c.015.069-.008.119-.075.148-.015-.07.014-.117.075-.148Zm-1.229-.425v.016l-.015-.008.015-.008Zm-.138.238c.003-.003.005-.003 0 0Zm-.244.428c.001-.004.002-.006 0 0Zm-.079.158v.002c.003-.002.004-.003 0 0v-.002Zm.015.268-.027.082c-.008-.033-.01-.064.027-.082Zm-.875 1.418.016.054a4.044 4.044 0 0 1-.02.006l-.015-.055.019-.005Zm-.122.253.016.014-.03.002.014-.016ZM3.526 30.935l.005.036-.035-.014.03-.022Zm.023.19c-.045.02-.09.042-.134.063-.01-.045-.01-.092.048-.099.027-.003.057.021.086.036Zm-.011-.201.032-.04.005.035-.037.005Zm.204-.277a28.698 28.698 0 0 0-.052-.05l.083-.041-.03.09Zm.202-.558.016.014-.03.001.014-.015Zm.18.069-.034.102-.152.152-.06-.006-.098.134c-.034-.122.046-.205.108-.295l.023.078c.085-.047.1-.17.212-.165Zm1.128-3.219c.012.06-.012.093-.075.096l.075-.096Zm-.006.343c-.008.048-.046.05-.084.053.008-.049.046-.051.084-.053Zm-.072-.862-.017.01v-.018l.017.008Zm-.116.35.009.018H5.05l.008-.017Zm.096.577c.014.095-.045.15-.116.199-.014-.096.048-.149.116-.199Zm-.17-.456-.016.01v-.017l.016.008Zm.05.671c.012.061-.012.096-.077.098l.077-.098Zm-.094.106-.116.15c-.01-.086.028-.136.116-.15Zm-.393.931c-.005 0-.013-.007-.013-.012 0-.004.008-.009.012-.014l.014.014c-.005.004-.009.012-.013.012Zm.025-.51.007-.019.01.019h-.017Zm.187.394-.04-.02.067-.07-.027.09Zm.815-1.003-.087.011.077-.1.01.089Zm-.037-.286c.017.07-.012.118-.074.15-.022-.072.007-.12.074-.15Zm-.08.16c-.008.048-.045.053-.084.054 0-.06.044-.054.084-.055Zm-.134.122.015.11-.666.667c.025-.192.2-.265.298-.4.1-.138.233-.253.353-.377Zm.526-2.051.003.072-.072.017.07-.09Zm.027.195.013.175-.082.015-.044-.076.113-.114Zm-.078.205v.003-.003Zm-.04-.292c-.001.008 0 .005 0 0Zm-.333.593.014.011-.027.002.013-.013Zm.226.063c-.026.142-.103.237-.25.269.138-.21.144-.217.25-.27Zm-.268.28-.09.137c-.02-.114.032-.13.09-.138Zm.088.256c-.031.032-.073.053-.113.077.082-.107.158-.22.252-.316.135-.139.188-.216.22-.403l-.168.091c.03-.121.139-.18.237-.265l.004.358c-.144.154-.286.308-.432.458ZM.316 36.907c-.084-.032-.188-.022-.224-.15l.239-.257.19.288-.205.12ZM19.36 13.865l.01.028-.128.077-.012-.088.13-.018Zm-.187-2.702c.005.006.007.009 0 0Zm.01 2.54v.015l-.017-.007.018-.009Zm-.12-3.089-.059-.027.066-.002-.008.029Zm.157 3.262-.168.022c.08-.06.127-.084.168-.022Zm-.209-.06-.01.044-.172-.029c.005-.02.01-.04.017-.061l.165.046Zm-.16-.125-.2-.055-.016-.07c.067.028.153.021.216.125Zm-.28-.225a5.74 5.74 0 0 1-.006-.041l.084.03-.078.01Zm-2.386-2.534c.332.02.65.112.952.24.567.242 1.11.53 1.617.883.05.034.09.08.133.123-.165-.007-.286-.12-.428-.182-.374-.161-.743-.334-1.114-.501-.01-.004-.024.001-.038.005l.495.381.428.329c-.063-.014-.128-.023-.186-.047-.487-.199-.969-.408-1.458-.6-.427-.169-.86-.32-1.32-.49a.882.882 0 0 1 .383-.146c.177-.018.358-.006.536.005Zm-.555-.094c.005 0 .01.007.015.011l-.014.014-.015-.012c.004-.005.009-.013.014-.013Zm-.1-.041-.01.034-.058-.03.069-.004Zm-2.024-.08c.411-.094.824-.096 1.236-.068.211.014.42.068.628.108.024.004.044.023.065.038-.117 0-.237.009-.351-.008a5.167 5.167 0 0 0-.836-.042c-.252.003-.483.06-.709.15-.14.056-.267.146-.41.227.051-.207.219-.306.377-.405Zm-1.224 1.649c-.002.005-.002.004 0 0Zm0-.002c-.007.005-.005.003 0 0Zm.062-.078c.004-.002.005-.003 0 0Zm.104-.065-.01-.015h.018l-.008.015Zm.255-.613c-.112.04-.21.122-.312.188-.059.038-.114.082-.195.142.042-.26.213-.353.401-.416a3.32 3.32 0 0 1 1.511-.13c.727.095 1.443.244 2.126.515.32.128.625.291.941.43.334.146.648.322.943.535l.483.344c-.227-.008-.415-.1-.613-.066.028.013.056.028.085.035.178.046.34.122.483.235-.037.022-.027.038.012.05l.052.082c-.055-.019-.112-.034-.164-.06-.087-.041-.17-.091-.266-.12.16.2.391.316.545.528-.13-.077-.26-.152-.388-.231-.67-.418-1.36-.797-2.106-1.068-.247-.09-.49-.192-.735-.285a1.362 1.362 0 0 0-.43-.088 2.392 2.392 0 0 1-.554-.093 4.151 4.151 0 0 0-1.422-.15c.23-.078.376-.085.697-.05.316.035.631.024.946-.005a93.287 93.287 0 0 1-.003-.13l.209-.052c-.006-.012-.008-.028-.015-.03a3.047 3.047 0 0 0-.944-.254 3.086 3.086 0 0 0-1.287.144Zm5.323 2.115-.017-.008.017-.008v.016Zm-.109-.105-.008.03-.057-.029.065-.001Zm-.143.213c.003.004.004.004 0 0Zm-4.351-1.453c.138.058.294-.058.423.043-.143-.019-.291.038-.423-.043Zm.407.296-.018.008v-.014l.018.006Zm-.44-.468c.073-.034.149-.1.225-.029l-.225.03Zm-.138-.044c-.017.004-.035.008-.053.01-.004.001-.009-.007-.013-.011l.062-.017.004.018Zm.305-.633.002-.036.107-.002.002.023-.11.015Zm.243.004.018-.008v.015l-.018-.007Zm-.755 1.338c.349-.089.665-.06.981-.019.196.026.392.055.587.083-.037-.027-.073-.058-.115-.075-.128-.053-.258-.099-.387-.147.152-.043.287.052.433.06.037.002.073.007.109.01-.033-.088-.13-.078-.196-.111-.078-.039-.18-.033-.238-.152l.36.075a6.724 6.724 0 0 0-.006-.052l-.199-.109.412.037c-.273-.14-.57-.187-.865-.239-.094-.016-.198.013-.283-.05.108 0 .218-.01.324.006.45.068.904.128 1.35.222.466.099.904.288 1.33.498.33.164.651.345.973.524.058.032.102.087.152.134-.173-.029-.324-.118-.486-.176-.228-.083-.452-.174-.697-.226.13.069.263.134.391.206.067.038.128.088.191.133-.15.014-.252-.1-.382-.14-.081-.025-.15-.087-.243-.071l.054.086-.09.016.163.173c-.106.028-.172-.062-.255-.095-.084-.033-.159-.087-.254-.08.108.067.217.133.323.202.036.023.066.054.098.083-.092.017-.161-.045-.241-.073-.147-.05-.263-.176-.43-.18.03.032.058.069.095.09.241.136.487.263.726.403.092.054.171.13.256.199-.028-.001-.058.002-.079-.01-.75-.437-1.54-.782-2.372-1.03-.37-.11-.747-.193-1.139-.18-.105.003-.21-.014-.35-.025Zm.886-.362.016-.009v.015l-.016-.006Zm.035-.09.009-.03.063.028-.072.003Zm.098.004.095-.012c-.05.069-.075.057-.095.012Zm.021.282c-.004-.005-.003-.004 0 0Zm.116-.269c.069-.045.117-.078.155-.008l-.155.008Zm3.518 1.624-.016-.007.016-.007v.014Zm-.169-.355c.068-.013.114.017.148.071-.066.012-.116-.01-.148-.07Zm.048.515-.017.009v-.016l.017.007Zm-.113-.301c.002.003.003.003 0 0Zm-.01-.26c-.035.007-.069.014-.085-.03l.084.03Zm-.308-.156c.097-.007.161.041.21.117-.096.007-.162-.038-.21-.117Zm.117.79c.004.002.005.002 0 0Zm-.22-.383c-.096.01-.155-.042-.203-.115.092-.004.156.04.203.115Zm-.323-.292c.003.004.004.005 0 0Zm.002.136c-.071.019-.119-.013-.151-.074.07-.014.117.016.151.074Zm-.143-.374a.232.232 0 0 1 .211.118c-.099.01-.164-.037-.211-.118Zm.24.411c-.035.008-.07.018-.086-.03l.086.03Zm-.006 5.18c-.005.004-.004.003 0 0Zm-.567-2.157c-.039.055-.093.098-.142.146-.002-.023-.009-.049.001-.063.188-.264.33-.562.574-.785-.013.046-.022.095-.047.134a16.62 16.62 0 0 1-.386.569Zm.03.615c0-.005 0-.006 0 0Zm-.334-.14c-.022-.146.054-.239.158-.317.015.14-.139.194-.158.317Zm.11 2.445h-.014l.007-.015.008.015Zm-.019.525-.028.083c-.007-.033-.014-.066.028-.083Zm-.648-1.636.015-.008v.017l-.015-.009Zm.005 2.695c.002-.004.002-.005 0 0Zm-.067-3.068c-.012-.06.01-.095.076-.097l-.076.097Zm.05 3.515-.027-.008.027-.058v.066Zm-1.123 1.722c-.015.03-.045.052-.07.076.012-.185.125-.333.194-.497.034-.082.045-.188.15-.226.003.021.009.045 0 .062-.089.196-.18.392-.274.585Zm.018.88c-.053-.069-.07-.113-.012-.15l.012.15Zm-.283.828c.002.047.039.102-.022.137 0-.047-.04-.102.022-.137Zm-.043-1.611.007-.02.008.02h-.015Zm.054.635-.014.01v-.018l.014.008Zm-.009-1.604c-.003.01-.002.007 0 0Zm.006 2.555-.002-.07.03.007-.028.063Zm.018-1.799c0-.004.007-.01.01-.014l.013.014-.011.014c-.005-.005-.012-.009-.012-.014Zm.04.543.015.053-.017.005-.017-.053.02-.006Zm.039.92c.012.068.017.135-.063.197-.003-.083-.004-.15.063-.197Zm-.006-1.614-.002-.07.032.01-.03.06Zm-.135-.96c-.03-.081.037-.132.071-.189.092-.151.137-.334.292-.445.024.115-.082.178-.122.265-.061.132-.159.247-.24.37Zm-.032-1.76.033-.058.001.07-.034-.011Zm.077.38.001.019-.016-.008.015-.01Zm-.004-.535c.008-.066.005-.093.016-.113.005-.009.037-.003.07-.005l-.086.117Zm.118-.19c-.01-.005-.018-.011-.027-.017l.039-.073.041.023-.053.068Zm.055.372-.03.056-.002-.066.032.01Zm-.043.086v.002-.002c-.004.003-.005.004 0 0Zm.095-.242.007-.019.009.019h-.016Zm.075-.164.016-.01v.018l-.016-.008Zm-.022 2.636-.013.015v-.028l.013.014Zm-.128.819c-.007-.033-.014-.066.028-.082l-.028.082Zm.016.995-.031-.009.029-.062.002.07Zm.037-.175c.006.032.012.064-.029.08l.029-.08Zm.133-4.681.033-.06.002.07-.035-.01Zm.15 1.557c.01.094-.038.155-.116.2-.012-.096.05-.148.116-.2Zm.295.715.004.066-.03-.007.026-.059Zm-.004-3.148.02-.032.014.028a3.584 3.584 0 0 0-.034.004Zm.052 3.479c.024.09-.059.13-.111.238-.012-.142.044-.194.11-.238Zm.166-3.662a.264.264 0 0 1-.126.168c-.017-.079.019-.128.126-.168Zm-.04-.225c-.002.01-.001.007 0 0Zm.227 3.175c.017-.032.046-.058.084-.103a1.523 1.523 0 0 1-.387.743c.003-.035.002-.073.017-.102.092-.181.189-.36.286-.538Zm-.116-3.195.12-.016-.109.104-.01-.088Zm.181 2.718.017.008-.016.01v-.018Zm-.294-2.178v-.015l.014.007-.014.008Zm-.081 3.61c.008.08.001.152-.078.195-.014-.08.029-.139.078-.195Zm-.05-3.72.039-.006-.029.082-.01-.076Zm-.035 4.007-.031-.01.03-.058.001.068Zm-.142-3.793.075-.121.02.108-.095.013Zm.049 3.888.02.057-.036-.002.016-.055Zm-.018-.733-.002-.058.02-.001.005.058-.023.001Zm-.029.909c.002-.006.002-.008 0 0Zm0-3.895c.003.112-.057.186-.144.244-.03-.127.107-.156.144-.244Zm-.016 3.92c-.002.007-.002.005 0 0Zm-.044.115c-.014.085.003.184-.096.232-.01-.094.037-.166.096-.232Zm-.047-2.062c.002-.006.003-.009 0 0Zm.004 1.542.029-.14c.055.07.027.11-.029.14Zm-.167 1.097-.031.06v-.07l.03.01Zm-.038.096.002.069-.03-.008.028-.061Zm.184.118c.043-.114.085-.228.13-.342.185-.486.37-.973.558-1.458a.366.366 0 0 1 .138-.177c-.025.06-.051.121-.074.183-.148.396-.294.793-.443 1.188-.068.183-.15.361-.209.546-.088.277-.16.559-.24.838l-.067-.017c.04-.261.113-.514.207-.76Zm.757-2.618c0-.005.007-.01.01-.015.006.004.014.009.014.014 0 .004-.007.01-.011.015-.005-.005-.013-.01-.013-.014Zm.05.336h.013l-.006.017-.008-.017Zm-.246-3.471c-.019.029-.018.07-.024.107l-.09.012c.06-.11.116-.224.181-.331.127-.208.258-.413.392-.616.063-.095.133-.185.2-.276-.007.118-.071.214-.135.31-.175.264-.351.527-.524.794Zm.537-.55c.002.118-.071.19-.157.254-.01-.121.077-.185.157-.253Zm-.163 3.643c.006.037.02.076-.032.094-.009-.038-.018-.076.032-.094Zm.005-.01c-.015-.07.008-.12.074-.15.012.068-.005.121-.074.15Zm.071-.248c.098-.196.158-.413.31-.58-.005.178-.12.317-.183.475-.026.068-.078.126-.12.188-.006-.03-.018-.062-.007-.083Zm.224-3.568c-.01-.1.063-.167.11-.244.029.11-.025.183-.11.244Zm.107-.648c.019.072-.01.12-.076.15-.016-.07.005-.122.076-.15Zm.004-.007c.009-.052.006-.11.032-.152.168-.271.31-.559.52-.802.013-.013.043-.012.066-.016.003.023.014.052.004.067-.194.296-.39.59-.587.884-.006.01-.022.014-.035.019Zm.1 3.421c.013.068-.012.118-.075.148-.019-.07.01-.117.075-.148Zm.155-.296-.027.059-.003-.066.03.007Zm.41-4.157c.004-.165.134-.25.236-.353a.57.57 0 0 1-.236.353Zm-.413-1.397-.018-.007.018-.008v.015Zm-.152-.074c-.006-.002-.005-.001 0 0Zm-.674.516-.03.085a6.379 6.379 0 0 1-.039-.015l.04-.08.029.01Zm-.813.413-.016.001.007-.018.01.017Zm-.219.221c-.034.128-.067.256-.184.341.025-.13.056-.19.184-.34ZM6.275 23.62c.304-.31.614-.615.914-.93.345-.362.684-.73 1.02-1.1.265-.292.522-.591.781-.888.4-.458.805-.911 1.196-1.376.397-.472.785-.952 1.169-1.435.67-.844 1.333-1.694 2.004-2.537.127-.16.278-.301.418-.45-.012.047-.019.099-.046.136-.256.36-.511.72-.778 1.07-.356.47-.723.931-1.084 1.397-.042.055-.075.118-.111.177l.086-.006c-.09.236-.25.423-.422.602-.09.093-.175.19-.262.285l.006-.008h-.007l.001.007-.38.487a20.693 20.693 0 0 0-.017-.084c-.094.093-.194.182-.281.282-.072.083-.128.18-.19.272l.049.037.046-.001-.036.046-.01-.038-.044.006.001.048-.044.056-.042.055-.04.053-.04.051h-.001l-.099.013-.026-.09c-.032.038-.053.061-.072.086-.017.024-.031.05-.05.08l.058.037c0 .024.011.056 0 .07-.26.302-.52.604-.783.903-.016.018-.05.021-.078.03l.023-.09c-.043.027-.093.05-.124.087-.329.395-.681.768-1.048 1.13-.398.392-.772.806-1.168 1.199-.184.182-.372.366-.61.483.04-.052.076-.106.121-.152Zm7.456-7.343c.004-.003.005-.004 0 0Zm-.45-.198c-.04.041-.08.083-.118.125-.012-.078.028-.12.117-.125Zm-.129.14-.05.095c-.045-.084.003-.09.05-.096Zm-.225.234-.099.172c.014-.122.015-.13.099-.172Zm-.504.676c-.032.038-.085.058-.13.086l-.006-.046.037-.048.042-.056.043-.054.043-.055c.014-.02.03-.038.044-.057l.271-.3c-.015.065-.013.102-.03.125a8.428 8.428 0 0 1-.314.405Zm.301.421-.074.016.07-.092.004.076Zm-.22.217-.016.01-.002-.017.018.007Zm-.038.113-.067.016.05-.045c.005.01.01.02.017.029Zm-.18-.762.032-.042.005.038-.037.004Zm.042-.054.033-.042.005.037-.038.005Zm.043-.056.032-.04.005.035a4.074 4.074 0 0 1-.037.005Zm.044-.056.03-.04.006.036a3.846 3.846 0 0 1-.036.004Zm.04-.055.014-.033.022.03-.036.003Zm.33.465c.046.085-.006.088-.053.094l.053-.094Zm-.828.338-.013-.089.037-.048.043-.056.049-.063.026-.034-.032-.011c.02-.098.092-.118.176-.12 0 .03.006.065-.009.084-.09.115-.184.225-.277.337Zm.09.642.076-.097c.012.06-.01.095-.076.097Zm-.086.111.076-.099c.014.062-.011.095-.076.1Zm-.018-.892.032-.042.005.037-.037.005Zm.043-.055.032-.042.005.037a5.607 5.607 0 0 1-.037.005Zm.043-.055c.01-.014.02-.028.032-.042l.005.037-.037.005Zm.174-.252.028-.014.005.034-.033-.02Zm.048.88c.015.061-.012.092-.073.097l.073-.098Zm-.002-.813-.004-.036.036-.005-.032.04Zm-.005-.092.03-.04c.003.011.004.023.006.035l-.036.005Zm-.344.442.032-.041.005.037a4.576 4.576 0 0 1-.037.004Zm.001.163c-.003.008-.002.006 0 0Zm-.036.862c-.053.073-.102.148-.16.218-.053.067-.113.128-.171.191-.003-.013-.008-.026-.004-.037.067-.158.193-.27.29-.404.015.01.03.02.045.032Zm-.381.48c-.037.16-.125.275-.29.322.068-.103.221-.273.29-.322Zm-.401-.273h-.014l.007-.014.007.014Zm-.124.886-.133.201c-.002-.104.031-.18.133-.201Zm-.305-.513.08-.1c.011.061-.008.1-.08.1Zm-.257.324c.006-.133.078-.216.201-.26l-.201.26Zm.178.69c-.003.01-.002.007 0 0Zm-.232-.621-.034.042-.005-.037.039-.005Zm-.076.097a4.016 4.016 0 0 1-.005-.037l.037-.005-.032.042Zm.014.962c-.003.007-.002.005 0 0Zm-.026-.948-.031.041-.005-.036.037-.005Zm-.042.055-.032.041-.005-.036.037-.005Zm-.077.06.037-.005a3.858 3.858 0 0 0-.013.036l-.024-.03Zm.019 1.066-.022.001-.004-.058.021-.002.005.059Zm-.28-.211h-.016l.007-.016.009.016Zm-.108.125c.002-.008.003-.011 0 0Zm-.312 1.087c-.016-.07.012-.117.074-.15.02.071-.01.119-.074.15Zm-.38-.85-.074.015.071-.093.004.077Zm-.093.032c-.003.009-.002.006 0 0Zm-.523.66-.05.049-.016-.032.066-.016Zm-.21.226c-.027.083-.076.143-.166.162.025-.085.074-.145.165-.162Zm-.529.569-.001.004.001-.004Zm-.097.09-.018-.008.018-.009v.018Zm-.198.178c.002-.005.002-.006 0 0 .004-.003.005-.003 0 0Zm-.55 1.59c.116-.124.212-.266.321-.396.137-.163.282-.32.417-.484a81.8 81.8 0 0 0 .914-1.13c.286-.361.562-.73.845-1.093.036-.046.083-.085.126-.127-.013.148-.107.262-.188.372-.528.712-1.053 1.427-1.603 2.123-.35.442-.744.85-1.146 1.248-.127.126-.236.268-.354.402-.02.023-.045.04-.085.074l-.046-.17c.265-.272.537-.541.799-.82Zm1.928-1.629-.123.143c-.016-.021-.032-.037-.03-.04l.114-.137.04.034Zm-.258.304-.075.098c-.016-.064.01-.096.075-.098Zm-.084.11-.077.098c-.013-.063.012-.095.077-.098Zm-.087.11-.076.098c-.014-.063.012-.095.076-.098Zm-.128.175a.492.492 0 0 1-.29.37c-.003-.024-.012-.053-.001-.065.094-.104.193-.204.29-.305Zm-1.014 1.302c.004-.036.002-.078.022-.098.11-.107.188-.235.272-.36.087-.127.185-.247.284-.366.02-.025.064-.031.099-.045.003.162-.14.237-.217.352-.065.098-.139.19-.218.278-.075.085-.16.16-.242.239Zm.037.072-.028.028-.004-.035.032.007Zm-.112-.306.11-.144c-.001.096-.02.12-.11.144Zm.071.29-.03-.007.026-.029.004.035Zm-.342 1.19c-.035.016-.075.026-.1.05-.196.193-.389.389-.6.602l-.028-.114c.332-.309.656-.607.87-.999.074-.007.122-.044.137-.117l.094-.013.012.095a1.04 1.04 0 0 0-.386.478c-.002.005 0 .012 0 .018Zm-.7.272c.09-.139.187-.272.281-.406.032.107-.017.196-.073.283-.053.081-.109.161-.189.278-.011-.086-.033-.132-.018-.155Zm0-.247c.009-.05.003-.107.027-.146.065-.106.141-.204.214-.305l.013.1-.216.361-.037-.01Zm.283-.725c-.098.13-.202.256-.299.377.002-.126.044-.191.308-.455 0 .028.004.06-.01.078Zm.11.701c-.004.009-.003.006 0 0Zm-.018-.245c-.01.034-.051.06-.084.087l.084-.255c.251-.17.426-.409.585-.66l.046-.006c-.005.036-.002.077-.02.105-.119.18-.24.358-.415.492-.083.064-.164.128-.196.237Zm.06-.554c-.006.005-.004.003 0 0Zm.182-.18c-.028.083-.07.151-.166.163.025-.084.072-.147.166-.163Zm-.055-.171.016-.008v.015l-.016-.007Zm.066.161c.037-.131.164-.18.253-.265-.008.158-.137.205-.253.265Zm.279-.419c-.007.005-.005.003 0 0Zm.191-.24.11-.143c-.001.093-.021.12-.11.144Zm.132-.163.07-.045c-.007.04-.038.044-.07.045Zm.129-.122c.004-.003.005-.004 0 0ZM5.909 28.46c.03-.208.044-.42.096-.624.037-.146.122-.28.19-.43l-.091.037c-.037-.176-.006-.242.25-.508-.015-.072.03-.113.075-.16.103-.11.249-.184.308-.333-.055.025-.122.041-.156.083-.126.156-.31.265-.38.465-.008.022-.03.038-.072.086l.033-.271c.144-.142.298-.296.455-.447.076-.073.162-.135.233-.212.028-.03.029-.086.042-.13l.38-.49.115-.045-.123-.057-.035-.107-.066.117c-.066.018-.129.039-.138.12-.044.028-.094.05-.128.086-.106.117-.206.24-.308.36a.235.235 0 0 1 .067-.214c.164-.169.339-.328.512-.487.028-.025.074-.031.116-.048.28-.34.57-.675.84-1.027.272-.354.523-.723.78-1.087.02-.028.02-.07.037-.13-.116.06-.16.147-.21.229-.038.062-.073.127-.117.186-.326.437-.653.874-1.001 1.295-.116.14-.223.286-.335.427a.19.19 0 0 1-.131.078l.137-.205c.049-.075.091-.155.145-.227.211-.278.429-.552.637-.832.245-.329.486-.66.72-.996.068-.097.107-.213.147-.325.102-.158.201-.318.307-.474.032-.048.078-.087.12-.13a1.012 1.012 0 0 1-.238.45.637.637 0 0 0-.168.418c.204-.386.528-.693.703-1.097.052-.119.126-.23.207-.333.307-.385.571-.8.86-1.199.335-.463.711-.898 1.061-1.351.3-.39.588-.79.883-1.185.074-.1.155-.192.225-.294.05-.073.09-.154.13-.234.078-.16.164-.312.294-.44.111-.11.207-.233.31-.352-.013.046-.02.095-.046.131-.134.184-.279.36-.413.545a.634.634 0 0 0-.136.367c.031-.03.066-.059.091-.094.118-.166.223-.342.35-.501.191-.236.375-.474.501-.752.02-.044.068-.075.106-.111-.03.226-.147.417-.272.599-.119.172-.222.354-.377.505-.114.11-.19.263-.272.404-.122.21-.228.43-.384.62-.01.013-.002.04 0 .064.092-.11.195-.212.273-.33.151-.232.288-.472.43-.709l.015-.02c.327-.289.465-.704.71-1.047.18-.252.35-.509.528-.762.01-.014.04-.014.062-.02.015.142-.08.238-.15.343-.113.17-.23.335-.342.505-.017.026-.018.061-.022.095.267-.318.514-.65.72-1.01.026-.045.042-.094.06-.142l-.02.34c.128-.033.104-.179.175-.28l.035.134c.067.003.095-.047.127-.093.077-.114.153-.229.248-.334-.034.162-.107.309-.173.47.13-.005.162-.113.23-.179.07-.07.083-.194.234-.23l-.207.445c.226.014.285-.208.474-.293l-.076.198.135-.04-.058.239.253-.144c.01.054.033.1.021.132-.023.06-.062.115-.096.171.036-.019.072-.037.106-.059.059-.038.115-.08.206-.092-.011.034-.014.072-.034.1a6.817 6.817 0 0 1-.24.313 4.531 4.531 0 0 0-.643 1.096 2.89 2.89 0 0 1-.325.547 7.54 7.54 0 0 0-.736 1.295c-.16.347-.329.69-.55 1.006a6.446 6.446 0 0 0-.48.848 2.433 2.433 0 0 1-.341.534c-.238.27-.432.561-.597.878-.086.164-.204.31-.22.503-.067.035-.086.094-.08.165.073-.034.088-.095.085-.166.028-.035.06-.067.08-.106.195-.355.37-.722.643-1.028.14-.157.31-.288.395-.49.004-.011.038-.011.062-.015.003.024.013.053.003.065-.123.14-.174.326-.325.455-.114.097-.19.244-.267.377-.163.282-.326.564-.471.855-.21.42-.418.843-.6 1.275-.225.53-.426 1.07-.63 1.61-.057.15-.089.31-.133.465a.522.522 0 0 1-.105.217l.019-.479-.127.493c-.063.033-.146.084-.236.118-.086.033-.178.05-.275.075-.067-.085-.057-.188-.054-.28.018-.487.07-.972.167-1.45.085-.422.194-.839.294-1.258.034-.142.073-.282.112-.433-.152.169-.424 1.005-.563 1.711-.117.597-.217 1.196-.232 1.813-.343.156-.672.303-.998.454-.917.426-1.808.897-2.632 1.485-.22.157-.428.33-.643.494-.03.023-.068.036-.102.053-.028-.077.036-.117.073-.166.468-.606.938-1.211 1.405-1.818.317-.41.633-.823.945-1.237.178-.235.35-.474.52-.715.065-.093.115-.196.168-.285.607-.083.788-.26.82-.79l-.137-.201-.22-.107c-.488.03-.736.237-.833.71l.196.373-2.911 3.836a3.956 3.956 0 0 1-.033-.01c.007-.068.012-.137.022-.206Zm7.954-7.3-.028.002.013-.014.015.013Zm-.04-.37c-.035.08-.06.134-.126.162-.016-.078.018-.127.126-.163Zm-.289.774c.004-.003.005-.004 0 0Zm-.015.444-.03-.01.03-.056v.066Zm-1.071 1.58c-.193.375-.383.751-.52 1.151-.003.01-.019.016-.031.023a.343.343 0 0 1 .03-.247c.08-.165.115-.352.196-.516.226-.454.463-.902.7-1.35.151-.285.309-.568.47-.847.041-.07.081-.157.182-.166-.393.624-.692 1.297-1.027 1.952Zm.946-1.421-.012.014c-.005-.005-.013-.01-.013-.014 0-.005.007-.01.011-.015l.014.015Zm-.08.157-.024.002a1.73 1.73 0 0 1 .011-.015l.014.013Zm-.037.102-.052.072a5.128 5.128 0 0 1-.03-.02l.05-.073.032.021Zm-.27.448c.002-.006.002-.008 0 0Zm-.341.686-.016-.009.015-.01v.019Zm-.076.146-.008.017-.009-.017h.017Zm-.6 1.474-.014.015c-.005-.004-.014-.009-.014-.014 0-.005.008-.01.012-.016l.015.015Zm-.13-.313c-.006-.037-.021-.078.032-.095.005.037.02.078-.031.095Zm-.036.105c-.006-.038-.024-.08.033-.096.009.039.019.078-.033.096Zm-.03.615v.003-.003c-.004.003-.005.004 0 0Zm-.117-.257c.025-.183.048-.241.14-.341a.56.56 0 0 1-.14.34Zm.037.484h-.013l.006-.016.007.016Zm-.15-.17c-.022-.117.004-.218.105-.294.028.12-.042.206-.106.294Zm-.115.27c-.014-.068.01-.117.073-.148.013.067-.012.116-.073.147Zm-.064.205c0-.08-.004-.145.06-.192.017.066.025.132-.06.192Zm-5.497 2.965-.002.006.002-.006Zm.45 1.747a20.03 20.03 0 0 0-2.31 1.879c-.424.4-.844.804-1.244 1.227-.578.61-1.098 1.27-1.596 1.944-.061.082-.135.155-.218.25.024-.174.128-.293.21-.414.37-.552.755-1.095 1.127-1.645.331-.49.652-.985.98-1.476.118-.178.24-.353.364-.526.339-.474.675-.95 1.022-1.419.195-.264.403-.52.615-.77.276-.327.602-.603.94-.864.982-.753 2.06-1.344 3.181-1.864.47-.218.964-.37 1.444-.561.396-.16.804-.28 1.223-.364.104-.021.202-.066.323-.106.059-.228.128-.462.178-.7.105-.497.281-.972.491-1.433.244-.534.518-1.055.783-1.58.027-.054.077-.097.118-.144-.006.038-.005.079-.02.112-.238.5-.487.997-.716 1.502-.304.668-.55 1.356-.679 2.08-.016.088-.047.173-.074.266a5.339 5.339 0 0 0-1.48.466c.046.18.102.364.139.551.035.177.05.357.078.562-.123-.102-.086-.232-.112-.339-.029-.119-.032-.244-.059-.364-.027-.117-.07-.23-.112-.363l-.13.01c.044.202.09.388.123.576.033.19.053.382.036.58l-.23-1.125c-.035.052-.066.078-.062.096.054.263.038.539.142.794a.37.37 0 0 1 .023.12c.005.106.006.212.008.33-.12-.113-.115-.114-.238-.56-.056-.201-.13-.397-.21-.595.003.052-.001.104.011.153.056.228.12.454.172.683.029.126.037.257.057.405l-.118-.006-.048.085-.144-.004c.001-.002-.014.008-.016.019a.18.18 0 0 1-.147.15c-.154.032-.255.157-.4.2-.028.007-.042.064-.067.109l-.092-.01-.076.126c-.015.011-.02.019-.028.02-.27.062-.49.224-.722.357-.843.482-1.644 1.028-2.44 1.58Zm7.603-7.154-.006.018-.008-.018h.014Zm-.037-.828-.004-.068.032.007-.028.061Zm-.154.325c.005-.004.008-.005 0 0Zm-.051.151-.03-.007c.008-.02.018-.039.027-.058 0 .022.002.044.003.065Zm-1.52 3.115c.113.339.18.972.114 1.136-.04-.23-.098-.458-.073-.7.014-.141-.033-.29-.041-.436Zm-.894.627-.021.002-.034-.255h.021l.034.253Zm-.056-.404-.006.02-.009-.02h.015Zm-1.382 2.022-.012.014-.001-.026.013.012Zm-2.236 1.456.07-.046c-.006.041-.038.044-.07.046Zm.093-.063.052-.043.015.027-.067.016Zm.191-.124.108-.053c-.016.058-.064.05-.108.053Zm.132-.066.071-.047c-.006.042-.039.044-.071.047Zm.083-.061c.02-.065.08-.052.128-.058-.02.067-.08.05-.128.058Zm.14-.071c.004-.047.04-.047.074-.049l-.075.049Zm.092-.06c.002-.05.04-.048.073-.05l-.073.05Zm.1-.06a.553.553 0 0 1 .353-.188.603.603 0 0 1-.354.187Zm7.728-6.485-.007-.017h.014l-.007.017Zm.178-.412c-.013-.067.016-.114.074-.147.014.067-.013.115-.074.147Zm.078-.159c-.013-.068.012-.117.075-.148.016.07-.012.117-.075.148Zm.122-.213c-.01-.038-.013-.075.032-.095.009.038.017.076-.032.095Zm.038-.107c-.007-.09.045-.15.113-.198a.204.204 0 0 1-.113.198Zm.008-.42h.014l-.006.016-.008-.016Zm.303-.146c-.001.005-.001.004 0 0Zm0-.001c-.005.004-.004.003 0 0Zm.017-.025c.005-.004.007-.005 0 0Zm.043-.114.008-.016.007.016h-.015Zm.124-.212v-.017l.014.008-.014.01Zm.073-.168.015-.01v.018l-.015-.008Zm.09-.146-.008-.017h.015l-.007.017Zm.326-.596-.013-.007.013-.008v.015Zm.67-2.74c-.396.686-.801 1.367-1.191 2.056a33.202 33.202 0 0 0-1.483 2.9 17.819 17.819 0 0 0-.874 2.414 9.5 9.5 0 0 0-.306 1.7c-.008.088.013.179.016.269.002.055-.003.11-.005.175-.058.011-.104.024-.152.03-.42.046-.814.192-1.208.333a30.639 30.639 0 0 0-3.4 1.467c-.234.117-.463.243-.695.361-.038.02-.08.028-.122.039.048-.043.093-.093.148-.121.559-.29 1.115-.585 1.68-.862.39-.19.785-.37 1.188-.53.561-.225 1.132-.428 1.698-.641.106-.04.21-.084.314-.126-.101-.62-.006-1.212.133-1.801.054.19-.034.372-.042.558-.011.266-.05.53-.066.795-.006.086.02.175.034.276.12-.1.074-.226.09-.33.067-.463.114-.927.177-1.39.017-.127.028-.263.14-.354-.037.156-.076.311-.112.467-.011.05-.031.11.046.126l-.031.12c-.047.452-.149.904-.104 1.365.093-.175.088-.368.106-.553.064-.632.213-1.247.38-1.857.118-.43.258-.853.404-1.273.123-.353.27-.698.407-1.046.027-.068.044-.135.008-.187.115-.227.23-.443.335-.663.229-.48.485-.943.768-1.394.265-.422.49-.868.735-1.302.15-.263.302-.524.457-.783.03-.05.077-.088.119-.13-.033.198-.164.35-.256.52-.088.165-.185.324-.274.488-.012.021-.01.05-.01.077.048-.067.1-.131.142-.2.217-.354.432-.71.648-1.064.012-.02.03-.038.044-.054l.135.014c-.006.037-.003.08-.021.11Zm-3.933 7.624-.003.012.003-.012Zm3.96-7.75-.001-.073.035.01-.033.062Zm-.05-2.659c.062-.012.096.011.1.076l-.1-.076Zm.733.662a15.713 15.713 0 0 1-.449-.386c-.063-.056-.115-.124-.172-.187.042.009.09.011.121.034.339.251.646.537.934.845.011.012.01.035.013.056-.15-.12-.3-.24-.447-.362Zm3.97-2.162v-.002.002Zm.004-.016v.002l-.098-.036-.03-.22.166.15c.002.04.025.087-.038.104Zm-.104-.835c-.004-.09.04-.154.116-.2.01.094-.04.155-.116.2Zm.165.73c-.003.002-.01.002-.017.002 0-.143.083-.249.162-.356.034-.046.024-.136.118-.126-.05.18-.139.34-.263.48Zm.042-1.056c0-.028-.004-.06.008-.082.109-.179.219-.357.335-.53.023-.036.072-.054.111-.08.002.007.004.013.002.017-.13.239-.248.487-.456.675Zm.066.623-.015.01v-.017l.015.007Zm.202-.11-.004-.04.038-.005-.034.045Zm.89-1.246c-.26.389-.526.774-.793 1.16-.01.015-.033.022-.052.032a.664.664 0 0 1 .139-.361c.2-.277.43-.533.605-.827h-.002l.065-.144.058-.013c-.004.052.007.114-.02.152Zm-.7.03c-.005-.119.078-.184.156-.253 0 .114-.072.186-.155.252Zm.256-.386c0-.005.001-.007 0 0Zm.472.183-.004-.071.036.01-.032.06Zm.202-.433c0-.005.007-.01.011-.014l.013.013a.775.775 0 0 0-.012.013c-.004-.004-.012-.008-.012-.012Zm.021.192.017-.01.001.018-.018-.008Zm.198-.463v-.018l.017.009-.017.008Zm.065-1.97c.012.095-.043.152-.116.2-.011-.094.043-.152.116-.2Zm-1.823 2.675c.146-.236.294-.47.446-.702.242-.369.48-.739.732-1.1.132-.19.288-.362.434-.542-.003.035-.003.072-.02.098-.198.3-.4.597-.6.896-.248.373-.491.75-.743 1.122-.075.11-.17.205-.257.307 0-.028-.005-.059.008-.08Zm-.013.1c.012.06-.013.093-.075.098l.075-.098Zm-.056 1.155-.024.087a7 7 0 0 0-.039-.02l.063-.067Zm.005.784-.113.146c.003-.098.021-.122.113-.146Zm-.09-.61-.054.021-.008-.022c.017-.005.033-.011.05-.015.003 0 .008.01.012.016Zm-.027-.262v.001-.001c-.003.002-.003.002 0 0Zm-.012-.838-.023.088-.041-.019.064-.069Zm-.04 1.188.002.069c-.011-.01-.025-.02-.033-.032-.002-.003.014-.017.032-.037Zm.005.745c.013.116-.082.168-.15.235 0-.11.064-.18.15-.235Zm-.038.518a1.604 1.604 0 0 0-.012.014c-.004-.004-.012-.009-.012-.013 0-.005.007-.01.01-.014l.014.013Zm-.188-9.32.002.072-.034-.01.032-.061Zm-.165.26v.08l-.025.003-.016-.079.041-.005Zm-.19.358.003-.002-.002.002Zm-.495 8.876c.559.538.977 1.17 1.262 1.888.026.064.027.138.038.208-.093-.024-.047-.12-.085-.176-.12-.181-.214-.38-.338-.558a21.103 21.103 0 0 0-.668-.899c-.2-.256-.414-.5-.62-.751-.01-.014-.012-.035-.015-.056.143.114.295.218.426.344Zm.669 1.96c0 .006-.006.011-.01.017-.004-.006-.011-.01-.011-.015 0-.005.006-.01.01-.015.003.004.01.009.011.014Zm-.943-1.74c-.04-.048-.063-.109-.091-.166.252.208.493.427.63.732-.025-.012-.052-.022-.07-.04-.158-.174-.317-.348-.469-.527Zm.26.75c-.004-.005-.003-.004 0 0Zm-.293 2.27-.046-.05.03-.018.016.068Zm.598-1.91c-.101-.033-.141-.115-.168-.208.1.035.141.116.168.207Zm-.006-.526c.006.002.01.003 0 0Zm-.675-.775c-.005-.006-.004-.005 0 0Zm-.052-.391c-.005-.006-.003-.004 0 0Zm-.511 1.843c-.22-.117-.387-.29-.542-.476.22.117.38.296.542.476Zm-.854-1.446.006.019c-.017.004-.035.01-.052.013-.004 0-.009-.009-.014-.013l.06-.02Zm-.055-.064-.109.014-.002-.019.109-.014.003.019Zm-.08-.212.004.022-.113.015-.003-.022.113-.015Zm-.168 1.95c.086.024.144.075.165.163-.09-.02-.148-.07-.165-.162Zm.174.174c.066.017.103.058.11.124-.068-.014-.109-.052-.11-.123Zm.117.135c.07.014.107.055.111.124-.066-.016-.107-.054-.11-.124Zm.123.14c.13.083.232.19.284.336a.637.637 0 0 1-.284-.336Zm.296.36.05.073c-.045-.006-.048-.04-.05-.074Zm.076.097a.753.753 0 0 1 .284.417l-.284-.417Zm.984 1.348c-.063.216-.15.426-.24.633-.071.166-.214.26-.415.321.025-.051.033-.089.056-.112.25-.245.299-.548.243-.873a2.06 2.06 0 0 0-.288-.747c-.022-.036-.029-.082-.04-.125.035.023.072.046.105.073.037.031.067.07.104.102.017.014.043.018.086.036l.03-.14c.009 0 .022-.003.034 0 .209.056.296.219.352.403.044.145.013.293-.027.43Zm.043-.703c.117.05.108.172.147.265-.076-.073-.146-.15-.147-.265Zm.561.362-.294-.972c.163.16.271.347.317.56.027.13.08.27-.023.412Zm.1-2.705-.006-.016h.013l-.007.016Zm.785 3.003a2.383 2.383 0 0 1-.55.488c-.022.014-.05.017-.077.023.08-.116.174-.225.232-.35.147-.313.227-.642.185-.992-.039-.324-.09-.643-.225-.944-.013-.027-.01-.062 0-.097.254.378.323.824.468 1.244.06-.103-.066-.241.075-.34l.048.216c.01-.085.106-.163.022-.251l.08-.075-.1-.736c.014.005.032.008.034.015.05.213.114.424.145.64a1.4 1.4 0 0 1-.337 1.159Zm.457-2.822c-.013-.002-.031 0-.038-.007a3.34 3.34 0 0 1-.583-.871c-.028-.062-.038-.132-.056-.2.044.011.1.012.126.04.143.156.285.314.41.484.05.068.057.167.086.26l.09.099-.035.195Zm6.036-7.632c.005-.003.006-.004 0 0Zm1.18-1.524c-.002.006-.002.004 0 0Zm.526-.68v.002-.002Zm-.049.064.004-.006-.004.006Zm.092-.119-.05.064.05-.064Zm.385-.498-.05.065h.001l.05-.065Z" fill="#222"/><path d="M33.788.35a.231.231 0 0 1-.004.008l.007.003-.001-.01h-.002ZM12.77 18.198l-.043.055-.001.006.007-.002.042-.056v-.008l-.004.005ZM31.228 2.632l.004-.004v-.006l-.006.001.002.01ZM30.74 5.666l-.011.001.002.01.004-.005.005-.006ZM31.602 4.663l-.002.003.006-.006v-.003l-.006.008.002-.002ZM29.111.628l-.006-.011-.007-.004.001.011.012.004ZM29.584.991l.011-.106c-.159-.102-.305-.21-.484-.257.078.145.38.39.473.363ZM31.505 2.047V2.04l-.006.006v.003h.006ZM31.599 2.034h.006l-.001-.007-.006.001v.006Z" fill="#222"/><path d="M31.36 2.328c-.083.079-.137.174-.128.294l.137-.017a62.955 62.955 0 0 1-.037-.073l.279-.408-.012-.09-.094.013a.412.412 0 0 1-.145.28ZM29.141 7.324l.007-.004v-.006l-.006.001v.01ZM28.832 7.61l.003-.008a.42.42 0 0 0-.006.008h.003Z" fill="#222"/><path d="M28.832 7.61c-.019.054-.034.11-.06.16-.039.07-.086.136-.13.203.033-.013.07-.022.09-.045.133-.164.262-.331.387-.5.02-.027.017-.068.022-.104l-.177.117c.006.094-.035.152-.131.169ZM26.113 11.666c0 .004 0 .01.003.014.196-.184.337-.408.455-.647-.013.001-.028.001-.037.008-.05.037-.4.56-.42.625ZM28.12 9.045l.002-.003v-.003h-.004l.002.006ZM27.781 9.475c.085-.081.174-.16.252-.247.044-.05.112-.098.087-.183-.105.109-.212.216-.312.329-.02.023-.02.066-.027.101ZM21.179 6.663a.76.76 0 0 0-.009.008l.001.008.005-.004.003-.012ZM21.41 6.335c.016-.044.029-.09.042-.134a.792.792 0 0 0-.273.462c.057-.055.114-.11.172-.163l.06-.165ZM.437 36.295h-.01l.002.01.005-.003a.45.45 0 0 0 .003-.007ZM.768 35.853c.006-.009 0-.025-.002-.04-.157.13-.246.304-.33.482.024-.002.052 0 .06-.013.094-.14.183-.284.272-.429ZM21.467 6.177l-.01.009-.005.015.011-.01.004-.014ZM21.7 5.77a.792.792 0 0 0-.233.407c.128-.108.229-.23.233-.408ZM24.982 13.318a.634.634 0 0 0 .24-.362c-.11.101-.223.2-.24.362ZM25.222 12.956l.01-.01v-.012l-.007.008c0 .005-.002.01-.003.014ZM18.447 8.154c.043-.072.088-.143.077-.232-.1.112-.194.227-.192.423l.115-.191ZM16.72 5.725c-.116.09-.163.216-.188.354.117-.09.163-.217.189-.354ZM26.487 1.248c-.07-.132-.184-.169-.295-.206.066.068.129.138.198.203.013.012.049.002.097.003ZM27.442 9.91l.24-.31a.403.403 0 0 0-.24.31ZM29.314 7.1l.006-.001-.002-.01a.219.219 0 0 0-.004.006V7.1ZM21.171 6.679c-.098.083-.193.169-.2.308l.212-.215-.012-.093Z" fill="#222"/><path d="M21.183 6.772v.003l.005-.003.002-.006-.007.006ZM20.97 6.987l-.008.009.002.007.005-.003.002-.013ZM32.22.308l.003.012.007-.006-.01-.006ZM32.355.11l-.233.128.099.07.08-.01.053-.189ZM29.614.75l-.24-.235c.007.141.007.141.24.235ZM31.6 4.123l-.176.26c.127-.032.164-.136.176-.26ZM27.367.794h-.003l.005.006h.003l-.005-.006ZM27.266.678l.1.116.095-.012c-.053-.123-.055-.123-.195-.104ZM33.228.127l.055.19.083-.02c.014-.109-.03-.157-.138-.17ZM33.283.317l-.006.001v.006h.008l-.002-.007ZM28.627 7.985l.008-.001.007-.011-.014.005-.001.007ZM31.919.344l.046-.066-.099-.122c-.003.071-.07.155.053.188Z" fill="#222"/><path d="M33.277.323 33.08.297l.114.132.087-.012-.004-.094ZM33.194.429h-.003a.134.134 0 0 1 .004.004h.003L33.194.43ZM32.53.311l-.054-.033c-.052.034-.12.062-.048.18l.103-.147ZM32.443.827l.006.005v-.02a15.682 15.682 0 0 0-.007.015h-.001v.007l.008-.002-.006-.005ZM32.441.834c-.105.026-.12.045-.121.153l.127-.08-.006-.073ZM25.314 1.271l.123.118.014-.163-.137.045ZM25.437 1.39v.012l.005-.001v-.007l-.005-.005ZM21.11 1.677l.018.132.08-.018c.012-.075.016-.131-.098-.114ZM21.128 1.81h-.006l.003.004.004.002v-.007ZM30.415.207l.01.138.076-.018c.016-.074.015-.125-.086-.12ZM30.424.345l-.005.001V.35h.006V.345ZM23.765 15.17l.068-.198c-.073.041-.11.1-.068.197ZM23.833 14.972l.011-.007.004-.013-.011.008-.004.012ZM16.846 5.505c-.08.046-.126.11-.117.205.082-.044.126-.11.117-.205ZM16.729 5.71l-.006.004-.002.011.008-.007V5.71ZM28.944.531l.154.082c-.008-.085-.057-.117-.154-.082ZM30.17 6.002l.007-.008-.002-.013-.006.007.001.014ZM30.04 6.154l-.01.044.018-.039.006-.007-.013.002ZM30.17 6.002l-.116.15c.088-.013.125-.064.116-.15ZM26.918 10.585l-.043.055-.043.055-.044.056-.004.006h.012c.014-.02.029-.038.043-.056l.044-.055-.006-.004.006.004.042-.056.006-.008-.014.002.001.001ZM27.047 10.431l-.116.15c.085-.014.128-.061.116-.15ZM31.199 4.674l-.119.153c.09-.013.13-.064.119-.153ZM25.933 1.122l.02-.028-.08-.094a14.46 14.46 0 0 1-.026.012c.007.025.008.053.023.072.014.018.041.026.063.038ZM28.013.75l-.054-.03-.028.088.035.015.047-.073ZM25.61 1.13l-.075-.044-.03.054.09.026.015-.036ZM33.578.096l-.063.04.1.092-.037-.132ZM25.728 1.256l-.01.002.002.004.006.002.002-.008ZM25.76 1.13l-.032.126.099-.027-.067-.098ZM32.741.494a15.533 15.533 0 0 1-.04-.04l-.051.054.024.03.067-.044ZM16.85 5.498l-.004.002v.005l.004-.002v-.005ZM16.924 5.347c-.062.032-.092.08-.075.15.067-.03.093-.08.075-.15ZM32.283 3.506l.09-.133c-.06.005-.099.032-.09.133ZM32.105 3.725l.098-.13c-.059.004-.1.028-.098.13ZM32.203 3.594h.013a.81.81 0 0 1 .004-.016l-.012.01-.005.006ZM21.841 5.636l-.005.004v.006h.007c0-.004 0-.007-.002-.01ZM21.928 5.58v.005l.006-.007v-.002a.29.29 0 0 1-.006.004ZM21.916 5.49c-.062.03-.09.077-.075.146.03-.018.058-.037.087-.056l-.012-.09ZM31.327 4.502l-.092.013.011.093c.072-.002.1-.037.08-.106Z" fill="#222"/><path d="m31.331 4.501.005-.005h-.01v.006a.53.53 0 0 1 .005 0ZM18.89 7.275l.006-.003.004-.01-.012.005.002.008ZM18.817 7.423c.06-.032.088-.08.073-.148-.063.031-.089.08-.073.148ZM20.964 7.003c-.064.03-.092.079-.075.149.063-.031.092-.08.075-.15ZM18.572 7.852c.067-.029.09-.079.075-.147-.064.03-.093.077-.075.147ZM17.513 10.775l.139.026c-.027-.057-.07-.078-.139-.026ZM17.652 10.801l.005.01h.006v-.008l-.011-.002ZM34.142.407l-.024.089.065-.07-.041-.019ZM33.803.449h-.006a.192.192 0 0 1 .003.007l.004-.001V.449ZM33.895.408a78.674 78.674 0 0 0-.104-.047l.012.088c.015-.001.03-.001.042-.006.014-.005.025-.017.05-.035ZM34.26.274 34.2.21l-.03.045c.025.012.048.024.073.034.003 0 .011-.01.017-.016ZM19.065 1.964l-.055.123.085-.011-.03-.112ZM19.01 2.087l-.01.001-.001.004.007.002a.207.207 0 0 0 .004-.007ZM25.308 1.172l-.074-.037-.012.022.055.046.03-.03ZM28.64.565l.104.044c-.01-.046-.01-.106-.104-.044ZM28.744.61l.003.01h.008a.216.216 0 0 0-.002-.007l-.009-.004ZM30.884.163l-.032-.022-.048.07.03.02.05-.068ZM27.581.587a45.63 45.63 0 0 1-.072-.042l-.017.031.075.037.014-.026ZM26.708 10.856l.076-.099c-.063.004-.089.037-.076.1ZM30.946 4.99l.075-.1-.086.012.01.088Z" fill="#222"/><path d="m31.413 4.397-.078.1c.067-.003.093-.037.078-.1ZM31.415 4.39l.003.001.006-.009-.013.004.002.011.005-.006-.003-.002ZM22.692 4.215l-.024-.01-.047.069.044.023c.01-.027.018-.055.027-.082ZM33.13 2.585l-.076.097c.062-.005.09-.035.075-.097ZM33.257 2.419l-.074.097c.063-.004.087-.037.074-.097ZM27.137 10.304l.078-.1c-.067.002-.091.037-.078.1ZM32.153 1.451l.05-.07c-.012-.006-.022-.014-.033-.02l-.048.07.03.02ZM35.177.498l.028.02.053-.063-.04-.027-.04.07ZM31.73.107l-.006-.02-.055.018.008.02.053-.018ZM29.552.418l-.009.035.073-.004-.064-.031ZM19.165 1.9l-.015-.052-.02.006.018.051.017-.005ZM20.506 1.724l-.02-.058-.024.007.017.06.027-.009ZM31.332.23l-.052.05.068-.014-.016-.036ZM31.28.28l-.016.004.007.005a.717.717 0 0 0 .009-.008ZM19.869 1.913l-.003-.018-.07.01.002.017a74 74 0 0 0 .07-.009ZM18.622 2.22l-.006.018c0 .007-.003.014-.004.022l.013-.017-.003-.022Z" fill="#222"/><path d="m18.622 2.22.028-.076c-.039.016-.033.046-.028.077ZM35.324.315l-.02.003.01.073.02-.003-.01-.073ZM32.447.744l.002.068.03-.059-.032-.009ZM32.082 1.615l.015.007h.002l.003-.008h-.02ZM32.01 1.618l.072-.003-.062-.031-.01.034ZM20.55 7.665l-.027.08c.04-.016.033-.048.027-.08ZM22.894 3.933c.002-.007.003-.01 0 0ZM22.893 3.936l-.004.01a.383.383 0 0 0 .004-.01Z" fill="#222"/><path d="m22.89 3.947-.006-.016.005.016ZM22.577 4.42c-.01.026-.018.053-.027.08.037-.018.033-.049.027-.08ZM21.835 5.646c-.038.003-.08 0-.084.055.04-.002.08-.003.084-.055ZM18.928 7.182l-.028.08c.038-.017.034-.048.028-.08ZM18.17 8.493l.019-.002-.005-.072-.024.003.01.071ZM28.81.387c-.006-.005-.011-.013-.016-.012-.005 0-.01.008-.015.013.006.005.01.01.016.013l.014-.014ZM32.424.012 32.411 0v.026l.013-.014ZM21.459 1.51l.015-.015-.017-.015c-.004.006-.013.011-.013.016 0 .005.01.01.015.015ZM20.15 1.72a2.273 2.273 0 0 1-.016-.014c0 .01 0 .019.002.029l.014-.016ZM26.306.922c.004 0 .008-.007.012-.012l-.014-.013c-.004.005-.01.01-.011.014 0 .004.008.011.013.011ZM29.67.47l-.036-.023-.018.002.013.006.041.016ZM20.93 1.654l-.01.017h.018l-.009-.017ZM31.264.284a6.705 6.705 0 0 0-.013.043l.02-.038-.007-.005ZM30.983.378l.011-.044-.02.038-.043.056-.005.016c.004-.004.008-.008.012-.01l.045-.056ZM31.399.33l-.013.015.027-.001-.014-.013ZM33.891.068l-.016-.014.002.03.014-.016ZM18.23 2.156l-.02.036-.005.02.012-.015.013-.041ZM18.666 2.124c.003-.003.005-.004 0 0ZM18.666 2.124l-.013.01a.425.425 0 0 1-.003.01l.012-.004.004-.016ZM18.666 2.124c.001-.005.002-.008 0 0ZM20.06 1.912l-.015.017.033-.002-.018-.015ZM32.846.27l.013-.015-.015-.014c-.004.005-.012.01-.012.015 0 .005.009.009.014.013ZM19.26 2.104l-.008-.002.002.01.005-.004v-.004ZM19.217 2.088l.035.014-.005-.037-.03.023ZM34.084.156l.014-.013c-.005-.005-.01-.012-.014-.012-.005 0-.012.008-.012.013 0 .004.008.008.012.012ZM32.553.706c.005 0 .01-.01.016-.017L32.55.674l-.015.018c.006.005.012.014.018.014ZM32.278 1.052l.042-.056v-.01l-.007.005-.042.056-.044.055a.122.122 0 0 0-.003.005h.01l.044-.055ZM23.855 2.238l-.013.01-.011.043.02-.037.004-.016ZM23.855 2.238c.004-.002.005-.003 0 0ZM23.799 2.382l-.016-.008v.017l.015-.009ZM23.713 2.532l-.016.01.017.009v-.019ZM33.723 1.83a1.523 1.523 0 0 0-.014-.013l-.012.013h.026ZM33.629 1.95v-.017l-.016.008.016.008ZM33.526 2.065c.003-.002.004-.003 0 0 .002-.005.002-.007 0 0ZM33.508 2.09l.012-.01.006-.015-.014.01a4.322 4.322 0 0 0-.004.015ZM33.508 2.09c-.002.007-.002.005 0 0ZM33.306 2.357l.043-.056.042-.055.015-.043-.022.038-.043.055-.043.055-.044.056.003.012.005-.007.044-.055ZM32.931 2.555l.013-.04-.021.034-.014.04.022-.034ZM33.127 2.573l.002.012.005-.006.044-.056-.003-.002a.07.07 0 0 0 .003.002l.005-.007-.013.001-.043.056ZM33.037 2.696l.012-.007a.284.284 0 0 0 .005-.007h-.013l-.004.014ZM33.037 2.696c-.008.005-.006.004 0 0ZM33.036 2.697c-.002.007-.002.005 0 0ZM17.071 5.046h-.016l.009.018.007-.018ZM22.586 4.392c.002-.005.002-.006 0 0ZM22.585 4.393l-.012.008a.419.419 0 0 0 .004.019l.004-.013.004-.014ZM22.585 4.393c.006-.003.009-.005 0 0ZM22.586 4.392v.001-.001ZM17.03 5.163v-.018l-.015.01.016.008ZM32.602 3.095l.043-.055.011-.043-.019.037-.044.054-.042.056-.043.055-.042.056-.044.055-.044.056-.005.007.013-.001.045-.056.043-.055.042-.056.044-.054-.006-.005.006.005.042-.056ZM20.85 4.75h-.018l.01.016.007-.017ZM22.546 4.51a.49.49 0 0 0 .004-.01l-.012.005-.044.056.002.01.006-.005.044-.055ZM16.975 5.29l.01-.043-.018.036-.045.056.002.008.006-.003.045-.055ZM30.419 3.722l-.044.054-.043.056-.013.042.021-.037.043-.055.044-.055.041-.056.005-.009-.012.004-.042.056ZM32.22 3.578c.004-.003.005-.004 0 0 0-.005.001-.008 0 0ZM32.442 3.594v-.017l-.015.009.015.008ZM30.151 4.078h-.016l.008.017.008-.017ZM31.83 3.923l.024-.035.012-.041-.02.035-.015.04ZM31.734 3.964l-.024.034-.012.044.02-.038.016-.04ZM16.486 6.147c.015-.018.03-.036.043-.055l.003-.013-.01.008-.043.054-.044.056a.495.495 0 0 0 .008.006l.043-.056ZM21.965 5.43l.001-.006h-.008l-.044.056.002.01.005-.004.044-.057ZM21.75 5.706l.001-.005a.94.94 0 0 0-.008 0l-.043.056v.012l.007-.007.043-.056ZM31.686 4.43h.017l-.009-.016-.008.017ZM31.611 4.553l.013-.016-.014-.015c-.005.006-.013.011-.012.016 0 .005.009.01.013.015ZM31.198 4.663v.011l.006-.006.043-.056v-.004h-.006l-.043.055ZM31.026 4.884l-.005.007.012-.002.042-.056.005-.006-.01.002-.044.055ZM30.898 5.05l-.043.055-.042.056-.008.012.013-.008.043-.055.043-.056.043-.055-.001-.01-.004.006-.044.055ZM19.19 6.697l-.02.035-.045.056-.035.104-.005.015.014-.009.034-.104a21.7 21.7 0 0 0 .045-.055l-.005-.004a.978.978 0 0 1 .005.004l.011-.042ZM19.085 6.907c-.002.008-.001.006 0 0ZM18.938 7.153c.004-.003.006-.004 0 0Z" fill="#222"/><path d="M18.938 7.153a4.648 4.648 0 0 0-.013.01l.003.02.005-.014a.836.836 0 0 1 .005-.016ZM18.768 7.481l-.044.055.006.003-.006-.003-.01.043.018-.038.044-.054.043-.055-.002-.01-.006.004-.043.055ZM20.89 7.16l-.001-.008c-.002 0-.003.002-.005.003l-.043.055v.01l.006-.005.043-.056ZM18.657 7.688a2.286 2.286 0 0 1-.012.008l.002.009.006-.003.004-.014ZM18.658 7.687c.002-.006.002-.007 0 0ZM20.59 7.59l-.044.055a.24.24 0 0 0 .004.02l.005-.013c.014-.02.029-.038.044-.056l.042-.056v-.013a2.978 2.978 0 0 0-.008.007l-.042.056ZM29.93 6.343c0 .004.008.009.012.013.005-.005.013-.01.012-.014 0-.004-.008-.008-.012-.013-.005.005-.012.01-.012.014ZM18.523 7.91l.001.012.006-.007.044-.055-.002-.008-.005.003-.044.055ZM20.468 7.804l-.013.043.02-.037.044-.055.004-.01-.011.004-.044.055ZM29.706 6.602a487054855065.964 487054855065.964 0 0 0 .086-.111l-.007-.005.007.005.044-.055.014-.04-.023.034-.044.055-.042.055-.043.056-.043.056-.004.005h.011l.044-.055ZM30.002 6.618l-.032.042.038-.004-.006-.038ZM29.829 6.87l.008.013.006-.005v-.003a6.399 6.399 0 0 0-.014-.004ZM27.45 7.863l-.014-.013v.027l.014-.014ZM14.29 9.933l.038.023.006-.007-.044-.016ZM17.287 9.64l-.016-.009v.017l.016-.008ZM17.075 9.916l-.014-.014.001.029.013-.015ZM27.733 9.536l-.043.056-.008.009.012-.006.043-.056.043-.055c0-.003 0-.006.002-.009a.31.31 0 0 0-.006.006l-.043.055ZM27.432 9.922l-.043.055-.042.056.006.005.042-.056.043-.055.004-.017-.01.012Z" fill="#222"/><path d="m27.267 10.148.043-.055.043-.055-.006-.005a11.63 11.63 0 0 1-.044.055l-.041.056-.044.055c0 .002-.002.003-.003.005h.009c.014-.02.029-.038.043-.056ZM27.09 10.364l-.045.055.002.012.005-.007.044-.055-.003-.002.003.002.043-.055-.002-.01-.004.005-.044.055ZM26.662 10.917l-.044.055-.044.055-.003.006h.01l.044-.056.043-.055.042-.056-.002-.01-.004.006-.042.055ZM26.069 11.74l-.044.054-.042.055-.044.055-.043.055-.012.044.02-.038-.006-.004a.386.386 0 0 0 .006.004l.043-.055.044-.055.042-.055.043-.056.043-.054-.003-.01-.004.004-.043.055ZM9.82 23.865c.043-.035.08-.054.102-.085.41-.59.885-1.137 1.247-1.776l-.149-.1c-.433.63-.897 1.218-1.32 1.835l.12.126ZM12.112 18.64c-.02.025-.042.05-.06.077-.206.284-.404.574-.616.853-.299.393-.612.776-.91 1.17-.063.083-.137.174-.131.292.077-.089.158-.174.228-.268.167-.223.322-.454.493-.674.265-.341.54-.675.81-1.013.052-.064.105-.127.152-.194.066-.093.122-.193.19-.284.213-.282.429-.563.644-.843.063-.082.12-.165.112-.273-.074.1-.145.203-.223.3-.228.287-.46.571-.689.857ZM13.024 17.483l.008-.01v-.012l-.008.007v.015ZM10.457 21.223a3.057 3.057 0 0 1-.49.607c-.3.295-.522.644-.78.97-.068.086-.135.175-.123.294.084-.104.17-.205.25-.311.178-.234.344-.477.53-.704.18-.22.378-.427.567-.64a.326.326 0 0 0 .095-.254c-.018.011-.039.021-.049.038ZM11.038 20.45c-.113.138-.233.271-.343.412-.027.036-.034.087-.047.133.103-.105.21-.207.306-.317a4.29 4.29 0 0 0 .256-.327c.1-.138.19-.283.29-.42.094-.13.198-.254.291-.386.023-.031.025-.076.034-.117-.264.28-.496.584-.712.9-.027.04-.045.085-.075.122ZM9.5 22.86c.227-.314.471-.615.707-.922.016-.021.025-.049.035-.074-.038.02-.082.037-.108.068-.318.363-.59.76-.884 1.14-.02.026-.018.067-.023.102.127-.074.19-.2.273-.314ZM13.823 20.118c.023-.045.028-.1.041-.15-.09.092-.151.193-.208.297-.198.357-.403.708-.694 1.002-.016.016-.011.052-.014.082.04-.021.086-.035.113-.066.312-.351.543-.755.762-1.165ZM12.421 18.58c-.15.252-.325.482-.527.693-.017.018-.013.054-.016.084.022-.005.05-.005.063-.018.184-.174.335-.379.462-.592.085-.142.176-.271.287-.391.022-.023.026-.063.036-.097-.16.052-.232.198-.305.321ZM7.75 25.386c.181-.224.357-.452.53-.682.019-.024.016-.064.02-.1-.033.03-.068.058-.094.092-.142.182-.28.367-.422.548-.067.086-.142.167-.213.25a.317.317 0 0 0 .18-.108ZM8.218 24.368l.01-.01v-.011l-.009.006-.001.015ZM7.887 24.75c-.033.062-.093.11-.137.165-.057.071-.11.144-.165.216.092-.01.153-.072.206-.137.139-.173.274-.349.405-.527.019-.025.017-.064.022-.099-.122.118-.25.229-.331.382ZM8.956 23.27c-.152.207-.265.444-.466.616-.016.014-.01.05-.012.08.254-.174.383-.445.547-.689.01-.014 0-.04-.003-.062-.023.018-.05.032-.066.054Z" fill="#222"/><path d="M9.022 23.215c.002 0 .004-.002.006-.004a.344.344 0 0 0-.003-.017 1.357 1.357 0 0 1-.004.012l.001.01ZM14.476 18.979c-.027.021-.06.04-.075.069a2.882 2.882 0 0 1-.315.532c-.014.018-.007.054-.007.084.015 0 .032 0 .04-.007.174-.197.302-.42.357-.678ZM10.054 21.479c.032-.02.071-.035.093-.063.089-.114.23-.198.24-.362-.11.113-.22.225-.325.342-.015.017-.008.053-.008.083ZM10.387 21.054l.008-.009v-.013a.278.278 0 0 0-.007.008l-.001.014ZM11.649 24.458l.005-.007-.148.416c-.092.046-.078.13-.075.21-.069.033-.082.095-.08.164.074-.034.091-.095.086-.167l-.003.001.074-.206c.118-.116.148-.262.147-.42.129-.17.228-.351.224-.573.096-.103.166-.217.151-.366.078-.052.13-.118.122-.219-.076.056-.133.122-.127.224-.07.114-.15.224-.152.367l.003-.003c-.084.19-.196.369-.227.579ZM10.593 21.347l.278-.357c-.145.08-.258.184-.278.357ZM10.593 21.347l-.011.015-.006.015.014-.009c0-.007.002-.014.003-.02ZM11.193 20.662c.002-.004 0-.01-.003-.016a.683.683 0 0 0-.299.326c.147-.059.223-.186.302-.31ZM10.891 20.972l-.01.004-.01.014.016-.01.004-.008ZM8.228 24.347c.103-.079.19-.168.197-.305-.087.088-.196.163-.197.305ZM7.006 26.209c-.118.036-.214.099-.256.221a.426.426 0 0 0 .256-.221ZM6.75 26.43l-.009.004c0 .003-.003.006-.004.009l.01-.005.003-.008ZM11.647 19.99c-.115.027-.16.12-.204.215.117-.026.164-.117.204-.215ZM12.752 18.461l-.155.203c.103-.03.165-.09.155-.203ZM6.697 26.653l-.023.037v.011l.008-.005.015-.043ZM6.553 26.905l-.006.008.014-.002-.008-.006c.04-.07.137-.105.122-.204-.067.045-.151.073-.171.166l-.008-.005.002.012.006-.007.05.038ZM10.04 21.492l.014-.003v-.01l-.008.004-.007.01ZM9.882 21.695l.157-.203c-.11.024-.16.093-.157.203ZM14.03 19.73c-.077.04-.124.098-.114.219.067-.081.133-.13.113-.22ZM14.644 18.707c-.075.046-.132.102-.116.2.078-.046.126-.107.116-.2ZM12.859 21.465l-.005-.003.002.01.005-.005a.269.269 0 0 0 .005-.006h-.012l.005.005Z" fill="#222"/><path d="M12.748 21.681c.06-.074.129-.122.108-.21-.069.046-.128.096-.108.21ZM11.701 19.918l.116-.15c-.089.011-.126.062-.116.15ZM12.014 19.514l.095-.176c-.086.043-.087.05-.095.176ZM14.268 16.277l.008-.01-.004-.002.004.002.002-.018-.01.013v.015ZM14.268 16.277l-.114.148c.086-.013.12-.066.114-.148ZM9.766 21.89l.101-.174c-.085.042-.086.049-.101.174ZM9.867 21.716l.015-.007v-.014a.639.639 0 0 0-.015.021ZM12.19 23.245a.159.159 0 0 0 .085-.164c.072-.055.13-.119.121-.219-.075.055-.129.12-.127.218-.067.035-.088.093-.08.165ZM7.176 25.886l.044-.055.043-.055.043-.055.005-.008-.013.002a23.45 23.45 0 0 0-.043.055l-.043.055-.043.056-.043.055-.005.012.013-.006.042-.056ZM7.405 25.578l-.094.135c.057-.006.1-.03.094-.135ZM12.601 21.853l.058.021.039-.112a2.787 2.787 0 0 1-.03-.014l-.067.105ZM12.538 21.994l-.013.008c0 .003 0 .006.002.009l.006-.003.005-.014Z" fill="#222"/><path d="M12.527 22.01c-.067.03-.083.082-.074.147.064-.03.088-.079.074-.146ZM7.386 25.357l.045-.1c-.048.008-.1.011-.045.1ZM11.214 25.706l.035-.162c-.082.04-.027.107-.035.162ZM12.947 21.357l-.003-.003.003.003.001-.008-.007.003.002.01.005-.005Z" fill="#222"/><path d="m12.943 21.362-.077.1c.064-.004.09-.037.077-.1ZM10.63 21.015l.012-.001c.003-.006.004-.012.006-.019l-.013.013-.005.007ZM10.555 21.112l.075-.097c-.063.004-.087.037-.075.097ZM8.417 24.395l-.062.07.039.018.023-.088ZM8.425 24.378l.005.003.043-.055.045-.055.035-.103.043-.055.042-.056.044-.055.012-.041-.02.035-.045.054-.042.056-.042.056-.036.103-.043.056c-.015.018-.03.036-.043.055a3.037 3.037 0 0 1-.006.02l.013-.015-.005-.003ZM12.905 18.226l-.055.109c.05-.005.09-.018.055-.11ZM12.84 18.35l-.075.096c.062-.004.085-.037.075-.096ZM12.76 18.453l.005-.007h-.013l.004.004-.004-.003v.014l.007-.008ZM12.846 18.341l.004-.006h-.012l.002.015.007-.008ZM9.025 23.194l.029-.083c-.042.016-.036.05-.03.083ZM9.054 23.11l.01-.003v-.013l-.007.008a.598.598 0 0 0-.003.009ZM9.028 23.545a.737.737 0 0 1-.011.01l-.012.01.02-.005.003-.015ZM9.005 23.565l-.065.015.016.027.049-.042ZM8.839 23.834l-.067.016.017.028.05-.044ZM7.578 25.18l-.006-.037-.072.048.078-.01ZM7.572 25.143l.007-.004.006-.008-.015.002.002.01ZM6.341 27.125l.072-.047c-.033.003-.065.006-.072.047ZM13.437 17.433l.003.067.03-.058-.033-.009ZM12.184 19.273l-.049.047.068-.019a4.562 4.562 0 0 0-.019-.028ZM12.135 19.32a4.831 4.831 0 0 0-.019.005.833.833 0 0 1-.007.013l.015-.008.011-.01ZM11.985 19.572l-.008-.019-.053.02.008.02.053-.02ZM7.54 25.285l-.04.056-.044.055-.006.015.014-.01.042-.054.043-.056.042-.055v-.008l-.007.003a29.27 29.27 0 0 0-.043.054ZM12.434 22.203l.02-.037-.002-.001.002.002v-.01c-.003 0-.005.002-.008.003l.004.003-.004-.003-.012.043ZM12.538 21.994c.005-.003.007-.005 0 0ZM12.538 21.994c.002-.006.003-.009 0 0ZM7.45 25.41c-.003.008-.002.006 0 0ZM10.295 21.803l.043-.055.043-.055.043-.054.005-.014a.798.798 0 0 0-.013.008l-.043.055-.042.055-.042.056-.043.055-.004.01.01-.006.043-.055ZM7.507 25.556l-.01.016h.02l-.01-.016ZM10.428 21.625c.006-.004.008-.006 0 0ZM10.428 21.625c.002-.007.003-.01 0 0ZM10.576 21.377c-.005.004-.004.003 0 0-.003.007-.002.006 0 0ZM7.797 25.578l.017.008v-.017l-.017.009ZM10.506 21.174v.01c.003 0 .005-.002.008-.004l.044-.055-.003-.013-.005.007-.044.055ZM11.12 25.245h.016l-.008-.017-.007.017ZM8.314 24.583c.005-.004.008-.005 0 0 .002-.007.003-.01 0 0l-.013.008-.001.014.009-.009.005-.013ZM11.2 20.631a.633.633 0 0 0-.012.007l.002.008c.002 0 .003-.002.005-.003l.004-.012ZM11.2 20.631c.002-.007.003-.01 0 0ZM11.2 20.631c.006-.003.009-.005 0 0ZM11.34 20.334ZM11.395 20.27l.044-.056.004-.009c-.004.001-.007.003-.012.003l-.043.056-.043.055a1.066 1.066 0 0 0-.005.015 1.34 1.34 0 0 0 .013-.009l.042-.056ZM7.121 25.948c-.004.01-.003.007 0 0ZM7.264 26.01a1.59 1.59 0 0 1 .013-.014 1.23 1.23 0 0 0-.013-.011v.024ZM14.08 19.67l-.001-.006h-.007l-.044.056.001.01.006-.004.044-.056ZM11.659 19.987l.044-.056-.004-.003.004.003-.002-.013-.006.008-.044.055a.248.248 0 0 1-.004.01l.012-.004ZM11.835 19.752l-.012.009-.006.007.014-.002a.764.764 0 0 0 .004-.014ZM11.835 19.752v-.002.002c.008-.005.005-.004 0 0ZM8.426 24.027l-.001.015.008-.009.045-.055v-.012l-.008.006-.044.055ZM7.062 26.15l.014-.04-.022.034-.043.056-.005.009.012-.004.044-.055ZM7.444 26.123l-.017-.007v.016l.017-.009ZM6.868 26.617a.939.939 0 0 1 .005.004l.043-.055.043-.055.043-.055.043-.056.043-.055.043-.055.042-.056h-.001.001l.014-.04-.022.034.006.005-.006-.005-.042.056-.043.055-.043.056a204.62 204.62 0 0 0-.171.22l-.005.013a1.99 1.99 0 0 0 .012-.007l-.005-.004ZM8.86 23.83l.042-.056h-.001.001l.014-.042-.022.037-.043.054-.012.011.02-.005ZM11.828 19.413l-.003.015.009-.01.043-.056v-.005h-.006l-.043.056ZM14.53 18.916c-.001-.004 0-.006-.002-.01l-.006.004-.043.056-.003.012.01-.007.044-.055ZM14.657 18.685v.002-.002ZM14.657 18.687c.004-.003.005-.004 0 0ZM14.657 18.687l-.014.01.001.01.008-.005.005-.015ZM12.437 18.903l-.021.035-.014.042.022-.036.013-.041ZM12.544 18.728l.002.001.043-.055.008-.01-.015.004h.001l-.045.056-.014.041.022-.036-.002-.001ZM13.084 18.03h-.015l.008.017.007-.016ZM13.218 17.854c-.005.003-.004.002 0 0-.003.006-.002.005 0 0ZM13.267 17.741l.042-.055-.008-.007-.042.056.001.001h-.001l-.035.102-.006.016.014-.01.035-.103ZM13.352 17.63l.044-.054.044-.056v-.02l-.008.014-.044.056.003.002-.003-.002-.044.054-.043.055.008.007.043-.056ZM15.498 17.151a.829.829 0 0 0 .006-.015 3.414 3.414 0 0 1-.014.01 6.34 6.34 0 0 1-.01.04l.018-.035ZM9.246 23.512v-.015l-.015.008.015.007ZM15.504 17.136c.002-.005.002-.007 0 0ZM15.504 17.136c.003-.002.005-.003 0 0ZM9.028 23.545c.002-.006.002-.009 0 0ZM9.028 23.545c.006-.004.008-.006 0 0ZM13.584 17.266l-.017.01.017.008v-.018ZM6.86 26.628c-.008.005-.006.004 0 0ZM6.86 26.628ZM13.762 17.04c-.002.006-.002.004 0 0ZM13.77 17.026l.005.004.043-.055-.004-.003-.005-.003-.042.055-.005.015.013-.01-.006-.003ZM13.828 16.932l-.018.037.008.006.01-.043ZM14.135 16.443l.012-.01.007-.008-.015.002a.844.844 0 0 1-.004.016ZM14.135 16.443c-.001.007 0 .005 0 0ZM9.123 23.358l-.007.018h.015l-.008-.018ZM6.472 26.9l.03.008-.004-.034-.026.026ZM6.504 26.918l.005-.008c-.002 0-.004 0-.007-.002l.002.01ZM6.399 26.95l-.038-.021a.777.777 0 0 1-.007.007v.002l.045.012ZM6.475 27.021l.043-.055-.002-.014-.006.008.003.002-.003-.002-.042.055-.044.056-.011.007.019-.001.043-.056Z" fill="#222"/><path d="M6.504 26.918h.007l-.002-.008-.005.008Z" fill="#222"/><path d="m6.51 26.918.006.035.031-.04-.036.005ZM16.296 15.714c-.002.007-.002.005 0 0ZM16.296 15.714c-.006.004-.005.003 0 0ZM9.41 23.242v-.016l-.015.008.015.008ZM9.214 23.192a.12.12 0 0 0-.004.003l.004-.003ZM9.214 23.192c-.003.011-.002.008 0 0ZM9.224 23.184h.001l.002-.01-.009.006a1.731 1.731 0 0 0-.004.012.83.83 0 0 1 .01-.008ZM16.3 15.697l-.004.017.012-.01.044-.056.009-.015-.017.01-.044.054ZM6.254 27.248l.043-.055.043-.055.001-.013a.538.538 0 0 1-.01.007l-.041.056-.044.054-.042.056-.004.013.01-.008.044-.055ZM7.434 25.25l.004.003-.004-.003-.003.007.011-.001.045-.056a.901.901 0 0 1 .013-.01l-.022.004-.044.056ZM7.62 25.213a6.265 6.265 0 0 0-.034-.021l.004.036.03-.015ZM7.586 25.192l-.001-.012h-.007v.007l.008.005ZM16.09 15.291c-.003.01-.002.007 0 0l-.003.002.004-.002ZM16.09 15.291l.013-.007.003-.009-.01.003a.684.684 0 0 0-.005.013ZM15.24 15.303l.01-.007-.003-.003.003.003-.001-.005h-.006l-.004.012ZM15.24 15.303l-.004.002.003-.002ZM15.239 15.304c-.003.008-.002.006 0 0ZM9.712 22.906l.023-.035.044-.056-.006-.005.006.005.042-.054.042-.056.043-.056.044-.054-.003-.002.003.002.012-.042-.02.036-.044.055-.043.055-.042.056-.042.054-.044.056.005.003-.005-.003-.015.04ZM6.2 27.31c-.004.011-.003.008 0 0ZM10.592 27.15l-.028-.205-.015.002.027.205.016-.003ZM4.58 29.466l-.24.309c.176-.043.214-.091.24-.31ZM4.34 29.775l-.014.004.003.01.004-.006.007-.008ZM4.48 29.368l.005-.01c-.005 0-.009.003-.014.004l-.043.056s.002 0 .003.002l-.003-.003-.002.017.009-.011.044-.055ZM4.73 29.088c-.143.034-.185.16-.245.27.134-.043.187-.159.245-.27ZM4.018 30.872c-.122.116-.124.12-.194.293.103-.1.204-.161.194-.293ZM4.426 29.434l-.197.255c.128-.038.189-.127.197-.255ZM4.229 29.689l-.015.005.001.007.006-.002.008-.01ZM4.657 29.647c-.08.068-.165.132-.156.252.082-.066.16-.135.156-.252ZM4.501 29.9l-.007.005a5.802 5.802 0 0 1-.01.012l.017-.006V29.9ZM5.347 28.413c-.08.044-.11.123-.142.2.083-.044.157-.094.142-.2ZM4.335 30.433c-.066.055-.158.094-.138.204.082-.044.117-.12.138-.204ZM4.197 30.637l-.006.004v.007l.007-.002-.001-.009ZM4.192 30.648c-.107.027-.122.047-.123.156.093-.012.136-.062.123-.156ZM4.74 29.079h-.006l-.004.009.012-.003c-.001-.002 0-.004-.002-.006ZM4.87 28.899c-.067.076-.156.088-.13.18.094-.004.122-.06.13-.18ZM2.837 32.105c.087-.04.084-.13.113-.202-.12.02-.117.111-.113.202ZM2.95 31.903l.01-.002.005-.022-.012.016-.003.008Z" fill="#222"/><path d="M4.215 29.7c-.102.026-.121.05-.123.155.06-.038.147-.054.123-.154ZM4.092 29.855l-.007.005-.001.01.008-.006v-.009ZM5.407 28.3l-.05.102c.051-.006.106-.01.05-.102ZM5.357 28.402l-.01.001v.01l.007-.004.003-.007ZM4.329 29.79l-.077.098c.067 0 .091-.035.077-.098ZM3.591 31.482l-.065.07.042.018.023-.088ZM5.745 27.29l-.032-.001.018.057.014-.055ZM5.693 27.57h.001l.004-.014-.012.008v.022l.008-.015v-.001ZM5.686 27.586l-.029.06.03.01v-.07ZM5.54 27.92l.026-.08c-.036.017-.033.048-.027.08ZM5.092 28.79l-.077.011.053.035.024-.045ZM4.696 29.342l-.051.045.07-.015-.019-.03ZM4.829 29.435l-.031.056.033.01-.002-.066ZM4.483 29.917l-.067.02.02.03.047-.05ZM5.698 27.556c.002-.006.002-.009 0 0 .005-.004.007-.005 0 0ZM5.623 27.779l.01-.043-.018.036-.045.056c0 .004-.002.008-.004.011l.013-.005.044-.055ZM5.498 27.992l.045-.055s-.002 0-.003-.002l.003.002-.004-.017-.004.012-.042.056-.042.055-.007.009.01-.005.044-.055ZM5.004 28.797l-.005.007.016-.003-.01-.006-.016-.005.01.014.005-.007ZM4.988 28.79h.001c-.003-.004-.002-.003 0 0ZM5.147 28.733l.003-.012c.007-.005.01-.007 0 0l-.01.007-.044.055-.004.008a.449.449 0 0 0 .011-.002l.044-.056ZM4.92 29.122l-.014.033.034-.005-.02-.028ZM4.945 29.157l.014-.001-.007-.008-.012.002.005.007ZM5.002 29.15l.015-.043-.023.037-.002.007a.32.32 0 0 1 .01 0Z" fill="#222"/><path d="m4.992 29.151-.033.005.026.026.007-.03ZM4.86 29.218l.043-.055.003-.008a.436.436 0 0 1-.01.002l-.043.055.003.003-.003-.003-.043.056-.005.012.013-.007.042-.055ZM4.805 29.28c-.003.01-.002.008 0 0ZM4.805 29.28c-.009.006-.006.004 0 0ZM4.634 29.397a.972.972 0 0 1 .011-.01l-.02.004-.043.056-.002.019.01-.013.044-.056ZM4.843 29.405c.003-.002.004-.003 0 0ZM4.843 29.405c.001-.005.002-.007 0 0ZM4.843 29.405a.872.872 0 0 1-.015.01l.001.02a4.95 4.95 0 0 0 .008-.014l.006-.016ZM4.708 29.585l.015-.043-.022.038-.044.055v.012l.007-.006.044-.056ZM4.247 29.894l.005-.006H4.24l-.044.056-.002.012.01-.007.043-.055ZM4.277 30.078a.595.595 0 0 0-.01.007v.005h.006l.004-.012ZM4.587 30.117l.017.008v-.017l-.017.01ZM4.467 30.249l.008-.018h-.018l.01.018ZM3.98 30.645c0-.004-.01-.008-.017-.015l.004.03c.005-.005.012-.01.013-.015ZM4.07 30.811h-.002.001v-.007l-.008.001-.043.056v.011l.007-.006.044-.055ZM3.717 31.367l-.016.009.017.008-.001-.017ZM3.377 31.484l.012-.014-.014-.014c-.004.005-.012.01-.012.015 0 .005.009.009.014.013ZM3.609 31.455c.002-.006.003-.01 0 0ZM3.609 31.455c.006-.003.008-.005 0 0ZM3.609 31.455l-.013.008-.005.019.013-.014.005-.013ZM3.44 31.738l.005-.016c.004-.003.005-.004 0 0 .002-.006.002-.008 0 0l-.013.01-.004.014c-.008.006-.006.004 0 0l.012-.008ZM3.428 31.747c-.002.007-.002.005 0 0ZM3.371 31.873l.016-.008-.016-.008v.017ZM2.786 32.164l-.035.104a2.507 2.507 0 0 1-.005.015l.013-.01.034-.103.045-.055v-.01l-.008.004-.044.055ZM2.746 32.283c-.002.008-.002.006 0 0-.004.003-.005.004 0 0ZM2.648 32.52c.001-.004.002-.006 0 0ZM2.63 32.547c-.001.006 0 .005 0 0ZM2.648 32.521l-.013.01.002.002-.002-.002a1.795 1.795 0 0 0-.004.016l.012-.01.005-.016ZM2.63 32.547c-.004.003-.003.002 0 0ZM5.768 26.95l-.012.01-.002.015.01-.01.004-.014ZM16.808 19.852l-.044.056-.012.04.02-.034.045-.056.035-.103.005-.017a4.747 4.747 0 0 1-.014.01l-.035.104ZM16.373 20.517c-.004.005-.012.01-.011.015 0 .005.007.01.011.014.005-.005.012-.01.012-.015 0-.004-.008-.009-.012-.014ZM16.466 20.358c-.002.01-.001.007 0 0ZM16.466 20.358c-.005.005-.004.003 0 0ZM16.55 20.184l-.035.104-.044.055-.005.015.013-.009.044-.055.035-.103.044-.055.005-.017-.014.01-.043.055ZM16.857 19.738c.003-.002.004-.003 0 0ZM16.857 19.738c.001-.004.002-.005 0 0ZM17.06 19.354h.016l-.008-.019-.008.019ZM17.12 19.231c-.003.009-.002.006 0 0ZM17.12 19.231a.829.829 0 0 0 .012-.01l.01-.04-.018.035-.005.015ZM17.239 18.952l-.036.103-.004.016.013-.01.035-.103.044-.056v-.016l-.008.01c-.014.02-.03.037-.044.056ZM17.955 13.146l.016.007.017-.003-.011-.005h-.022Z" fill="#222"/><path d="m17.887 13.148.068-.002-.06-.028-.008.03ZM14.786 11.948l-.038-.018h-.005v.006l.043.012ZM15.893 13.416l.005.008h.011l-.007-.007-.009-.001ZM15.75 13.387l.143.029c-.028-.059-.074-.076-.143-.03ZM14.602 12.603l-.016-.007-.007-.001.002.01.021-.002ZM14.673 12.597l-.07.006.063.026.007-.032ZM14.807 12.652c-.01.003-.007.002 0 0ZM14.802 12.643l.011.002-.01-.002ZM14.677 12.792a.65.65 0 0 1-.015-.007l-.009-.001.004.008h.02ZM14.75 12.789c-.025 0-.049.002-.073.003l.064.03.009-.033ZM14.647 12.944a.484.484 0 0 1-.015-.006l-.019-.003.014.01h.02ZM14.717 12.942l-.07.002.062.028.008-.03ZM14.917 13.013l-.007.025h.063l-.056-.025ZM15.009 13.051a1.509 1.509 0 0 0-.011-.013h-.025l.018.008.018.005ZM16.056 13.354l.084.029c-.017-.042-.05-.036-.084-.029ZM16.14 13.383l.004.01.015-.002-.01-.006-.009-.002ZM16.355 13.348l.07-.002-.061-.03-.009.032ZM15.009 13.051c.004.001.005.002 0 0ZM15.451 13.204h-.017l.01.014.007-.014ZM16.3 13.19l-.015.006.016.006v-.013ZM15.972 13.301c-.007-.002-.005-.002 0 0ZM16.465 13.237c-.006-.002-.005-.001 0 0ZM15.988 13.306l-.016-.005.01.013.056.044a.447.447 0 0 0 .018-.004.599.599 0 0 1-.012-.004l-.056-.044ZM16.482 13.24c-.007 0-.014-.002-.017-.003l.01.013.056.043.01-.001-.004-.006a21.76 21.76 0 0 1-.055-.045ZM16.446 13.345l-.02.001.014.007.056.043.009-.002-.005-.004-.054-.045ZM9.709 20.145c-.11.032-.158.121-.203.214.118-.023.16-.12.203-.214ZM11.075 18.566l.084-.01-.012-.084-.072.094ZM10.213 19.574l.077-.01-.005-.04a31.18 31.18 0 0 0-.072.05ZM10.297 19.563h-.007v.008l.007-.001v-.007ZM10.285 19.524l.006-.004-.003-.003.003.003-.007-.006.001.01ZM9.157 20.81l-.005-.003a.273.273 0 0 0 .005.004l.043-.056.043-.055.043-.055.043-.055.043-.055.043-.056.042-.055.044-.056.005-.009c-.005 0-.008.002-.013.003l.003.002c-.002 0-.003-.002-.003-.002a27.5 27.5 0 0 1-.044.056l-.041.056.002.002-.002-.002a102.732 102.732 0 0 1-.13.166h.002-.001l-.043.055-.043.055-.043.055-.043.055a1.422 1.422 0 0 0-.003.012l.01-.006.043-.055ZM9.72 20.141c.015-.018.03-.037.043-.056l.044-.054h-.001l.016-.043-.022.038-.044.054-.043.056-.004.009.012-.004ZM10.342 19.564l.006-.001-.007-.006v.007ZM10.192 19.576l-.043.056-.043.055-.017.041.025-.035.042-.056.044-.055.013-.008-.02.002ZM10.811 18.906l.043-.055.004-.013-.01.008-.043.055-.044.055.002.01.005-.005.043-.055ZM10.858 18.838c.006-.004.01-.006 0 0ZM10.858 18.838c.002-.007.003-.01 0 0ZM10.958 18.698l-.009.017h.018l-.01-.017ZM11.06 18.568l-.011.044a12.811 12.811 0 0 1 .026-.046l-.014.002ZM11.153 18.464l.044-.054.014-.043-.022.037-.043.054.001.014.006-.008ZM11.596 17.87l-.022.036-.012.041.02-.034.014-.043ZM11.702 17.74a5.13 5.13 0 0 1-.01.042 4.01 4.01 0 0 0 .018-.036l.044-.056a.372.372 0 0 1 .004-.007l-.012.001-.044.056ZM17.013 11.328c-.006-.002-.004-.002 0 0ZM17.04 11.345a1.249 1.249 0 0 0-.01-.013.865.865 0 0 0-.017-.004l.01.013.017.004ZM17.04 11.345c.005.002.006.002 0 0 .003.003.003.004 0 0ZM17.247 11.452l-.043-.01.037.018.057.043a.07.07 0 0 0 .01-.003.192.192 0 0 1-.006-.003l-.055-.045ZM30.765 34.088a4.216 4.216 0 0 0-.922-.569 4.607 4.607 0 0 0-1.038-.319c-.714-.136-1.442-.135-2.158-.135-.36 0-.72.005-1.08.018-.36.012-.719.036-1.077.061-.36.025-.718.055-1.076.09l-.537.056c-.177.022-.354.04-.534.057l-.783.077a4.596 4.596 0 0 0-.426-.754c-.482-.692-1.12-1.257-1.808-1.734-.32-.22-.654-.423-.994-.611a28.526 28.526 0 0 1 3.71-1.2l-.09-.393-.008.002-.003.001c-.937.21-1.842.476-2.747.76l-.68.216-.674.231-.149.051c-.187-.09-.376-.175-.568-.256a11.06 11.06 0 0 0-2.4-.724c.821.162 1.618.431 2.378.773.169.076.335.155.5.237-.37.128-.736.266-1.103.4-.448.16-.888.34-1.33.511-.22.089-.443.172-.661.264l-.657.276c-.437.185-.875.368-1.306.568-.14.064-.28.128-.42.19l-.002.002c-1.5.524-11.861 6.1-11.861 6.1s.068.159.266.312c.045.034.096.069.155.1.192.105.462.183.833.17 0 0 5.529-2.025 8.965-2.928-.152.402-.261.826-.27 1.267a2.25 2.25 0 0 0 .334 1.275c.066.093.126.187.204.268.039.04.074.086.115.122l.125.111c.041.04.084.072.13.103l.13.095c.045.031.088.064.133.094l.14.082c.371.223.777.39 1.194.494a6.18 6.18 0 0 0 1.272.186c.855.03 1.704-.08 2.527-.28a9.36 9.36 0 0 0 2.371-.892c.74-.409 1.425-.93 1.978-1.574.275-.322.512-.679.691-1.064.177-.387.294-.803.32-1.227a3.295 3.295 0 0 0-.165-1.256c-.018-.05-.038-.099-.058-.15l.717-.076c.177-.018.357-.038.536-.064l.532-.064a38.594 38.594 0 0 1 2.14-.184c.356-.018.714-.028 1.072-.035.717-.01 1.434-.024 2.135.1.35.059.693.155 1.018.295.325.139.632.323.91.54.272.221.522.483.658.805.068.16.104.332.103.505-.002.043-.002.086-.007.13l-.023.128a1.212 1.212 0 0 1-.075.25c-.069.16-.169.31-.308.417a.844.844 0 0 1-.489.172c-.044.005-.09-.004-.133-.005-.044-.005-.09-.004-.133-.017l-.13-.03-.064-.016-.064-.023-.125-.048a.877.877 0 0 1-.123-.054l-.238-.123.236.128c.039.023.08.04.122.057l.125.05.062.026c.021.006.044.01.065.017l.131.033c.044.015.09.015.134.02.045.002.09.011.135.008a.875.875 0 0 0 .51-.168c.147-.108.256-.261.33-.425.036-.083.067-.169.083-.258l.027-.133c.007-.044.007-.09.01-.135a1.306 1.306 0 0 0-.097-.532c-.137-.34-.392-.614-.668-.845Zm-14.53-2.789c.182-.095.363-.196.548-.29l.563-.26c.296-.136.594-.264.894-.386.354.2.698.417 1.029.652.673.483 1.292 1.05 1.751 1.731.148.22.275.452.38.693l-.13.013c-.357.04-.713.096-1.07.142-.714.089-1.42.224-2.13.338-.355.058-.706.133-1.06.199-.353.069-.706.132-1.059.207l-1.58.334-.526.119c-.7.159-1.402.317-2.098.488l-.567.138c.078-.108.157-.215.242-.318a11.99 11.99 0 0 1 1.728-1.743c.08-.066.155-.137.237-.199l.245-.188c.165-.124.323-.256.494-.372.343-.23.674-.477 1.033-.681l.53-.322c.18-.103.364-.196.546-.295Zm-6.58 4.498c-.696.174-1.39.362-2.084.544-.691.192-1.385.377-2.075.575-.91.257-1.817.52-2.723.79l.559-.347c.2-.124.4-.25.605-.366l1.222-.712.612-.355.62-.34 1.243-.678c.414-.224.838-.432 1.257-.649.835-.44 1.691-.835 2.54-1.245l.261-.12c.343-.156.687-.308 1.03-.463.428-.199.864-.377 1.299-.562l.652-.276c.217-.092.438-.175.656-.263.058-.022.115-.046.172-.069-.002.001-.005.002-.006.004l-.54.33c-.365.21-.704.463-1.053.699-.172.119-.335.255-.503.382l-.25.194c-.083.064-.161.135-.241.203a12.255 12.255 0 0 0-1.774 1.803 6.385 6.385 0 0 0-.376.519c-.025.04-.063.1-.083.145l-1.02.257Zm12.041-.763c-.03.402-.148.794-.32 1.159-.178.363-.41.7-.68 1.006-.537.614-1.205 1.114-1.928 1.505-.723.39-1.51.661-2.317.844a9.089 9.089 0 0 1-2.45.25 6.053 6.053 0 0 1-1.206-.189 4.127 4.127 0 0 1-1.11-.47l-.128-.079-.123-.087-.12-.09-.06-.044a1 1 0 0 1-.055-.049l-.107-.097c-.037-.032-.064-.071-.097-.106-.067-.07-.117-.15-.172-.229-.199-.323-.29-.707-.27-1.096.009-.388.112-.777.257-1.148.04-.098.08-.198.126-.294l.89-.225c.694-.179 1.391-.343 2.088-.508l.523-.124.525-.116 1.05-.233c.348-.078.701-.144 1.052-.216.35-.068.701-.146 1.054-.208.705-.121 1.408-.263 2.118-.357.354-.05.707-.109 1.063-.153l.193-.02c.023.06.046.12.067.18.118.386.173.793.137 1.194Z" fill="#222"/></svg>