<svg width="107" height="44" viewBox="0 0 107 44" fill="none" xmlns="http://www.w3.org/2000/svg">
<g clip-path="url(#clip0_1853_9447)">
<path d="M22.9048 19.7565L22.2152 23.0019C23.4079 22.9654 24.5194 22.9329 25.5215 22.9086L26.2111 19.6713C25.2213 19.6875 24.1056 19.72 22.9048 19.7565ZM33.5702 12.2433H27.0428C25.2943 12.2433 24.3653 12.868 23.9434 14.8721L23.1848 18.4583C24.3977 18.4218 25.5134 18.3934 26.491 18.369L26.9697 16.1256C27.1929 15.1236 27.4971 14.8761 28.4992 14.8761H32.1219C34.9738 14.8761 35.8501 16.1987 35.8501 18.2271C35.8501 19.0546 35.7 19.9755 35.4728 21.0019C34.7507 24.5029 33.5215 27.1277 29.5215 27.1277H25.8947C25.1198 27.1277 24.8196 26.9776 24.8196 26.4542C24.8196 26.3041 24.848 26.1013 24.8967 25.8782L25.2537 24.2108C24.2476 24.2392 23.1361 24.2717 21.9474 24.3082L21.347 27.1317C21.2943 27.4035 21.2456 27.6835 21.2456 27.9066C21.2456 29.1561 22.0732 29.7565 23.3186 29.7565H30.5478C36.2963 29.7565 37.9758 25.7565 38.8724 21.2534C39.0955 20.154 39.2497 19.0303 39.2497 17.9512C39.2497 14.8761 37.9758 12.2514 33.5742 12.2514L33.5702 12.2433Z" fill="#0080C6"/>
<path d="M43.6964 29.7484C40.5686 29.7484 39.4692 28.2961 39.4692 25.8458C39.4692 24.9695 39.6193 23.9715 39.8425 22.8437C40.9662 17.5942 42.9419 16.3407 47.4449 16.3407C50.6944 16.3407 53.1204 17.2656 53.1204 20.292C53.1204 20.7667 53.096 21.2656 52.9703 21.8417C52.6701 23.3427 51.8709 24.0932 50.3699 24.0932H42.666C42.5402 24.6693 42.4916 25.1683 42.4916 25.6186C42.4916 26.7707 42.9905 27.4928 44.7918 27.4928H51.2705L50.7958 29.7444H43.6924L43.6964 29.7484ZM49.2258 21.8458C49.8019 21.8458 50.0007 21.4441 50.0494 21.0709C50.0737 20.8721 50.098 20.6206 50.098 20.4462C50.098 19.0709 48.7715 18.5963 47.2218 18.5963C44.7228 18.5963 43.6193 19.5983 43.1447 21.8458H49.2218H49.2258Z" fill="#0080C6"/>
<path d="M52.3979 29.7484L56.1221 12.2433H59.047L55.3229 29.7484H52.3979ZM61.6758 29.7484L58.1992 24.9451C57.9476 24.5962 57.6231 24.0932 57.6231 23.4198C57.6231 22.4461 58.0247 21.793 58.974 20.8924L63.7002 16.4908H67.3513L61.2255 22.0932C60.8766 22.4177 60.5764 22.7666 60.5764 23.2169C60.5764 23.5658 60.7509 23.8903 60.9781 24.2189L65.1769 29.7443H61.6758V29.7484Z" fill="#0080C6"/>
<path d="M75.7812 16.4949C77.8583 16.4949 78.7832 17.8214 78.7832 19.4198C78.7832 19.7444 78.7589 20.0689 78.6818 20.3935L77.1565 27.4969C76.8319 28.9736 76.1828 29.7484 74.4303 29.7484H68.0043C66.1788 29.7484 65.2295 28.6734 65.2295 26.7991C65.2295 26.3732 65.2295 25.8742 65.3309 25.3752C65.8826 22.8762 67.0064 21.501 69.5094 21.501H75.5094L75.7082 20.649C75.7569 20.4259 75.7812 20.2231 75.7812 20.0486C75.7812 19.1967 75.2822 18.7464 74.2559 18.7464H67.7772L68.2518 16.4949H75.7772H75.7812ZM70.1544 23.7484C69.1524 23.7484 68.6534 24.2231 68.3532 25.5253C68.2802 25.8255 68.2275 26.1744 68.2275 26.4016C68.2275 27.1277 68.5763 27.501 69.3512 27.501H73.477C73.9759 27.501 74.3045 27.2494 74.4019 26.7505L75.0267 23.7484H70.1504H70.1544Z" fill="#0080C6"/>
<path d="M90.7304 27.4968C90.4058 29.0222 89.7567 29.7484 88.0042 29.7484H83.6269C80.3247 29.7484 79.0752 27.9999 79.0752 25.3467C79.0752 24.5719 79.201 23.7443 79.3754 22.8477C80.2273 18.5962 81.6999 16.4948 86.203 16.4948H90.1543L91.0549 12.2433H93.9799L90.7304 27.4968ZM86.4545 18.7463C83.6269 18.7463 82.9291 20.5962 82.4018 23.0993C82.2273 23.8985 82.1016 24.649 82.1016 25.2981C82.1016 26.649 82.6776 27.4968 84.5762 27.4968H87.0509C87.5498 27.4968 87.8784 27.2453 87.9758 26.7463L89.6756 18.7423H86.4505L86.4545 18.7463Z" fill="#0080C6"/>
<path d="M96.8849 29.7484C93.7571 29.7484 92.6577 28.2961 92.6577 25.8458C92.6577 24.9695 92.8078 23.9715 93.0309 22.8437C94.1547 17.5942 96.1303 16.3407 100.633 16.3407C103.883 16.3407 106.309 17.2656 106.309 20.292C106.309 20.7667 106.284 21.2656 106.159 21.8417C105.859 23.3427 105.059 24.0932 103.558 24.0932H95.8545C95.7287 24.6693 95.68 25.1683 95.68 25.6186C95.68 26.7707 96.179 27.4928 97.9802 27.4928H104.459L103.984 29.7444H96.8808L96.8849 29.7484ZM102.41 21.8458C102.986 21.8458 103.185 21.4441 103.234 21.0709C103.258 20.8721 103.282 20.6206 103.282 20.4462C103.282 19.0709 101.956 18.5963 100.406 18.5963C97.9072 18.5963 96.8038 19.5983 96.3291 21.8458H102.406H102.41Z" fill="#0080C6"/>
<path d="M19.786 5.71192C19.2221 7.78494 18.427 10.5152 17.6846 13.0547C17.0395 15.2576 16.3539 17.6064 15.6846 19.9716L19.0679 19.8701C19.6481 17.8458 20.2322 15.8498 20.7799 13.9594C21.7617 10.6044 22.4472 8.22308 22.9138 6.503C23.3235 3.61862 20.4432 5.12369 19.786 5.71192Z" fill="#231F20"/>
<path d="M19.786 5.71192C19.2221 7.78494 18.427 10.5152 17.6846 13.0547C17.0395 15.2576 16.3539 17.6064 15.6846 19.9716L19.0679 19.8701C19.6481 17.8458 20.2322 15.8498 20.7799 13.9594C21.7617 10.6044 22.4472 8.22308 22.9138 6.503C23.3235 3.61862 20.4432 5.12369 19.786 5.71192Z" fill="#0080C6"/>
<path d="M18.1469 23.1318L14.2321 25.2089C13.8061 26.7911 13.4045 28.3408 13.0435 29.8215H16.366C16.8974 27.6957 17.5059 25.4239 18.151 23.1318H18.1469Z" fill="#0080C6"/>
<path d="M18.1463 23.1318L14.2314 25.2089L14.2436 25.1562L14.7669 23.2251L18.1463 23.1318Z" fill="#005AA1"/>
<path d="M28.1181 24.9371L28.1587 22.8641C27.4163 22.8641 26.5279 22.8804 25.5299 22.9047C24.5279 22.929 23.4123 22.9615 22.2236 22.998C21.6232 23.0142 21.0066 23.0345 20.3697 23.0548C19.6394 23.0791 18.8971 23.1035 18.1506 23.1238L14.7713 23.2211C9.8504 23.3509 5.12424 23.4118 2.32505 23.1887C0.937624 23.0751 0.389957 22.2718 0.191174 21.8012C-0.425459 20.3692 0.604967 18.7952 1.69219 17.4442C4.36156 14.1339 9.87474 9.47264 12.9255 6.98988C21.0147 0.401643 21.7125 0.535517 22.3859 0.665334C22.8443 0.754584 23.25 1.03856 23.4975 1.44424C23.895 2.09738 23.9964 2.5274 22.9133 6.50712C23.323 3.62274 20.4427 5.12781 19.7855 5.71605C17.8585 7.15621 15.177 9.26574 12.3656 11.6511C7.20943 16.0325 4.73073 18.6897 3.74898 20.0487C6.71855 20.1826 11.25 20.1014 15.6841 19.9757L19.0674 19.8743H19.0958C19.4893 19.8621 19.8829 19.8499 20.2642 19.8378C21.177 19.8094 22.0654 19.781 22.9052 19.7566C24.11 19.7201 25.2216 19.6917 26.2114 19.6714C26.9538 19.6552 27.6273 19.643 28.2155 19.643L28.2561 17.5375L34.5928 21.3631L28.11 24.9371H28.1181Z" fill="#F47920"/>
</g>
<defs>
<clipPath id="clip0_1853_9447">
<rect width="106.312" height="44" fill="white"/>
</clipPath>
</defs>
</svg>
