<svg width="57" height="61" viewBox="0 0 57 61" fill="none" xmlns="http://www.w3.org/2000/svg">
<g clip-path="url(#clip0_2001_75)">
<path d="M15.7686 2.06737C23.1391 -1.57939 33.1352 -0.692931 37.6201 7.07323L37.8291 7.44823C38.1636 8.06886 38.6109 9.19877 38.9717 10.3066C39.1539 10.8662 39.3193 11.4354 39.4395 11.9482C39.5567 12.4485 39.6426 12.941 39.6426 13.3281V15.3926C40.2216 14.9813 40.8296 14.7708 41.4297 14.7715C42.0355 14.7723 42.5819 14.9885 43.0244 15.3398C43.8952 16.0315 44.3626 17.2325 44.2891 18.4736C44.225 19.5635 43.8284 20.4357 43.3848 21.1982C43.1674 21.5718 42.9252 21.9412 42.7109 22.2803C42.4907 22.6287 42.2891 22.9622 42.1191 23.3076C41.7387 24.0807 41.4963 25.2979 41.2754 26.6982C41.0632 28.0439 40.8727 29.5472 40.5693 30.7109C40.1177 32.4447 39.3577 34.5018 38.6826 36.4717C38.0391 38.3494 37.4709 40.1507 37.2412 41.6475L37.2002 41.9424C36.967 43.7901 38.236 45.3103 40.2871 46.6123C42.3083 47.8953 44.8181 48.7907 46.541 49.4521C47.0392 49.6433 47.7384 49.8729 48.5518 50.1416C49.3568 50.4075 50.2617 50.7073 51.1455 51.0303C52.0277 51.3527 52.9053 51.7046 53.6543 52.0771C54.3848 52.4405 55.0688 52.8592 55.498 53.3418C55.9711 53.8741 56.2589 54.4377 56.2686 55.0205C56.2785 55.6244 55.9885 56.1036 55.6133 56.4463C54.9073 57.0907 53.7667 57.3875 52.8604 57.459C50.7357 57.6268 48.398 57.4035 46.1875 57.2422C43.9395 57.0781 41.8144 56.9776 39.9717 57.333C39.0844 57.5041 39.0014 57.6311 38.9688 57.6709C38.9047 57.7484 38.8837 57.8017 38.7314 58.042C38.5997 58.2499 38.4222 58.4995 38.1357 58.7959C37.1067 59.8615 35.6557 60.1142 34.3203 60.0176C33.1447 59.9324 31.9633 59.5736 31.0156 59.1436L30.625 58.9551C30.0886 58.6822 29.2581 58.1584 28.5654 57.5293C28.2188 57.2145 27.8831 56.8521 27.6387 56.4609C27.3978 56.0754 27.206 55.5977 27.2559 55.0781C27.2851 54.7724 27.3802 54.5015 27.5488 54.2725C27.7134 54.0491 27.916 53.9094 28.0869 53.8154C28.2392 53.7318 28.4283 53.6544 28.5195 53.6133C28.6366 53.5605 28.7001 53.5237 28.7432 53.4893C29.8511 52.6039 30.6378 51.1366 31.2432 49.4277C31.8465 47.7244 32.231 45.9069 32.6152 44.3574C32.6697 44.1371 32.7236 43.9176 32.7783 43.6992C31.2316 45.5618 29.5336 46.5167 27.7666 46.7256C25.9711 46.9376 24.2167 46.3674 22.6211 45.4131C20.4997 44.1442 18.564 42.1372 17.0205 40.0996L17.0332 40.1797L17.0342 40.1807C17.1182 40.8475 17.127 41.5516 17.1318 42.208C17.1368 42.8809 17.137 43.5004 17.1934 44.0654C17.2664 44.797 17.4394 45.512 17.6338 46.248C17.8237 46.9672 18.042 47.7304 18.1689 48.4834C18.4325 50.0464 18.321 51.6666 16.9414 53.3203C15.8908 54.5799 14.866 55.1228 13.7402 55.3789C13.2015 55.5014 12.6497 55.5556 12.1035 55.6035C11.686 55.6401 11.2666 55.6732 10.8232 55.7266L10.3711 55.7881C8.92192 56.0055 7.43434 56.426 5.91602 56.8613C4.4168 57.2911 2.87956 57.7362 1.40234 57.9658L1.40332 57.9668C1.27635 57.987 1.06373 57.998 0.866211 57.9756C0.772565 57.9649 0.618326 57.9401 0.467773 57.8672C0.32281 57.7968 4.37629e-06 57.5805 0 57.1436V56.626L0.496094 56.4746C3.77118 55.476 7.13153 54.44 10.6035 53.917C11.2854 53.8145 11.8701 53.7829 12.3584 53.7539C12.8598 53.7241 13.2325 53.6979 13.5693 53.6191C14.1598 53.4809 14.727 53.1652 15.5156 52.0127C16.3888 50.7364 16.4121 49.6817 16.1777 48.5596C16.0534 47.9643 15.8635 47.3801 15.665 46.6953C15.4719 46.0287 15.2807 45.298 15.1982 44.5C15.1052 43.5996 15.0901 42.6627 15.0596 41.7783C15.0285 40.8787 14.9822 40.016 14.8359 39.1914C14.485 37.2084 13.4336 35.4651 12.2422 33.6152C11.0755 31.8038 9.76281 29.8762 9.12109 27.6553C8.82471 26.63 8.52553 24.9959 8.74316 23.623C8.85258 22.9331 9.10618 22.221 9.64746 21.71C9.88667 21.4842 10.1638 21.315 10.4746 21.2031C9.68984 19.9178 9.57238 18.3892 9.45117 17.1084C8.93579 11.6788 10.088 4.87779 15.7686 2.06737ZM37.6318 58.3096C37.5634 58.3805 37.4914 58.4461 37.418 58.5088C37.4362 58.4933 37.4557 58.4789 37.4736 58.4629L37.6318 58.3096ZM34.5625 43.292C33.9473 45.5735 33.4035 47.8244 33.0195 50.0322L33.0068 50.1045L32.9795 50.1729C32.6896 50.8933 32.3536 51.7429 31.9307 52.542C31.508 53.3406 30.9748 54.1363 30.2637 54.7393H30.2627C30.053 54.9167 29.8348 55.0432 29.6621 55.1367C29.4667 55.2425 29.3676 55.2886 29.2773 55.3486L29.2793 55.3535C29.3581 55.6131 29.628 55.9617 30.1611 56.3369C30.6759 56.6991 31.3538 57.0285 32.0898 57.2852C32.8241 57.5411 33.5905 57.7148 34.2715 57.7803C34.9707 57.8474 35.5043 57.7927 35.8213 57.6631C36.2794 57.4758 36.4221 57.2904 36.5342 57.1035C36.6405 56.9261 36.8599 56.4096 37.2617 56.0059C37.6016 55.6641 38.0716 55.4366 38.5625 55.2744C39.0637 55.1089 39.6499 54.9918 40.2783 54.9082C41.5355 54.741 43.0455 54.6966 44.5605 54.7031C46.0787 54.7097 47.6331 54.7676 48.9746 54.8096C50.3345 54.8521 51.4479 54.8767 52.1367 54.8262C52.3209 54.8126 52.5036 54.777 52.7109 54.7324C52.303 54.5119 51.8987 54.3298 51.7695 54.2725L51.7676 54.2715C50.5136 53.7114 49.1594 53.2557 47.7627 52.7979C46.3774 52.3437 44.9453 51.8862 43.5898 51.3311C41.8173 50.6048 39.4078 49.5416 37.5322 48.0391C36.0231 46.8299 34.7736 45.261 34.5625 43.292ZM54.1455 54.957C54.1541 54.9756 54.1604 54.9938 54.165 55.0117C54.1544 54.9702 54.1316 54.9283 54.1006 54.8838C54.1181 54.909 54.1343 54.9327 54.1455 54.957ZM16.7695 51.084C16.7119 51.2541 16.6425 51.4265 16.5596 51.6016L16.6748 51.3408C16.7097 51.2547 16.7407 51.1689 16.7695 51.084ZM31.7393 50.1006C31.7947 49.9553 31.8501 49.8095 31.9023 49.6621V49.6611C31.85 49.8088 31.7949 49.9551 31.7393 50.1006ZM37.0264 46.6436C37.078 46.6964 37.1323 46.7469 37.1855 46.7988C37.1089 46.724 37.0336 46.6486 36.96 46.5723L37.0264 46.6436ZM25.9004 1.73144C24.1754 1.49311 21.7908 1.78613 19.5195 2.51854C17.2398 3.25378 15.2048 4.38938 14.0928 5.72851C12.886 7.18125 11.9906 9.87883 11.6182 12.7549C11.246 15.6289 11.4231 18.4684 12.1738 20.1719L12.2363 20.2988C12.5767 20.9336 13.3502 21.5604 14.0801 21.8486H14.0811C15.4022 22.3716 16.38 21.9682 17.6143 21.4453C18.8324 20.9293 20.3065 20.2982 22.1924 21.1289L21.9277 22.4688L19.3906 22.5322C18.5928 22.7855 18.0911 23.1441 17.3301 23.5166C16.5621 23.8924 15.7035 24.1634 14.4844 23.9697C14.2874 23.9385 14.0985 23.8821 13.9229 23.8193C14.0994 24.5343 14.1948 25.2531 14.2617 25.9521C14.3792 27.1795 14.4135 28.2858 14.6182 29.3887C14.8246 30.5001 15.176 31.6694 15.6396 32.8438L16.4912 32.6631L15.834 33.3203C17.2314 36.6466 19.4969 39.9585 21.9062 42.0664C24.1166 44.0001 25.9104 44.6247 27.3525 44.5264C28.7893 44.4281 30.0553 43.5996 31.1855 42.2295C33.4729 39.4565 34.9325 34.7972 35.8662 31.1914L36.0137 30.5703C36.1512 29.9375 36.2664 29.2704 36.4062 28.5723C36.5826 27.6922 36.7957 26.7782 37.1436 25.9834C37.1448 25.9764 37.1478 25.9676 37.1494 25.957C37.158 25.9005 37.1678 25.8167 37.1787 25.7041C37.2005 25.48 37.2226 25.1716 37.2451 24.8018C37.29 24.0638 37.3334 23.1025 37.3701 22.1201C37.4256 20.6335 37.4645 19.1329 37.4727 18.29L37.4707 17.6914C37.3006 13.7108 36.5082 10.0015 34.7188 7.15526C32.9491 4.34096 30.1744 2.32061 25.9004 1.73144ZM36.5049 41.8545C36.4869 41.9971 36.4762 42.1379 36.4727 42.2764V42.4756C36.4696 42.3415 36.4739 42.2055 36.4844 42.0674L36.5049 41.8545ZM35.9229 33.6152C36.0074 33.3284 36.0899 33.045 36.168 32.7656L36.1738 32.7432C36.0938 33.0298 36.0097 33.3207 35.9229 33.6152ZM41.3789 16.7734C40.8316 16.8023 39.9516 17.4177 39.6963 18.6475C39.6119 19.054 39.6098 19.5204 39.6279 20.0625C39.6408 20.447 39.6652 20.8837 39.6582 21.3145L39.6387 21.7412C39.388 24.9711 38.7022 28.2743 37.8525 31.5781C38.1115 30.8133 38.3447 30.0715 38.5322 29.3623C38.8396 28.1984 38.9668 26.9769 39.1797 25.6699C39.3861 24.4032 39.6704 23.0873 40.3145 21.9365C40.488 21.6263 40.6863 21.3358 40.876 21.0664C41.072 20.788 41.2511 20.5433 41.4229 20.2832C41.7598 19.7729 42.0014 19.2975 42.0801 18.7598L42.1191 18.4316C42.1822 17.7094 42.0622 17.283 41.9248 17.0596C41.791 16.8422 41.6102 16.7614 41.3789 16.7734ZM40.2646 28.6602C40.1553 29.3335 40.0376 29.9744 39.8916 30.5342C40.033 29.9919 40.1484 29.3739 40.2549 28.7236L40.2646 28.6602ZM11.2393 23.3105C11.2195 23.3387 11.1929 23.3836 11.1631 23.4541C11.0777 23.6562 11.0135 23.9535 10.9775 24.3193C10.9064 25.043 10.9589 25.8527 10.999 26.2607C11.0375 26.6482 11.1905 27.1553 11.4453 27.7559C11.639 28.2122 11.8819 28.6992 12.1514 29.1973C12.1422 29.133 12.1326 29.069 12.125 29.0049C12.0789 28.6158 12.0584 28.0862 12.0361 27.5381C12.0133 26.9755 11.9875 26.3671 11.9355 25.7764C11.8833 25.1827 11.8058 24.6332 11.6865 24.1865C11.5618 23.7198 11.4176 23.4692 11.3037 23.3643C11.2802 23.3428 11.2584 23.3251 11.2393 23.3105ZM10.1963 28.6162C10.2476 28.7418 10.3014 28.8663 10.3564 28.9902L10.1973 28.6162C10.1459 28.4904 10.0961 28.3639 10.0488 28.2363L10.1963 28.6162ZM41.4902 22.998C41.478 23.0229 41.4669 23.0486 41.4551 23.0742L41.4902 22.998C41.5344 22.9082 41.5808 22.8192 41.6279 22.7314L41.4902 22.998ZM10.2871 18.3418C10.2999 18.435 10.3143 18.5277 10.3291 18.6201C10.3089 18.4932 10.2911 18.3655 10.2744 18.2373L10.2871 18.3418ZM39.0098 18.5049C39.0038 18.5336 38.9993 18.5627 38.9941 18.5918L39.0098 18.5049C39.0288 18.4136 39.0513 18.3243 39.0762 18.2373L39.0098 18.5049Z" fill="black"/>
</g>
<defs>
<clipPath id="clip0_2001_75">
<rect width="57" height="61" fill="white"/>
</clipPath>
</defs>
</svg>
