<svg width="206" height="44" viewBox="0 0 206 44" fill="none" xmlns="http://www.w3.org/2000/svg">
<path d="M5.26172 23.3984C4.48047 23.3984 3.64453 23.3516 2.75391 23.2578L2.92969 22.1562C3.8125 22.25 4.66016 22.2969 5.47266 22.2969C7.01953 22.2969 7.79297 21.418 7.79297 19.6602C7.79297 17.9336 7.05078 17.0703 5.56641 17.0703H2.75391V15.8984H5.67188C7.05469 15.8984 8.11719 16.2031 8.85938 16.8125C9.60156 17.4141 9.97266 18.2773 9.97266 19.4023C9.97266 20.6211 9.54688 21.5938 8.69531 22.3203C7.85156 23.0391 6.70703 23.3984 5.26172 23.3984ZM1.99219 27.3242V16.0625H3.96094V27.3242H1.99219ZM0.679688 27.5L0.738281 26.75C1.14453 26.5859 1.64062 26.4336 2.22656 26.293L1.99219 27.1719V25.5312H3.96094V27.1719L3.70312 26.3867L5.67188 26.7266L5.61328 27.5H0.679688ZM5.27344 15.8984L5.21484 16.6484C4.80859 16.8125 4.3125 16.9648 3.72656 17.1055L3.96094 16.2266V17.8672H1.99219V16.2266L2.19141 17.0117L0.632812 16.6719L0.691406 15.8984H5.27344ZM15.8667 27.6875C14.4527 27.6875 13.3628 27.3047 12.5972 26.5391C11.8316 25.7734 11.4487 24.6797 11.4487 23.2578C11.4487 21.8125 11.8237 20.668 12.5737 19.8242C13.3237 18.9727 14.3355 18.5469 15.6089 18.5469C16.7495 18.5469 17.6284 18.9062 18.2456 19.625C18.8628 20.3359 19.1714 21.3594 19.1714 22.6953C19.1714 22.8125 19.1675 22.9297 19.1597 23.0469C19.1519 23.1641 19.1402 23.2773 19.1245 23.3867L17.1558 23.0117C17.1558 21.8164 17.0112 20.9531 16.7222 20.4219C16.4409 19.8906 15.98 19.625 15.3394 19.625C14.0894 19.625 13.4644 20.6133 13.4644 22.5898C13.4644 25.082 14.4605 26.3281 16.4527 26.3281C17.2339 26.3281 18.0503 26.168 18.9019 25.8477L18.8198 26.9492C18.4527 27.1836 18.0112 27.3672 17.4956 27.5C16.9878 27.625 16.4448 27.6875 15.8667 27.6875ZM12.2105 23.3867V22.4258H18.937L19.1245 23.3867H12.2105ZM22.2412 27.4297V19.9297L24.1162 20.5273V27.4297H22.2412ZM21.0459 27.5L21.1045 26.7969C21.3311 26.6875 21.5577 26.5977 21.7842 26.5273C22.0108 26.457 22.2373 26.3945 22.4639 26.3398L22.2412 27.1953V25.6016H24.1162V27.1953L23.9287 26.4453L25.8272 26.7734L25.7686 27.5H21.0459ZM23.7412 21.6406L23.5069 21.1719C23.9209 20.2734 24.3623 19.6289 24.8311 19.2383C25.2998 18.8398 25.8428 18.6406 26.46 18.6406C26.5616 18.6406 26.667 18.6445 26.7764 18.6523C26.8936 18.6602 26.9952 18.6797 27.0811 18.7109L26.9522 20.3281C26.8272 20.3125 26.6905 20.3008 26.542 20.293C26.3936 20.2773 26.2608 20.2695 26.1436 20.2695C25.6202 20.2695 25.167 20.3789 24.7842 20.5977C24.4092 20.8086 24.0616 21.1562 23.7412 21.6406ZM22.2412 21.5352V20.0352L22.5225 20.5508L20.9053 19.7773L20.9522 19.2852C21.2959 19.1289 21.6944 18.9961 22.1475 18.8867C22.6006 18.7773 23.085 18.6992 23.6006 18.6523L24.0459 20.5156L22.2412 21.5352ZM28.897 31.5078L28.2994 31.0156L28.6392 30.6055C28.983 30.168 29.2252 29.6367 29.3658 29.0117C29.5064 28.3945 29.5767 27.6172 29.5767 26.6797V19.5547H31.4517V26.2695C31.4517 27.418 31.3697 28.293 31.2056 28.8945C31.0416 29.4883 30.7681 30.0078 30.3853 30.4531C30.0103 30.8984 29.5142 31.25 28.897 31.5078ZM29.5767 21.5352V20.0352L29.858 20.5508L28.2408 19.7773L28.2877 19.2852C28.6314 19.1289 29.0298 18.9961 29.483 18.8867C29.9361 18.7773 30.4205 18.6992 30.9361 18.6523H31.4517V20.5156L29.5767 21.5352ZM30.3384 17.1406C29.9556 17.1406 29.6509 17.0312 29.4244 16.8125C29.2056 16.5938 29.0963 16.2969 29.0963 15.9219C29.0963 15.5469 29.2056 15.25 29.4244 15.0312C29.6509 14.8125 29.9556 14.7031 30.3384 14.7031C30.7213 14.7031 31.022 14.8125 31.2408 15.0312C31.4673 15.25 31.5806 15.5469 31.5806 15.9219C31.5806 16.2969 31.4673 16.5938 31.2408 16.8125C31.022 17.0312 30.7213 17.1406 30.3384 17.1406ZM38.8809 26.2344C38.8809 25.5859 38.8887 24.9258 38.9044 24.2539C38.92 23.5742 38.9278 22.9375 38.9278 22.3438V21.3125C38.9278 20.2031 38.3887 19.6484 37.3106 19.6484C36.5997 19.6484 35.9434 19.875 35.3419 20.3281L34.5919 21.2773C34.5684 20.6055 34.6075 19.9922 34.7091 19.4375C35.7559 18.8516 36.8614 18.5586 38.0255 18.5586C39.8614 18.5586 40.7794 19.4336 40.7794 21.1836C40.7794 21.4023 40.7755 21.7305 40.7677 22.168C40.7598 22.5977 40.752 23.0625 40.7442 23.5625C40.7364 24.0547 40.7286 24.5195 40.7208 24.957C40.713 25.3867 40.7091 25.7188 40.7091 25.9531L38.8809 26.2344ZM34.5919 21.2773L34.7559 19.9414L36.5489 19.2617L35.588 21.2773H34.5919ZM36.4786 27.6758C35.7364 27.6758 35.1466 27.4648 34.7091 27.043C34.2716 26.6133 34.0528 26.0391 34.0528 25.3203C34.0528 23.7656 35.1817 22.75 37.4395 22.2734L39.3497 21.875L39.4669 22.8828L37.7911 23.0938C37.1505 23.1719 36.6856 23.3477 36.3966 23.6211C36.1075 23.8867 35.963 24.2852 35.963 24.8164C35.963 25.8477 36.4083 26.3633 37.2989 26.3633C37.9239 26.3633 38.6505 26.0703 39.4786 25.4844L39.6895 25.9062C38.7442 27.0859 37.6739 27.6758 36.4786 27.6758ZM39.3497 27.5352L38.9512 26.0117L40.7091 25.5078V26.7852L40.4512 26.3164L41.8809 26.7266L41.8223 27.4062C41.1817 27.5078 40.3575 27.5508 39.3497 27.5352ZM44.8688 27.4297V15.3828L46.7438 15.7227V27.4297H44.8688ZM43.5328 27.5L43.5914 26.7969C43.8023 26.7109 44.0289 26.6328 44.2711 26.5625C44.5211 26.4844 44.7945 26.4102 45.0914 26.3398L44.8688 27.207V25.6016H46.7438V27.207L46.5563 26.4336L48.1266 26.7734L48.068 27.5H43.5328ZM44.8688 17.0234V15.5586L45.0445 15.9688L43.4625 15.3477L43.5094 14.8789C44.2438 14.6133 45.0875 14.4609 46.0406 14.4219H46.7438V16.4375L44.8688 17.0234ZM54.63 26.2344C54.63 25.5859 54.6378 24.9258 54.6534 24.2539C54.6691 23.5742 54.6769 22.9375 54.6769 22.3438V21.3125C54.6769 20.2031 54.1378 19.6484 53.0597 19.6484C52.3488 19.6484 51.6925 19.875 51.0909 20.3281L50.3409 21.2773C50.3175 20.6055 50.3566 19.9922 50.4581 19.4375C51.505 18.8516 52.6105 18.5586 53.7745 18.5586C55.6105 18.5586 56.5284 19.4336 56.5284 21.1836C56.5284 21.4023 56.5245 21.7305 56.5167 22.168C56.5089 22.5977 56.5011 23.0625 56.4933 23.5625C56.4855 24.0547 56.4777 24.5195 56.4698 24.957C56.462 25.3867 56.4581 25.7188 56.4581 25.9531L54.63 26.2344ZM50.3409 21.2773L50.505 19.9414L52.298 19.2617L51.337 21.2773H50.3409ZM52.2277 27.6758C51.4855 27.6758 50.8956 27.4648 50.4581 27.043C50.0206 26.6133 49.8019 26.0391 49.8019 25.3203C49.8019 23.7656 50.9308 22.75 53.1886 22.2734L55.0988 21.875L55.2159 22.8828L53.5402 23.0938C52.8995 23.1719 52.4347 23.3477 52.1456 23.6211C51.8566 23.8867 51.712 24.2852 51.712 24.8164C51.712 25.8477 52.1573 26.3633 53.048 26.3633C53.673 26.3633 54.3995 26.0703 55.2277 25.4844L55.4386 25.9062C54.4933 27.0859 53.423 27.6758 52.2277 27.6758ZM55.0988 27.5352L54.7003 26.0117L56.4581 25.5078V26.7852L56.2003 26.3164L57.63 26.7266L57.5714 27.4062C56.9308 27.5078 56.1066 27.5508 55.0988 27.5352ZM65.8678 27.4297V21.5234C65.8678 20.4531 65.3522 19.918 64.3209 19.918C63.5084 19.918 62.6881 20.2461 61.86 20.9023L61.6256 20.3164C62.1022 19.7539 62.6491 19.3203 63.2663 19.0156C63.8834 18.7109 64.5319 18.5586 65.2116 18.5586C66.0241 18.5586 66.6491 18.7852 67.0866 19.2383C67.5241 19.6836 67.7428 20.3242 67.7428 21.1602V27.4297H65.8678ZM60.5709 27.4297V19.6016L62.4459 20.0938V27.4297H60.5709ZM59.3756 27.5L59.4342 26.7969C59.6608 26.6875 59.8873 26.5977 60.1139 26.5273C60.3405 26.457 60.567 26.3945 60.7936 26.3398L60.5709 27.207V25.6016H62.4459V27.207L62.2584 26.4336L63.6881 26.7734L63.6295 27.5H59.3756ZM64.8834 27.5L64.942 26.75C65.1061 26.6641 65.2819 26.5898 65.4694 26.5273C65.6569 26.457 65.8639 26.3945 66.0905 26.3398L65.8678 27.207V25.6016H67.7428V27.207L67.5553 26.4336L68.985 26.7734L68.9264 27.5H64.8834ZM60.5709 21.5352V20.0352L60.8522 20.5508L59.235 19.7773L59.2819 19.2852C59.6256 19.1289 60.0241 18.9961 60.4772 18.8867C60.9303 18.7773 61.4147 18.6992 61.9303 18.6523L62.3756 20.5156L60.5709 21.5352ZM75.4416 26.2344C75.4416 25.5859 75.4494 24.9258 75.465 24.2539C75.4806 23.5742 75.4884 22.9375 75.4884 22.3438V21.3125C75.4884 20.2031 74.9494 19.6484 73.8712 19.6484C73.1603 19.6484 72.5041 19.875 71.9025 20.3281L71.1525 21.2773C71.1291 20.6055 71.1681 19.9922 71.2697 19.4375C72.3166 18.8516 73.422 18.5586 74.5861 18.5586C76.422 18.5586 77.34 19.4336 77.34 21.1836C77.34 21.4023 77.3361 21.7305 77.3283 22.168C77.3205 22.5977 77.3127 23.0625 77.3048 23.5625C77.297 24.0547 77.2892 24.5195 77.2814 24.957C77.2736 25.3867 77.2697 25.7188 77.2697 25.9531L75.4416 26.2344ZM71.1525 21.2773L71.3166 19.9414L73.1095 19.2617L72.1486 21.2773H71.1525ZM73.0392 27.6758C72.297 27.6758 71.7072 27.4648 71.2697 27.043C70.8322 26.6133 70.6134 26.0391 70.6134 25.3203C70.6134 23.7656 71.7423 22.75 74.0002 22.2734L75.9103 21.875L76.0275 22.8828L74.3517 23.0938C73.7111 23.1719 73.2462 23.3477 72.9572 23.6211C72.6681 23.8867 72.5236 24.2852 72.5236 24.8164C72.5236 25.8477 72.9689 26.3633 73.8595 26.3633C74.4845 26.3633 75.2111 26.0703 76.0392 25.4844L76.2502 25.9062C75.3048 27.0859 74.2345 27.6758 73.0392 27.6758ZM75.9103 27.5352L75.5119 26.0117L77.2697 25.5078V26.7852L77.0119 26.3164L78.4416 26.7266L78.383 27.4062C77.7423 27.5078 76.9181 27.5508 75.9103 27.5352ZM86.6794 27.4297V21.5234C86.6794 20.4531 86.1637 19.918 85.1325 19.918C84.32 19.918 83.4997 20.2461 82.6716 20.9023L82.4372 20.3164C82.9137 19.7539 83.4606 19.3203 84.0778 19.0156C84.695 18.7109 85.3434 18.5586 86.0231 18.5586C86.8356 18.5586 87.4606 18.7852 87.8981 19.2383C88.3356 19.6836 88.5544 20.3242 88.5544 21.1602V27.4297H86.6794ZM81.3825 27.4297V19.6016L83.2575 20.0938V27.4297H81.3825ZM80.1872 27.5L80.2458 26.7969C80.4723 26.6875 80.6989 26.5977 80.9255 26.5273C81.152 26.457 81.3786 26.3945 81.6052 26.3398L81.3825 27.207V25.6016H83.2575V27.207L83.07 26.4336L84.4997 26.7734L84.4411 27.5H80.1872ZM85.695 27.5L85.7536 26.75C85.9177 26.6641 86.0934 26.5898 86.2809 26.5273C86.4684 26.457 86.6755 26.3945 86.902 26.3398L86.6794 27.207V25.6016H88.5544V27.207L88.3669 26.4336L89.7966 26.7734L89.738 27.5H85.695ZM81.3825 21.5352V20.0352L81.6637 20.5508L80.0466 19.7773L80.0934 19.2852C80.4372 19.1289 80.8356 18.9961 81.2887 18.8867C81.7419 18.7773 82.2262 18.6992 82.7419 18.6523L83.1872 20.5156L81.3825 21.5352Z" fill="#585858"/>
<g clip-path="url(#clip0_1853_9444)">
<path d="M121.905 19.7565L121.215 23.0019C122.408 22.9654 123.519 22.9329 124.521 22.9086L125.211 19.6713C124.221 19.6875 123.106 19.72 121.905 19.7565ZM132.57 12.2433H126.043C124.294 12.2433 123.365 12.868 122.943 14.8721L122.185 18.4583C123.398 18.4218 124.513 18.3934 125.491 18.369L125.97 16.1256C126.193 15.1236 126.497 14.8761 127.499 14.8761H131.122C133.974 14.8761 134.85 16.1987 134.85 18.2271C134.85 19.0546 134.7 19.9755 134.473 21.0019C133.751 24.5029 132.521 27.1277 128.521 27.1277H124.895C124.12 27.1277 123.82 26.9776 123.82 26.4542C123.82 26.3041 123.848 26.1013 123.897 25.8782L124.254 24.2108C123.248 24.2392 122.136 24.2717 120.947 24.3082L120.347 27.1317C120.294 27.4035 120.246 27.6835 120.246 27.9066C120.246 29.1561 121.073 29.7565 122.319 29.7565H129.548C135.296 29.7565 136.976 25.7565 137.872 21.2534C138.096 20.154 138.25 19.0303 138.25 17.9512C138.25 14.8761 136.976 12.2514 132.574 12.2514L132.57 12.2433Z" fill="#0080C6"/>
<path d="M142.696 29.7484C139.569 29.7484 138.469 28.2961 138.469 25.8458C138.469 24.9695 138.619 23.9715 138.842 22.8437C139.966 17.5942 141.942 16.3407 146.445 16.3407C149.694 16.3407 152.12 17.2656 152.12 20.292C152.12 20.7667 152.096 21.2656 151.97 21.8417C151.67 23.3427 150.871 24.0932 149.37 24.0932H141.666C141.54 24.6693 141.492 25.1683 141.492 25.6186C141.492 26.7707 141.991 27.4928 143.792 27.4928H150.27L149.796 29.7444H142.692L142.696 29.7484ZM148.226 21.8458C148.802 21.8458 149.001 21.4441 149.049 21.0709C149.074 20.8721 149.098 20.6206 149.098 20.4462C149.098 19.0709 147.771 18.5963 146.222 18.5963C143.723 18.5963 142.619 19.5983 142.145 21.8458H148.222H148.226Z" fill="#0080C6"/>
<path d="M151.398 29.7484L155.122 12.2433H158.047L154.323 29.7484H151.398ZM160.676 29.7484L157.199 24.9451C156.948 24.5962 156.623 24.0932 156.623 23.4198C156.623 22.4461 157.025 21.793 157.974 20.8924L162.7 16.4908H166.351L160.226 22.0932C159.877 22.4177 159.576 22.7666 159.576 23.2169C159.576 23.5658 159.751 23.8903 159.978 24.2189L164.177 29.7443H160.676V29.7484Z" fill="#0080C6"/>
<path d="M174.781 16.4949C176.858 16.4949 177.783 17.8214 177.783 19.4198C177.783 19.7444 177.759 20.0689 177.682 20.3935L176.156 27.4969C175.832 28.9736 175.183 29.7484 173.43 29.7484H167.004C165.179 29.7484 164.229 28.6734 164.229 26.7991C164.229 26.3732 164.229 25.8742 164.331 25.3752C164.883 22.8762 166.006 21.501 168.509 21.501H174.509L174.708 20.649C174.757 20.4259 174.781 20.2231 174.781 20.0486C174.781 19.1967 174.282 18.7464 173.256 18.7464H166.777L167.252 16.4949H174.777H174.781ZM169.154 23.7484C168.152 23.7484 167.653 24.2231 167.353 25.5253C167.28 25.8255 167.227 26.1744 167.227 26.4016C167.227 27.1277 167.576 27.501 168.351 27.501H172.477C172.976 27.501 173.305 27.2494 173.402 26.7505L174.027 23.7484H169.15H169.154Z" fill="#0080C6"/>
<path d="M189.73 27.4968C189.406 29.0222 188.757 29.7484 187.004 29.7484H182.627C179.325 29.7484 178.075 27.9999 178.075 25.3467C178.075 24.5719 178.201 23.7443 178.375 22.8477C179.227 18.5962 180.7 16.4948 185.203 16.4948H189.154L190.055 12.2433H192.98L189.73 27.4968ZM185.455 18.7463C182.627 18.7463 181.929 20.5962 181.402 23.0993C181.227 23.8985 181.102 24.649 181.102 25.2981C181.102 26.649 181.678 27.4968 183.576 27.4968H186.051C186.55 27.4968 186.878 27.2453 186.976 26.7463L188.676 18.7423H185.45L185.455 18.7463Z" fill="#0080C6"/>
<path d="M195.885 29.7484C192.757 29.7484 191.658 28.2961 191.658 25.8458C191.658 24.9695 191.808 23.9715 192.031 22.8437C193.155 17.5942 195.13 16.3407 199.633 16.3407C202.883 16.3407 205.309 17.2656 205.309 20.292C205.309 20.7667 205.284 21.2656 205.159 21.8417C204.859 23.3427 204.059 24.0932 202.558 24.0932H194.854C194.729 24.6693 194.68 25.1683 194.68 25.6186C194.68 26.7707 195.179 27.4928 196.98 27.4928H203.459L202.984 29.7444H195.881L195.885 29.7484ZM201.41 21.8458C201.986 21.8458 202.185 21.4441 202.234 21.0709C202.258 20.8721 202.282 20.6206 202.282 20.4462C202.282 19.0709 200.956 18.5963 199.406 18.5963C196.907 18.5963 195.804 19.5983 195.329 21.8458H201.406H201.41Z" fill="#0080C6"/>
<path d="M118.786 5.71192C118.222 7.78494 117.427 10.5152 116.685 13.0547C116.04 15.2576 115.354 17.6064 114.685 19.9716L118.068 19.8701C118.648 17.8458 119.232 15.8498 119.78 13.9594C120.762 10.6044 121.447 8.22308 121.914 6.503C122.324 3.61862 119.443 5.12369 118.786 5.71192Z" fill="#231F20"/>
<path d="M118.786 5.71192C118.222 7.78494 117.427 10.5152 116.685 13.0547C116.04 15.2576 115.354 17.6064 114.685 19.9716L118.068 19.8701C118.648 17.8458 119.232 15.8498 119.78 13.9594C120.762 10.6044 121.447 8.22308 121.914 6.503C122.324 3.61862 119.443 5.12369 118.786 5.71192Z" fill="#0080C6"/>
<path d="M117.147 23.1318L113.232 25.2089C112.806 26.7911 112.405 28.3408 112.043 29.8215H115.366C115.897 27.6957 116.506 25.4239 117.151 23.1318H117.147Z" fill="#0080C6"/>
<path d="M117.146 23.1318L113.231 25.2089L113.244 25.1562L113.767 23.2251L117.146 23.1318Z" fill="#005AA1"/>
<path d="M127.118 24.9371L127.159 22.8641C126.416 22.8641 125.528 22.8804 124.53 22.9047C123.528 22.929 122.412 22.9615 121.224 22.998C120.623 23.0142 120.007 23.0345 119.37 23.0548C118.639 23.0791 117.897 23.1035 117.151 23.1238L113.771 23.2211C108.85 23.3509 104.124 23.4118 101.325 23.1887C99.9376 23.0751 99.39 22.2718 99.1912 21.8012C98.5745 20.3692 99.605 18.7952 100.692 17.4442C103.362 14.1339 108.875 9.47264 111.925 6.98988C120.015 0.401643 120.712 0.535517 121.386 0.665334C121.844 0.754584 122.25 1.03856 122.497 1.44424C122.895 2.09738 122.996 2.5274 121.913 6.50712C122.323 3.62274 119.443 5.12781 118.785 5.71605C116.859 7.15621 114.177 9.26574 111.366 11.6511C106.209 16.0325 103.731 18.6897 102.749 20.0487C105.719 20.1826 110.25 20.1014 114.684 19.9757L118.067 19.8743H118.096C118.489 19.8621 118.883 19.8499 119.264 19.8378C120.177 19.8094 121.065 19.781 121.905 19.7566C123.11 19.7201 124.222 19.6917 125.211 19.6714C125.954 19.6552 126.627 19.643 127.216 19.643L127.256 17.5375L133.593 21.3631L127.11 24.9371H127.118Z" fill="#F47920"/>
</g>
<defs>
<clipPath id="clip0_1853_9444">
<rect width="106.312" height="44" fill="white" transform="translate(99)"/>
</clipPath>
</defs>
</svg>
